<svg width="123" height="38" viewBox="0 0 123 38" fill="none" xmlns="http://www.w3.org/2000/svg">
<path d="M72.2812 0C72.3984 0.269531 72.6035 0.767578 72.8965 1.49414C73.1895 2.20898 73.4473 2.81836 73.6699 3.32227C74.2207 4.86914 74.4961 5.73047 74.4961 5.90625V5.95898C74.4727 6.00586 74.4492 6.04102 74.4258 6.06445C74.2383 6.0293 73.8457 5.63672 73.248 4.88672C73.2012 4.85156 73.166 4.82812 73.1426 4.81641C74.0918 11.25 74.5664 15.9258 74.5664 18.8438C74.5547 20.0977 74.2852 21.6562 73.7578 23.5195C75.457 21.4102 77.1328 19.7695 78.7852 18.5977C79.582 18.0586 80.3965 17.7891 81.2285 17.7891C82.5059 17.7891 83.5254 18.2871 84.2871 19.2832C84.6855 19.8223 84.8906 20.373 84.9023 20.9355C84.9023 21.9199 84.6504 22.7637 84.1465 23.4668C83.6777 24.041 82.834 24.6211 81.6152 25.207C81.9199 25.1602 83.1387 24.8496 85.2715 24.2754H85.3066C85.4923 24.2986 85.62 24.389 85.6934 24.5449C88.0179 23.5091 89.4423 22.7598 89.9648 22.293C89.9882 22.2696 90.0237 22.2579 90.0703 22.2578C90.0938 22.2578 90.0938 22.2871 90.0703 22.3457V22.3809L90.1406 22.2578C89.8477 22.8437 89.7012 23.336 89.7012 23.7344C89.8652 24.5077 90.3636 24.9413 91.1953 25.0352C91.6639 25.0234 92.1329 24.8768 92.6016 24.5957C92.9883 24.3731 93.6388 23.6932 94.5527 22.5566C94.8923 22.1351 95.1034 21.9712 95.1855 22.0645C95.1504 22.1465 95.0976 22.3049 95.0273 22.5391V22.6445C95.0625 23.6287 95.4847 24.162 96.293 24.2441H96.4688C97.1366 24.2324 97.752 24.0155 98.3145 23.5938C98.209 23.2071 97.9335 22.7734 97.4883 22.293L98.0156 20.0781C98.625 20.7695 98.9414 21.625 98.9648 22.6445C98.9414 23.1601 98.8828 23.6172 98.7891 24.0156C98.5664 24.9414 98.1093 25.6153 97.418 26.0371C97.0665 26.2479 96.6854 26.3594 96.2754 26.3711C95.4085 26.371 94.8281 26.0311 94.5352 25.3516C94.418 25.0821 94.3477 24.8066 94.3242 24.5254V24.2793C94.2304 24.3732 94.0662 24.596 93.832 24.9473C92.9649 26.2245 92.039 26.9277 91.0547 27.0566C90.0471 27.1971 89.3964 26.8339 89.1035 25.9668C88.9747 25.5801 88.9395 25.1288 88.998 24.6133C88.9146 24.7311 87.6547 25.3933 85.2188 26.5996C85.0314 26.6933 84.8378 26.7696 84.6387 26.8281H84.6035C84.4632 26.7812 84.3867 26.6639 84.375 26.4766C84.3749 26.4733 84.375 26.47 84.375 26.4668C81.5231 27.225 78.2011 27.7029 74.4082 27.8965C73.3418 27.9551 72.4102 28.0723 71.6133 28.248C71.3731 28.2975 71.1353 28.3426 70.9004 28.3867C70.9279 28.631 70.9436 28.8822 70.9453 29.1406C70.9453 29.7617 70.834 30.4062 70.6113 31.0742C70.3417 31.7891 69.4979 32.7794 68.0801 34.0449C65.9708 35.9198 64.0956 37.1035 62.4551 37.5957C61.9396 37.748 61.3944 37.8242 60.8203 37.8242C58.9573 37.8241 57.6445 37.1151 56.8828 35.6973C56.4376 34.8653 56.2207 33.828 56.2324 32.5859C56.2324 31.3555 56.5079 30.0546 57.0586 28.6836C57.1054 28.5665 57.1641 28.4374 57.2344 28.2969C57.328 28.133 57.4043 28.0804 57.4629 28.1387C57.4746 28.1504 57.4863 28.1856 57.498 28.2441C57.498 28.4082 57.416 28.7598 57.252 29.2988C57.041 30.0019 56.918 30.6524 56.8828 31.25V31.5137C56.8828 33.0604 57.3283 34.1679 58.2188 34.8359C58.8983 35.3515 59.7717 35.6093 60.8379 35.6094C62.8652 35.6094 65.3321 34.367 68.2383 31.8828C69.2108 31.0509 69.9258 30.2949 70.3828 29.6152C70.2849 29.3134 70.1139 28.9647 69.874 28.5664C69.7231 28.5905 69.5734 28.613 69.4248 28.6348C69.3899 28.7063 69.3469 28.7642 69.293 28.8066C68.4143 29.0175 67.6874 29.123 67.1133 29.123C66.5627 29.123 66.1464 29.0292 65.8652 28.8418C65.3732 28.42 65.1211 27.8749 65.1094 27.207V26.9609C65.1797 26.3751 65.3321 25.8769 65.5664 25.4668C66.0936 24.5529 66.7443 24.0959 67.5176 24.0957C68.0214 24.0957 68.5313 24.3244 69.0469 24.7812C69.614 25.2848 70.0532 25.8584 70.3662 26.501C70.6789 26.441 71.1945 26.3396 71.9121 26.1914C72.7441 24.9609 73.2012 24.2871 73.2832 24.1699V24.0117L73.3184 22.0957C73.3184 21.041 73.2598 19.623 73.1426 17.8418C73.0254 16.0488 72.7559 13.3594 72.334 9.77344C71.9121 6.1875 71.6426 3.82031 71.5254 2.67188L71.2793 2.0918L72.2812 0ZM94.9922 27.7949C95.1094 28.0293 95.1445 28.3047 95.0977 28.6211C94.8867 29.4062 94.5117 29.8105 93.9727 29.834C93.6331 29.8455 93.4453 29.5935 93.4102 29.0781L93.0938 29.5176C92.836 29.8338 92.625 30.0098 92.4609 30.0449C92.297 30.0682 92.0974 30.0096 91.8633 29.8691C91.7462 29.799 91.617 29.7695 91.4766 29.7812C91.1017 29.7932 90.6678 30.0627 90.1758 30.5898C89.086 31.7733 87.7792 32.4766 86.2559 32.6992C87.5916 32.1602 88.6055 31.6034 89.2969 31.0293C89.7538 30.6426 90.2169 30.203 90.6855 29.7109C91.2947 29.0783 91.7696 28.8734 92.1094 29.0957C92.367 29.2596 92.5841 29.3123 92.7598 29.2539C92.9355 29.1953 93.1642 29.0018 93.4453 28.6738C93.6558 28.44 93.7967 28.3228 93.8672 28.3223C93.8554 28.3692 93.8144 28.4513 93.7441 28.5684C93.8027 28.9432 94.0081 29.1072 94.3594 29.0605C94.4765 29.0488 94.6174 29.0077 94.7812 28.9375C94.7812 28.832 94.7578 28.7324 94.7109 28.6387L94.9922 27.7949ZM48.252 15.1484C48.2402 15.1953 48.1758 15.6523 48.0586 16.5195C47.8477 17.293 47.2793 18.248 46.3535 19.3848C46.6699 20.2871 47.1328 21.9688 47.7422 24.4297C48.3984 27.043 49.6172 28.3965 51.3984 28.4902C51.5824 28.4994 51.6964 28.6568 51.7432 28.9619C52.7709 28.8761 53.5701 28.544 54.1406 27.9629C54.2461 27.8457 54.3281 27.7285 54.3867 27.6113C54.1758 26.8027 53.7129 25.9648 52.998 25.0977L53.4375 22.8125C54.4336 24.2422 54.9434 25.5488 54.9668 26.7324V26.8906C54.9199 27.9922 54.6621 28.8945 54.1934 29.5977C53.5371 30.4648 52.3887 30.957 50.748 31.0742C50.5371 31.0039 50.4199 30.8281 50.3965 30.5469C50.3965 30.542 50.3965 30.5371 50.3965 30.5322C48.7203 30.269 47.519 28.4113 46.793 24.957C46.6289 25.707 46.4062 26.3457 46.125 26.873C45.6328 27.5527 44.6602 28.1387 43.207 28.6309C42.6562 28.8066 42.252 28.8945 41.9941 28.8945C41.1973 28.8594 40.793 28.2676 40.7812 27.1191V26.8379C40.8633 25.4316 41.3613 24.1016 42.2754 22.8477C42.6621 22.3086 43.582 21.2012 45.0352 19.5254C44.6836 18.834 44.291 18.1367 43.8574 17.4336L44.5078 15.1484L44.543 15.2188L44.5781 15.1836C44.625 15.3594 44.7363 15.6172 44.9121 15.957C45.0996 16.2969 45.4512 17.1055 45.9668 18.3828C47.1973 16.9062 47.9355 15.8516 48.1816 15.2188C48.2051 15.1602 48.2227 15.125 48.2344 15.1133L48.252 15.1484ZM17.543 1.15625C18.5859 4.94141 19.2832 9.85742 19.6348 15.9043C19.8574 20.0059 20.0625 22.7949 20.25 24.2715C20.5664 26.873 21.5449 28.1973 23.1855 28.2441C23.3613 28.2793 23.4609 28.4141 23.4844 28.6484C23.4844 28.7434 23.4785 28.8345 23.4697 28.9219C24.0496 28.8574 24.6465 28.6738 25.2598 28.3672C24.8145 27.4414 24.5859 26.7441 24.5742 26.2754C24.5859 25.4082 24.8789 24.5176 25.4531 23.6035C26.0273 22.6895 26.7539 22.1035 27.6328 21.8457C27.8203 21.7871 27.9961 21.7578 28.1602 21.7578C28.6875 21.793 29.0625 22.0566 29.2852 22.5488C29.5078 23.1582 29.6191 23.7734 29.6191 24.3945C29.6074 25.8477 29.0684 27.1191 28.002 28.209C28.7019 28.6089 29.5125 28.8222 30.4336 28.8535C30.4436 28.844 30.4527 28.8336 30.4629 28.8242C30.6035 28.7188 30.7324 28.6602 30.8496 28.6484C32.0332 28.6133 32.9414 28.2734 33.5742 27.6289C33.6797 27.5117 33.7617 27.3945 33.8203 27.2773C33.6094 26.4688 33.1523 25.6309 32.4492 24.7637L32.8887 22.4961C33.8848 23.9258 34.3887 25.2266 34.4004 26.3984V26.5742C34.3535 27.6758 34.1016 28.5723 33.6445 29.2637C33.0542 30.0438 32.0606 30.5192 30.6641 30.6924C30.6283 30.7266 30.591 30.7606 30.5508 30.793C30.4219 30.8867 30.293 30.9395 30.1641 30.9512C28.8516 30.8926 27.6445 30.4473 26.543 29.6152C25.1836 30.5176 23.8418 30.9863 22.5176 31.0215C22.1895 30.998 22.0137 30.8105 21.9902 30.459C21.9902 30.392 21.9934 30.3266 22 30.2627C21.0046 30.0766 20.2804 29.4226 19.8281 28.2969C19.4062 27.2422 19.002 23.75 18.6152 17.8203C18.1699 11.0586 17.5371 6.30664 16.7168 3.56445C16.8574 3.14258 17.0156 2.67383 17.1914 2.1582C17.3789 1.63086 17.4961 1.29688 17.543 1.15625ZM7.4707 15.1484C7.45898 15.1953 7.39453 15.6523 7.27734 16.5195C7.06641 17.293 6.49805 18.248 5.57227 19.3848C5.88867 20.2871 6.35156 21.9688 6.96094 24.4297C7.59204 26.9428 8.7435 28.2897 10.415 28.4727C10.4659 28.4546 10.5153 28.442 10.5645 28.4375C12.498 28.4023 13.9043 27.8809 14.7832 26.873C14.7715 26.6855 14.7305 26.5215 14.6602 26.3809C14.1445 25.9121 13.4941 25.6777 12.709 25.6777L11.6016 25.6953H11.4258C10.582 25.6484 9.99609 25.3672 9.66797 24.8516V24.8164C9.52734 24.5234 9.45703 24.2363 9.45703 23.9551C9.45703 23.2637 9.65625 22.5371 10.0547 21.7754V21.8105C10.6172 20.873 11.2617 20.4043 11.9883 20.4043C12.5508 20.4043 13.0781 20.6797 13.5703 21.2305C14.7773 22.543 15.3809 24.0547 15.3809 25.7656C15.3809 26.7734 15.1699 27.6992 14.748 28.543C13.7849 29.8501 12.2328 30.5094 10.0918 30.5264C10.034 30.5498 9.98726 30.5645 9.94922 30.5645C8.09766 30.5059 6.78516 28.6367 6.01172 24.957C5.84766 25.707 5.625 26.3457 5.34375 26.873C4.85156 27.5527 3.87891 28.1387 2.42578 28.6309C1.875 28.8066 1.4707 28.8945 1.21289 28.8945C0.416016 28.8594 0.0117188 28.2676 0 27.1191V26.8379C0.0820312 25.4316 0.580078 24.1016 1.49414 22.8477C1.88086 22.3086 2.80078 21.2012 4.25391 19.5254C3.90234 18.834 3.50977 18.1367 3.07617 17.4336L3.72656 15.1484L3.76172 15.2188L3.79688 15.1836C3.84375 15.3594 3.95508 15.6172 4.13086 15.957C4.31836 16.2969 4.66992 17.1055 5.18555 18.3828C6.41602 16.9062 7.1543 15.8516 7.40039 15.2188C7.42383 15.1602 7.44141 15.125 7.45312 15.1133L7.4707 15.1484ZM58.2188 1.12109C58.3594 1.4375 58.5879 1.97656 58.9043 2.73828C59.9238 5.26953 60.4395 6.71094 60.4512 7.0625C60.416 7.12109 60.3984 7.15625 60.3984 7.16797C60.1875 7.13281 59.7891 6.74609 59.2031 6.00781L59.0449 5.97266L58.9746 6.07812C60.123 15.4766 60.6973 21.6992 60.6973 24.7461C60.6855 26.1992 60.4102 27.8398 59.8711 29.668C59.7422 30.0547 59.6602 30.2832 59.625 30.3535H59.5547C59.4375 30.2949 59.3789 30.1543 59.3789 29.9316L59.4668 27.752C59.4551 23.8965 58.7812 15.8867 57.4453 3.72266L57.1992 3.17773L58.2188 1.12109ZM122.045 1.05078L121.729 2.70312C121.03 4.33582 118.517 7.63376 114.192 12.5996C114.833 18.421 115.154 22.4698 115.154 24.7461C115.143 26.1992 114.867 27.8398 114.328 29.668C114.199 30.0547 114.117 30.2832 114.082 30.3535H114.012C113.895 30.2949 113.836 30.1543 113.836 29.9316L113.924 27.752C113.916 25.1133 113.594 20.5292 112.966 13.999C111.329 15.8517 109.47 17.9111 107.385 20.1758C107.209 20.375 107.086 20.5098 107.016 20.5801C107.848 21.623 108.305 22.5957 108.387 23.498C108.398 23.7676 108.393 24.0195 108.369 24.2539C108.299 25.0391 108.064 25.7598 107.666 26.416C107.174 27.0957 106.295 27.6055 105.029 27.9453C104.432 28.1094 104.057 28.1797 103.904 28.1562C103.178 28.0273 102.861 27.4238 102.955 26.3457C103.096 24.6816 103.863 22.9414 105.258 21.125C105.105 20.9727 103.547 19.2852 100.582 16.0625C96.9492 12.1133 94.5879 9.1543 93.498 7.18555L92.8828 6.78125L93.1816 4.4082L93.5684 4.67188C95.4668 6.40625 96.5684 7.44922 96.873 7.80078C97.1777 8.14062 97.3359 8.39844 97.3477 8.57422C97.2656 8.63281 97.1777 8.65039 97.084 8.62695L95.7656 8.0293C95.6953 7.99414 95.6484 7.99414 95.625 8.0293C97.0898 10.1504 99.0586 12.4238 101.531 14.8496C104.004 17.2637 105.604 18.916 106.33 19.8066C106.494 19.5605 107.297 18.6758 108.738 17.1523C110.223 15.56 111.588 14.064 112.838 12.667C112.574 9.98844 112.263 7.00688 111.902 3.72266L111.656 3.17773L112.676 1.12109C112.816 1.4375 113.045 1.97656 113.361 2.73828C114.381 5.26953 114.896 6.71094 114.908 7.0625C114.873 7.12109 114.855 7.15625 114.855 7.16797C114.645 7.13281 114.246 6.74609 113.66 6.00781L113.502 5.97266L113.432 6.07812C113.66 7.94598 113.863 9.68868 114.046 11.3057C117.951 6.86591 120.554 3.51289 121.852 1.24414C121.898 1.16211 121.939 1.0918 121.975 1.0332L122.027 0.998047L122.045 1.05078ZM27.3691 23.7793C26.7949 23.7793 26.1973 24.166 25.5762 24.9395C25.3652 25.2207 25.2129 25.4727 25.1191 25.6953C25.4824 26.5039 26.0156 27.1426 26.7188 27.6113C27.4219 27.2715 28.0781 26.8027 28.6875 26.2051C28.6172 25.2676 28.3418 24.5293 27.8613 23.9902C27.7207 23.873 27.5566 23.8027 27.3691 23.7793ZM67.0781 25.9941C66.6447 26.0177 66.2636 26.258 65.9355 26.7148C66.1347 27.0312 66.5159 27.1835 67.0781 27.1719C67.6288 27.1602 68.1798 27.1015 68.7305 26.9961C68.0275 26.3869 67.4765 26.0527 67.0781 25.9941ZM3.35742 21.9512C1.9043 23.5098 1.04883 24.6348 0.791016 25.3262C0.708984 25.584 0.662109 25.8125 0.650391 26.0117C0.697266 26.3984 0.978516 26.5918 1.49414 26.5918C2.02148 26.5801 2.71289 26.375 3.56836 25.9766C4.42383 25.5664 5.0918 25.168 5.57227 24.7812C5.56055 23.375 5.25586 21.9512 4.6582 20.5098C4.36523 20.8379 3.93164 21.3184 3.35742 21.9512ZM44.1387 21.9512C42.6855 23.5098 41.8301 24.6348 41.5723 25.3262C41.4902 25.584 41.4434 25.8125 41.4316 26.0117C41.4785 26.3984 41.7598 26.5918 42.2754 26.5918C42.8027 26.5801 43.4941 26.375 44.3496 25.9766C45.2051 25.5664 45.873 25.168 46.3535 24.7812C46.3418 23.375 46.0371 21.9512 45.4395 20.5098C45.1465 20.8379 44.7129 21.3184 44.1387 21.9512ZM80.7539 19.8457C78.457 19.8457 75.6914 21.9199 72.457 26.0684C78.3164 24.8145 82.1836 23.4785 84.0586 22.0605C83.5078 20.877 82.6113 20.1562 81.3691 19.8984C81.0762 19.8633 80.8711 19.8457 80.7539 19.8457ZM105.803 21.8633C104.479 23.3398 103.758 24.4824 103.641 25.291C103.629 25.6309 103.863 25.8184 104.344 25.8535C104.836 25.8887 105.422 25.7598 106.102 25.4668C106.793 25.1621 107.326 24.8574 107.701 24.5527C107.596 24.2129 107.256 23.6855 106.682 22.9707C106.119 22.2559 105.826 21.8867 105.803 21.8633ZM11.4258 22.584C11.0508 22.5957 10.7344 22.7656 10.4766 23.0938C10.5 23.1992 10.5527 23.293 10.6348 23.375C11.0215 23.5742 11.3848 23.6797 11.7246 23.6914C12.0645 23.6914 12.3516 23.6855 12.5859 23.6738C12.8203 23.6621 12.9961 23.6562 13.1133 23.6562C12.375 22.9297 11.8184 22.5723 11.4434 22.584H11.4258ZM54.1406 19.5254L52.8926 21.3535L50.7129 19.7363L51.9609 17.9258L54.1406 19.5254ZM36.1582 18.6992L34.9102 20.5273L32.7656 18.9277L31.5527 20.7207L29.373 19.1211L30.6211 17.3281L32.7305 18.875L33.9785 17.0996L36.1582 18.6992ZM33.9434 16.3438L32.6602 18.1543L30.5156 16.5547L31.7988 14.7441L33.9434 16.3438ZM29.2676 15.2012L28.002 17.0293L25.8926 15.4473L24.6797 17.2227L22.5176 15.623L23.7832 13.8125L25.8926 15.377L27.1055 13.6016L29.2676 15.2012ZM13.3066 14.7969L12.0938 16.6074L9.91406 15.0078L11.1621 13.1797L13.3066 14.7969ZM6.76758 11.8613L5.53711 13.6719L3.42773 12.1074L2.21484 13.8125L0.0351562 12.2305L1.2832 10.4199L3.42773 11.9492L4.58789 10.2441L6.76758 11.8613ZM47.5488 11.8613L46.3184 13.6719L44.209 12.1074L42.9961 13.8125L40.8164 12.2305L42.0645 10.4199L44.209 11.9492L45.3691 10.2441L47.5488 11.8613Z" fill="white"/>
</svg>
