<svg width="144" height="24" viewBox="0 0 144 24" fill="none" xmlns="http://www.w3.org/2000/svg">
<path d="M97.5762 1.80273L96.1543 3.69434V11.8828C97.2799 10.8418 98.4225 10.0547 99.582 9.52148C100.75 8.97982 101.893 8.70898 103.01 8.70898C104.609 8.70898 105.9 9.22526 106.882 10.2578C107.872 11.2819 108.498 12.7503 108.761 14.6631H112.442C112.739 14.6631 112.984 14.57 113.179 14.3838C113.382 14.1891 113.483 13.9437 113.483 13.6475V12.873L115.273 11.7305V14.6631H117.406C117.753 14.6631 118.024 14.5573 118.219 14.3457C118.422 14.1341 118.523 13.8421 118.523 13.4697V12.0605L120.313 10.918V14.6631H122.243C122.624 14.6631 122.916 14.5319 123.119 14.2695C123.331 14.0072 123.437 13.6263 123.437 13.127V10.9688L125.366 9.82617V17.2148H120.313L119.438 16.2754L118.523 17.2148H115.273L114.359 16.2754L113.483 17.2148H89.7559C89.7559 18.4928 89.5654 19.6354 89.1846 20.6426C88.8037 21.6497 88.2747 22.4326 87.5977 22.9912C86.9206 23.5583 86.1504 23.8418 85.2871 23.8418C84.6185 23.8418 83.9245 23.7529 83.2051 23.5752C82.4857 23.3975 81.8001 23.1393 81.1484 22.8008V22.1787L81.9482 22.2041C85.5452 22.2041 87.6442 20.541 88.2451 17.2148H85.3633C84.5592 17.2148 83.9626 16.9948 83.5732 16.5547C83.1839 16.1061 82.9893 15.4248 82.9893 14.5107C82.9893 13.5374 83.1416 12.6276 83.4463 11.7812C83.7594 10.9349 84.1657 10.262 84.665 9.7627C85.1644 9.25488 85.6807 9.00098 86.2139 9.00098C86.7894 9.00098 87.3522 9.26758 87.9023 9.80078C88.4525 10.334 88.8968 11.0407 89.2354 11.9209C89.5824 12.7926 89.7559 13.7067 89.7559 14.6631H93.6533L93.9326 14.2822L94.3896 13.7109V2.37402L93.7295 1.87891L95.1387 0L97.5762 1.80273ZM7.37598 13.2539C7.44368 13.694 7.60026 14.041 7.8457 14.2949C8.09961 14.5404 8.41276 14.6631 8.78516 14.6631H19.0557C18.9964 13.9945 18.9033 13.4105 18.7764 12.9111C18.6579 12.4033 18.4928 11.9378 18.2812 11.5146C17.2233 12.5218 16.1738 13.0254 15.1328 13.0254C14.5065 13.0254 14.0241 12.8561 13.6855 12.5176C13.347 12.179 13.1777 11.6924 13.1777 11.0576C13.1777 10.5498 13.2793 9.97005 13.4824 9.31836C13.6855 8.6582 13.9564 8.0319 14.2949 7.43945C14.5996 6.92318 14.9297 6.52962 15.2852 6.25879C15.6406 5.98796 16.0046 5.85254 16.377 5.85254C17.0794 5.85254 17.7565 6.26302 18.4082 7.08398C19.0599 7.89648 19.5846 8.99674 19.9824 10.3848C20.3887 11.7728 20.5918 13.2793 20.5918 14.9043C20.5918 15.6999 20.4437 16.2839 20.1475 16.6562C19.8597 17.0286 19.4111 17.2148 18.8018 17.2148H8.58203C7.78646 17.2148 7.13053 16.9229 6.61426 16.3389C6.10645 15.7464 5.7806 14.9128 5.63672 13.8379L5.1416 10.0166C4.31217 10.4482 3.64779 10.9518 3.14844 11.5273C2.65755 12.1029 2.28092 12.8011 2.01855 13.6221L5.29395 14.2568L4.10059 16.25L0.444336 15.6025C0.275065 15.5771 0.156576 15.5306 0.0888672 15.4629C0.0296224 15.3952 0 15.2852 0 15.1328C0 15.1074 0.00846354 15.0439 0.0253906 14.9424C0.0338542 14.9085 0.0677083 14.807 0.126953 14.6377L0.545898 13.3936C0.757487 12.7588 1.03255 12.196 1.37109 11.7051C1.70964 11.2142 2.16243 10.7402 2.72949 10.2832C3.30501 9.81771 4.05827 9.3099 4.98926 8.75977L4.8877 7.83301L6.20801 5.12891L7.37598 13.2539ZM26.3174 14.6631H30.5957C30.8665 13.4782 31.2135 12.4541 31.6367 11.5908C32.0684 10.7275 32.5508 10.0674 33.084 9.61035C33.6172 9.15332 34.1758 8.9248 34.7598 8.9248C35.5892 8.9248 36.2155 9.33105 36.6387 10.1436C37.0703 10.9561 37.2861 12.1621 37.2861 13.7617L37.2734 14.0918L37.2354 14.6631H45.1953L43.7861 10.5117L45.3223 8.53125L47.4043 14.6631V17.2148H34.5566L33.668 16.2754L32.7793 17.2148H26.5586C25.8223 17.2148 25.2764 16.9906 24.9209 16.542C24.5739 16.0934 24.4004 15.3994 24.4004 14.46V2.28516L26.3174 0.914062V14.6631ZM63.083 13.2539C63.1507 13.694 63.3073 14.041 63.5527 14.2949C63.8066 14.5404 64.1198 14.6631 64.4922 14.6631H70.9414L69.5449 10.5117L71.0938 8.53125L73.1504 14.6631V17.2148H64.2891C63.4935 17.2148 62.8376 16.9229 62.3213 16.3389C61.8135 15.7464 61.4876 14.9128 61.3438 13.8379L60.8486 10.0166C60.0192 10.4482 59.3548 10.9518 58.8555 11.5273C58.3646 12.1029 57.988 12.8011 57.7256 13.6221L61.001 14.2568L59.8076 16.25L56.1514 15.6025C55.9821 15.5771 55.8636 15.5306 55.7959 15.4629C55.7367 15.3952 55.707 15.2852 55.707 15.1328C55.707 15.1074 55.7155 15.0439 55.7324 14.9424C55.7409 14.9085 55.7747 14.807 55.834 14.6377L56.2529 13.3936C56.4645 12.7588 56.7396 12.196 57.0781 11.7051C57.4167 11.2142 57.8695 10.7402 58.4365 10.2832C59.012 9.81771 59.7653 9.3099 60.6963 8.75977L60.5947 7.83301L61.915 5.12891L63.083 13.2539ZM79.1553 14.3584L77.9111 17.2148H77.2383V2.28516L79.1553 0.914062V14.3584ZM137.579 1.80273L136.31 3.54199V3.92285C136.31 5.16699 136.183 6.3265 135.929 7.40137C135.675 8.46777 135.29 9.50456 134.773 10.5117C135.484 11.3665 135.992 12.1198 136.297 12.7715C136.61 13.4147 136.767 14.0452 136.767 14.6631V17.2148H127.728V14.6631H128.197C129.162 14.6631 130.063 14.333 130.901 13.6729C131.748 13.0042 132.484 12.0352 133.11 10.7656L129.314 6.7666V7.46484L127.067 5.17969V1.28223H127.512L133.783 9.2041C134.266 7.83301 134.507 6.30957 134.507 4.63379C134.507 4.27832 134.481 3.65625 134.431 2.76758L134.405 2.37402L133.732 1.87891L135.129 0L137.579 1.80273ZM143.013 14.3584L141.769 17.2148H141.096V2.28516L143.013 0.914062V14.3584ZM134.062 11.8066C133.538 12.6022 133.03 13.2412 132.539 13.7236C132.057 14.1976 131.528 14.5911 130.952 14.9043L135.522 14.8916C135.48 13.766 134.993 12.7376 134.062 11.8066ZM102.185 11.21C100.966 11.21 99.7682 11.502 98.5918 12.0859C97.4154 12.6699 96.2982 13.529 95.2402 14.6631H106.577C106.45 13.4951 106.023 12.6276 105.295 12.0605C104.576 11.4935 103.539 11.21 102.185 11.21ZM86.2646 12.0352C85.5029 12.0352 84.9655 12.6953 84.6523 14.0156C85.2533 14.4303 85.8965 14.6377 86.582 14.6377C87.0052 14.6377 87.403 14.5954 87.7754 14.5107C87.5977 13.5967 87.3945 12.9577 87.166 12.5938C86.9375 12.2214 86.637 12.0352 86.2646 12.0352ZM34.417 11.7305C33.9938 11.8066 33.6214 11.9801 33.2998 12.251C32.9782 12.5133 32.6777 12.9027 32.3984 13.4189C32.8216 13.8675 33.2617 14.2145 33.7188 14.46C34.1504 14.4092 34.5355 14.3161 34.874 14.1807C35.221 14.0368 35.5469 13.8421 35.8516 13.5967C35.7246 13.055 35.5469 12.6403 35.3184 12.3525C35.0983 12.0563 34.7979 11.849 34.417 11.7305ZM15.8818 8.55664C15.611 8.67513 15.3952 8.8444 15.2344 9.06445C15.0736 9.28451 14.9339 9.61035 14.8154 10.042C14.9762 10.1859 15.1497 10.2917 15.3359 10.3594C15.5306 10.4271 15.7591 10.4609 16.0215 10.4609C16.4785 10.4609 16.9609 10.3298 17.4688 10.0674C17.1471 9.61882 16.8678 9.28451 16.6309 9.06445C16.3939 8.83594 16.1442 8.66667 15.8818 8.55664ZM42.9609 4.91309L41.5518 6.81738L39.4189 5.20508L40.8535 3.32617L42.9609 4.91309ZM47.1631 4.91309L45.7666 6.81738L43.6338 5.20508L45.0557 3.32617L47.1631 4.91309ZM33.7188 4.8877L32.2842 6.79199L30.1895 5.17969L31.5859 3.27539L33.7188 4.8877ZM37.9844 4.8877L36.5498 6.79199L34.4424 5.17969L35.8516 3.27539L37.9844 4.8877ZM71.2334 4.8877L69.8242 6.79199L67.6914 5.17969L69.126 3.27539L71.2334 4.8877ZM5.19238 2.86914L3.7959 4.73535L1.66309 3.14844L3.08496 1.25684L5.19238 2.86914ZM9.45801 2.86914L8.06152 4.73535L5.92871 3.14844L7.35059 1.25684L9.45801 2.86914ZM60.8994 2.86914L59.5029 4.73535L57.3701 3.14844L58.792 1.25684L60.8994 2.86914ZM65.165 2.86914L63.7686 4.73535L61.6357 3.14844L63.0576 1.25684L65.165 2.86914ZM16.377 2.78027L14.9551 4.68457L12.8477 3.07227L14.2441 1.16797L16.377 2.78027ZM44.7002 2.13281L43.2656 4.01172L41.1582 2.4248L42.5674 0.520508L44.7002 2.13281Z" fill="white"/>
</svg>
