<svg width="136" height="23" viewBox="0 0 136 23" fill="none" xmlns="http://www.w3.org/2000/svg">
<path d="M89.1982 13.9482C90.8678 11.5301 92.6273 9.92445 94.4766 9.13086C96.2584 8.3598 97.8191 8.37471 99.1592 9.17578C100.364 9.89454 100.863 11.1108 100.653 12.8252C100.623 13.0573 100.567 13.2819 100.484 13.499C101.076 14.2477 101.836 14.6221 102.765 14.6221H103.078C105.032 14.6221 106.069 13.8773 106.189 12.3877L106.312 10.6465H107.548L107.717 12.3877C107.867 13.9297 108.626 14.7087 109.996 14.7236C111.284 14.7386 111.988 14.2327 112.107 13.207L112.411 10.6465H113.612L113.859 12.96C114.002 14.2926 114.68 14.8841 115.893 14.7344C116.379 14.6744 116.734 14.4348 116.959 14.0156C117.266 13.4316 117.363 12.6829 117.251 11.7695C117.206 11.3652 117.068 10.5341 116.836 9.27637L118.441 8.75977C118.741 9.60579 118.925 10.5267 118.992 11.5225C119.112 13.207 118.868 14.4723 118.262 15.3184C117.7 16.1119 116.813 16.5129 115.601 16.5205C115.084 16.5205 114.695 16.4604 114.433 16.3408C113.714 16.0339 113.242 15.5504 113.018 14.8916C112.673 15.9922 111.546 16.5355 109.637 16.5205C108.282 16.5055 107.365 16.0335 106.886 15.1055C106.639 15.4647 106.309 15.7826 105.897 16.0596C105.433 16.3665 104.714 16.5205 103.741 16.5205H102.518C100.833 16.5205 99.7657 16.0411 99.3164 15.083C99.2191 15.1578 99.1142 15.2361 99.002 15.3184C97.849 16.1194 95.9962 16.5205 93.4434 16.5205L84.9189 16.5195H83.7959C83.5938 17.8746 83.0396 19.0801 82.1338 20.1357C80.9509 21.5133 79.1238 22.2021 76.6533 22.2021L75.9229 20.7871C79.6289 20.5625 81.7295 19.1357 82.2236 16.5078H80.3252C78.9925 16.5078 78.0492 16.1859 77.4951 15.542C76.9188 14.8832 76.6865 14.0819 76.7988 13.1387C76.9411 11.8586 77.4278 10.8218 78.2588 10.0283C79 9.30957 79.7979 8.97591 80.6514 9.02832C81.7892 9.10331 82.613 9.66909 83.1221 10.7246C83.5263 11.5556 83.7734 12.5291 83.8633 13.6445C83.9157 14.2434 83.9456 14.5729 83.9531 14.6328L84.9189 14.624V14.6221H85.2705L85.3906 14.6211V14.6221H87.873L87.3672 0.808594L89.209 0L89.1982 13.9482ZM13.7627 6.2998C14.6012 5.41659 15.5672 5.08694 16.6602 5.31152C17.4311 5.47632 18.0561 5.96312 18.5352 6.77148C19.0293 7.58757 19.3405 8.55762 19.4678 9.68066C19.565 10.5565 19.5351 11.6158 19.3779 12.8584C19.2132 14.2133 18.629 15.2093 17.626 15.8457C16.9222 16.2949 15.5628 16.5195 13.5488 16.5195H11.0332C8.82493 16.5194 7.57853 15.6175 7.29395 13.8135C3.35587 14.4124 0.993207 13.9632 0.207031 12.4658C0.0872396 12.2487 0.0198568 11.9749 0.00488281 11.6455C-0.12226 9.33222 2.04924 7.99613 6.51855 7.63672C6.51855 7.44206 6.46615 6.97363 6.36133 6.23242L7.96777 5.83984C8.06512 6.76088 8.28552 8.72268 8.62988 11.7246C8.80958 13.2668 9.1807 14.1579 9.74219 14.3975C10.0866 14.5471 10.5958 14.6221 11.2695 14.6221H12.2686C14.6719 14.6221 16.0312 14.5654 16.3457 14.4531C17.3186 14.1012 17.8163 13.2815 17.8389 11.9941C17.4346 12.3683 16.6972 12.5664 15.627 12.5889C14.4443 12.6038 13.5905 12.2634 13.0664 11.5674C12.5948 10.946 12.4151 10.1597 12.5273 9.20898C12.6621 7.98861 13.0739 7.01855 13.7627 6.2998ZM23.8467 11.8369C23.8467 12.6153 23.9558 13.1772 24.1729 13.5215C24.6595 14.2548 25.3892 14.6221 26.3623 14.6221H27.25C28.665 14.6221 29.6608 14.5097 30.2373 14.2852C29.4961 13.806 28.9495 13.1729 28.5977 12.3867C28.2683 11.6606 28.2234 10.8559 28.4629 9.97266C28.7698 8.85713 29.4737 8.07846 30.5742 7.63672C31.0609 7.43457 31.6224 7.32975 32.2588 7.32227C32.9401 7.32227 33.5615 7.45282 34.123 7.71484C35.1038 8.17155 35.7253 8.93197 35.9873 9.99512C36.1594 10.6838 36.1112 11.4661 35.8418 12.3418C35.6097 13.098 34.999 13.7568 34.0107 14.3184C34.5348 14.528 35.5755 14.6296 37.1328 14.6221H37.8516V14.6211H38.9854C39.4345 14.6211 39.8239 14.5986 40.1533 14.5537C40.9842 14.4489 41.5084 14.1385 41.7256 13.6221C41.9352 13.1279 41.9919 12.2852 41.8945 11.0947C41.8271 10.2862 41.7073 9.54488 41.5352 8.87109L43.1855 8.52344C43.4475 9.18974 43.6048 10.0359 43.6572 11.0615C43.777 13.4272 43.4176 14.9655 42.5791 15.6768C41.9203 16.2382 40.6739 16.5195 38.8398 16.5195H35.6055C34.49 16.5195 33.3635 16.1226 32.2256 15.3291L32.1914 15.3066L32.1689 15.3291C30.9561 16.1227 29.833 16.5195 28.7998 16.5195H26.1377C24.8051 16.5195 23.8285 16.0552 23.207 15.127C22.7952 14.513 22.5632 13.4648 22.5107 11.9824L22.0947 0.786133L23.8467 0.0107422V11.8369ZM60.4141 5.83984C60.5114 6.76088 60.7318 8.72268 61.0762 11.7246C61.2559 13.2668 61.627 14.1579 62.1885 14.3975C62.5275 14.5448 63.0263 14.6188 63.6846 14.6211H64.8164C65.2654 14.6211 65.6551 14.5986 65.9844 14.5537C66.8151 14.4488 67.3395 14.1385 67.5566 13.6221C67.7663 13.1279 67.8219 12.2852 67.7246 11.0947C67.6572 10.2862 67.5374 9.54487 67.3652 8.87109L69.0166 8.52344C69.2785 9.18971 69.4359 10.036 69.4883 11.0615C69.608 13.4269 69.2484 14.9654 68.4102 15.6768C67.7513 16.2383 66.5042 16.5195 64.6699 16.5195H63.4795C61.2712 16.5194 60.0248 15.6175 59.7402 13.8135C55.8022 14.4124 53.4395 13.9632 52.6533 12.4658C52.5335 12.2487 52.4661 11.9749 52.4512 11.6455C52.324 9.33222 54.4955 7.99613 58.9648 7.63672C58.9648 7.44206 58.9124 6.97363 58.8076 6.23242L60.4141 5.83984ZM130.649 11.6123C130.649 13.252 130.271 14.4049 129.515 15.0713C128.302 16.127 126.31 16.5986 123.54 16.4863C122.739 16.4489 122.234 16.3439 122.024 16.1719V14.6113C123.065 14.9256 124.072 15.0413 125.045 14.959C124.281 9.08196 122.986 4.97564 121.159 2.63965L122.676 1.45996C124.45 4.39486 125.719 8.85399 126.482 14.8359C127.508 14.6787 128.239 14.3525 128.673 13.8584C129.159 13.3045 129.38 12.5071 129.335 11.4668L128.875 0.775391L130.649 0V11.6123ZM73.7334 16.498H72.543L71.9697 0.763672L73.7334 0V16.498ZM135.344 16.498H134.153L133.58 0.763672L135.344 0V16.498ZM80.4824 10.7354C79.5092 10.7578 78.8503 11.3346 78.5059 12.4648C78.0716 13.8724 78.6299 14.6361 80.1797 14.7559C80.5616 14.7858 81.2732 14.775 82.3135 14.7227C82.321 13.8766 82.2643 13.1504 82.1445 12.5439C81.8975 11.3161 81.3434 10.7129 80.4824 10.7354ZM97.3291 10.5566C96.3409 10.4144 95.3374 10.6616 94.3193 11.2979C92.9492 12.1364 91.7695 13.2038 90.7812 14.499H92.792C95.0303 14.499 96.5613 14.3375 97.3848 14.0156C98.2306 13.6863 98.7248 13.1961 98.8672 12.5449C98.9346 12.0135 98.8488 11.5823 98.6094 11.2529C98.3324 10.8712 97.9054 10.6391 97.3291 10.5566ZM32.2031 8.9502C31.6117 8.9502 31.1058 9.15658 30.6865 9.56836C30.2749 9.97259 30.0694 10.4627 30.0693 11.0391C30.0693 11.608 30.2748 12.0947 30.6865 12.499C31.1058 12.9033 31.6117 13.1055 32.2031 13.1055C32.7944 13.1054 33.2963 12.9032 33.708 12.499C34.1271 12.0948 34.3369 11.6079 34.3369 11.0391C34.3369 10.4628 34.127 9.97254 33.708 9.56836C33.2963 9.15669 32.7944 8.95031 32.2031 8.9502ZM6.73242 9.12988C3.31836 9.4069 1.65202 10.1598 1.73438 11.3877C1.76441 11.9191 2.05316 12.2487 2.59961 12.376C3.71507 12.608 5.21611 12.5556 7.10254 12.2188C6.99023 11.0133 6.86719 9.9834 6.73242 9.12988ZM59.1787 9.12988C55.7646 9.4069 54.0983 10.1598 54.1807 11.3877C54.2107 11.9191 54.4994 12.2487 55.0459 12.376C56.1614 12.608 57.6624 12.5556 59.5488 12.2188C59.4365 11.0133 59.3135 9.9834 59.1787 9.12988ZM15.9297 6.99609C15.0388 7.01855 14.444 7.63267 14.1445 8.83789C13.8451 10.0433 14.2152 10.7363 15.2559 10.916C16.3115 11.0957 17.195 10.9118 17.9062 10.3652C17.9661 10.1854 17.9287 9.74361 17.7939 9.04004C17.5394 7.64758 16.9179 6.96615 15.9297 6.99609ZM66.4336 3.79492C66.6431 3.58562 66.8605 3.58963 67.085 3.80664L68.0283 4.76074C68.2078 4.94035 68.2111 5.1202 68.0391 5.2998L67.0508 6.28809C66.8487 6.47521 66.6582 6.47511 66.4785 6.28809L65.4902 5.2998C65.3031 5.12012 65.3138 4.92546 65.5234 4.71582L66.4336 3.79492ZM38.8398 3.77246C39.0569 3.5631 39.2742 3.56715 39.4912 3.78418L40.4229 4.72754C40.6098 4.90711 40.614 5.0903 40.4346 5.27734L39.457 6.25488C39.2625 6.4493 39.0676 6.44937 38.873 6.25488L37.8965 5.27734C37.7093 5.09017 37.7201 4.89551 37.9297 4.69336L38.8398 3.77246ZM42.2422 3.77246C42.4518 3.56286 42.669 3.56707 42.8936 3.78418L43.8262 4.72754C44.013 4.90711 44.0165 5.0903 43.8369 5.27734L42.8486 6.25488C42.6542 6.44921 42.4634 6.44912 42.2764 6.25488L41.2881 5.27734C41.1084 5.09017 41.1234 4.89551 41.333 4.69336L42.2422 3.77246ZM30.125 2.59375C30.3346 2.3842 30.5518 2.38838 30.7764 2.60547L31.709 3.55957C31.896 3.73918 31.8993 3.91903 31.7197 4.09863L30.7432 5.08691C30.5411 5.27404 30.3463 5.27393 30.1592 5.08691L29.1816 4.09863C28.9946 3.91897 29.0062 3.72425 29.2158 3.51465L30.125 2.59375ZM33.5283 2.59375C33.7453 2.38445 33.9627 2.38846 34.1797 2.60547L35.1113 3.55957C35.2984 3.73915 35.3024 3.91906 35.123 4.09863L34.1348 5.08691C33.9476 5.27409 33.7562 5.27409 33.5615 5.08691L32.5732 4.09863C32.3936 3.91897 32.4086 3.72425 32.6182 3.51465L33.5283 2.59375ZM4.19434 1.80762C4.40393 1.59811 4.62114 1.60226 4.8457 1.81934L5.77734 2.77344C5.96447 2.95308 5.96862 3.13286 5.78906 3.3125L4.81152 4.30078C4.60942 4.48783 4.41467 4.48792 4.22754 4.30078L3.25098 3.3125C3.06388 3.13286 3.07467 2.93809 3.28418 2.72852L4.19434 1.80762ZM7.59668 1.80762C7.81379 1.598 8.03094 1.60226 8.24805 1.81934L9.18066 2.77344C9.36784 2.95312 9.37109 3.13281 9.19141 3.3125L8.20312 4.30078C8.01599 4.48784 7.82548 4.48792 7.63086 4.30078L6.64258 3.3125C6.46294 3.13282 6.47788 2.93813 6.6875 2.72852L7.59668 1.80762ZM56.6406 1.80762C56.8502 1.59811 57.0674 1.60226 57.292 1.81934L58.2236 2.77344C58.4108 2.95308 58.4149 3.13286 58.2354 3.3125L57.2578 4.30078C57.0557 4.48783 56.861 4.48792 56.6738 4.30078L55.6973 3.3125C55.5102 3.13286 55.521 2.93809 55.7305 2.72852L56.6406 1.80762ZM60.043 1.80762C60.2601 1.598 60.4772 1.60226 60.6943 1.81934L61.627 2.77344C61.8141 2.95312 61.8174 3.13281 61.6377 3.3125L60.6494 4.30078C60.4623 4.48784 60.2718 4.48792 60.0771 4.30078L59.0889 3.3125C58.9092 3.13282 58.9242 2.93813 59.1338 2.72852L60.043 1.80762ZM40.5352 1.07715C40.7448 0.867544 40.9619 0.871755 41.1865 1.08887L42.1191 2.03223C42.306 2.2118 42.3095 2.39172 42.1299 2.57129L41.1533 3.55957C40.9512 3.74671 40.7565 3.74989 40.5693 3.57031L39.5811 2.58203C39.4014 2.39486 39.4163 2.20443 39.626 2.00977L40.5352 1.07715ZM15.5596 0.370117C15.7691 0.160816 15.9864 0.164827 16.2109 0.381836L17.1543 1.33594C17.3338 1.51554 17.3371 1.6954 17.165 1.875L16.1768 2.86328C15.9747 3.0504 15.7841 3.0503 15.6045 2.86328L14.6162 1.875C14.429 1.69531 14.4398 1.50065 14.6494 1.29102L15.5596 0.370117Z" fill="white"/>
</svg>
