<svg width="154" height="25" viewBox="0 0 154 25" fill="none" xmlns="http://www.w3.org/2000/svg">
<path d="M150.915 0H153.123V18.63H150.915V0Z" fill="white"/>
<path d="M143.899 3.151V0H146.107V3.151C146.107 3.67233 146.068 4.163 145.992 4.623C145.93 5.06767 145.8 5.52767 145.601 6.003C145.401 6.463 145.118 6.98433 144.75 7.567C144.382 8.13433 143.906 8.809 143.324 9.591L145.348 12.351C145.93 13.1177 146.337 13.7617 146.567 14.283C146.812 14.8043 146.935 15.318 146.935 15.824C146.935 16.698 146.651 17.388 146.084 17.894C145.516 18.3847 144.711 18.63 143.669 18.63H136.194L135.32 16.353L139.69 10.833C140.073 10.3577 140.41 9.92834 140.702 9.545L134.676 1.495L136.378 0.138001L142.013 7.797C142.534 7.061 142.933 6.44 143.209 5.934C143.485 5.41267 143.669 4.945 143.761 4.531C143.853 4.10167 143.899 3.64167 143.899 3.151ZM144.75 15.456C144.75 15.2873 144.681 15.0727 144.543 14.812C144.405 14.5513 144.121 14.1297 143.692 13.547L142.013 11.293C141.936 11.385 141.859 11.477 141.783 11.569L138.08 16.261H142.956C143.6 16.261 144.06 16.1997 144.336 16.077C144.612 15.939 144.75 15.732 144.75 15.456Z" fill="white"/>
<path d="M113.925 16.4224L114.431 16.1924H114.822C116.018 16.1924 116.838 16.0314 117.283 15.7094C117.727 15.372 117.95 14.7587 117.95 13.8694V10.4424H120.043V13.9384C120.043 14.751 120.227 15.3337 120.595 15.6864C120.963 16.0237 121.553 16.1924 122.366 16.1924C123.194 16.1924 123.799 16.0237 124.183 15.6864C124.566 15.3337 124.758 14.751 124.758 13.9384V10.4424H126.851V13.9384C126.851 14.7664 127.004 15.349 127.311 15.6864C127.633 16.0237 128.154 16.1924 128.875 16.1924C129.549 16.1924 130.055 16.0237 130.393 15.6864C130.745 15.349 130.922 14.7664 130.922 13.9384V10.4424H133.015V14.2604C133.015 15.7017 132.654 16.7904 131.934 17.5264C131.213 18.2624 130.193 18.6304 128.875 18.6304C128.123 18.6304 127.479 18.5 126.943 18.2394C126.406 17.9787 126.007 17.6107 125.747 17.1354C125.44 17.5954 124.995 17.9634 124.413 18.2394C123.845 18.5 123.178 18.6304 122.412 18.6304C120.71 18.6304 119.575 18.1474 119.008 17.1814C118.379 18.1474 116.984 18.6304 114.822 18.6304H114.431L113.925 18.4004V16.4224Z" fill="white"/>
<path d="M96.54 16.422L97.046 16.192H99.07L100.22 14.651V0H102.336V11.845C103.348 10.5723 104.253 9.67533 105.05 9.154C105.847 8.63267 106.698 8.372 107.603 8.372C108.508 8.372 109.313 8.58667 110.018 9.016C110.723 9.44533 111.275 10.0433 111.674 10.81C112.088 11.5613 112.295 12.4353 112.295 13.432C112.295 14.4133 112.096 15.2873 111.697 16.054C112.418 16.146 113.33 16.192 114.434 16.192L114.94 16.422V18.4L114.434 18.63C113.299 18.63 112.402 18.584 111.743 18.492C111.084 18.3847 110.47 18.2007 109.903 17.94C109.106 18.4 108.186 18.63 107.143 18.63H97.046L96.54 18.4V16.422ZM110.225 13.432C110.225 12.6193 109.964 11.96 109.443 11.454C108.937 10.9327 108.316 10.672 107.58 10.672C106.951 10.672 106.323 10.9097 105.694 11.385C105.065 11.8603 104.283 12.6883 103.348 13.869L101.485 16.192H107.143C108.094 16.192 108.845 15.939 109.397 15.433C109.949 14.9117 110.225 14.2447 110.225 13.432Z" fill="white"/>
<path d="M85.9355 13.9612C85.9355 12.9798 86.1349 12.1212 86.5335 11.3852C86.9475 10.6338 87.5072 10.0512 88.2125 9.63717C88.9179 9.20783 89.7229 8.99316 90.6275 8.99316C91.5322 8.99316 92.3295 9.2155 93.0195 9.66016C93.7249 10.0895 94.2769 10.7105 94.6756 11.5232C95.0742 12.3205 95.2736 13.2788 95.2736 14.3982V15.7322C95.2736 15.8855 95.2736 16.0388 95.2736 16.1922H97.0445L97.5506 16.4222V18.4002L97.0445 18.6302H94.9516C94.5069 20.4548 93.6252 21.8732 92.3065 22.8852C91.0032 23.9125 89.3012 24.4262 87.2005 24.4262C87.0012 24.4262 86.8249 24.4185 86.6715 24.4032C86.5182 24.4032 86.3802 24.3955 86.2576 24.3802L85.9355 22.0342C86.3342 22.0802 86.7252 22.1032 87.1086 22.1032C88.7339 22.1032 90.0142 21.8195 90.9495 21.2522C91.8849 20.6848 92.5212 19.8108 92.8586 18.6302H90.4436C89.5389 18.6302 88.7492 18.4385 88.0745 18.0552C87.3999 17.6565 86.8709 17.1045 86.4875 16.3992C86.1195 15.6938 85.9355 14.8812 85.9355 13.9612ZM88.0516 13.9152C88.0516 14.6665 88.2662 15.2492 88.6955 15.6632C89.1249 16.0618 89.7306 16.2612 90.5126 16.2612H93.1575C93.1575 16.2305 93.1575 16.1922 93.1575 16.1462V13.9152C93.1575 13.1485 92.9199 12.5198 92.4445 12.0292C91.9692 11.5385 91.3559 11.2932 90.6046 11.2932C89.8532 11.2932 89.2399 11.5385 88.7645 12.0292C88.2892 12.5045 88.0516 13.1332 88.0516 13.9152Z" fill="white"/>
<path d="M80.208 0H82.416V18.63H80.208V0Z" fill="white"/>
<path d="M70.1934 16.4218L70.6994 16.1918H70.9984C72.1637 16.1918 72.961 16.0155 73.3904 15.6628C73.8197 15.2948 74.0344 14.6202 74.0344 13.6388V9.52182H76.2194V13.8458C76.2194 15.5172 75.8054 16.7362 74.9774 17.5028C74.1494 18.2542 72.8307 18.6298 71.0214 18.6298H70.6994L70.1934 18.3998V16.4218ZM75.1154 3.84082L76.7484 5.49682L75.1154 7.12982L73.4824 5.49682L75.1154 3.84082Z" fill="white"/>
<path d="M58.3535 11.9139C58.3535 11.0093 58.5605 10.2119 58.9745 9.52192C59.3885 8.83192 59.9635 8.29526 60.6995 7.91192C61.4508 7.51326 62.3095 7.31392 63.2755 7.31392H65.4835V5.84192H67.6685V13.8919C67.6685 14.7813 67.8525 15.3869 68.2205 15.7089C68.6038 16.0309 69.2862 16.1919 70.2675 16.1919H70.7045L71.2105 16.4219V18.3999L70.7045 18.6299H70.2675C69.1482 18.6299 68.2052 18.4536 67.4385 18.1009C66.6719 17.7329 66.1275 17.2039 65.8055 16.5139H63.1605C62.2099 16.5139 61.3742 16.3223 60.6535 15.9389C59.9328 15.5403 59.3655 14.9959 58.9515 14.3059C58.5528 13.6159 58.3535 12.8186 58.3535 11.9139ZM60.4465 11.8909C60.4465 12.5963 60.6842 13.1483 61.1595 13.5469C61.6348 13.9303 62.2942 14.1219 63.1375 14.1219H65.4835V9.65992H63.2525C62.3632 9.65992 61.6732 9.85926 61.1825 10.2579C60.6918 10.6413 60.4465 11.1856 60.4465 11.8909ZM61.3895 0.919922H67.0475V2.98992H61.3895V0.919922Z" fill="white"/>
<path d="M44.1387 16.4221L44.6447 16.1921H44.9437C46.109 16.1921 46.9063 16.0157 47.3357 15.6631C47.765 15.2951 47.9797 14.6204 47.9797 13.6391V9.52205H50.1647V13.8461C50.1647 15.5174 49.7507 16.7364 48.9227 17.5031C48.0947 18.2544 46.776 18.6301 44.9667 18.6301H44.6447L44.1387 18.4001V16.4221ZM46.1857 4.48505H51.9357V6.48605H46.1857V4.48505ZM47.4967 2.64505L49.0607 1.08105L50.6247 2.64505L49.0607 4.20905L47.4967 2.64505Z" fill="white"/>
<path d="M32.3916 16.4223L32.8976 16.1923H34.8526C34.6379 15.809 34.4616 15.4026 34.3236 14.9733C34.2009 14.544 34.1396 14.107 34.1396 13.6623C34.1396 12.7883 34.3389 11.9986 34.7376 11.2933C35.1516 10.588 35.7113 10.0283 36.4166 9.61429C37.1219 9.20029 37.9116 8.99329 38.7856 8.99329C39.6596 8.99329 40.4416 9.20796 41.1316 9.63729C41.8369 10.0513 42.3889 10.611 42.7876 11.3163C43.2016 12.0216 43.4086 12.8036 43.4086 13.6623C43.4086 14.107 43.3396 14.544 43.2016 14.9733C43.0789 15.4026 42.9103 15.809 42.6956 16.1923H44.6506L45.1566 16.4223V18.4003L44.6506 18.6303H41.7986C41.2926 18.6303 40.7713 18.6073 40.2346 18.5613C39.7133 18.5 39.2303 18.4233 38.7856 18.3313C38.3409 18.4233 37.8503 18.5 37.3136 18.5613C36.7769 18.6073 36.2633 18.6303 35.7726 18.6303H32.8976L32.3916 18.4003V16.4223ZM36.2556 13.8003C36.2556 14.521 36.4856 15.119 36.9456 15.5943C37.4209 16.0543 38.0266 16.2843 38.7626 16.2843C39.5139 16.2843 40.1273 16.0543 40.6026 15.5943C41.0779 15.119 41.3156 14.521 41.3156 13.8003C41.3156 13.0796 41.0779 12.4816 40.6026 12.0063C40.1273 11.531 39.5139 11.2933 38.7626 11.2933C38.0266 11.2933 37.4209 11.531 36.9456 12.0063C36.4856 12.4816 36.2556 13.0796 36.2556 13.8003ZM35.9566 4.07129H41.6146V6.14129H35.9566V4.07129Z" fill="white"/>
<path d="M27.3574 13.846V0H29.5654V13.639C29.5654 14.6203 29.7801 15.295 30.2094 15.663C30.6388 16.0157 31.4361 16.192 32.6014 16.192H32.9004L33.4064 16.422V18.4L32.9004 18.63H32.5554C30.7614 18.63 29.4428 18.2543 28.5994 17.503C27.7714 16.7363 27.3574 15.5173 27.3574 13.846Z" fill="white"/>
<path d="M11.8398 16.4225L12.3458 16.1925H15.3818C14.8298 15.4105 14.5538 14.4675 14.5538 13.3635C14.5538 12.4435 14.7455 11.6232 15.1288 10.9025C15.5275 10.1665 16.0718 9.59154 16.7618 9.17754C17.4518 8.74821 18.2492 8.53354 19.1538 8.53354C20.0738 8.53354 20.8788 8.74054 21.5688 9.15454C22.2742 9.56854 22.8262 10.1512 23.2248 10.9025C23.6388 11.6385 23.8458 12.5125 23.8458 13.5245C23.8458 14.5212 23.6388 15.4029 23.2248 16.1695C22.8108 16.9362 22.2282 17.5419 21.4768 17.9865C20.7408 18.4159 19.8745 18.6305 18.8778 18.6305H12.3458L11.8398 18.4005V16.4225ZM16.6008 13.4785C16.6008 14.2759 16.8385 14.9275 17.3138 15.4335C17.8045 15.9395 18.4255 16.1925 19.1768 16.1925C19.9282 16.1925 20.5415 15.9395 21.0168 15.4335C21.5075 14.9275 21.7528 14.2759 21.7528 13.4785C21.7528 12.6812 21.5075 12.0372 21.0168 11.5465C20.5415 11.0405 19.9282 10.7875 19.1768 10.7875C18.4255 10.7875 17.8045 11.0405 17.3138 11.5465C16.8385 12.0372 16.6008 12.6812 16.6008 13.4785ZM19.1768 2.85254L20.8098 4.50854L19.1768 6.14154L17.5438 4.50854L19.1768 2.85254Z" fill="white"/>
<path d="M0 11.9139C0 11.0093 0.207 10.2119 0.621 9.52192C1.035 8.83192 1.61 8.29526 2.346 7.91192C3.09733 7.51326 3.956 7.31392 4.922 7.31392H7.13V5.84192H9.315V13.8919C9.315 14.7813 9.499 15.3869 9.867 15.7089C10.2503 16.0309 10.9327 16.1919 11.914 16.1919H12.351L12.857 16.4219V18.3999L12.351 18.6299H11.914C10.7947 18.6299 9.85167 18.4536 9.085 18.1009C8.31833 17.7329 7.774 17.2039 7.452 16.5139H4.807C3.85633 16.5139 3.02067 16.3223 2.3 15.9389C1.57933 15.5403 1.012 14.9959 0.598 14.3059C0.199333 13.6159 0 12.8186 0 11.9139ZM2.093 11.8909C2.093 12.5963 2.33067 13.1483 2.806 13.5469C3.28133 13.9303 3.94067 14.1219 4.784 14.1219H7.13V9.65992H4.899C4.00967 9.65992 3.31967 9.85926 2.829 10.2579C2.33833 10.6413 2.093 11.1856 2.093 11.8909ZM3.036 0.919922H8.694V2.98992H3.036V0.919922Z" fill="white"/>
</svg>
