<svg width="187" height="28" viewBox="0 0 187 28" fill="none" xmlns="http://www.w3.org/2000/svg">
<path d="M186.39 20.6055H182.837C182.276 20.6055 181.897 20.2271 181.702 19.4702L177.137 2.31934H181.312L185.779 19.5679C185.901 20.0317 186.105 20.3776 186.39 20.6055Z" fill="white"/>
<path d="M178.857 20.606H161.938C161.621 20.606 161.373 20.488 161.194 20.252C160.99 19.9834 160.779 19.4544 160.559 18.665C160.347 17.8675 160.173 17.1676 160.034 16.5654C161.58 15.9714 163.037 15.1942 164.404 14.2339C165.78 13.2655 166.801 12.2889 167.468 11.3042C166.516 10.1974 162.687 7.20671 155.981 2.33203H162.561C164.653 3.65853 166.98 5.36751 169.543 7.45898C170.015 6.50684 170.251 4.79785 170.251 2.33203H174.377C174.377 5.77441 173.84 8.47624 172.766 10.4375C174.646 12.3743 176.355 14.4251 177.893 16.5898L178.857 20.606ZM172.803 16.5898L170.618 14.0264C169.796 15.0599 168.909 15.9144 167.957 16.5898H172.803Z" fill="white"/>
<path d="M158.581 20.606H131.799C131.172 20.606 130.712 20.1665 130.419 19.2876C130.338 19.0353 130.163 18.132 129.895 16.5776H137.463C136.56 14.5269 135.624 12.9033 134.655 11.707H139.355C140.161 12.6755 141.109 14.2949 142.199 16.5654L145.251 16.5776C144.38 14.5024 143.44 12.8748 142.431 11.6948H147.119C147.753 12.4924 148.726 14.12 150.036 16.5776H152.966C150.24 12.4435 148.246 9.71322 146.984 8.38672H151.977C152.823 9.29818 153.857 10.6532 155.078 12.4517C156.266 14.2176 157.084 15.5889 157.531 16.5654L158.581 20.606Z" fill="white"/>
<path d="M132.312 20.6055H112.951C112.325 20.6055 111.865 20.166 111.572 19.2871C111.49 19.0348 111.315 18.1315 111.047 16.5771H115.014L111.291 2.31934H115.441L118.383 13.1226C119.36 11.731 120.121 10.7422 120.666 10.1562C121.065 9.74121 121.549 9.35059 122.119 8.98438C122.965 8.4554 123.872 8.19092 124.841 8.19092C126.281 8.19092 127.498 8.73617 128.491 9.82666C129.353 10.7707 130.114 12.2355 130.773 14.2212C131.237 15.6372 131.75 17.7653 132.312 20.6055ZM127.27 16.5894C127.075 15.6779 126.904 15.0106 126.757 14.5874C126.285 13.2284 125.61 12.5488 124.731 12.5488C124.169 12.5488 123.531 12.8255 122.814 13.3789C122.367 13.7207 122.102 13.9364 122.021 14.0259C121.679 14.3921 121.016 15.2466 120.031 16.5894H127.27Z" fill="white"/>
<path d="M113.379 20.5566C113.452 20.9798 113.488 21.3786 113.488 21.7529C113.488 25.3499 110.587 27.1647 104.785 27.1973C103.499 27.2054 102.685 26.7456 102.343 25.8179C102.295 25.6795 102.026 24.6541 101.538 22.7417C102.628 23.0021 103.719 23.1323 104.809 23.1323C107.527 23.1323 108.899 22.4202 108.923 20.9961C108.923 20.9961 108.923 20.9066 108.923 20.7275C108.907 20.6706 108.89 20.6055 108.874 20.5322C108.394 20.6055 107.845 20.6421 107.226 20.6421C105.102 20.6502 103.226 19.8527 101.599 18.2495C100.053 16.7196 99.2713 15.0513 99.255 13.2446C99.2468 11.9181 99.7717 10.7503 100.83 9.74121C101.896 8.7321 103.186 8.22754 104.699 8.22754C106.978 8.22754 108.756 9.09017 110.034 10.8154C111.409 12.6872 112.524 15.9342 113.379 20.5566ZM108.032 16.6504C107.812 15.21 107.291 14.0462 106.469 13.1592C105.818 12.4512 105.192 12.0972 104.589 12.0972C104.256 12.0972 103.963 12.2355 103.711 12.5122C103.466 12.7808 103.34 13.0941 103.332 13.4521C103.324 14.2334 103.711 14.9373 104.492 15.564C105.379 16.272 106.559 16.6341 108.032 16.6504Z" fill="white"/>
<path d="M99.7432 20.6055H96.1909C95.6294 20.6055 95.251 20.2271 95.0557 19.4702L90.4902 2.31934H94.665L99.1328 19.5679C99.2549 20.0317 99.4583 20.3776 99.7432 20.6055Z" fill="white"/>
<path d="M83.8862 6.64111H80.8223L80.1021 3.74805H83.1172L83.8862 6.64111ZM92.1626 20.606H80.4438C79.8009 20.606 79.3411 20.1665 79.0645 19.2876C78.9749 19.019 78.7959 18.1157 78.5273 16.5776H86.6816C86.112 15.7069 85.05 14.299 83.4956 12.354C81.9819 10.4741 80.867 9.15169 80.1509 8.38672H85.2656C86.1771 9.33887 87.2839 10.7386 88.5859 12.5859C89.8392 14.3682 90.6733 15.6947 91.0884 16.5654L92.1626 20.606Z" fill="white"/>
<path d="M76.0864 7.4834H72.5952L72.3267 6.40918H73.8647L72.4609 4.99316L74.7681 3.06445L75.0977 4.06543L74.0356 4.93213L75.8179 6.49463L76.0864 7.4834ZM81.0425 20.606H70.5566C70.1009 20.606 69.7713 20.5205 69.5679 20.3496C69.3726 20.1787 69.2139 19.8532 69.0918 19.373L68.5181 17.188C68.4937 17.0985 68.4814 16.9845 68.4814 16.8462C68.4814 16.1382 68.693 15.5156 69.1162 14.9785L72.7661 10.3887L70.9717 8.48438H75.9399C77.0386 9.48535 77.8035 10.3439 78.2349 11.0601C78.5929 11.646 78.9754 12.6063 79.3823 13.9409C79.7648 15.186 80.3182 17.4077 81.0425 20.606ZM76.001 16.5776L75.0732 13.5991L72.6929 16.5898L76.001 16.5776Z" fill="white"/>
<path d="M51.1714 2.90527H48.083L47.3872 0H50.3901L51.1714 2.90527ZM54.2109 6.78711H51.147L50.4146 3.88184H53.4297L54.2109 6.78711ZM49.9873 6.78711H46.9111L46.2031 3.88184H49.2061L49.9873 6.78711ZM60.644 20.6055H48.9253C48.2824 20.6055 47.8226 20.166 47.5459 19.2871C47.4564 19.0186 47.2773 18.1152 47.0088 16.5771H55.1631C54.5934 15.7064 53.5314 14.2985 51.9771 12.3535C50.4634 10.4736 49.3485 9.1512 48.6323 8.38623H53.7471C54.6585 9.33838 55.7653 10.7381 57.0674 12.5854C58.3206 14.3677 59.1548 15.6942 59.5698 16.5649L60.644 20.6055Z" fill="white"/>
<path d="M43.5913 6.49414H40.5273L39.7949 3.58887H42.8101L43.5913 6.49414ZM39.3677 6.49414H36.2915L35.5835 3.58887H38.5864L39.3677 6.49414ZM49.5361 20.6055H34.1553C33.5205 20.6055 33.0607 20.166 32.7759 19.2871C32.7026 19.0592 32.5277 18.1559 32.251 16.5771H36.3525C36.0677 16.2516 35.8236 15.7471 35.6201 15.0635C35.4085 14.3473 35.2987 13.6393 35.2905 12.9395C35.2824 11.5885 35.8073 10.4248 36.8652 9.44824C37.9313 8.47168 39.2415 7.9834 40.7959 7.9834C44.3034 7.9834 46.8628 10.6608 48.4741 16.0156C48.6369 16.5609 48.9909 18.0908 49.5361 20.6055ZM44.0674 16.5161C43.8883 15.4419 43.5384 14.4775 43.0176 13.623C42.3503 12.5163 41.5649 11.9588 40.6616 11.9507C40.2629 11.9425 39.9414 12.0809 39.6973 12.3657C39.4613 12.6424 39.3433 12.9801 39.3433 13.3789C39.3433 14.1032 39.7257 14.742 40.4907 15.2954C41.6056 16.1011 42.7979 16.508 44.0674 16.5161Z" fill="white"/>
<path d="M35.0225 20.6055H31.4702C30.9087 20.6055 30.5303 20.2271 30.335 19.4702L25.7695 2.31934H29.9443L34.4121 19.5679C34.5342 20.0317 34.7376 20.3776 35.0225 20.6055Z" fill="white"/>
<path d="M27.4658 20.6055H12.085C11.4502 20.6055 10.9904 20.166 10.7056 19.2871C10.6323 19.0592 10.4574 18.1559 10.1807 16.5771H14.2822C13.9974 16.2516 13.7533 15.7471 13.5498 15.0635C13.3382 14.3473 13.2284 13.6393 13.2202 12.9395C13.2121 11.5885 13.737 10.4248 14.7949 9.44824C15.861 8.47168 17.1712 7.9834 18.7256 7.9834C22.2331 7.9834 24.7925 10.6608 26.4038 16.0156C26.5666 16.5609 26.9206 18.0908 27.4658 20.6055ZM21.9971 16.5161C21.818 15.4419 21.4681 14.4775 20.9473 13.623C20.2799 12.5163 19.4946 11.9588 18.5913 11.9507C18.1925 11.9425 17.8711 12.0809 17.627 12.3657C17.391 12.6424 17.2729 12.9801 17.2729 13.3789C17.2729 14.1032 17.6554 14.742 18.4204 15.2954C19.5353 16.1011 20.7275 16.508 21.9971 16.5161ZM19.2383 6.43311H16.1621L15.4541 3.54004H18.4692L19.2383 6.43311Z" fill="white"/>
<path d="M7.60498 7.4834H4.11377L3.84521 6.40918H5.3833L3.97949 4.99316L6.28662 3.06445L6.61621 4.06543L5.5542 4.93213L7.33643 6.49463L7.60498 7.4834ZM12.561 20.606H2.0752C1.61947 20.606 1.28988 20.5205 1.08643 20.3496C0.891113 20.1787 0.732422 19.8532 0.610352 19.373L0.0366211 17.188C0.012207 17.0985 0 16.9845 0 16.8462C0 16.1382 0.211589 15.5156 0.634766 14.9785L4.28467 10.3887L2.49023 8.48438H7.4585C8.55713 9.48535 9.3221 10.3439 9.75342 11.0601C10.1115 11.646 10.494 12.6063 10.9009 13.9409C11.2834 15.186 11.8368 17.4077 12.561 20.606ZM7.51953 16.5776L6.5918 13.5991L4.21143 16.5898L7.51953 16.5776Z" fill="white"/>
</svg>
