<svg width="127" height="23" viewBox="0 0 127 23" fill="none" xmlns="http://www.w3.org/2000/svg">
<path d="M126.312 17.0205C126.288 16.9725 126.252 16.8285 126.204 16.5885C126.18 16.3245 126.168 16.1085 126.168 15.9405C126.168 15.8445 126.132 15.3645 126.06 14.5005C125.988 13.6125 125.856 12.3405 125.664 10.6845L124.8 2.90849C124.8 2.78849 124.848 2.64449 124.944 2.47649C125.04 2.30849 125.16 2.12849 125.304 1.93649C125.472 1.72049 125.652 1.51649 125.844 1.32449C126.036 1.10849 126.216 0.916493 126.384 0.748493C126.504 0.652493 126.6 0.604492 126.672 0.604492C126.72 0.604492 126.744 0.700493 126.744 0.892492C126.792 1.46849 126.828 2.16449 126.852 2.98049C126.9 3.79649 126.924 4.66049 126.924 5.57249C126.948 6.46049 126.96 7.37249 126.96 8.30849C126.984 9.22049 126.996 10.0725 126.996 10.8645C126.996 11.7045 126.984 12.4605 126.96 13.1325C126.96 13.7805 126.948 14.2725 126.924 14.6085C126.804 15.2805 126.684 15.8685 126.564 16.3725C126.444 16.8525 126.36 17.0685 126.312 17.0205Z" fill="white"/>
<path d="M120.696 14.3924C120.696 14.2724 120.624 14.0804 120.48 13.8164C120.336 13.5284 120.24 13.3484 120.192 13.2764C120.072 13.3964 119.892 13.5404 119.652 13.7084C119.412 13.8764 119.136 14.0444 118.824 14.2124C118.512 14.3804 118.176 14.5364 117.816 14.6804C117.48 14.8004 117.144 14.8844 116.808 14.9324C116.976 14.9564 117.144 14.9804 117.312 15.0044C117.48 15.0044 117.648 15.0044 117.816 15.0044C118.44 15.0044 119.028 14.9444 119.58 14.8244C120.132 14.7044 120.504 14.5604 120.696 14.3924ZM122.028 7.55245C122.028 8.46445 121.932 9.35245 121.74 10.2164C121.548 11.0804 121.212 11.8484 120.732 12.5204C120.9 12.7604 121.08 13.0964 121.272 13.5284C121.488 13.9364 121.596 14.3084 121.596 14.6444C121.596 14.9084 121.524 15.2084 121.38 15.5444C121.236 15.8804 121.068 16.1444 120.876 16.3364C120.78 16.4564 120.6 16.5644 120.336 16.6604C120.072 16.7324 119.76 16.7924 119.4 16.8404C119.04 16.8884 118.656 16.9244 118.248 16.9484C117.84 16.9964 117.432 17.0204 117.024 17.0204C116.616 17.0204 116.22 16.9964 115.836 16.9484C115.476 16.9244 115.164 16.8764 114.9 16.8044C114.9 16.6604 114.924 16.4444 114.972 16.1564C115.044 15.8444 115.128 15.5444 115.224 15.2564C115.344 14.9684 115.476 14.7164 115.62 14.5004C115.764 14.2844 115.908 14.1764 116.052 14.1764C116.772 14.1524 117.456 13.9604 118.104 13.6004C118.752 13.2164 119.268 12.7844 119.652 12.3044C119.364 11.8004 118.98 11.3324 118.5 10.9004C118.02 10.4444 117.516 10.0484 116.988 9.71245C116.484 9.35245 115.992 9.06445 115.512 8.84844C115.056 8.60845 114.696 8.45245 114.432 8.38045C114.312 8.33245 114.228 8.34445 114.18 8.41645C114.156 8.48845 114.132 8.53645 114.108 8.56045C113.988 8.80045 113.724 8.77645 113.316 8.48845C112.98 8.22445 112.632 7.91245 112.272 7.55245C111.912 7.16845 111.672 6.86845 111.552 6.65245C111.432 6.36445 111.372 6.06445 111.372 5.75245C111.372 5.48845 111.408 5.23645 111.48 4.99645C111.528 4.73245 111.588 4.52845 111.66 4.38445C111.78 4.12045 111.924 3.98845 112.092 3.98845C112.188 3.98845 112.32 4.03645 112.488 4.13245C113.376 4.70845 114.228 5.33245 115.044 6.00445C115.86 6.65245 116.604 7.30045 117.276 7.94845C117.972 8.59645 118.56 9.24445 119.04 9.89245C119.544 10.5164 119.916 11.0924 120.156 11.6204C120.348 11.2364 120.48 10.8164 120.552 10.3604C120.648 9.90445 120.696 9.40044 120.696 8.84844C120.648 8.10445 120.564 7.34845 120.444 6.58045C120.324 5.78845 120.192 5.09245 120.048 4.49245C119.856 4.25245 119.628 4.00045 119.364 3.73645C119.124 3.47245 119.004 3.20845 119.004 2.94445C119.004 2.60845 119.124 2.28445 119.364 1.97245C119.628 1.66045 119.94 1.37245 120.3 1.10845C120.54 0.940445 120.72 0.856445 120.84 0.856445C121.008 0.856445 121.092 0.964446 121.092 1.18045V1.43245C121.092 1.67245 121.188 1.88845 121.38 2.08045C121.596 2.27245 121.764 2.40445 121.884 2.47645C122.34 2.62045 122.568 2.88445 122.568 3.26845C122.568 3.46045 122.484 3.67645 122.316 3.91645C122.268 4.06045 122.16 4.20445 121.992 4.34845C121.848 4.49245 121.776 4.64845 121.776 4.81645C121.824 5.24845 121.872 5.69245 121.92 6.14845C121.968 6.60445 122.004 7.07245 122.028 7.55245Z" fill="white"/>
<path d="M96.5404 13.4998C97.3564 13.4998 98.0644 13.2838 98.6644 12.8518C99.2884 12.4198 99.8164 11.8918 100.248 11.2678C100.344 11.1478 100.44 11.0157 100.536 10.8717C100.632 10.7277 100.716 10.6558 100.788 10.6558C100.908 10.6558 100.968 10.7158 100.968 10.8358C100.968 10.9558 100.908 11.1598 100.788 11.4478C100.668 11.7118 100.524 12.0238 100.356 12.3838C100.212 12.7198 100.008 13.0918 99.7444 13.4998C99.8644 13.4998 99.9964 13.4998 100.14 13.4998C100.308 13.4758 100.416 13.4638 100.464 13.4638C101.544 13.3678 102.468 13.1038 103.236 12.6718C104.004 12.2398 104.616 11.6878 105.072 11.0158C105.096 10.9918 105.144 10.8958 105.216 10.7278C105.312 10.5358 105.408 10.3438 105.504 10.1518C105.6 9.93575 105.684 9.75575 105.756 9.61175C105.852 9.44375 105.912 9.35975 105.936 9.35975C106.008 9.35975 106.056 9.43175 106.08 9.57575C106.104 9.69575 106.116 9.80375 106.116 9.89975C106.116 9.97175 106.092 10.1398 106.044 10.4038C106.02 10.6678 105.912 11.1238 105.72 11.7718C105.816 11.9398 105.996 12.0957 106.26 12.2397C106.524 12.3838 106.812 12.5157 107.124 12.6357C107.436 12.7317 107.748 12.8158 108.06 12.8878C108.372 12.9358 108.636 12.9718 108.852 12.9958C108.828 12.7798 108.78 12.5038 108.708 12.1678C108.66 11.8318 108.588 11.4838 108.492 11.1238C108.42 10.7638 108.336 10.4038 108.24 10.0438C108.168 9.68375 108.096 9.38375 108.024 9.14375C108.024 9.07175 108.084 8.95175 108.204 8.78375C108.324 8.59175 108.456 8.39975 108.6 8.20775C108.744 7.99175 108.876 7.81175 108.996 7.66775C109.116 7.49975 109.2 7.40375 109.248 7.37975C109.272 7.37975 109.284 7.37975 109.284 7.37975C109.308 7.35575 109.332 7.34375 109.356 7.34375C109.476 7.34375 109.584 7.55975 109.68 7.99175C109.776 8.39975 109.86 8.85575 109.932 9.35975C110.004 9.86375 110.052 10.3317 110.076 10.7638C110.124 11.1957 110.148 11.4238 110.148 11.4478C110.148 12.4078 109.968 13.2598 109.608 14.0038C109.248 14.7478 108.852 15.1918 108.42 15.3358C108.18 15.3358 107.88 15.2998 107.52 15.2278C107.16 15.1318 106.8 15.0118 106.44 14.8678C106.104 14.7238 105.78 14.5678 105.468 14.3998C105.18 14.2078 104.976 14.0038 104.856 13.7878C104.832 13.7638 104.82 13.6798 104.82 13.5358C104.82 13.4158 104.832 13.3318 104.856 13.2838C104.232 14.1238 103.464 14.7598 102.552 15.1918C101.64 15.5998 100.728 15.8038 99.8164 15.8038C99.6244 15.8038 99.4684 15.7198 99.3484 15.5518C99.2284 15.3598 99.1684 15.1438 99.1684 14.9038C99.1684 14.7358 99.2044 14.5558 99.2764 14.3638C99.0364 14.6518 98.6764 14.9638 98.1964 15.2998C97.7404 15.6358 97.1884 15.8038 96.5404 15.8038C96.2764 15.8038 96.0484 15.7558 95.8564 15.6598C95.6644 15.5398 95.5684 15.2278 95.5684 14.7238C95.5684 14.2438 95.6644 13.9198 95.8564 13.7518C96.0484 13.5838 96.2764 13.4998 96.5404 13.4998Z" fill="white"/>
<path d="M81.5474 15.408C82.0994 15.408 82.5434 15.408 82.8794 15.408C83.2154 15.384 83.6594 15.372 84.2114 15.372C84.8114 15.3 85.5794 15.144 86.5154 14.904C87.4754 14.664 88.6274 14.412 89.9714 14.148C90.0194 14.148 90.0674 14.136 90.1154 14.112C90.1634 14.064 90.2114 14.04 90.2594 14.04C91.1714 13.872 92.2034 13.74 93.3554 13.644C94.5074 13.524 95.5634 13.404 96.5234 13.284C96.8114 13.236 97.0154 13.344 97.1354 13.608C97.2554 13.872 97.3154 14.148 97.3154 14.436C97.3154 14.7 97.2554 14.928 97.1354 15.12C97.0394 15.288 96.8354 15.396 96.5234 15.444C95.6114 15.54 94.4954 15.624 93.1754 15.696C91.8794 15.744 90.5114 15.78 89.0714 15.804C88.5194 15.804 87.8834 15.804 87.1634 15.804C86.4674 15.78 85.7594 15.756 85.0394 15.732C84.3434 15.684 83.6714 15.636 83.0234 15.588C82.3994 15.54 81.9074 15.48 81.5474 15.408ZM79.2434 13.5C79.3394 13.5 79.5074 13.5 79.7474 13.5C80.0114 13.5 80.2754 13.5 80.5394 13.5C80.8274 13.5 81.0914 13.5 81.3314 13.5C81.5714 13.476 81.7394 13.464 81.8354 13.464C81.9554 13.416 82.0274 13.308 82.0514 13.14C82.0754 12.972 82.0874 12.792 82.0874 12.6V12.384C82.0634 11.88 82.0154 11.28 81.9434 10.584C81.8954 9.864 81.8234 9.108 81.7274 8.316C81.6314 7.524 81.5114 6.72 81.3674 5.904C81.2474 5.088 81.1034 4.32 80.9354 3.6C80.6954 3.336 80.4554 3.084 80.2154 2.844C79.9994 2.58 79.8914 2.316 79.8914 2.052C79.8914 1.764 80.0114 1.476 80.2514 1.188C80.5154 0.899999 80.8274 0.612 81.1874 0.324C81.4514 0.108 81.6314 0 81.7274 0C81.7994 0 81.8474 0.036 81.8714 0.108C81.8954 0.18 81.9074 0.251999 81.9074 0.324C81.9074 0.371999 81.8954 0.432 81.8714 0.504C81.8714 0.576 81.8714 0.635999 81.8714 0.684C81.8714 0.948 82.0274 1.14 82.3394 1.26C82.6514 1.356 82.8794 1.44 83.0234 1.512C83.2634 1.632 83.4194 1.752 83.4914 1.872C83.5634 1.968 83.5994 2.088 83.5994 2.232C83.5994 2.376 83.5514 2.532 83.4554 2.7C83.3834 2.844 83.2874 3 83.1674 3.168C83.0714 3.312 82.9754 3.456 82.8794 3.6C82.7834 3.744 82.7354 3.876 82.7354 3.996C82.7354 4.308 82.7354 4.812 82.7354 5.508C82.7594 6.18 82.7834 6.924 82.8074 7.74C82.8314 8.556 82.8554 9.372 82.8794 10.188C82.9034 11.004 82.9154 11.7 82.9154 12.276V12.744C82.9634 12.648 83.0354 12.552 83.1314 12.456C83.2274 12.336 83.2994 12.24 83.3474 12.168C83.7314 11.688 84.1874 11.148 84.7154 10.548C85.2674 9.948 85.8314 9.396 86.4074 8.892C87.0074 8.364 87.6194 7.932 88.2434 7.596C88.8914 7.236 89.5154 7.056 90.1154 7.056C90.4514 7.08 90.8114 7.188 91.1954 7.38C91.5794 7.548 91.9754 7.836 92.3834 8.244C93.2954 9.156 93.7514 10.02 93.7514 10.836C93.7274 11.316 93.5354 11.82 93.1754 12.348C92.8154 12.876 92.4314 13.272 92.0234 13.536C91.2794 13.968 90.5114 14.316 89.7194 14.58C88.9274 14.844 88.1114 15.048 87.2714 15.192C86.4554 15.336 85.6274 15.444 84.7874 15.516C83.9474 15.588 83.1194 15.648 82.3034 15.696C82.2314 15.96 82.1234 16.2 81.9794 16.416C81.8594 16.632 81.5954 16.824 81.1874 16.992L81.5474 15.732C81.2114 15.78 80.8634 15.804 80.5034 15.804C80.1434 15.804 79.7234 15.804 79.2434 15.804C78.9074 15.804 78.7034 15.684 78.6314 15.444C78.5594 15.204 78.5234 14.94 78.5234 14.652V14.58C78.5234 14.316 78.5594 14.076 78.6314 13.86C78.6794 13.62 78.8834 13.5 79.2434 13.5ZM89.3954 9.288C88.8434 9.288 88.2914 9.42 87.7394 9.684C87.1874 9.924 86.6354 10.248 86.0834 10.656C85.5554 11.04 85.0394 11.484 84.5354 11.988C84.0554 12.468 83.6114 12.936 83.2034 13.392C85.0034 13.224 86.7314 12.996 88.3874 12.708C90.0434 12.396 91.4114 12.012 92.4914 11.556C92.0594 10.98 91.5554 10.464 90.9794 10.008C90.4034 9.528 89.8754 9.288 89.3954 9.288Z" fill="white"/>
<path d="M76.92 16.0121C76.248 15.9881 75.564 15.9401 74.868 15.8681C74.172 15.7721 73.536 15.6281 72.96 15.4361C72.408 15.2441 71.952 14.9921 71.592 14.6801C71.232 14.3681 71.052 13.9841 71.052 13.5281C71.052 13.1681 71.148 12.7121 71.34 12.1601C71.532 11.5841 71.784 11.0201 72.096 10.4681C72.432 9.91615 72.804 9.44815 73.212 9.06415C73.644 8.65615 74.088 8.45215 74.544 8.45215C74.88 8.45215 75.216 8.62015 75.552 8.95615C75.912 9.26815 76.248 9.68815 76.56 10.2161C76.872 10.7201 77.16 11.2961 77.424 11.9441C77.688 12.5681 77.904 13.1801 78.072 13.7801H79.08C79.536 13.7801 79.86 13.8881 80.052 14.1041C80.244 14.3201 80.34 14.5841 80.34 14.8961C80.34 15.2321 80.244 15.5201 80.052 15.7601C79.86 15.9761 79.536 16.0841 79.08 16.0841H78C77.808 17.2601 77.424 18.3881 76.848 19.4681C76.272 20.5481 75.564 21.4001 74.724 22.0241C74.268 22.3601 73.752 22.6001 73.176 22.7441C72.624 22.8881 72.108 22.9601 71.628 22.9601C71.052 22.9601 70.44 22.9241 69.792 22.8521C69.144 22.8041 68.52 22.7081 67.92 22.5641C67.752 22.4921 67.668 22.4081 67.668 22.3122C67.668 22.1201 67.824 22.0001 68.136 21.9521C68.736 21.9041 69.336 21.8081 69.936 21.6641C70.536 21.5441 71.112 21.3881 71.664 21.1961C71.928 21.0761 72.24 20.9201 72.6 20.7281C72.984 20.5601 73.392 20.2961 73.824 19.9361C74.112 19.7201 74.412 19.4441 74.724 19.1081C75.036 18.7961 75.324 18.4601 75.588 18.1001C75.876 17.7401 76.128 17.3801 76.344 17.0201C76.584 16.6601 76.776 16.3241 76.92 16.0121ZM76.452 13.7081C76.044 12.8441 75.612 12.1361 75.156 11.5841C74.724 11.0321 74.316 10.7561 73.932 10.7561C73.596 10.7561 73.272 10.9481 72.96 11.3321C72.672 11.7161 72.432 12.0881 72.24 12.4481C72.456 12.7121 72.732 12.9281 73.068 13.0961C73.404 13.2401 73.764 13.3601 74.148 13.4561C74.532 13.5521 74.928 13.6241 75.336 13.6721C75.744 13.6961 76.116 13.7081 76.452 13.7081Z" fill="white"/>
<path d="M67.3899 17.0205C67.3659 16.9725 67.3299 16.8285 67.2819 16.5885C67.2579 16.3245 67.2459 16.1085 67.2459 15.9405C67.2459 15.8445 67.2099 15.3645 67.1379 14.5005C67.0659 13.6125 66.9339 12.3405 66.7419 10.6845L65.8779 2.90849C65.8779 2.78849 65.9259 2.64449 66.0219 2.47649C66.1179 2.30849 66.2379 2.12849 66.3819 1.93649C66.5499 1.72049 66.7299 1.51649 66.9219 1.32449C67.1139 1.10849 67.2939 0.916493 67.4619 0.748493C67.5819 0.652493 67.6779 0.604492 67.7499 0.604492C67.7979 0.604492 67.8219 0.700493 67.8219 0.892492C67.8699 1.46849 67.9059 2.16449 67.9299 2.98049C67.9779 3.79649 68.0019 4.66049 68.0019 5.57249C68.0259 6.46049 68.0379 7.37249 68.0379 8.30849C68.0619 9.22049 68.0739 10.0725 68.0739 10.8645C68.0739 11.7045 68.0619 12.4605 68.0379 13.1325C68.0379 13.7805 68.0259 14.2725 68.0019 14.6085C67.8819 15.2805 67.7619 15.8685 67.6419 16.3725C67.5219 16.8525 67.4379 17.0685 67.3899 17.0205Z" fill="white"/>
<path d="M57.7629 14.5C58.1229 14.5 58.5189 14.488 58.9509 14.464C59.4069 14.416 59.8389 14.368 60.2469 14.32C60.6549 14.272 61.0269 14.224 61.3629 14.176C61.6989 14.104 61.9509 14.044 62.1189 13.996C62.0469 13.756 61.9269 13.48 61.7589 13.168C61.6149 12.832 61.4349 12.496 61.2189 12.16C61.0269 11.824 60.8229 11.488 60.6069 11.152C60.3909 10.816 60.1749 10.516 59.9589 10.252C59.9109 10.18 59.8749 10.084 59.8509 9.96399C59.8509 9.84399 59.8749 9.75999 59.9229 9.71199C59.9709 9.56799 60.0669 9.41199 60.2109 9.24399C60.3549 9.05199 60.4869 8.85999 60.6069 8.66799C60.7509 8.45199 60.9189 8.23599 61.1109 8.01999C61.4469 8.45199 61.7349 8.93199 61.9749 9.45999C62.2389 9.96399 62.4549 10.468 62.6229 10.972C62.8149 11.476 62.9469 11.944 63.0189 12.376C63.1149 12.784 63.1629 13.108 63.1629 13.348C63.1629 13.564 63.1269 13.816 63.0549 14.104C62.9829 14.368 62.8869 14.632 62.7669 14.896C62.6709 15.136 62.5629 15.364 62.4429 15.58C62.3469 15.796 62.2629 15.94 62.1909 16.012C61.7109 16.276 61.0629 16.48 60.2469 16.624C59.4309 16.744 58.6029 16.804 57.7629 16.804C57.4269 16.804 57.1389 16.744 56.8989 16.624C56.6349 16.504 56.5029 16.168 56.5029 15.616C56.5029 15.328 56.5509 15.112 56.6469 14.968C56.7189 14.8 56.8149 14.68 56.9349 14.608C57.0549 14.536 57.1869 14.5 57.3309 14.5C57.4749 14.5 57.6189 14.5 57.7629 14.5ZM60.6789 3.98799C60.5829 4.13199 60.4629 4.33599 60.3189 4.59999C60.1749 4.86399 60.0429 4.99599 59.9229 4.99599C59.8029 4.99599 59.6229 4.93599 59.3829 4.81599C59.1669 4.69599 58.9989 4.58799 58.8789 4.49199C58.7589 4.39599 58.5549 4.26399 58.2669 4.09599C57.9789 3.90399 57.8349 3.77199 57.8349 3.69999C57.8349 3.55599 57.9069 3.37599 58.0509 3.15999C58.1949 2.94399 58.3029 2.77599 58.3749 2.65599C58.4469 2.53599 58.5669 2.36799 58.7349 2.15199C58.9029 1.91199 58.9989 1.79199 59.0229 1.79199C59.1429 1.79199 59.3229 1.87599 59.5629 2.04399C59.8029 2.18799 59.9709 2.28399 60.0669 2.33199C60.0909 2.33199 60.1509 2.36799 60.2469 2.43999C60.3669 2.51199 60.4869 2.59599 60.6069 2.69199C60.7269 2.76399 60.8349 2.84799 60.9309 2.94399C61.0509 3.01599 61.1109 3.06399 61.1109 3.08799C61.1109 3.23199 61.0509 3.39999 60.9309 3.59199C60.8109 3.75999 60.7269 3.89199 60.6789 3.98799Z" fill="white"/>
<path d="M53.611 13.9236C53.563 13.8036 53.515 13.7676 53.467 13.8156C52.915 14.1036 52.315 14.3316 51.667 14.4996C51.043 14.6436 50.455 14.7156 49.903 14.7156C49.711 14.7156 49.483 14.7036 49.219 14.6796C48.979 14.6316 48.739 14.5716 48.499 14.4996C48.283 14.4276 48.091 14.3316 47.923 14.2116C47.779 14.0916 47.707 13.9356 47.707 13.7436C47.707 13.3116 47.875 12.8196 48.211 12.2676C48.547 11.7156 48.967 11.1516 49.471 10.5756C49.975 9.99955 50.527 9.44755 51.127 8.91955C51.727 8.39155 52.303 7.92356 52.855 7.51556V7.22756C52.855 6.84356 52.951 6.48356 53.143 6.14756C53.335 5.78755 53.647 5.48755 54.079 5.24755C54.151 5.41555 54.199 5.76355 54.223 6.29155C54.271 6.81955 54.319 7.53956 54.367 8.45156C54.415 9.45956 54.487 10.3476 54.583 11.1156C54.703 11.8596 54.871 12.4836 55.087 12.9876C55.327 13.4916 55.639 13.8756 56.023 14.1396C56.431 14.3796 56.959 14.4996 57.607 14.4996C58.183 14.4996 58.555 14.6196 58.723 14.8596C58.891 15.0756 58.975 15.3516 58.975 15.6876C58.975 16.0236 58.867 16.2996 58.651 16.5156C58.459 16.7076 58.111 16.8036 57.607 16.8036C56.599 16.8036 55.783 16.5636 55.159 16.0836C54.535 15.5796 54.019 14.8596 53.611 13.9236ZM50.623 12.3756C51.007 12.3756 51.415 12.3516 51.847 12.3036C52.303 12.2316 52.747 12.0996 53.179 11.9076C53.107 11.4036 53.059 10.8876 53.035 10.3596C53.011 9.83156 52.975 9.30356 52.927 8.77556C52.687 8.96756 52.423 9.20756 52.135 9.49555C51.847 9.75956 51.559 10.0476 51.271 10.3596C51.007 10.6716 50.767 10.9956 50.551 11.3316C50.335 11.6676 50.191 12.0036 50.119 12.3396C50.215 12.3636 50.383 12.3756 50.623 12.3756ZM50.731 4.05956C50.659 4.20355 50.551 4.40756 50.407 4.67156C50.263 4.93556 50.131 5.06756 50.011 5.06756C49.891 5.06756 49.711 5.00755 49.471 4.88755C49.231 4.74355 49.051 4.62355 48.931 4.52755C48.811 4.45555 48.607 4.33555 48.319 4.16755C48.055 3.97555 47.923 3.83156 47.923 3.73556C47.923 3.61556 47.995 3.44755 48.139 3.23155C48.283 2.99155 48.391 2.81155 48.463 2.69156C48.535 2.59555 48.643 2.42755 48.787 2.18755C48.955 1.94755 49.063 1.82756 49.111 1.82756C49.231 1.82756 49.411 1.91156 49.651 2.07956C49.891 2.24756 50.059 2.35555 50.155 2.40355C50.179 2.40355 50.239 2.43955 50.335 2.51155C50.455 2.58355 50.575 2.65555 50.695 2.72755C50.815 2.79955 50.923 2.88355 51.019 2.97956C51.139 3.05155 51.199 3.11156 51.199 3.15956C51.199 3.30356 51.139 3.45955 51.019 3.62755C50.899 3.79555 50.803 3.93955 50.731 4.05956ZM53.863 3.37555C53.767 3.49555 53.647 3.69955 53.503 3.98756C53.359 4.25155 53.239 4.38355 53.143 4.38355C52.999 4.38355 52.807 4.32355 52.567 4.20356C52.351 4.05956 52.183 3.93955 52.063 3.84355C51.943 3.74755 51.739 3.61555 51.451 3.44755C51.163 3.27955 51.019 3.14755 51.019 3.05155C51.019 2.90756 51.091 2.72755 51.235 2.51155C51.403 2.29555 51.511 2.12755 51.559 2.00756C51.631 1.91155 51.751 1.74356 51.919 1.50356C52.087 1.26355 52.195 1.14355 52.243 1.14355C52.363 1.14355 52.543 1.22755 52.783 1.39555C53.023 1.56355 53.179 1.67155 53.251 1.71955C53.275 1.71955 53.335 1.75556 53.431 1.82756C53.551 1.89956 53.671 1.97155 53.791 2.04355C53.911 2.11555 54.019 2.19955 54.115 2.29555C54.235 2.36755 54.295 2.42756 54.295 2.47555C54.295 2.59556 54.235 2.75156 54.115 2.94355C54.019 3.11155 53.935 3.25555 53.863 3.37555Z" fill="white"/>
<path d="M39.9471 13.4198C39.6831 12.8918 39.3831 12.3038 39.0471 11.6558C38.7111 11.0078 38.3511 10.4558 37.9671 9.99977C37.9431 9.95177 37.9071 9.90377 37.8591 9.85577C37.8351 9.80777 37.8231 9.75977 37.8231 9.71177C37.8231 9.56777 37.8831 9.39977 38.0031 9.20777C38.1231 8.99177 38.2551 8.78777 38.3991 8.59577C38.5431 8.40377 38.6871 8.23577 38.8311 8.09177C38.9751 7.92377 39.0711 7.80377 39.1191 7.73177C39.4551 8.16377 39.7431 8.64377 39.9831 9.17177C40.2471 9.67577 40.4631 10.1798 40.6311 10.6838C40.8231 11.1878 40.9551 11.6558 41.0271 12.0878C41.1231 12.4958 41.1711 12.8198 41.1711 13.0598C41.1711 13.2758 41.1351 13.5278 41.0631 13.8158C40.9911 14.0798 40.8951 14.3438 40.7751 14.6078C40.6791 14.8478 40.5711 15.0758 40.4511 15.2918C40.3551 15.5078 40.2711 15.6518 40.1991 15.7238C39.9351 15.9158 39.5991 16.0838 39.1911 16.2278C38.7831 16.3478 38.3391 16.4558 37.8591 16.5518C37.4031 16.6478 36.9351 16.7198 36.4551 16.7678C35.9751 16.7918 35.5191 16.8038 35.0871 16.8038C34.7511 16.8038 34.4631 16.7438 34.2231 16.6238C33.9591 16.5038 33.8271 16.1678 33.8271 15.6158C33.8271 15.2078 33.9351 14.9198 34.1511 14.7518C34.3431 14.5838 34.6551 14.4998 35.0871 14.4998C35.4471 14.4998 35.8671 14.4878 36.3471 14.4638C36.8511 14.4158 37.3431 14.3678 37.8231 14.3198C38.3271 14.2478 38.7831 14.1638 39.1911 14.0678C39.5991 13.9718 39.8991 13.8638 40.0911 13.7438L39.9471 13.4198ZM37.7511 6.47178C37.6791 6.61577 37.5711 6.81977 37.4271 7.08377C37.3071 7.32377 37.1871 7.44377 37.0671 7.44377C36.9471 7.44377 36.7791 7.38377 36.5631 7.26377C36.3471 7.14377 36.1791 7.04777 36.0591 6.97577C35.9391 6.87977 35.7471 6.75977 35.4831 6.61577C35.2191 6.44777 35.0871 6.31577 35.0871 6.21978C35.0871 6.07577 35.1591 5.90777 35.3031 5.71577C35.4471 5.49977 35.5431 5.34377 35.5911 5.24777C35.6631 5.12777 35.7711 4.95977 35.9151 4.74377C36.0591 4.52777 36.1551 4.41977 36.2031 4.41977C36.3231 4.41977 36.4911 4.49177 36.7071 4.63577C36.9471 4.77977 37.1151 4.87577 37.2111 4.92377C37.2351 4.92377 37.2951 4.95977 37.3911 5.03177C37.4871 5.10377 37.5951 5.17577 37.7151 5.24777C37.8351 5.31977 37.9431 5.40377 38.0391 5.49977C38.1351 5.57177 38.1831 5.63177 38.1831 5.67977C38.1831 5.79977 38.1231 5.94377 38.0031 6.11177C37.8831 6.27977 37.7991 6.39977 37.7511 6.47178ZM40.6671 5.85977C40.5951 5.97977 40.4871 6.17177 40.3431 6.43577C40.1991 6.67577 40.0911 6.79577 40.0191 6.79577C39.8751 6.79577 39.6951 6.73577 39.4791 6.61577C39.2631 6.49577 39.0951 6.39977 38.9751 6.32778C38.8551 6.23177 38.6631 6.09977 38.3991 5.93177C38.1351 5.76377 38.0031 5.64377 38.0031 5.57177C38.0031 5.45177 38.0751 5.28377 38.2191 5.06777C38.3631 4.85177 38.4591 4.69577 38.5071 4.59977C38.5791 4.47977 38.6871 4.31177 38.8311 4.09577C38.9991 3.87977 39.1071 3.77177 39.1551 3.77177C39.2751 3.77177 39.4431 3.84377 39.6591 3.98777C39.8991 4.13177 40.0431 4.22777 40.0911 4.27577C40.1151 4.27577 40.1751 4.31177 40.2711 4.38377C40.3671 4.45577 40.4751 4.52777 40.5951 4.59977C40.7151 4.67177 40.8231 4.75577 40.9191 4.85177C41.0391 4.92377 41.0991 4.97177 41.0991 4.99577C41.0991 5.13977 41.0391 5.29577 40.9191 5.46377C40.8231 5.63177 40.7391 5.76377 40.6671 5.85977ZM38.5071 3.55577C38.4591 3.67577 38.3631 3.86777 38.2191 4.13177C38.0751 4.37177 37.9431 4.49177 37.8231 4.49177C37.7031 4.49177 37.5111 4.43177 37.2471 4.31177C36.9831 4.19177 36.8031 4.09577 36.7071 4.02377C36.5871 3.92777 36.4191 3.79577 36.2031 3.62777C35.9871 3.45977 35.8791 3.32777 35.8791 3.23177C35.8791 3.11177 35.9391 2.95577 36.0591 2.76377C36.2031 2.54777 36.3111 2.39177 36.3831 2.29577C36.4551 2.17577 36.5631 2.00777 36.7071 1.79177C36.8511 1.57577 36.9471 1.46777 36.9951 1.46777C37.1151 1.46777 37.2831 1.53977 37.4991 1.68377C37.7391 1.82777 37.8951 1.92377 37.9671 1.97177C37.9911 1.97177 38.0511 2.00777 38.1471 2.07977C38.2431 2.12777 38.3511 2.19977 38.4711 2.29577C38.5911 2.36777 38.6991 2.43977 38.7951 2.51177C38.9151 2.58377 38.9751 2.64377 38.9751 2.69177C38.9751 2.83577 38.9151 2.99177 38.7951 3.15977C38.6751 3.30377 38.5791 3.43577 38.5071 3.55577Z" fill="white"/>
<path d="M30.3498 13.8521C30.6138 13.7321 30.9498 13.6001 31.3578 13.4561C31.7658 13.2881 32.0538 13.1441 32.2218 13.0241C32.2458 12.9041 32.2578 12.7841 32.2578 12.6641C32.2818 12.5441 32.2938 12.4241 32.2938 12.3041C32.2938 11.6081 32.1498 11.0681 31.8618 10.6841C31.5978 10.3001 31.2378 10.1081 30.7818 10.1081C30.0378 10.1081 29.3298 10.5521 28.6578 11.4401C28.6098 11.6321 28.5858 11.7761 28.5858 11.8721C28.5858 12.3521 28.7658 12.7601 29.1258 13.0961C29.5098 13.4081 29.9178 13.6601 30.3498 13.8521ZM34.9938 16.8041C34.1538 16.8041 33.2658 16.7441 32.3298 16.6241C31.3938 16.4801 30.6018 16.2281 29.9538 15.8681C29.2578 16.1801 28.4898 16.4201 27.6498 16.5881C26.8338 16.7321 26.1018 16.8041 25.4538 16.8041C25.1178 16.8041 24.8418 16.7561 24.6258 16.6601C24.4098 16.5401 24.3018 16.2041 24.3018 15.6521C24.3018 15.1001 24.4458 14.7761 24.7338 14.6801C24.9978 14.5601 25.2378 14.5001 25.4538 14.5001C25.8138 14.5001 26.2458 14.4761 26.7498 14.4281C27.2538 14.3801 27.6378 14.3201 27.9018 14.2481C27.7818 14.0801 27.6498 13.8881 27.5058 13.6721C27.3618 13.4321 27.2898 13.1921 27.2898 12.9521C27.2898 12.2081 27.4458 11.5361 27.7578 10.9361C28.0698 10.3121 28.4538 9.78413 28.9098 9.35213C29.3898 8.92013 29.8818 8.58412 30.3858 8.34412C30.9138 8.10412 31.3818 7.98413 31.7898 7.98413C32.1018 7.98413 32.3778 8.08012 32.6178 8.27212C32.8578 8.46412 33.0498 8.70412 33.1938 8.99212C33.3378 9.28012 33.4458 9.60412 33.5178 9.96412C33.5898 10.3001 33.6258 10.6241 33.6258 10.9361C33.6258 11.5601 33.5298 12.1721 33.3378 12.7721C33.1458 13.3481 32.8698 13.8641 32.5098 14.3201C32.9178 14.3921 33.3138 14.4401 33.6978 14.4641C34.0818 14.4881 34.5138 14.5001 34.9938 14.5001C35.1618 14.5001 35.3658 14.5721 35.6058 14.7161C35.8698 14.8361 36.0018 15.1601 36.0018 15.6881C36.0018 16.0961 35.9058 16.3841 35.7138 16.5521C35.5218 16.7201 35.2818 16.8041 34.9938 16.8041ZM28.6578 4.74412C28.5858 4.88812 28.4778 5.09212 28.3338 5.35612C28.1898 5.62012 28.0578 5.75212 27.9378 5.75212C27.8178 5.75212 27.6378 5.69212 27.3978 5.57212C27.1578 5.42812 26.9778 5.30812 26.8578 5.21212C26.7378 5.14012 26.5338 5.02012 26.2458 4.85212C25.9818 4.66012 25.8498 4.51612 25.8498 4.42012C25.8498 4.30012 25.9218 4.13212 26.0658 3.91612C26.2098 3.67612 26.3178 3.49612 26.3898 3.37612C26.4618 3.28012 26.5698 3.11212 26.7138 2.87212C26.8818 2.63212 26.9898 2.51212 27.0378 2.51212C27.1578 2.51212 27.3378 2.59612 27.5778 2.76412C27.8178 2.93212 27.9858 3.04012 28.0818 3.08812C28.1058 3.08812 28.1658 3.12412 28.2618 3.19612C28.3818 3.26812 28.5018 3.34012 28.6218 3.41212C28.7418 3.48412 28.8498 3.56812 28.9458 3.66412C29.0658 3.73612 29.1258 3.79612 29.1258 3.84412C29.1258 3.98812 29.0658 4.14412 28.9458 4.31212C28.8258 4.48012 28.7298 4.62412 28.6578 4.74412ZM31.7898 4.06012C31.6938 4.18012 31.5738 4.38412 31.4298 4.67212C31.2858 4.93613 31.1658 5.06812 31.0698 5.06812C30.9258 5.06812 30.7338 5.00812 30.4938 4.88812C30.2778 4.74412 30.1098 4.62412 29.9898 4.52812C29.8698 4.43212 29.6658 4.30012 29.3778 4.13212C29.0898 3.96412 28.9458 3.83212 28.9458 3.73612C28.9458 3.59212 29.0178 3.41212 29.1618 3.19612C29.3298 2.98012 29.4378 2.81212 29.4858 2.69212C29.5578 2.59612 29.6778 2.42812 29.8458 2.18812C30.0138 1.94812 30.1218 1.82812 30.1698 1.82812C30.2898 1.82812 30.4698 1.91212 30.7098 2.08012C30.9498 2.24812 31.1058 2.35612 31.1778 2.40412C31.2018 2.40412 31.2618 2.44012 31.3578 2.51212C31.4778 2.58412 31.5978 2.65612 31.7178 2.72812C31.8378 2.80012 31.9458 2.88412 32.0418 2.98012C32.1618 3.05212 32.2218 3.11212 32.2218 3.16012C32.2218 3.28012 32.1618 3.43612 32.0418 3.62812C31.9458 3.79612 31.8618 3.94012 31.7898 4.06012Z" fill="white"/>
<path d="M25.304 14.4998C25.64 14.4998 25.916 14.6078 26.132 14.8238C26.348 15.0158 26.456 15.2798 26.456 15.6158C26.456 15.9518 26.348 16.2398 26.132 16.4798C25.916 16.6958 25.64 16.8038 25.304 16.8038C24.824 16.8038 24.332 16.7558 23.828 16.6598C23.348 16.5398 22.904 16.2878 22.496 15.9038C22.112 15.5198 21.788 14.9798 21.524 14.2838C21.26 13.5878 21.104 12.6398 21.056 11.4398C21.008 10.2878 20.936 8.99177 20.84 7.55177C20.768 6.08777 20.696 4.62377 20.624 3.15977C20.768 2.87177 20.912 2.59577 21.056 2.33177C21.176 2.11577 21.296 1.92377 21.416 1.75577C21.56 1.56377 21.692 1.46777 21.812 1.46777C21.86 1.46777 21.884 1.50377 21.884 1.57577C21.908 1.62377 21.932 1.75577 21.956 1.97177L22.532 11.6918C22.58 12.5558 22.808 13.2398 23.216 13.7438C23.648 14.2478 24.344 14.4998 25.304 14.4998Z" fill="white"/>
<path d="M12.4346 3.66377C12.3386 3.80777 12.2186 4.01177 12.0746 4.27577C11.9306 4.53977 11.7986 4.67177 11.6786 4.67177C11.5586 4.67177 11.3786 4.61177 11.1386 4.49177C10.9226 4.37177 10.7546 4.26377 10.6346 4.16777C10.5146 4.07177 10.3106 3.93977 10.0226 3.77177C9.73456 3.57977 9.59056 3.44777 9.59056 3.37577C9.59056 3.23177 9.66256 3.05177 9.80656 2.83577C9.95056 2.61977 10.0586 2.45177 10.1306 2.33177C10.2026 2.21177 10.3226 2.04378 10.4906 1.82778C10.6586 1.58777 10.7546 1.46777 10.7786 1.46777C10.8986 1.46777 11.0786 1.55177 11.3186 1.71977C11.5586 1.86377 11.7266 1.95977 11.8226 2.00777C11.8466 2.00777 11.9066 2.04377 12.0026 2.11577C12.1226 2.18777 12.2426 2.27177 12.3626 2.36777C12.4826 2.43977 12.5906 2.52377 12.6866 2.61977C12.8066 2.69177 12.8666 2.73977 12.8666 2.76377C12.8666 2.90777 12.8066 3.07577 12.6866 3.26777C12.5666 3.43577 12.4826 3.56777 12.4346 3.66377ZM16.0706 10.3598C15.7346 9.63977 15.3746 9.07577 14.9906 8.66777C14.6306 8.23577 14.2826 8.01977 13.9466 8.01977C13.6826 8.01977 13.4306 8.11577 13.1906 8.30777C12.9746 8.49977 12.8066 8.65577 12.6866 8.77577C12.6866 9.08777 12.6866 9.37577 12.6866 9.63977C12.7106 9.87977 12.7826 10.0598 12.9026 10.1798C13.0226 10.3478 13.2506 10.4798 13.5866 10.5758C13.9226 10.6478 14.2706 10.6838 14.6306 10.6838C14.8706 10.6598 15.0986 10.6118 15.3146 10.5398C15.5546 10.4678 15.8066 10.4078 16.0706 10.3598ZM9.91456 16.8038C9.57856 16.8038 9.30256 16.6958 9.08656 16.4798C8.84656 16.2638 8.72656 15.9878 8.72656 15.6518C8.72656 15.3158 8.84656 15.0398 9.08656 14.8238C9.30256 14.6078 9.57856 14.4998 9.91456 14.4998C10.8026 14.4998 11.6306 14.4518 12.3986 14.3558C13.1906 14.2598 13.8866 14.1398 14.4866 13.9958C15.0866 13.8518 15.5786 13.7078 15.9626 13.5638C16.3706 13.4198 16.6586 13.2998 16.8266 13.2038C16.8266 13.1558 16.8026 12.9998 16.7546 12.7358C16.7066 12.4478 16.6706 12.2438 16.6466 12.1238C16.3586 12.3158 15.9266 12.5078 15.3506 12.6998C14.7986 12.8678 14.2586 12.9518 13.7306 12.9518C13.0106 12.9518 12.4346 12.7118 12.0026 12.2318C11.5706 11.7278 11.3546 11.0798 11.3546 10.2878C11.3546 9.90377 11.4386 9.44777 11.6066 8.91977C11.7746 8.39177 12.0026 7.88777 12.2906 7.40777C12.6026 6.92777 12.9626 6.53177 13.3706 6.21978C13.7786 5.88377 14.2226 5.71577 14.7026 5.71577C15.1826 5.71577 15.6146 5.94377 15.9986 6.39977C16.4066 6.83177 16.7546 7.37177 17.0426 8.01977C17.3306 8.64377 17.5466 9.31578 17.6906 10.0358C17.8586 10.7558 17.9426 11.4038 17.9426 11.9798C17.9426 12.2198 17.9066 12.5078 17.8346 12.8438C17.7626 13.1558 17.6666 13.4678 17.5466 13.7798C17.4506 14.0918 17.3186 14.3918 17.1506 14.6798C16.9826 14.9438 16.8146 15.1478 16.6466 15.2918C16.4306 15.4598 16.0946 15.6398 15.6386 15.8318C15.1826 15.9998 14.6426 16.1558 14.0186 16.2998C13.4186 16.4438 12.7586 16.5638 12.0386 16.6598C11.3426 16.7558 10.6346 16.8038 9.91456 16.8038Z" fill="white"/>
<path d="M5.904 13.9236C5.856 13.8036 5.808 13.7676 5.76 13.8156C5.208 14.1036 4.608 14.3316 3.96 14.4996C3.336 14.6436 2.748 14.7156 2.196 14.7156C2.004 14.7156 1.776 14.7036 1.512 14.6796C1.272 14.6316 1.032 14.5716 0.792 14.4996C0.576 14.4276 0.384 14.3316 0.216 14.2116C0.0719999 14.0916 0 13.9356 0 13.7436C0 13.3116 0.168 12.8196 0.504 12.2676C0.84 11.7156 1.26 11.1516 1.764 10.5756C2.268 9.99955 2.82 9.44755 3.42 8.91955C4.02 8.39155 4.596 7.92356 5.148 7.51556V7.22756C5.148 6.84356 5.244 6.48356 5.436 6.14756C5.628 5.78755 5.94 5.48755 6.372 5.24755C6.444 5.41555 6.492 5.76355 6.516 6.29155C6.564 6.81955 6.612 7.53956 6.66 8.45156C6.708 9.45956 6.78 10.3476 6.876 11.1156C6.996 11.8596 7.164 12.4836 7.38 12.9876C7.62 13.4916 7.932 13.8756 8.316 14.1396C8.724 14.3796 9.252 14.4996 9.9 14.4996C10.476 14.4996 10.848 14.6196 11.016 14.8596C11.184 15.0756 11.268 15.3516 11.268 15.6876C11.268 16.0236 11.16 16.2996 10.944 16.5156C10.752 16.7076 10.404 16.8036 9.9 16.8036C8.892 16.8036 8.076 16.5636 7.452 16.0836C6.828 15.5796 6.312 14.8596 5.904 13.9236ZM2.916 12.3756C3.3 12.3756 3.708 12.3516 4.14 12.3036C4.596 12.2316 5.04 12.0996 5.472 11.9076C5.4 11.4036 5.352 10.8876 5.328 10.3596C5.304 9.83156 5.268 9.30356 5.22 8.77556C4.98 8.96756 4.716 9.20756 4.428 9.49555C4.14 9.75956 3.852 10.0476 3.564 10.3596C3.3 10.6716 3.06 10.9956 2.844 11.3316C2.628 11.6676 2.484 12.0036 2.412 12.3396C2.508 12.3636 2.676 12.3756 2.916 12.3756ZM3.024 4.05956C2.952 4.20355 2.844 4.40756 2.7 4.67156C2.556 4.93556 2.424 5.06756 2.304 5.06756C2.184 5.06756 2.004 5.00755 1.764 4.88755C1.524 4.74355 1.344 4.62355 1.224 4.52755C1.104 4.45555 0.9 4.33555 0.612 4.16755C0.348 3.97555 0.216 3.83156 0.216 3.73556C0.216 3.61556 0.288 3.44755 0.432 3.23155C0.576 2.99155 0.684 2.81155 0.756 2.69156C0.828 2.59555 0.936 2.42755 1.08 2.18755C1.248 1.94755 1.356 1.82756 1.404 1.82756C1.524 1.82756 1.704 1.91156 1.944 2.07956C2.184 2.24756 2.352 2.35555 2.448 2.40355C2.472 2.40355 2.532 2.43955 2.628 2.51155C2.748 2.58355 2.868 2.65555 2.988 2.72755C3.108 2.79955 3.216 2.88355 3.312 2.97956C3.432 3.05155 3.492 3.11156 3.492 3.15956C3.492 3.30356 3.432 3.45955 3.312 3.62755C3.192 3.79555 3.096 3.93955 3.024 4.05956ZM6.156 3.37555C6.06 3.49555 5.94 3.69955 5.796 3.98756C5.652 4.25155 5.532 4.38355 5.436 4.38355C5.292 4.38355 5.1 4.32355 4.86 4.20356C4.644 4.05956 4.476 3.93955 4.356 3.84355C4.236 3.74755 4.032 3.61555 3.744 3.44755C3.456 3.27955 3.312 3.14755 3.312 3.05155C3.312 2.90756 3.384 2.72755 3.528 2.51155C3.696 2.29555 3.804 2.12755 3.852 2.00756C3.924 1.91155 4.044 1.74356 4.212 1.50356C4.38 1.26355 4.488 1.14355 4.536 1.14355C4.656 1.14355 4.836 1.22755 5.076 1.39555C5.316 1.56355 5.472 1.67155 5.544 1.71955C5.568 1.71955 5.628 1.75556 5.724 1.82756C5.844 1.89956 5.964 1.97155 6.084 2.04355C6.204 2.11555 6.312 2.19955 6.408 2.29555C6.528 2.36755 6.588 2.42756 6.588 2.47555C6.588 2.59556 6.528 2.75156 6.408 2.94355C6.312 3.11155 6.228 3.25555 6.156 3.37555Z" fill="white"/>
</svg>
