<svg width="104" height="20" viewBox="0 0 104 20" fill="none" xmlns="http://www.w3.org/2000/svg">
<path d="M101.802 2.08337C102.185 1.3167 102.584 0.6727 102.998 0.151367H103.251C103.235 0.703367 103.258 1.2477 103.32 1.78437C103.381 2.32103 103.412 2.6507 103.412 2.77337L103.458 3.46337L103.504 3.94637C103.657 5.78637 103.734 7.25837 103.734 8.36237C103.734 9.09837 103.703 9.71937 103.642 10.2254C103.596 10.716 103.519 11.2987 103.412 11.9734C103.35 12.372 103.235 12.786 103.067 13.2154H102.722C102.737 13.062 102.745 12.786 102.745 12.3874C102.745 11.7434 102.722 11.1377 102.676 10.5704C102.63 10.141 102.553 9.5737 102.446 8.86837C102.292 7.76437 102.162 6.6987 102.055 5.67137C101.886 3.92337 101.802 2.72737 101.802 2.08337Z" fill="white"/>
<path d="M100.163 3.53237L99.5646 3.30237C99.58 3.44037 99.5876 3.6857 99.5876 4.03837C99.5876 5.74037 99.1813 7.2967 98.3686 8.70737C98.568 9.0907 98.7443 9.54303 98.8976 10.0644C99.0663 10.5857 99.143 11.0534 99.1276 11.4674L98.9666 12.8244C98.2153 12.993 97.4409 13.1234 96.6436 13.2154C95.8616 13.292 94.8803 13.3304 93.6996 13.3304C93.6996 12.395 93.738 11.6207 93.8146 11.0074L94.1136 10.9844C95.2023 10.693 96.1606 9.97237 96.9886 8.82237C96.268 7.61103 95.5473 6.6067 94.8266 5.80937C94.106 4.9967 93.5463 4.42937 93.1476 4.10737L92.8946 4.49837C92.4039 4.1917 91.875 3.8007 91.3076 3.32537C91.3383 2.95737 91.392 2.6047 91.4686 2.26737C91.5606 1.93003 91.6373 1.7077 91.6986 1.60037C91.7599 1.46237 91.8596 1.39337 91.9976 1.39337C92.0283 1.39337 92.1126 1.41637 92.2506 1.46237C92.404 1.53903 92.7183 1.78437 93.1936 2.19837C94.267 3.14903 95.2176 4.13037 96.0456 5.14237C96.7509 6.01637 97.2876 6.80603 97.6556 7.51137C98.0543 6.76003 98.3073 5.90903 98.4146 4.95837C98.4453 4.5597 98.4606 4.26837 98.4606 4.08437C98.4606 3.2257 98.3303 2.2597 98.0696 1.18637C98.499 0.849034 98.867 0.504034 99.1736 0.151367C99.3423 0.611367 99.557 1.03303 99.8176 1.41637C100.078 1.7997 100.362 2.10637 100.669 2.33637L100.163 3.53237ZM98.3226 10.8924C98.2766 10.7697 98.0543 10.3174 97.6556 9.53537C97.3336 10.026 96.9963 10.394 96.6436 10.6394C96.2909 10.8694 96.0993 10.9997 96.0686 11.0304C96.3753 11.0304 96.7586 11.0227 97.2186 11.0074C97.6786 10.9767 98.0466 10.9384 98.3226 10.8924Z" fill="white"/>
<path d="M90.2042 7.18945C90.4189 7.43479 90.6182 7.79512 90.8022 8.27045C90.9862 8.74579 91.0782 9.32845 91.0782 10.0185C91.0782 10.2025 91.0245 10.5168 90.9172 10.9615C90.8099 11.3908 90.6335 11.7818 90.3882 12.1345C89.9589 12.7325 89.3915 13.0315 88.6862 13.0315C88.0269 13.0315 87.5362 12.8781 87.2142 12.5715C86.8922 12.2495 86.7159 11.8891 86.6852 11.4905C86.5779 11.9505 86.3479 12.3568 85.9952 12.7095C85.6425 13.0468 85.1672 13.2155 84.5692 13.2155C84.0172 13.2155 83.5879 13.0468 83.2812 12.7095C82.9899 12.3721 82.8135 11.9581 82.7522 11.4675C82.7522 11.5288 82.7139 11.6745 82.6372 11.9045C82.5759 12.1191 82.4609 12.3261 82.2922 12.5255C81.8935 12.9855 81.3569 13.2155 80.6822 13.2155H79.8082C79.4709 13.2155 79.1949 13.1081 78.9802 12.8935C78.7655 12.6635 78.6582 12.4028 78.6582 12.1115C78.6582 11.8048 78.7732 11.5365 79.0032 11.3065C79.2332 11.0765 79.5015 10.9615 79.8082 10.9615H80.8432C81.5025 10.9615 82.0009 10.7085 82.3382 10.2025C82.4609 10.0031 82.5452 9.79612 82.5912 9.58145C82.6372 9.36679 82.6679 9.21345 82.6832 9.12145L83.1892 8.84545C83.1432 9.21345 83.1279 9.50479 83.1432 9.71945C83.1892 10.1181 83.3272 10.4401 83.5572 10.6855C83.8025 10.9308 84.2165 11.0535 84.7992 11.0535C85.6425 11.0535 86.1869 10.6318 86.4322 9.78845C86.4782 9.65045 86.5165 9.42812 86.5472 9.12145L87.0532 8.84545C87.0225 9.06012 87.0072 9.23645 87.0072 9.37445C87.0072 9.89579 87.1299 10.2868 87.3752 10.5475C87.6665 10.8848 88.1189 11.0535 88.7322 11.0535C89.1615 11.0535 89.4835 10.9691 89.6982 10.8005C89.9282 10.6318 90.1275 10.3098 90.2962 9.83445L89.2842 8.43145C89.5449 7.95612 89.8515 7.54212 90.2042 7.18945Z" fill="white"/>
<path d="M80.2727 10.9614V13.2154H77.7197L75.9027 13.1924H74.1547H70.1297L67.9677 13.2154H67.1167C66.8254 13.2154 66.5724 13.108 66.3577 12.8934C66.1277 12.6634 66.0127 12.395 66.0127 12.0884C66.0127 11.7664 66.12 11.498 66.3347 11.2834C66.534 11.0687 66.7947 10.9614 67.1167 10.9614H68.4737L69.4627 9.74237C69.4014 7.84103 69.1484 5.85537 68.7037 3.78537C68.535 2.98803 68.3587 2.35937 68.1747 1.89937L69.3017 0.151367C69.7004 0.918034 70.1604 1.57737 70.6817 2.12937C70.4517 2.3287 70.283 2.54337 70.1757 2.77337C70.0837 3.00337 70.0377 3.30237 70.0377 3.67037L70.0607 4.10737C70.1987 5.11937 70.283 6.03937 70.3137 6.86737C70.329 7.26603 70.329 7.62637 70.3137 7.94837C70.2984 8.27037 70.2754 8.5157 70.2447 8.68437C70.214 8.85303 70.191 8.96037 70.1757 9.00637L70.6127 8.52337C71.3947 7.6647 72.0847 7.05137 72.6827 6.68337C73.296 6.31537 73.917 6.13137 74.5457 6.13137C74.7757 6.13137 75.0287 6.1927 75.3047 6.31537C75.5807 6.4227 75.8414 6.57603 76.0867 6.77537C76.654 7.22003 76.9377 7.70303 76.9377 8.22437C76.9377 8.82237 76.7767 9.40503 76.4547 9.97237C76.148 10.5397 75.688 11.061 75.0747 11.5364C75.3967 11.4137 75.826 11.291 76.3627 11.1684C76.8994 11.0304 77.3977 10.9614 77.8577 10.9614H80.2727ZM74.1087 10.5934C74.4614 10.4554 74.7527 10.302 74.9827 10.1334C75.2127 9.94937 75.4734 9.7117 75.7647 9.42037C75.5194 8.89903 75.228 8.52337 74.8907 8.29337C74.5687 8.06337 74.1164 7.94837 73.5337 7.94837C73.0737 7.94837 72.5677 8.13237 72.0157 8.50037C71.479 8.85303 70.9654 9.28237 70.4747 9.78837C70.5054 9.7577 70.2677 10.0184 69.7617 10.5704L69.4167 10.9614H71.9697C72.721 10.9614 73.434 10.8387 74.1087 10.5934Z" fill="white"/>
<path d="M67.6168 13.2162H64.9488C64.9488 13.8142 64.8645 14.5426 64.6958 15.4012C64.5425 16.2599 64.2741 17.0419 63.8908 17.7472C63.5381 18.3759 63.1318 18.8436 62.6718 19.1502C62.1658 19.4722 61.6061 19.6332 60.9928 19.6332C60.8548 19.6332 60.6171 19.6179 60.2798 19.5872C59.8811 19.5566 59.5975 19.5412 59.4288 19.5412C59.0455 19.5412 58.5855 19.6026 58.0488 19.7252L57.8418 19.4262L58.9228 18.8512C59.2295 18.6826 59.5515 18.5062 59.8888 18.3222C60.2415 18.1382 60.5558 17.9696 60.8318 17.8162C61.4605 17.4482 61.9895 17.0649 62.4188 16.6662C63.1701 15.9609 63.6685 15.1022 63.9138 14.0902C63.9905 13.7836 64.0288 13.4922 64.0288 13.2162H62.8328C61.8515 13.2162 61.1768 12.9479 60.8088 12.4112C60.5021 11.9819 60.3488 11.3532 60.3488 10.5252C60.3488 10.1572 60.3795 9.84289 60.4408 9.58223C60.5021 9.32156 60.6095 9.02256 60.7628 8.68523C60.9621 8.27123 61.2075 7.93389 61.4988 7.67323C61.8055 7.41256 62.1428 7.28223 62.5108 7.28223C62.9095 7.28223 63.2698 7.42023 63.5918 7.69623C63.9138 7.97223 64.1821 8.34023 64.3968 8.80023C64.5501 9.12223 64.6728 9.48256 64.7648 9.88123C64.8568 10.2646 64.9028 10.6249 64.9028 10.9622H67.6168V13.2162ZM63.6148 9.81223C63.4921 9.55156 63.3158 9.34456 63.0858 9.19123C62.8711 9.02256 62.6181 8.93823 62.3268 8.93823C61.9741 8.93823 61.6751 9.03789 61.4298 9.23723C61.1998 9.43656 61.0848 9.67423 61.0848 9.95023C61.0848 10.3489 61.2151 10.6172 61.4758 10.7552C61.7365 10.8932 62.1045 10.9622 62.5798 10.9622H63.9138C63.9138 10.6249 63.8141 10.2416 63.6148 9.81223Z" fill="white"/>
<path d="M55.4199 2.08337C55.8033 1.3167 56.2019 0.6727 56.6159 0.151367H56.8689C56.8536 0.703367 56.8766 1.2477 56.9379 1.78437C56.9993 2.32103 57.0299 2.6507 57.0299 2.77337L57.0759 3.46337L57.1219 3.94637C57.2753 5.78637 57.3519 7.25837 57.3519 8.36237C57.3519 9.09837 57.3213 9.71937 57.2599 10.2254C57.2139 10.716 57.1373 11.2987 57.0299 11.9734C56.9686 12.372 56.8536 12.786 56.6849 13.2154H56.3399C56.3553 13.062 56.3629 12.786 56.3629 12.3874C56.3629 11.7434 56.3399 11.1377 56.2939 10.5704C56.2479 10.141 56.1713 9.5737 56.0639 8.86837C55.9106 7.76437 55.7803 6.6987 55.6729 5.67137C55.5043 3.92337 55.4199 2.72737 55.4199 2.08337Z" fill="white"/>
<path d="M53.33 6.33887C53.7133 6.75287 54.0047 7.2282 54.204 7.76487C54.4187 8.30153 54.526 8.85353 54.526 9.42087C54.526 10.3409 54.2883 11.1765 53.813 11.9279C53.261 12.7865 52.4483 13.2159 51.375 13.2159H50.294C49.972 13.2159 49.7037 13.1085 49.489 12.8939C49.2743 12.6639 49.167 12.3879 49.167 12.0659C49.167 11.7439 49.2743 11.4832 49.489 11.2839C49.6883 11.0692 49.9567 10.9619 50.294 10.9619H51.559C52.0803 10.9619 52.502 10.8622 52.824 10.6629C53.146 10.4482 53.376 10.2259 53.514 9.99587C53.6673 9.76587 53.744 9.62787 53.744 9.58187L52.341 7.92587C52.6477 7.2512 52.9773 6.7222 53.33 6.33887Z" fill="white"/>
<path d="M50.508 4C50.7533 4.184 50.991 4.391 51.221 4.621C51.4663 4.851 51.658 5.06567 51.796 5.265C51.4893 5.60233 51.0906 6.001 50.6 6.461C50.186 5.97033 49.7643 5.55633 49.335 5.219C49.7336 4.851 50.1246 4.44467 50.508 4Z" fill="white"/>
<path d="M50.7863 13.2162H49.8203C48.885 13.2162 48.172 12.8482 47.6813 12.1122C47.482 11.8209 47.3057 11.4759 47.1523 11.0772C46.999 10.6632 46.8457 10.1649 46.6923 9.58221C46.401 10.4102 45.9793 11.1002 45.4273 11.6522C45.0287 11.7135 44.6913 11.7442 44.4153 11.7442C43.9707 11.7442 43.5873 11.6982 43.2653 11.6062C42.652 11.4375 42.3837 11.0925 42.4603 10.5712L42.6903 9.19121C42.767 8.76188 43.1427 8.34788 43.8173 7.94921C44.1853 7.73454 44.5303 7.58888 44.8523 7.51221C45.1897 7.42021 45.5653 7.35121 45.9793 7.30521L45.6803 6.47721C45.941 6.13988 46.3013 5.81021 46.7613 5.48821C47.0067 6.27021 47.2443 6.99088 47.4743 7.65021L47.7273 8.38621C48.0033 9.16821 48.2027 9.70488 48.3253 9.99621C48.494 10.3642 48.6857 10.6172 48.9003 10.7552C49.1303 10.8932 49.4293 10.9622 49.7973 10.9622H50.7863V13.2162ZM45.1053 9.97321C45.412 9.97321 45.665 9.86588 45.8643 9.65121C46.079 9.43654 46.2707 9.12988 46.4393 8.73121L46.1173 7.71921L45.7953 8.38621C45.3047 8.38621 44.9597 8.40921 44.7603 8.45521C44.4077 8.53188 44.1163 8.69288 43.8863 8.93821C43.6563 9.18354 43.526 9.45954 43.4953 9.76621L43.4723 9.97321H45.1053ZM45.2663 2.86621C45.5117 3.01954 45.7493 3.21888 45.9793 3.46421C46.2247 3.69421 46.4163 3.91654 46.5543 4.13121C46.263 4.46854 45.8643 4.86721 45.3583 5.32721C45.067 4.95921 44.7373 4.62188 44.3693 4.31521C44.124 4.60654 43.7867 4.94388 43.3573 5.32721C42.9587 4.86721 42.5293 4.45321 42.0693 4.08521C42.652 3.50254 43.0507 3.09621 43.2653 2.86621C43.5567 3.05021 43.9093 3.37988 44.3233 3.85521C44.7833 3.39521 45.0977 3.06554 45.2663 2.86621Z" fill="white"/>
<path d="M32.3964 6.33887C32.7797 6.75287 33.0711 7.2282 33.2704 7.76487C33.4851 8.30153 33.5924 8.85353 33.5924 9.42087C33.5924 10.3409 33.3547 11.1765 32.8794 11.9279C32.3274 12.7865 31.5147 13.2159 30.4414 13.2159H29.3604C29.0384 13.2159 28.7701 13.1085 28.5554 12.8939C28.3407 12.6639 28.2334 12.3879 28.2334 12.0659C28.2334 11.7439 28.3407 11.4832 28.5554 11.2839C28.7547 11.0692 29.0231 10.9619 29.3604 10.9619H30.6254C31.1467 10.9619 31.5684 10.8622 31.8904 10.6629C32.2124 10.4482 32.4424 10.2259 32.5804 9.99587C32.7337 9.76587 32.8104 9.62787 32.8104 9.58187L31.4074 7.92587C31.7141 7.2512 32.0437 6.7222 32.3964 6.33887Z" fill="white"/>
<path d="M29.6862 3.65436C29.2722 3.16369 28.8505 2.74969 28.4212 2.41236C28.8965 1.96769 29.2952 1.56136 29.6172 1.19336C29.8472 1.34669 30.0772 1.54603 30.3072 1.79136C30.5525 2.02136 30.7442 2.24369 30.8822 2.45836C30.5142 2.88769 30.1155 3.28636 29.6862 3.65436ZM30.6062 3.65436C30.8515 3.80769 31.0892 4.00703 31.3192 4.25236C31.5645 4.48236 31.7562 4.70469 31.8942 4.91936C31.6028 5.25669 31.2042 5.65536 30.6982 6.11536C30.4068 5.74736 30.0772 5.41003 29.7092 5.10336C29.4638 5.39469 29.1265 5.73203 28.6972 6.11536C28.2985 5.65536 27.8692 5.24136 27.4092 4.87336C27.9918 4.29069 28.3905 3.88436 28.6052 3.65436C28.9425 3.88436 29.2952 4.21403 29.6632 4.64336C30.1232 4.18336 30.4375 3.85369 30.6062 3.65436Z" fill="white"/>
<path d="M24.7525 6.13184C25.2432 6.13184 25.6725 6.38484 26.0405 6.89084C26.4238 7.3815 26.6155 8.0715 26.6155 8.96084C26.6155 9.32884 26.5848 9.66617 26.5235 9.97284C26.4622 10.2642 26.3932 10.4942 26.3165 10.6628C26.2552 10.8162 26.2168 10.9158 26.2015 10.9618H29.8355V13.2158H27.9725C27.2825 13.2158 26.7765 13.1085 26.4545 12.8938C26.1325 12.6638 25.9178 12.4262 25.8105 12.1808C25.4118 12.8708 24.4228 13.2158 22.8435 13.2158H20.1065C19.7538 13.2158 19.4778 13.1085 19.2785 12.8938C19.0792 12.6638 18.9795 12.4032 18.9795 12.1118C18.9795 11.7898 19.0945 11.5215 19.3245 11.3068C19.5392 11.0768 19.7998 10.9618 20.1065 10.9618H22.5905C22.5598 10.9312 22.5062 10.8622 22.4295 10.7548C22.3682 10.6475 22.2992 10.4942 22.2225 10.2948C22.1612 10.0802 22.1305 9.8425 22.1305 9.58184C22.1305 9.1985 22.2072 8.79984 22.3605 8.38584C22.5292 7.97184 22.7438 7.59617 23.0045 7.25884C23.5565 6.5075 24.1392 6.13184 24.7525 6.13184ZM25.8565 9.28284C25.8565 9.0375 25.6725 8.7615 25.3045 8.45484C24.9518 8.13284 24.6298 7.97184 24.3385 7.97184C24.1085 7.97184 23.8785 8.0715 23.6485 8.27084C23.4338 8.47017 23.2575 8.67717 23.1195 8.89184C22.9815 9.1065 22.8972 9.2445 22.8665 9.30584C22.8665 9.35184 22.9202 9.48984 23.0275 9.71984C23.1502 9.94984 23.3188 10.1722 23.5335 10.3868C23.7635 10.5862 24.0395 10.6858 24.3615 10.6858C24.6528 10.6858 24.9135 10.6015 25.1435 10.4328C25.3735 10.2642 25.5498 10.0648 25.6725 9.83484C25.7952 9.60484 25.8565 9.42084 25.8565 9.28284Z" fill="white"/>
<path d="M25.7097 2.81543C25.955 2.96876 26.1927 3.1681 26.4227 3.41343C26.668 3.64343 26.8597 3.86576 26.9977 4.08043C26.7064 4.41776 26.3077 4.81643 25.8017 5.27643C25.5104 4.90843 25.1807 4.5711 24.8127 4.26443C24.5674 4.55576 24.23 4.8931 23.8007 5.27643C23.402 4.81643 22.9727 4.40243 22.5127 4.03443C23.0954 3.45176 23.494 3.04543 23.7087 2.81543C24 2.99943 24.3527 3.3291 24.7667 3.80443C25.2267 3.34443 25.541 3.01476 25.7097 2.81543Z" fill="white"/>
<path d="M20.5967 13.2154H18.9177C18.0437 13.2154 17.3844 12.924 16.9397 12.3414C16.4797 11.7127 16.2344 10.8847 16.2037 9.85737C16.173 8.1707 16.1194 6.6987 16.0427 5.44137C15.9814 4.1687 15.874 3.0187 15.7207 1.99137C15.9507 1.60803 16.2037 1.2247 16.4797 0.841367C16.771 0.4427 16.9397 0.212701 16.9857 0.151367H17.2387L17.4687 9.12137C17.4994 9.6887 17.6374 10.118 17.8827 10.4094C18.2047 10.7774 18.6877 10.9614 19.3317 10.9614H20.5967V13.2154Z" fill="white"/>
<path d="M11.6057 3.46387C12.265 3.46387 12.8017 3.81653 13.2157 4.52187C13.6297 5.2272 13.8827 6.06287 13.9747 7.02887C14.0053 7.3662 14.0207 7.6192 14.0207 7.78787C14.0207 8.56987 13.9133 9.32887 13.6987 10.0649C13.4073 11.0615 12.9473 11.8205 12.3187 12.3419C11.8893 12.6945 11.4063 12.9322 10.8697 13.0549C10.3483 13.1622 9.76566 13.2159 9.12166 13.2159H8.22466C7.91799 13.2159 7.65732 13.1085 7.44266 12.8939C7.21266 12.6639 7.09766 12.3879 7.09766 12.0659C7.09766 11.7592 7.21266 11.4985 7.44266 11.2839C7.65732 11.0692 7.91799 10.9619 8.22466 10.9619H10.0187C11.2913 10.9619 12.1807 10.6552 12.6867 10.0419C12.8553 9.85787 12.9857 9.62787 13.0777 9.35187C13.1697 9.07587 13.2003 8.80753 13.1697 8.54687C12.7557 8.94553 12.1653 9.14487 11.3987 9.14487C10.7547 9.14487 10.2563 8.98387 9.90366 8.66187C9.48966 8.29387 9.28266 7.74953 9.28266 7.02887C9.28266 6.64553 9.33632 6.24687 9.44366 5.83287C9.56632 5.40353 9.71966 5.0202 9.90366 4.68287C10.0723 4.36087 10.2947 4.0772 10.5707 3.83187C10.862 3.58653 11.207 3.46387 11.6057 3.46387ZM12.8477 6.86787C12.587 5.62587 12.058 5.00487 11.2607 5.00487C10.8313 5.00487 10.517 5.15053 10.3177 5.44187C10.1183 5.7332 10.0187 6.01687 10.0187 6.29287C10.0187 6.5382 10.1107 6.7912 10.2947 7.05187C10.494 7.31253 10.862 7.44287 11.3987 7.44287C11.7667 7.44287 12.0657 7.38153 12.2957 7.25887C12.541 7.1362 12.725 7.00587 12.8477 6.86787Z" fill="white"/>
<path d="M11.5382 0C11.7836 0.184 12.0212 0.391001 12.2512 0.621C12.4966 0.851 12.6882 1.06567 12.8262 1.265C12.5196 1.60233 12.1209 2.001 11.6302 2.461C11.2162 1.97033 10.7946 1.55633 10.3652 1.219C10.7639 0.851001 11.1549 0.444667 11.5382 0Z" fill="white"/>
<path d="M8.717 13.2162H7.751C6.81567 13.2162 6.10267 12.8482 5.612 12.1122C5.41267 11.8209 5.23633 11.4759 5.083 11.0772C4.92967 10.6632 4.77633 10.1649 4.623 9.58221C4.33167 10.4102 3.91 11.1002 3.358 11.6522C2.95933 11.7135 2.622 11.7442 2.346 11.7442C1.90133 11.7442 1.518 11.6982 1.196 11.6062C0.582667 11.4375 0.314333 11.0925 0.391 10.5712L0.621 9.19121C0.697667 8.76188 1.07333 8.34788 1.748 7.94921C2.116 7.73454 2.461 7.58888 2.783 7.51221C3.12033 7.42021 3.496 7.35121 3.91 7.30521L3.611 6.47721C3.87167 6.13988 4.232 5.81021 4.692 5.48821C4.93733 6.27021 5.175 6.99088 5.405 7.65021L5.658 8.38621C5.934 9.16821 6.13333 9.70488 6.256 9.99621C6.42467 10.3642 6.61633 10.6172 6.831 10.7552C7.061 10.8932 7.36 10.9622 7.728 10.9622H8.717V13.2162ZM3.036 9.97321C3.34267 9.97321 3.59567 9.86588 3.795 9.65121C4.00967 9.43654 4.20133 9.12988 4.37 8.73121L4.048 7.71921L3.726 8.38621C3.23533 8.38621 2.89033 8.40921 2.691 8.45521C2.33833 8.53188 2.047 8.69288 1.817 8.93821C1.587 9.18354 1.45667 9.45954 1.426 9.76621L1.403 9.97321H3.036ZM3.197 2.86621C3.44233 3.01954 3.68 3.21888 3.91 3.46421C4.15533 3.69421 4.347 3.91654 4.485 4.13121C4.19367 4.46854 3.795 4.86721 3.289 5.32721C2.99767 4.95921 2.668 4.62188 2.3 4.31521C2.05467 4.60654 1.71733 4.94388 1.288 5.32721C0.889334 4.86721 0.46 4.45321 0 4.08521C0.582667 3.50254 0.981334 3.09621 1.196 2.86621C1.48733 3.05021 1.84 3.37988 2.254 3.85521C2.714 3.39521 3.02833 3.06554 3.197 2.86621Z" fill="white"/>
</svg>
