<svg width="160" height="25" viewBox="0 0 160 25" fill="none" xmlns="http://www.w3.org/2000/svg">
<path d="M156.313 0.0234375H159.234L155.6 18.6534H152.679L156.313 0.0234375Z" fill="white"/>
<path d="M148.519 2.277L148.956 0.0229998H151.854L151.394 2.346C151.287 2.88267 151.149 3.381 150.98 3.841C150.827 4.301 150.604 4.77633 150.313 5.267C150.022 5.74233 149.623 6.28667 149.117 6.9C148.626 7.51333 147.99 8.257 147.208 9.131L148.657 11.707C149.5 13.133 149.792 14.4823 149.531 15.755C149.347 16.6903 148.902 17.411 148.197 17.917C147.507 18.4077 146.587 18.653 145.437 18.653H137.847L137.249 15.778L142.516 10.212C142.777 9.936 143.022 9.67533 143.252 9.43C143.482 9.18467 143.704 8.947 143.919 8.717L139.687 1.541L142.079 0L145.805 6.647C146.464 5.89567 146.97 5.27467 147.323 4.784C147.691 4.29333 147.959 3.85633 148.128 3.473C148.312 3.07433 148.442 2.67567 148.519 2.277ZM146.955 14.743C147.016 14.329 146.848 13.754 146.449 13.018L145.345 11.132C145.161 11.3313 144.962 11.546 144.747 11.776L141.182 15.571H145.322C146.288 15.571 146.832 15.295 146.955 14.743Z" fill="white"/>
<path d="M126.854 13.3634L127.567 9.77539H130.235L129.522 13.3864C129.262 14.7051 129.76 15.3644 131.017 15.3644C131.554 15.3644 131.976 15.2187 132.282 14.9274C132.589 14.6207 132.811 14.1147 132.949 13.4094L133.616 9.77539H136.284L135.502 13.9384C134.904 17.0817 133.325 18.6534 130.764 18.6534C130.028 18.6534 129.4 18.5231 128.878 18.2624C128.357 17.9864 127.966 17.6107 127.705 17.1354C126.939 18.1474 125.835 18.6534 124.393 18.6534C123.642 18.6534 122.983 18.5154 122.415 18.2394C121.863 17.9634 121.442 17.5877 121.15 17.1124C120.721 17.6644 120.138 18.0631 119.402 18.3084C118.682 18.5384 117.769 18.6534 116.665 18.6534H115.883L115.446 18.4234L115.998 15.5944L116.527 15.3644H117.033C118.045 15.3644 118.804 15.1957 119.31 14.8584C119.816 14.5211 120.146 13.9614 120.299 13.1794L120.966 9.77539H123.634L122.921 13.3864C122.645 14.7051 123.205 15.3644 124.6 15.3644C125.26 15.3644 125.766 15.2111 126.118 14.9044C126.486 14.5824 126.732 14.0687 126.854 13.3634Z" fill="white"/>
<path d="M105.148 0.0234375H107.977L106.022 10.0054C107.754 8.4721 109.395 7.70544 110.944 7.70544C111.634 7.70544 112.262 7.86644 112.83 8.18844C113.412 8.51044 113.895 8.94744 114.279 9.49944C114.677 10.0514 114.953 10.6801 115.107 11.3854C115.275 12.0908 115.283 12.8268 115.13 13.5934C115.007 14.2068 114.831 14.7741 114.601 15.2954C115.107 15.3414 115.758 15.3644 116.556 15.3644L117.016 15.5944L116.441 18.4234L115.912 18.6534C114.946 18.6534 114.156 18.6151 113.543 18.5384C112.929 18.4618 112.4 18.3161 111.956 18.1014C111.174 18.4694 110.284 18.6534 109.288 18.6534H98.4087L97.9717 18.4234L98.5237 15.5944L99.0527 15.3644H101.146L102.48 13.8464L105.148 0.0234375ZM112.508 13.1794C112.63 12.5048 112.492 11.9221 112.094 11.4314C111.695 10.9254 111.158 10.6724 110.484 10.6724C109.824 10.6724 109.15 10.9024 108.46 11.3624C107.77 11.8224 106.949 12.5814 105.999 13.6394L104.458 15.3644H109.587C110.353 15.3644 110.997 15.1728 111.519 14.7894C112.055 14.3908 112.385 13.8541 112.508 13.1794Z" fill="white"/>
<path d="M86.7557 21.3895C87.2157 21.4815 87.7217 21.5275 88.2737 21.5275C89.5464 21.5275 90.6427 21.2668 91.5627 20.7455C92.4981 20.2395 93.2187 19.5418 93.7247 18.6525H92.1377C91.1871 18.6525 90.3591 18.3918 89.6537 17.8705C88.9637 17.3338 88.4577 16.6285 88.1357 15.7545C87.8137 14.8805 87.7524 13.9145 87.9517 12.8565C88.1357 11.9212 88.4731 11.1085 88.9637 10.4185C89.4544 9.71317 90.0601 9.16883 90.7807 8.7855C91.5167 8.38683 92.3217 8.1875 93.1957 8.1875C94.2691 8.1875 95.1661 8.47117 95.8867 9.0385C96.6227 9.60583 97.1364 10.4108 97.4277 11.4535C97.7344 12.4808 97.7727 13.6998 97.5427 15.1105L97.4967 15.3635H99.0837L99.5437 15.5935L98.9687 18.4225L98.4397 18.6525H96.6457C95.8637 20.5692 94.7214 22.0182 93.2187 22.9995C91.7161 23.9962 89.9144 24.4945 87.8137 24.4945C87.5224 24.4945 87.2771 24.4792 87.0777 24.4485C86.8937 24.4332 86.7327 24.4102 86.5947 24.3795L86.7557 21.3895ZM90.6657 13.2475C90.5431 13.9068 90.6657 14.4588 91.0337 14.9035C91.4171 15.3482 91.9384 15.5705 92.5977 15.5705H94.6217L94.9207 13.8225C95.0587 13.0252 94.9514 12.3812 94.5987 11.8905C94.2461 11.3998 93.7171 11.1545 93.0117 11.1545C92.4291 11.1545 91.9231 11.3462 91.4937 11.7295C91.0644 12.1128 90.7884 12.6188 90.6657 13.2475Z" fill="white"/>
<path d="M84.2805 0.0234375H87.2015L83.5675 18.6534H80.6465L84.2805 0.0234375Z" fill="white"/>
<path d="M77.8817 13.7307C77.6517 14.9267 77.2914 15.885 76.8007 16.6057C76.3254 17.3263 75.689 17.8477 74.8917 18.1697C74.0944 18.4917 73.0824 18.6527 71.8557 18.6527H71.0737L70.6367 18.4227L71.1887 15.5937L71.7177 15.3637H72.2237C73.1284 15.3637 73.8031 15.2027 74.2477 14.8807C74.7077 14.5433 75.0144 13.9837 75.1677 13.2017L76.0417 8.85466H78.8477L77.8817 13.7307ZM80.1357 4.80666L77.8127 6.76166L76.2027 4.78366L78.5257 2.80566L80.1357 4.80666Z" fill="white"/>
<path d="M59.546 11.1087C59.822 9.69803 60.489 8.59403 61.547 7.7967C62.605 6.99936 63.9696 6.6007 65.641 6.6007H67.711L67.987 5.1747H70.862L69.298 13.3167C69.1446 14.068 69.1983 14.597 69.459 14.9037C69.7196 15.2104 70.241 15.3637 71.023 15.3637H71.736L72.196 15.5937L71.621 18.4227L71.092 18.6527H70.632C69.62 18.6527 68.769 18.484 68.079 18.1467C67.4043 17.8094 66.906 17.334 66.584 16.7207H63.985C62.973 16.7207 62.0913 16.4754 61.34 15.9847C60.604 15.494 60.0673 14.827 59.73 13.9837C59.408 13.125 59.3466 12.1667 59.546 11.1087ZM62.214 11.4307C62.1066 12.09 62.237 12.619 62.605 13.0177C62.973 13.401 63.5173 13.5927 64.238 13.5927H66.377L67.136 9.6137H64.905C63.341 9.6137 62.444 10.2194 62.214 11.4307ZM65.181 0.137695H71.115L70.632 2.5987H64.698L65.181 0.137695Z" fill="white"/>
<path d="M51.3329 13.7302C51.1029 14.9262 50.7426 15.8845 50.2519 16.6052C49.7766 17.3258 49.1402 17.8472 48.3429 18.1692C47.5456 18.4912 46.5336 18.6522 45.3069 18.6522H44.5249L44.0879 18.4222L44.6399 15.5932L45.1689 15.3632H45.6749C46.5796 15.3632 47.2542 15.2022 47.6989 14.8802C48.1589 14.5428 48.4656 13.9832 48.6189 13.2012L49.4929 8.85416H52.2989L51.3329 13.7302ZM48.7109 3.81716H51.6549L50.2289 2.04615L52.5059 0.160156L54.0469 2.09216L51.9769 3.81716H54.8749L54.4149 6.14016H48.2739L48.7109 3.81716Z" fill="white"/>
<path d="M34.266 12.5804C34.4193 11.7064 34.7413 10.9397 35.232 10.2804C35.738 9.62106 36.359 9.10739 37.095 8.73939C37.8463 8.37139 38.6513 8.18739 39.51 8.18739C40.522 8.18739 41.4037 8.44806 42.155 8.96939C42.9063 9.47539 43.4583 10.1577 43.811 11.0164C44.1637 11.8751 44.2327 12.8181 44.018 13.8454C43.9107 14.3821 43.7267 14.8881 43.466 15.3634H45.191L45.651 15.5934L45.076 18.4224L44.547 18.6524H41.327C40.269 18.6524 39.303 18.5527 38.429 18.3534C37.9537 18.4454 37.4477 18.5221 36.911 18.5834C36.3743 18.6294 35.8607 18.6524 35.37 18.6524H32.104L31.667 18.4224L32.219 15.5934L32.748 15.3634H34.45C34.1587 14.4741 34.0973 13.5464 34.266 12.5804ZM37.003 13.1554C36.865 13.8607 36.9723 14.4587 37.325 14.9494C37.6777 15.4247 38.2067 15.6624 38.912 15.6624C39.51 15.6624 40.0237 15.4784 40.453 15.1104C40.8977 14.7424 41.1737 14.2517 41.281 13.6384C41.419 12.9484 41.3117 12.3657 40.959 11.8904C40.6063 11.3997 40.0773 11.1544 39.372 11.1544C38.774 11.1544 38.2603 11.3384 37.831 11.7064C37.4017 12.0591 37.1257 12.5421 37.003 13.1554ZM37.578 3.15039H43.512L43.029 5.61139H37.095L37.578 3.15039Z" fill="white"/>
<path d="M27.351 12.7654L29.835 0.0234375H32.756L30.226 12.9954C30.0573 13.8694 30.134 14.4828 30.456 14.8354C30.778 15.1881 31.4297 15.3644 32.411 15.3644H32.756L33.216 15.5944L32.641 18.4234L32.089 18.6534H31.744C29.9347 18.6534 28.6543 18.1551 27.903 17.1584C27.167 16.1464 26.983 14.6821 27.351 12.7654Z" fill="white"/>
<path d="M14.7241 13.8227C14.6474 13.2554 14.6627 12.688 14.7701 12.1207C15.0461 10.7714 15.6364 9.70571 16.5411 8.92371C17.4611 8.12638 18.5651 7.72771 19.8531 7.72771C20.8804 7.72771 21.7697 8.01138 22.5211 8.57871C23.2877 9.13071 23.8397 9.86671 24.1771 10.7867C24.5297 11.7067 24.5911 12.7187 24.3611 13.8227C24.0391 15.402 23.3337 16.6057 22.2451 17.4337C21.1717 18.2464 19.7457 18.6527 17.9671 18.6527H11.6651L11.2051 18.4227L11.7571 15.5937L12.2861 15.3637H15.1841C14.9541 14.9037 14.8007 14.39 14.7241 13.8227ZM17.3461 12.6727C17.2234 13.4087 17.3537 14.0374 17.7371 14.5587C18.1204 15.0647 18.6417 15.3177 19.3011 15.3177C19.8991 15.3177 20.4204 15.1184 20.8651 14.7197C21.3097 14.3057 21.5857 13.7844 21.6931 13.1557C21.8311 12.435 21.7084 11.8217 21.3251 11.3157C20.9571 10.8097 20.4357 10.5567 19.7611 10.5567C19.1477 10.5567 18.6187 10.756 18.1741 11.1547C17.7447 11.538 17.4687 12.044 17.3461 12.6727ZM22.2911 3.67971L19.9681 5.63471L18.3581 3.65671L20.6811 1.67871L22.2911 3.67971Z" fill="white"/>
<path d="M0.114324 11.1087C0.390324 9.69803 1.05732 8.59403 2.11532 7.7967C3.17332 6.99936 4.53799 6.6007 6.20932 6.6007H8.27932L8.55532 5.1747H11.4303L9.86632 13.3167C9.71299 14.068 9.76666 14.597 10.0273 14.9037C10.288 15.2104 10.8093 15.3637 11.5913 15.3637H12.3043L12.7643 15.5937L12.1893 18.4227L11.6603 18.6527H11.2003C10.1883 18.6527 9.33732 18.484 8.64732 18.1467C7.97266 17.8094 7.47432 17.334 7.15232 16.7207H4.55332C3.54132 16.7207 2.65966 16.4754 1.90832 15.9847C1.17232 15.494 0.635657 14.827 0.298324 13.9837C-0.0236765 13.125 -0.0850098 12.1667 0.114324 11.1087ZM2.78232 11.4307C2.67499 12.09 2.80532 12.619 3.17332 13.0177C3.54132 13.401 4.08566 13.5927 4.80632 13.5927H6.94532L7.70432 9.6137H5.47332C3.90932 9.6137 3.01232 10.2194 2.78232 11.4307ZM5.74932 0.137695H11.6833L11.2003 2.5987H5.26632L5.74932 0.137695Z" fill="white"/>
</svg>
