<svg width="156" height="24" viewBox="0 0 156 24" fill="none" xmlns="http://www.w3.org/2000/svg">
<path d="M152.241 18.95V0.299999L154.666 0L154.741 0.225V12.775C154.741 13.4583 154.758 14.1417 154.791 14.825C154.841 15.5083 154.883 16.1417 154.916 16.725C154.966 17.2917 155.008 17.75 155.041 18.1C155.091 18.4333 155.116 18.6 155.116 18.6L154.741 18.95H152.241Z" fill="white"/>
<path d="M135.961 18.95L135.861 18.775L137.011 16.625H139.136L137.511 17.625L141.236 10.2L137.211 4.475L139.086 3.15H139.261L142.436 7.725L146.236 0.125H146.411L148.486 1.125L144.061 10L148.686 16.625V18.6L148.311 18.95H135.961ZM140.261 17.625L139.636 16.625H146.836L146.361 17.55L142.811 12.5L140.261 17.625Z" fill="white"/>
<path d="M117.432 18.9504C117.248 18.9504 117.123 18.8421 117.057 18.6254C116.973 18.3921 116.932 18.1004 116.932 17.7504C116.932 17.4171 116.973 17.1504 117.057 16.9504C117.123 16.7337 117.248 16.6254 117.432 16.6254H120.432L119.782 17.1254C119.765 16.8254 119.74 16.4504 119.707 16.0004C119.673 15.5337 119.64 15.0254 119.607 14.4754C119.59 13.9087 119.582 13.3504 119.582 12.8004V12.5754L122.007 12.2754L122.082 12.4754V13.0004C122.082 13.7171 122.107 14.4671 122.157 15.2504C122.207 16.0337 122.257 16.6921 122.307 17.2254L121.582 16.6254H126.007L125.357 17.1254C125.323 16.6421 125.273 15.9671 125.207 15.1004C125.157 14.2171 125.132 13.2921 125.132 12.3254V11.3754L127.557 11.0754L127.632 11.2754V12.7754C127.632 13.5754 127.657 14.3754 127.707 15.1754C127.773 15.9754 127.832 16.6504 127.882 17.2004L127.132 16.6254H131.582L130.932 17.1254C130.882 16.6421 130.832 15.9671 130.782 15.1004C130.732 14.2171 130.707 13.2921 130.707 12.3254V10.2004L133.132 9.90039L133.207 10.1004V12.7754C133.207 13.4587 133.223 14.1421 133.257 14.8254C133.307 15.5087 133.348 16.1421 133.382 16.7254C133.432 17.2921 133.473 17.7504 133.507 18.1004C133.557 18.4337 133.582 18.6004 133.582 18.6004L133.207 18.9504H117.432Z" fill="white"/>
<path d="M94.5547 18.95C94.3714 18.95 94.2464 18.8333 94.1797 18.6C94.0964 18.3667 94.0547 18.0833 94.0547 17.75C94.0547 17.4167 94.0964 17.15 94.1797 16.95C94.2464 16.7333 94.3714 16.625 94.5547 16.625H97.8297L96.7047 17.75V0.299999L99.1297 0L99.2047 0.199999V12.65L98.0797 11.525H110.005C110.955 11.525 111.83 11.725 112.63 12.125C113.43 12.525 114.071 13.0833 114.555 13.8C115.038 14.5 115.28 15.3 115.28 16.2C115.28 16.45 115.28 16.7083 115.28 16.975C115.28 17.225 115.28 17.4833 115.28 17.75L114.155 16.625H117.43V18.95H94.5547ZM112.855 17.875C112.838 17.5917 112.821 17.3167 112.805 17.05C112.805 16.7667 112.796 16.4833 112.78 16.2C112.763 15.7667 112.63 15.375 112.38 15.025C112.146 14.6583 111.821 14.375 111.405 14.175C111.005 13.9583 110.538 13.85 110.005 13.85H98.0797L99.2047 12.725V17.75L98.0797 16.625H110.505C110.888 16.625 111.263 16.6417 111.63 16.675C112.013 16.6917 112.346 16.7083 112.63 16.725C112.913 16.7417 113.08 16.7583 113.13 16.775L112.855 17.875Z" fill="white"/>
<path d="M86.3445 23.9508C85.7612 23.9508 85.2029 23.9008 84.6695 23.8008C84.1529 23.7008 83.5945 23.5591 82.9945 23.3758L83.7945 21.2508H84.0445C84.5279 21.3841 84.9362 21.4758 85.2695 21.5258C85.6195 21.5924 85.9612 21.6258 86.2945 21.6258C87.5445 21.6258 88.4529 21.2508 89.0195 20.5008C89.6029 19.7508 89.8945 18.4924 89.8945 16.7258C89.8945 15.1258 89.6612 13.8591 89.1945 12.9258C88.7445 11.9758 88.1612 11.5008 87.4445 11.5008C87.1112 11.5008 86.7862 11.6008 86.4695 11.8008C86.1695 12.0008 85.9112 12.3008 85.6945 12.7008C85.4945 13.1008 85.3945 13.5924 85.3945 14.1758C85.3945 14.9758 85.6195 15.5841 86.0695 16.0008C86.5362 16.4174 87.2445 16.6258 88.1945 16.6258H94.5445V18.9508H87.7695C86.6695 18.9508 85.7529 18.7341 85.0195 18.3008C84.3029 17.8508 83.7695 17.2674 83.4195 16.5508C83.0695 15.8174 82.8945 15.0258 82.8945 14.1758C82.8945 13.1758 83.1029 12.3091 83.5195 11.5758C83.9362 10.8258 84.4945 10.2424 85.1945 9.82578C85.8945 9.39245 86.6612 9.17578 87.4945 9.17578C88.5445 9.17578 89.4279 9.50078 90.1445 10.1508C90.8779 10.7841 91.4362 11.6674 91.8195 12.8008C92.2029 13.9341 92.3945 15.2424 92.3945 16.7258C92.3945 18.1758 92.1862 19.4424 91.7695 20.5258C91.3695 21.6091 90.7195 22.4508 89.8195 23.0508C88.9362 23.6508 87.7779 23.9508 86.3445 23.9508Z" fill="white"/>
<path d="M76.9238 18.95V0.299999L79.3488 0L79.4238 0.225V12.775C79.4238 13.4583 79.4405 14.1417 79.4738 14.825C79.5238 15.5083 79.5655 16.1417 79.5988 16.725C79.6488 17.2917 79.6905 17.75 79.7238 18.1C79.7738 18.4333 79.7988 18.6 79.7988 18.6L79.4238 18.95H76.9238Z" fill="white"/>
<path d="M68.6758 18.9504C68.4924 18.9504 68.3674 18.8421 68.3008 18.6254C68.2174 18.3921 68.1758 18.1004 68.1758 17.7504C68.1758 17.4171 68.2174 17.1504 68.3008 16.9504C68.3674 16.7337 68.4924 16.6254 68.6758 16.6254H71.7508L71.0508 17.1254C71.0174 16.6421 70.9674 15.9671 70.9008 15.1004C70.8508 14.2171 70.8258 13.2921 70.8258 12.3254V10.2004L73.2508 9.90039L73.3258 10.1004V12.7754C73.3258 13.4587 73.3424 14.1421 73.3758 14.8254C73.4258 15.5087 73.4674 16.1421 73.5008 16.7254C73.5508 17.2921 73.5924 17.7504 73.6258 18.1004C73.6758 18.4337 73.7008 18.6004 73.7008 18.6004L73.3258 18.9504H68.6758Z" fill="white"/>
<path d="M72.1008 7.25078C71.7341 7.25078 71.4258 7.12578 71.1758 6.87578C70.9258 6.62578 70.8008 6.32578 70.8008 5.97578C70.8008 5.60911 70.9258 5.30078 71.1758 5.05078C71.4258 4.80078 71.7341 4.67578 72.1008 4.67578C72.4508 4.67578 72.7508 4.80078 73.0008 5.05078C73.2674 5.30078 73.4008 5.60911 73.4008 5.97578C73.4008 6.32578 73.2674 6.62578 73.0008 6.87578C72.7508 7.12578 72.4508 7.25078 72.1008 7.25078Z" fill="white"/>
<path d="M61.683 18.2504C60.7163 18.2504 59.8747 18.0504 59.158 17.6504C58.458 17.2337 57.9163 16.6587 57.533 15.9254C57.1497 15.1921 56.958 14.3587 56.958 13.4254C56.958 12.6421 57.0997 11.9254 57.383 11.2754L57.558 11.1254C58.9413 10.7087 60.2247 10.2754 61.408 9.82539C62.5913 9.35872 63.658 8.85872 64.608 8.32539L64.033 9.45039V7.82539L66.458 7.52539L66.533 7.72539V17.7504L65.408 16.6254H68.683V18.9504H64.033V16.8004L64.783 17.4504C64.2497 17.7171 63.7247 17.9171 63.208 18.0504C62.708 18.1837 62.1997 18.2504 61.683 18.2504ZM61.708 15.9254C62.1747 15.9254 62.658 15.8504 63.158 15.7004C63.6747 15.5337 64.2747 15.2837 64.958 14.9504L64.033 16.2004V10.2754L64.633 11.0004C63.9163 11.3337 63.133 11.6671 62.283 12.0004C61.433 12.3337 60.508 12.6587 59.508 12.9754C59.4913 13.0421 59.4747 13.1254 59.458 13.2254C59.458 13.3087 59.458 13.4004 59.458 13.5004C59.458 13.9337 59.533 14.3337 59.683 14.7004C59.8497 15.0671 60.0997 15.3671 60.433 15.6004C60.7663 15.8171 61.1913 15.9254 61.708 15.9254Z" fill="white"/>
<path d="M60.382 6.25078C60.0154 6.25078 59.707 6.12578 59.457 5.87578C59.207 5.62578 59.082 5.32578 59.082 4.97578C59.082 4.60911 59.207 4.30078 59.457 4.05078C59.707 3.80078 60.0154 3.67578 60.382 3.67578C60.732 3.67578 61.032 3.80078 61.282 4.05078C61.5487 4.30078 61.682 4.60911 61.682 4.97578C61.682 5.32578 61.5487 5.62578 61.282 5.87578C61.032 6.12578 60.732 6.25078 60.382 6.25078ZM63.332 6.25078C62.9654 6.25078 62.657 6.12578 62.407 5.87578C62.157 5.62578 62.032 5.32578 62.032 4.97578C62.032 4.60911 62.157 4.30078 62.407 4.05078C62.657 3.80078 62.9654 3.67578 63.332 3.67578C63.682 3.67578 63.982 3.80078 64.232 4.05078C64.4987 4.30078 64.632 4.60911 64.632 4.97578C64.632 5.32578 64.4987 5.62578 64.232 5.87578C63.982 6.12578 63.682 6.25078 63.332 6.25078Z" fill="white"/>
<path d="M43.7012 18.9504C43.5178 18.9504 43.3928 18.8421 43.3262 18.6254C43.2428 18.3921 43.2012 18.1004 43.2012 17.7504C43.2012 17.4171 43.2428 17.1504 43.3262 16.9504C43.3928 16.7337 43.5178 16.6254 43.7012 16.6254H46.7762L46.0762 17.1254C46.0428 16.6421 45.9928 15.9671 45.9262 15.1004C45.8762 14.2171 45.8512 13.2921 45.8512 12.3254V10.2004L48.2762 9.90039L48.3512 10.1004V12.7754C48.3512 13.4587 48.3678 14.1421 48.4012 14.8254C48.4512 15.5087 48.4928 16.1421 48.5262 16.7254C48.5762 17.2921 48.6178 17.7504 48.6512 18.1004C48.7012 18.4337 48.7262 18.6004 48.7262 18.6004L48.3512 18.9504H43.7012Z" fill="white"/>
<path d="M45.6594 7.25078C45.2927 7.25078 44.9844 7.12578 44.7344 6.87578C44.4844 6.62578 44.3594 6.32578 44.3594 5.97578C44.3594 5.60912 44.4844 5.30078 44.7344 5.05078C44.9844 4.80078 45.2927 4.67578 45.6594 4.67578C46.0094 4.67578 46.3094 4.80078 46.5594 5.05078C46.826 5.30078 46.9594 5.60912 46.9594 5.97578C46.9594 6.32578 46.826 6.62578 46.5594 6.87578C46.3094 7.12578 46.0094 7.25078 45.6594 7.25078ZM48.6094 7.25078C48.2427 7.25078 47.9344 7.12578 47.6844 6.87578C47.4344 6.62578 47.3094 6.32578 47.3094 5.97578C47.3094 5.60912 47.4344 5.30078 47.6844 5.05078C47.9344 4.80078 48.2427 4.67578 48.6094 4.67578C48.9594 4.67578 49.2594 4.80078 49.5094 5.05078C49.776 5.30078 49.9094 5.60912 49.9094 5.97578C49.9094 6.32578 49.776 6.62578 49.5094 6.87578C49.2594 7.12578 48.9594 7.25078 48.6094 7.25078ZM47.1344 4.75078C46.7677 4.75078 46.4594 4.62578 46.2094 4.37578C45.9594 4.12578 45.8344 3.82578 45.8344 3.47578C45.8344 3.10912 45.9594 2.80078 46.2094 2.55078C46.4594 2.30078 46.7677 2.17578 47.1344 2.17578C47.4844 2.17578 47.7844 2.30078 48.0344 2.55078C48.301 2.80078 48.4344 3.10912 48.4344 3.47578C48.4344 3.82578 48.301 4.12578 48.0344 4.37578C47.7844 4.62578 47.4844 4.75078 47.1344 4.75078Z" fill="white"/>
<path d="M30.6152 18.9508C30.4319 18.9508 30.3069 18.8424 30.2402 18.6258C30.1569 18.3924 30.1152 18.1008 30.1152 17.7508C30.1152 17.4174 30.1569 17.1508 30.2402 16.9508C30.3069 16.7341 30.4319 16.6258 30.6152 16.6258H37.3402C37.6902 16.6258 38.0319 16.6341 38.3652 16.6508C38.7152 16.6674 38.9986 16.6924 39.2152 16.7258C39.4486 16.7424 39.5652 16.7508 39.5652 16.7508L39.0402 16.9508V16.5758C39.0069 15.0091 38.7652 13.7758 38.3152 12.8758C37.8819 11.9591 37.3152 11.5008 36.6152 11.5008C36.2819 11.5008 35.9486 11.6008 35.6152 11.8008C35.2986 12.0008 35.0402 12.3008 34.8402 12.7008C34.6402 13.1008 34.5402 13.5924 34.5402 14.1758C34.5402 14.9758 34.7652 15.5841 35.2152 16.0008C35.6819 16.4174 36.3819 16.6258 37.3152 16.6258V18.3508C36.1152 18.3508 35.1236 18.1508 34.3402 17.7508C33.5736 17.3508 32.9986 16.8174 32.6152 16.1508C32.2319 15.4841 32.0402 14.7508 32.0402 13.9508C32.0402 13.0174 32.2486 12.2008 32.6652 11.5008C33.0819 10.7841 33.6402 10.2174 34.3402 9.80078C35.0402 9.38411 35.8152 9.17578 36.6652 9.17578C37.6986 9.17578 38.5736 9.50078 39.2902 10.1508C40.0236 10.7841 40.5819 11.6674 40.9652 12.8008C41.3486 13.9341 41.5402 15.2424 41.5402 16.7258C41.5569 17.1591 41.5736 17.5591 41.5902 17.9258C41.6069 18.2758 41.6236 18.5174 41.6402 18.6508L40.4652 16.6258H43.6902V18.9508H30.6152Z" fill="white"/>
<path d="M35.1867 7.25078C34.8201 7.25078 34.5117 7.12578 34.2617 6.87578C34.0117 6.62578 33.8867 6.32578 33.8867 5.97578C33.8867 5.60911 34.0117 5.30078 34.2617 5.05078C34.5117 4.80078 34.8201 4.67578 35.1867 4.67578C35.5367 4.67578 35.8367 4.80078 36.0867 5.05078C36.3534 5.30078 36.4867 5.60911 36.4867 5.97578C36.4867 6.32578 36.3534 6.62578 36.0867 6.87578C35.8367 7.12578 35.5367 7.25078 35.1867 7.25078ZM38.1367 7.25078C37.7701 7.25078 37.4617 7.12578 37.2117 6.87578C36.9617 6.62578 36.8367 6.32578 36.8367 5.97578C36.8367 5.60911 36.9617 5.30078 37.2117 5.05078C37.4617 4.80078 37.7701 4.67578 38.1367 4.67578C38.4867 4.67578 38.7867 4.80078 39.0367 5.05078C39.3034 5.30078 39.4367 5.60911 39.4367 5.97578C39.4367 6.32578 39.3034 6.62578 39.0367 6.87578C38.7867 7.12578 38.4867 7.25078 38.1367 7.25078Z" fill="white"/>
<path d="M25.9717 18.95V0.299999L28.3967 0L28.4717 0.199999V16.625H30.6217V18.95H25.9717Z" fill="white"/>
<path d="M11.7188 18.9508C11.5354 18.9508 11.4104 18.8424 11.3438 18.6258C11.2604 18.3924 11.2188 18.1008 11.2188 17.7508C11.2188 17.4174 11.2604 17.1508 11.3438 16.9508C11.4104 16.7341 11.5354 16.6258 11.7188 16.6258H18.4438C18.7938 16.6258 19.1354 16.6341 19.4688 16.6508C19.8188 16.6674 20.1021 16.6924 20.3188 16.7258C20.5521 16.7424 20.6688 16.7508 20.6688 16.7508L20.1438 16.9508V16.5758C20.1104 15.0091 19.8688 13.7758 19.4188 12.8758C18.9854 11.9591 18.4187 11.5008 17.7188 11.5008C17.3854 11.5008 17.0521 11.6008 16.7188 11.8008C16.4021 12.0008 16.1438 12.3008 15.9438 12.7008C15.7438 13.1008 15.6437 13.5924 15.6437 14.1758C15.6437 14.9758 15.8688 15.5841 16.3188 16.0008C16.7854 16.4174 17.4854 16.6258 18.4188 16.6258V18.3508C17.2188 18.3508 16.2271 18.1508 15.4438 17.7508C14.6771 17.3508 14.1021 16.8174 13.7188 16.1508C13.3354 15.4841 13.1438 14.7508 13.1438 13.9508C13.1438 13.0174 13.3521 12.2008 13.7688 11.5008C14.1854 10.7841 14.7438 10.2174 15.4438 9.80078C16.1438 9.38411 16.9188 9.17578 17.7688 9.17578C18.8021 9.17578 19.6771 9.50078 20.3937 10.1508C21.1271 10.7841 21.6854 11.6674 22.0688 12.8008C22.4521 13.9341 22.6437 15.2424 22.6437 16.7258C22.6604 17.1591 22.6771 17.5591 22.6938 17.9258C22.7104 18.2758 22.7271 18.5174 22.7437 18.6508L22.4688 18.9508H11.7188Z" fill="white"/>
<path d="M17.7785 7.25078C17.4118 7.25078 17.1035 7.12578 16.8535 6.87578C16.6035 6.62578 16.4785 6.32578 16.4785 5.97578C16.4785 5.60911 16.6035 5.30078 16.8535 5.05078C17.1035 4.80078 17.4118 4.67578 17.7785 4.67578C18.1285 4.67578 18.4285 4.80078 18.6785 5.05078C18.9452 5.30078 19.0785 5.60911 19.0785 5.97578C19.0785 6.32578 18.9452 6.62578 18.6785 6.87578C18.4285 7.12578 18.1285 7.25078 17.7785 7.25078Z" fill="white"/>
<path d="M4.725 18.2504C3.75833 18.2504 2.91667 18.0504 2.2 17.6504C1.5 17.2337 0.958333 16.6587 0.575 15.9254C0.191667 15.1921 0 14.3587 0 13.4254C0 12.6421 0.141667 11.9254 0.425 11.2754L0.6 11.1254C1.98333 10.7087 3.26667 10.2754 4.45 9.82539C5.63333 9.35872 6.7 8.85872 7.65 8.32539L7.075 9.45039V7.82539L9.5 7.52539L9.575 7.72539V17.7504L8.45 16.6254H11.725V18.9504H7.075V16.8004L7.825 17.4504C7.29167 17.7171 6.76667 17.9171 6.25 18.0504C5.75 18.1837 5.24167 18.2504 4.725 18.2504ZM4.75 15.9254C5.21667 15.9254 5.7 15.8504 6.2 15.7004C6.71667 15.5337 7.31667 15.2837 8 14.9504L7.075 16.2004V10.2754L7.675 11.0004C6.95833 11.3337 6.175 11.6671 5.325 12.0004C4.475 12.3337 3.55 12.6587 2.55 12.9754C2.53333 13.0421 2.51667 13.1254 2.5 13.2254C2.5 13.3087 2.5 13.4004 2.5 13.5004C2.5 13.9337 2.575 14.3337 2.725 14.7004C2.89167 15.0671 3.14167 15.3671 3.475 15.6004C3.80833 15.8171 4.23333 15.9254 4.75 15.9254Z" fill="white"/>
<path d="M3.42305 6.25078C3.05638 6.25078 2.74805 6.12578 2.49805 5.87578C2.24805 5.62578 2.12305 5.32578 2.12305 4.97578C2.12305 4.60911 2.24805 4.30078 2.49805 4.05078C2.74805 3.80078 3.05638 3.67578 3.42305 3.67578C3.77305 3.67578 4.07305 3.80078 4.32305 4.05078C4.58971 4.30078 4.72305 4.60911 4.72305 4.97578C4.72305 5.32578 4.58971 5.62578 4.32305 5.87578C4.07305 6.12578 3.77305 6.25078 3.42305 6.25078ZM6.37305 6.25078C6.00638 6.25078 5.69805 6.12578 5.44805 5.87578C5.19805 5.62578 5.07305 5.32578 5.07305 4.97578C5.07305 4.60911 5.19805 4.30078 5.44805 4.05078C5.69805 3.80078 6.00638 3.67578 6.37305 3.67578C6.72305 3.67578 7.02305 3.80078 7.27305 4.05078C7.53971 4.30078 7.67305 4.60911 7.67305 4.97578C7.67305 5.32578 7.53971 5.62578 7.27305 5.87578C7.02305 6.12578 6.72305 6.25078 6.37305 6.25078Z" fill="white"/>
</svg>
