<svg width="136" height="23" viewBox="0 0 136 23" fill="none" xmlns="http://www.w3.org/2000/svg">
<path d="M133.58 0.763672L135.343 0V16.4976H134.153L133.58 0.763672Z" fill="white"/>
<path d="M126.482 14.8354C127.508 14.6782 128.238 14.3525 128.672 13.8584C129.159 13.3044 129.38 12.507 129.335 11.4663L128.875 0.774902L130.649 0V11.6123C130.649 13.252 130.271 14.4049 129.515 15.0713C128.302 16.127 126.31 16.5986 123.54 16.4863C122.739 16.4489 122.234 16.3441 122.024 16.1719V14.6108C123.065 14.9253 124.072 15.0413 125.045 14.959C124.281 9.08171 122.986 4.9751 121.159 2.63916L122.675 1.45996C124.45 4.39486 125.719 8.85335 126.482 14.8354Z" fill="white"/>
<path d="M105.897 16.0596C105.433 16.3665 104.714 16.52 103.741 16.52H102.786V14.6221H103.078C105.032 14.6221 106.069 13.8771 106.189 12.3872L106.312 10.6465H107.548L107.716 12.3872C107.866 13.9295 108.626 14.7082 109.996 14.7231C111.284 14.7381 111.988 14.2327 112.107 13.207L112.411 10.6465H113.612L113.859 12.96C114.002 14.2926 114.679 14.8841 115.892 14.7344C116.379 14.6745 116.734 14.4349 116.959 14.0156C117.266 13.4316 117.363 12.6829 117.251 11.7695C117.206 11.3652 117.068 10.5342 116.835 9.27637L118.441 8.75977C118.741 9.60579 118.924 10.5267 118.992 11.5225C119.111 13.207 118.868 14.4723 118.262 15.3184C117.7 16.112 116.813 16.5125 115.6 16.52C115.083 16.52 114.694 16.4601 114.432 16.3403C113.713 16.0334 113.242 15.5505 113.017 14.8916C112.673 15.9922 111.546 16.535 109.637 16.52C108.282 16.505 107.364 16.0334 106.885 15.105C106.638 15.4644 106.309 15.7826 105.897 16.0596Z" fill="white"/>
<path d="M90.7812 14.4985H92.7915C95.0301 14.4985 96.5612 14.3376 97.3848 14.0156C98.2308 13.6862 98.7249 13.1958 98.8672 12.5444C98.9346 12.0129 98.8485 11.5824 98.6089 11.2529C98.3319 10.8711 97.9051 10.639 97.3286 10.5566C96.3403 10.4144 95.3371 10.6615 94.3188 11.2979C92.9487 12.1364 91.7695 13.2033 90.7812 14.4985ZM89.1978 13.9482C90.8674 11.5299 92.6268 9.92399 94.4761 9.13037C96.258 8.35921 97.819 8.37419 99.1592 9.17529C100.365 9.89404 100.862 11.1107 100.653 12.8252C100.623 13.0573 100.567 13.2819 100.484 13.499C101.076 14.2477 101.836 14.6221 102.764 14.6221H103.247V16.52H102.517C100.833 16.52 99.7656 16.0409 99.3164 15.0825C99.2191 15.1574 99.1143 15.236 99.002 15.3184C97.849 16.1195 95.9959 16.52 93.4429 16.52H84.9189V14.6221H87.8726L87.3672 0.808594L89.209 0L89.1978 13.9482Z" fill="white"/>
<path d="M80.4824 10.7358C79.5091 10.7583 78.8503 11.3348 78.5059 12.4653C78.0716 13.8729 78.6294 14.6365 80.1792 14.7563C80.561 14.7863 81.2723 14.775 82.313 14.7226C82.3205 13.8766 82.2643 13.1504 82.1445 12.5439C81.8975 11.3161 81.3434 10.7134 80.4824 10.7358ZM83.7954 16.5195C83.5933 17.8746 83.0392 19.08 82.1333 20.1357C80.9504 21.5133 79.1235 22.2021 76.6528 22.2021L75.9229 20.7871C79.6289 20.5625 81.729 19.1362 82.2231 16.5083C82.0435 16.5083 81.4108 16.5083 80.3252 16.5083C78.9925 16.5083 78.0492 16.1863 77.4951 15.5425C76.9186 14.8836 76.6865 14.0825 76.7988 13.1391C76.9411 11.8589 77.4277 10.8219 78.2588 10.0283C79 9.30954 79.7974 8.97637 80.6509 9.02878C81.7889 9.10365 82.6125 9.66892 83.1216 10.7246C83.5259 11.5556 83.7729 12.5289 83.8628 13.6445C83.9152 14.2435 83.9451 14.5729 83.9526 14.6328L85.3901 14.6216V16.5195H83.7954Z" fill="white"/>
<path d="M71.9697 0.763672L73.7329 0V16.4976H72.5425L71.9697 0.763672Z" fill="white"/>
<path d="M67.0845 3.8073L68.0278 4.76189C68.2075 4.94158 68.2113 5.12127 68.0391 5.30095L67.0508 6.28923C66.8486 6.47641 66.6577 6.47641 66.478 6.28923L65.4897 5.30095C65.3026 5.12127 65.3138 4.9266 65.5234 4.71697L66.4331 3.79607C66.6427 3.58643 66.8599 3.59018 67.0845 3.8073ZM68.4097 15.6779C67.7508 16.2394 66.5042 16.5202 64.6699 16.5202H63.6816V14.6222H64.8159C65.2651 14.6222 65.6545 14.5998 65.9839 14.5549C66.8149 14.45 67.339 14.1393 67.5562 13.6227C67.7658 13.1286 67.8219 12.2863 67.7246 11.0959C67.6572 10.2873 67.5374 9.54607 67.3652 8.87224L69.0161 8.5241C69.2782 9.19044 69.4354 10.0365 69.4878 11.0622C69.6076 13.4281 69.2482 14.9666 68.4097 15.6779Z" fill="white"/>
<path d="M59.5492 12.2194C59.4369 11.014 59.3134 9.98455 59.1786 9.13103C55.7646 9.40805 54.0987 10.1605 54.1811 11.3884C54.211 11.9199 54.4993 12.2494 55.0458 12.3766C56.1614 12.6087 57.6625 12.5563 59.5492 12.2194ZM59.7401 13.8141C55.802 14.4131 53.4399 13.9639 52.6537 12.4665C52.5339 12.2494 52.4665 11.9761 52.4516 11.6467C52.3243 9.33318 54.4955 7.99675 58.9652 7.63738C58.9652 7.44272 58.9128 6.97478 58.808 6.23357L60.414 5.8405C60.5113 6.7614 60.7322 8.72299 61.0766 11.7253C61.2563 13.2676 61.6269 14.1585 62.1884 14.3981C62.5328 14.5479 63.0419 14.6227 63.7157 14.6227H64.0077V16.5207H63.4799C61.2712 16.5207 60.0247 15.6185 59.7401 13.8141ZM60.6947 1.82L61.6269 2.77459C61.814 2.95427 61.8178 3.13396 61.6381 3.31365L60.6498 4.30193C60.4626 4.4891 60.2717 4.4891 60.0771 4.30193L59.0888 3.31365C58.9091 3.13396 58.9241 2.9393 59.1337 2.72966L60.0434 1.80877C60.2605 1.59913 60.4776 1.60287 60.6947 1.82ZM57.2919 1.82L58.224 2.77459C58.4112 2.95427 58.415 3.13396 58.2353 3.31365L57.2582 4.30193C57.0561 4.4891 56.8614 4.4891 56.6742 4.30193L55.6972 3.31365C55.51 3.13396 55.5212 2.9393 55.7309 2.72966L56.6405 1.80877C56.8502 1.59913 57.0673 1.60287 57.2919 1.82Z" fill="white"/>
<path d="M42.5792 15.6779C41.9204 16.2394 40.6738 16.5202 38.8395 16.5202H37.8512V14.6222H38.9855C39.4347 14.6222 39.824 14.5998 40.1534 14.5549C40.9845 14.45 41.5086 14.1393 41.7257 13.6227C41.9353 13.1286 41.9915 12.2863 41.8942 11.0959C41.8268 10.2873 41.707 9.54607 41.5348 8.87224L43.1857 8.5241C43.4477 9.19044 43.6049 10.0365 43.6573 11.0622C43.7771 13.4281 43.4178 14.9666 42.5792 15.6779ZM41.1866 1.08953L42.1188 2.03289C42.3059 2.21257 42.3097 2.39226 42.13 2.57195L41.1529 3.56023C40.9508 3.7474 40.7561 3.75115 40.569 3.57146L39.5807 2.58318C39.401 2.396 39.416 2.20509 39.6256 2.01043L40.5353 1.0783C40.7449 0.868661 40.962 0.872404 41.1866 1.08953ZM42.8937 3.78484L43.8258 4.7282C44.013 4.90789 44.0167 5.09132 43.837 5.27849L42.8487 6.25554C42.6541 6.4502 42.4632 6.4502 42.276 6.25554L41.2877 5.27849C41.108 5.09132 41.123 4.89666 41.3326 4.69451L42.2423 3.77361C42.4519 3.56397 42.6691 3.56772 42.8937 3.78484ZM39.4908 3.78484L40.423 4.7282C40.6101 4.90789 40.6139 5.09132 40.4342 5.27849L39.4571 6.25554C39.2625 6.4502 39.0678 6.4502 38.8732 6.25554L37.8961 5.27849C37.7089 5.09132 37.7202 4.89666 37.9298 4.69451L38.8395 3.77361C39.0566 3.56397 39.2737 3.56772 39.4908 3.78484Z" fill="white"/>
<path d="M30.6865 9.56804C30.2747 9.97234 30.0688 10.4627 30.0688 11.0392C30.0688 11.6082 30.2747 12.0949 30.6865 12.4992C31.1058 12.9035 31.6112 13.1056 32.2026 13.1056C32.7941 13.1056 33.2957 12.9035 33.7075 12.4992C34.1268 12.0949 34.3364 11.6082 34.3364 11.0392C34.3364 10.4627 34.1268 9.97234 33.7075 9.56804C33.2957 9.15626 32.7941 8.95037 32.2026 8.95037C31.6112 8.95037 31.1058 9.15626 30.6865 9.56804ZM34.123 7.71501C35.1038 8.17172 35.7253 8.93165 35.9873 9.9948C36.1595 10.6836 36.1108 11.466 35.8413 12.342C35.6092 13.0982 34.999 13.757 34.0107 14.3185C34.5348 14.5282 35.5755 14.6292 37.1328 14.6218H37.9751V16.5197H35.6055C34.4899 16.5197 33.3631 16.1229 32.2251 15.3293L32.1914 15.3068L32.1689 15.3293C30.9561 16.1229 29.833 16.5197 28.7998 16.5197H26.2393V14.6218H27.25C28.665 14.6218 29.6608 14.5094 30.2373 14.2848C29.4961 13.8057 28.9495 13.173 28.5977 12.3869C28.2682 11.6607 28.2233 10.8558 28.4629 9.97234C28.7699 8.85678 29.4736 8.07813 30.5742 7.6364C31.0609 7.43425 31.6224 7.32944 32.2588 7.32195C32.9401 7.32195 33.5615 7.45297 34.123 7.71501ZM34.1792 2.60515L35.1113 3.55974C35.2985 3.73943 35.3022 3.91912 35.1226 4.0988L34.1343 5.08709C33.9471 5.27426 33.7562 5.27426 33.5615 5.08709L32.5732 4.0988C32.3936 3.91912 32.4085 3.72446 32.6182 3.51482L33.5278 2.59392C33.745 2.38429 33.9621 2.38803 34.1792 2.60515ZM30.7764 2.60515L31.7085 3.55974C31.8957 3.73943 31.8994 3.91912 31.7197 4.0988L30.7427 5.08709C30.5405 5.27426 30.3459 5.27426 30.1587 5.08709L29.1816 4.0988C28.9945 3.91912 29.0057 3.72446 29.2153 3.51482L30.125 2.59392C30.3346 2.38429 30.5518 2.38803 30.7764 2.60515Z" fill="white"/>
<path d="M22.5103 11.9834L22.0947 0.786621L23.8467 0.0117188V11.8374C23.8467 12.616 23.9552 13.1776 24.1724 13.522C24.659 14.2557 25.389 14.6226 26.3623 14.6226H26.5757V16.5205H26.1377C24.805 16.5205 23.828 16.0563 23.2065 15.1279C22.7948 14.514 22.5627 13.4658 22.5103 11.9834Z" fill="white"/>
<path d="M15.9297 6.99724C15.0387 7.0197 14.4435 7.63364 14.144 8.83904C13.8446 10.0444 14.2152 10.737 15.2559 10.9167C16.3115 11.0964 17.195 10.9129 17.9062 10.3664C17.9661 10.1867 17.9287 9.74496 17.7939 9.04119C17.5394 7.64861 16.918 6.96729 15.9297 6.99724ZM19.4673 9.68132C19.5646 10.5573 19.5347 11.6167 19.3774 12.8595C19.2127 14.2147 18.6287 15.2105 17.6255 15.8469C16.9217 16.2961 15.5628 16.5207 13.5488 16.5207H11.123V14.6227H12.2686C14.6719 14.6227 16.0308 14.5666 16.3452 14.4543C17.3185 14.1024 17.8164 13.2826 17.8389 11.9948C17.4346 12.3691 16.6971 12.5676 15.6265 12.59C14.4435 12.605 13.59 12.2643 13.0659 11.568C12.5942 10.9466 12.4146 10.1605 12.5269 9.20964C12.6616 7.98927 13.0734 7.0197 13.7622 6.30095C14.6007 5.41749 15.5666 5.08806 16.6597 5.31267C17.4308 5.47738 18.056 5.96404 18.5352 6.77263C19.0293 7.58871 19.34 8.55828 19.4673 9.68132ZM16.2104 0.382496L17.1538 1.33709C17.3335 1.51677 17.3372 1.69646 17.165 1.87615L16.1768 2.86443C15.9746 3.0516 15.7837 3.0516 15.604 2.86443L14.6157 1.87615C14.4285 1.69646 14.4398 1.5018 14.6494 1.29216L15.5591 0.371265C15.7687 0.16163 15.9858 0.165373 16.2104 0.382496Z" fill="white"/>
<path d="M7.10294 12.2194C6.99064 11.014 6.8671 9.98455 6.73234 9.13103C3.31827 9.40805 1.65242 10.1605 1.73478 11.3884C1.76473 11.9199 2.05297 12.2494 2.59952 12.3766C3.71508 12.6087 5.21622 12.5563 7.10294 12.2194ZM7.29386 13.8141C3.35571 14.4131 0.993567 13.9639 0.207434 12.4665C0.0876428 12.2494 0.02026 11.9761 0.005286 11.6467C-0.121993 9.33318 2.04923 7.99675 6.51896 7.63738C6.51896 7.44272 6.46655 6.97478 6.36173 6.23357L7.96769 5.8405C8.06502 6.7614 8.28589 8.72299 8.63029 11.7253C8.80997 13.2676 9.18058 14.1585 9.7421 14.3981C10.0865 14.5479 10.5956 14.6227 11.2694 14.6227H11.5614V16.5207H11.0336C8.82495 16.5207 7.57837 15.6185 7.29386 13.8141ZM8.24845 1.82L9.18058 2.77459C9.36775 2.95427 9.3715 3.13396 9.19181 3.31365L8.20353 4.30193C8.01635 4.4891 7.82544 4.4891 7.63077 4.30193L6.64249 3.31365C6.46281 3.13396 6.47778 2.9393 6.68742 2.72966L7.59708 1.80877C7.81421 1.59913 8.03133 1.60287 8.24845 1.82ZM4.84562 1.82L5.77775 2.77459C5.96492 2.95427 5.96867 3.13396 5.78898 3.31365L4.81193 4.30193C4.60978 4.4891 4.41512 4.4891 4.22794 4.30193L3.25089 3.31365C3.06372 3.13396 3.07495 2.9393 3.28458 2.72966L4.19425 1.80877C4.40389 1.59913 4.62101 1.60287 4.84562 1.82Z" fill="white"/>
</svg>
