<svg width="164" height="35" viewBox="0 0 164 35" fill="none" xmlns="http://www.w3.org/2000/svg">
<path d="M160.743 2.62891C160.825 2.62891 160.884 2.6582 160.919 2.7168C160.954 2.76367 160.978 2.82227 160.989 2.89258C161.013 2.96289 161.024 3.0332 161.024 3.10352C161.024 3.17383 161.024 3.23242 161.024 3.2793C161.001 3.72461 161.007 4.1582 161.042 4.58008C161.089 5.00195 161.136 5.42969 161.183 5.86328C161.312 6.90625 161.452 7.98438 161.604 9.09766C161.757 10.1992 161.909 11.3125 162.062 12.4375C162.214 13.5625 162.366 14.6816 162.519 15.7949C162.671 16.9082 162.812 17.9922 162.94 19.0469C162.987 19.457 163.017 19.9375 163.028 20.4883C163.04 21.0391 163.028 21.6016 162.993 22.1758C162.958 22.7383 162.894 23.2832 162.8 23.8105C162.718 24.3379 162.595 24.7773 162.431 25.1289C162.36 25.3633 162.255 25.4863 162.114 25.498C162.032 25.498 161.979 25.4512 161.956 25.3574C161.886 24.3262 161.798 23.2949 161.692 22.2637C161.587 21.2324 161.458 20.1836 161.306 19.1172C161.001 16.8906 160.696 14.6934 160.392 12.5254C160.099 10.3574 159.817 8.17188 159.548 5.96875C159.583 5.38281 159.729 4.80859 159.987 4.24609C160.128 3.90625 160.257 3.60742 160.374 3.34961C160.491 3.08008 160.614 2.83984 160.743 2.62891Z" fill="white"/>
<path d="M149.774 23.4234C150.067 23.3999 150.378 23.3765 150.706 23.3531C151.034 23.3296 151.362 23.3062 151.69 23.2827C152.019 23.2476 152.329 23.2066 152.622 23.1597C152.927 23.1128 153.202 23.0542 153.448 22.9839C153.413 22.8667 153.343 22.6851 153.237 22.439C153.132 22.1929 153.015 21.9351 152.886 21.6656C152.757 21.396 152.622 21.1382 152.481 20.8921C152.353 20.646 152.241 20.4585 152.147 20.3296C151.737 20.9741 151.333 21.5484 150.935 22.0523C150.536 22.5562 150.149 23.0132 149.774 23.4234ZM152.042 17.5171C152.44 16.9077 152.792 16.064 153.097 14.9859C153.401 13.9077 153.647 12.689 153.835 11.3296C154.022 9.95852 154.14 8.49368 154.187 6.93509C154.233 5.37649 154.198 3.81204 154.081 2.24173C154.28 1.86673 154.468 1.52102 154.644 1.20462C154.819 0.876494 155.019 0.542509 155.241 0.202665C155.3 0.108915 155.376 0.0444623 155.47 0.00930607C155.563 -0.0258502 155.622 0.0386029 155.646 0.202665C155.728 1.15188 155.786 2.07181 155.821 2.96243C155.868 3.84134 155.88 4.70852 155.856 5.56399C155.845 6.41946 155.804 7.27493 155.733 8.1304C155.663 8.97415 155.558 9.82962 155.417 10.6968C155.265 11.7281 155.077 12.6656 154.854 13.5093C154.644 14.3531 154.415 15.1089 154.169 15.7769C153.935 16.4449 153.7 17.0249 153.466 17.5171C153.243 18.0093 153.044 18.4195 152.868 18.7476C153.009 19.0054 153.161 19.2984 153.325 19.6265C153.501 19.9429 153.665 20.2769 153.817 20.6284C153.981 20.98 154.128 21.3374 154.257 21.7007C154.386 22.0523 154.474 22.3863 154.521 22.7027C154.521 23.1949 154.456 23.6753 154.327 24.1441C154.198 24.6011 154.017 25.0523 153.782 25.4976C153.372 25.5796 152.833 25.6616 152.165 25.7437C151.497 25.8374 150.794 25.9195 150.056 25.9898C149.317 26.0718 148.591 26.1363 147.876 26.1831C147.161 26.23 146.558 26.2534 146.065 26.2534C146.007 26.23 145.978 26.1187 145.978 25.9195C145.989 25.7202 146.013 25.4917 146.048 25.2339C146.095 24.9761 146.147 24.7241 146.206 24.4781C146.265 24.2202 146.323 24.021 146.382 23.8804C146.44 23.7163 146.552 23.6343 146.716 23.6343C147.524 23.5757 148.034 23.4409 148.245 23.23C148.397 23.0777 148.608 22.8491 148.878 22.5445C149.159 22.2398 149.452 21.8941 149.757 21.5074C150.073 21.1206 150.378 20.7222 150.671 20.312C150.964 19.8902 151.198 19.4917 151.374 19.1167C150.8 18.1441 150.185 17.1714 149.528 16.1988C148.884 15.2261 148.21 14.2827 147.507 13.3687C146.804 12.4429 146.071 11.5581 145.31 10.7144C144.56 9.85892 143.792 9.07376 143.007 8.35892C142.714 8.51126 142.351 8.58743 141.917 8.58743C141.647 8.51712 141.331 8.40579 140.968 8.25345C140.616 8.08938 140.271 7.89602 139.931 7.67337C139.603 7.45071 139.315 7.20462 139.069 6.93509C138.835 6.65384 138.706 6.35501 138.683 6.0386C138.683 5.95657 138.683 5.80423 138.683 5.58157C138.694 5.35892 138.706 5.10696 138.718 4.82571C138.741 4.53274 138.771 4.23392 138.806 3.92923C138.853 3.61282 138.911 3.32571 138.981 3.0679C139.052 2.81009 139.134 2.65774 139.228 2.61087C139.333 2.56399 139.521 2.63431 139.79 2.82181C140.587 3.37259 141.39 4.01712 142.198 4.7554C143.007 5.49368 143.798 6.2847 144.571 7.12845C145.356 7.9722 146.112 8.8511 146.839 9.76517C147.577 10.6792 148.263 11.5874 148.896 12.4898C149.54 13.3921 150.126 14.271 150.653 15.1265C151.192 15.982 151.655 16.7788 152.042 17.5171Z" fill="white"/>
<path d="M133.497 19.1346C133.544 19.0057 133.608 18.9061 133.69 18.8358C133.772 18.7538 133.849 18.7127 133.919 18.7127C133.989 18.7127 134.042 18.7479 134.077 18.8182C134.124 18.8885 134.13 19.0057 134.095 19.1698C134.036 19.3924 133.96 19.6385 133.866 19.9081C133.784 20.1776 133.679 20.4647 133.55 20.7694C133.632 20.9803 133.831 21.1913 134.147 21.4022C134.476 21.6131 134.845 21.7889 135.255 21.9295C135.665 22.0702 136.075 22.1698 136.485 22.2284C136.907 22.2752 137.253 22.2459 137.522 22.1405C137.522 21.7069 137.487 21.3084 137.417 20.9452C137.358 20.5702 137.235 20.16 137.048 19.7147C137.153 19.5038 137.247 19.3163 137.329 19.1522C137.423 18.9881 137.511 18.8358 137.593 18.6952C137.675 18.5545 137.757 18.4198 137.839 18.2909C137.933 18.1502 138.032 17.9979 138.138 17.8338C138.22 17.7518 138.284 17.7459 138.331 17.8163C138.612 18.66 138.753 19.4217 138.753 20.1014C138.753 20.7811 138.659 21.4901 138.472 22.2284C138.413 22.4393 138.325 22.6913 138.208 22.9842C138.091 23.2772 137.95 23.5584 137.786 23.828C137.622 24.0975 137.435 24.3319 137.224 24.5311C137.013 24.7303 136.778 24.8475 136.521 24.8827C136.251 24.9178 135.935 24.9061 135.571 24.8475C135.208 24.7772 134.833 24.6659 134.446 24.5135C134.06 24.3495 133.685 24.1444 133.321 23.8983C132.958 23.6522 132.653 23.3709 132.407 23.0545C132.079 23.5819 131.628 24.0096 131.054 24.3377C130.491 24.6541 129.87 24.8768 129.19 25.0057C128.511 25.1229 127.813 25.1346 127.099 25.0409C126.384 24.9471 125.716 24.742 125.095 24.4256C124.661 24.6717 124.251 24.8651 123.864 25.0057C123.489 25.1346 123.138 25.2342 122.81 25.3045C122.481 25.3748 122.177 25.4159 121.896 25.4276C121.614 25.4393 121.362 25.4452 121.14 25.4452H120.823C120.472 25.4452 120.208 25.3045 120.032 25.0233C119.845 24.7303 119.751 24.4139 119.751 24.0741C119.751 23.7225 119.845 23.4061 120.032 23.1248C120.208 22.8319 120.472 22.6854 120.823 22.6854H121.14C121.878 22.6854 122.552 22.6561 123.161 22.5975C123.782 22.5389 124.374 22.3924 124.937 22.1581C125.476 21.9354 125.968 21.6014 126.413 21.1561C126.87 20.7108 127.28 20.1834 127.644 19.5741C127.702 19.4686 127.767 19.3866 127.837 19.328C127.907 19.2577 127.972 19.2225 128.03 19.2225C128.089 19.2225 128.13 19.2518 128.153 19.3104C128.188 19.369 128.194 19.4686 128.171 19.6092C128.136 19.8084 128.077 20.0428 127.995 20.3123C127.913 20.5702 127.819 20.8338 127.714 21.1034C127.608 21.3612 127.491 21.6131 127.362 21.8592C127.233 22.1053 127.104 22.3104 126.976 22.4745C127.304 22.5565 127.655 22.6092 128.03 22.6327C128.405 22.6561 128.78 22.6502 129.155 22.6151C129.542 22.5799 129.917 22.5155 130.28 22.4217C130.644 22.3163 130.983 22.1815 131.3 22.0174C131.804 21.7479 132.226 21.3788 132.565 20.91C132.917 20.4295 133.228 19.8377 133.497 19.1346Z" fill="white"/>
<path d="M106.479 20.171C106.667 19.8312 106.79 19.3566 106.849 18.7472C106.907 18.1261 106.919 17.4347 106.884 16.673C106.86 15.8996 106.796 15.0792 106.69 14.2121C106.585 13.3331 106.468 12.466 106.339 11.6105C106.222 10.7433 106.093 9.91127 105.952 9.1144C105.823 8.3058 105.712 7.5851 105.618 6.95229C105.56 6.50698 105.472 6.06166 105.354 5.61635C105.237 5.15932 105.062 4.7433 104.827 4.3683C104.792 4.28627 104.757 4.23354 104.722 4.2101C104.698 4.17494 104.681 4.14565 104.669 4.12221C104.669 4.09877 104.675 4.06948 104.687 4.03432C104.698 3.99916 104.722 3.93471 104.757 3.84096C104.956 3.50112 105.138 3.15541 105.302 2.80385C105.478 2.44057 105.647 2.10658 105.812 1.8019C105.858 1.70815 105.911 1.64955 105.97 1.62612C106.028 1.60268 106.069 1.66127 106.093 1.8019C106.198 2.08315 106.304 2.37026 106.409 2.66323C106.526 2.94448 106.655 3.21987 106.796 3.4894C106.948 3.74721 107.124 3.9933 107.323 4.22768C107.522 4.45033 107.757 4.64369 108.026 4.80776C107.862 5.08901 107.716 5.3351 107.587 5.54604C107.458 5.74526 107.353 5.9269 107.271 6.09096C107.188 6.25502 107.13 6.41909 107.095 6.58315C107.06 6.73549 107.054 6.90541 107.077 7.09291C107.288 8.03041 107.464 9.00893 107.604 10.0285C107.757 11.048 107.862 12.0792 107.921 13.1222C107.991 14.1652 108.003 15.2081 107.956 16.2511C107.909 17.2941 107.798 18.3019 107.622 19.2746C107.962 18.9816 108.319 18.6769 108.694 18.3605C109.069 18.0324 109.456 17.716 109.854 17.4113C110.253 17.0949 110.657 16.8019 111.067 16.5324C111.489 16.2511 111.911 16.0109 112.333 15.8117C112.954 15.5187 113.634 15.3722 114.372 15.3722C115.122 15.3722 115.831 15.4894 116.499 15.7238C117.167 15.9464 117.747 16.2687 118.239 16.6906C118.731 17.1124 119.042 17.5988 119.171 18.1496C119.101 19.1456 118.849 20.0246 118.415 20.7863C117.981 21.5363 117.396 22.1164 116.657 22.5265C117.36 22.5968 118.11 22.6437 118.907 22.6671C119.716 22.6789 120.454 22.6847 121.122 22.6847H121.438C121.813 22.6847 122.095 22.8312 122.282 23.1242C122.47 23.4054 122.563 23.7218 122.563 24.0734C122.563 24.4132 122.47 24.7296 122.282 25.0226C122.095 25.3039 121.813 25.4445 121.438 25.4445H121.122C120.642 25.4445 120.062 25.4445 119.382 25.4445C118.714 25.4328 117.987 25.421 117.202 25.4093C116.417 25.3859 115.597 25.3624 114.741 25.339C113.897 25.3156 113.065 25.2921 112.245 25.2687C111.437 25.2335 110.663 25.2042 109.925 25.1808C109.187 25.1456 108.536 25.1105 107.974 25.0753C107.013 25.2042 106.058 25.298 105.108 25.3566C104.159 25.4152 103.245 25.4445 102.366 25.4445H102.05C101.687 25.4445 101.417 25.3039 101.241 25.0226C101.054 24.7296 100.96 24.4132 100.96 24.0734C100.96 23.7218 101.054 23.4054 101.241 23.1242C101.417 22.8312 101.687 22.6847 102.05 22.6847H102.366C102.554 22.6847 102.782 22.6847 103.052 22.6847C103.333 22.673 103.573 22.6613 103.772 22.6496L106.479 20.171ZM117.519 19.7843C117.226 19.3859 116.862 19.046 116.429 18.7648C115.995 18.4835 115.532 18.2667 115.04 18.1144C114.548 17.9621 114.044 17.8742 113.528 17.8507C113.013 17.8273 112.526 17.8742 112.069 17.9914C111.483 18.1554 110.915 18.3898 110.364 18.6945C109.825 18.9874 109.28 19.339 108.729 19.7492C108.19 20.1593 107.64 20.6164 107.077 21.1203C106.526 21.6124 105.946 22.1339 105.337 22.6847C106.286 22.6378 107.323 22.5558 108.448 22.4386C109.573 22.3097 110.687 22.1339 111.788 21.9113C112.901 21.6769 113.956 21.3898 114.952 21.0499C115.96 20.6984 116.815 20.2765 117.519 19.7843Z" fill="white"/>
<path d="M95.8975 22.2812C95.9678 22.4336 96.1436 22.5508 96.4248 22.6328C96.7178 22.7148 97.04 22.7734 97.3916 22.8086C97.7432 22.832 98.0889 22.8379 98.4287 22.8262C98.7803 22.8145 99.0439 22.7969 99.2197 22.7734C99.2197 22.7266 99.1553 22.6094 99.0264 22.4219C98.9092 22.2344 98.751 22.041 98.5518 21.8418C98.3525 21.6309 98.1299 21.4434 97.8838 21.2793C97.6494 21.1035 97.415 21.0039 97.1807 20.9805C97.0518 20.9805 96.9111 21.0273 96.7588 21.1211C96.6182 21.2031 96.4834 21.3145 96.3545 21.4551C96.2256 21.584 96.1143 21.7246 96.0205 21.877C95.9385 22.0293 95.8975 22.1641 95.8975 22.2812ZM99.7646 25.4629L98.0068 25.498C97.5146 25.5215 97.0459 25.4746 96.6006 25.3574C96.167 25.2285 95.7861 25.041 95.458 24.7949C95.1416 24.5371 94.8955 24.2207 94.7197 23.8457C94.5557 23.459 94.5029 23.0195 94.5615 22.5273C94.5967 22.1992 94.7139 21.7949 94.9131 21.3145C95.1123 20.834 95.3643 20.3711 95.6689 19.9258C95.9736 19.4688 96.3135 19.082 96.6885 18.7656C97.0635 18.4375 97.4443 18.2734 97.8311 18.2734C98.2412 18.2734 98.6221 18.4434 98.9736 18.7832C99.3369 19.1113 99.6592 19.5039 99.9404 19.9609C100.21 20.4297 100.433 20.9219 100.608 21.4375C100.784 21.9414 100.896 22.375 100.942 22.7383L102.349 22.6855H102.683C102.858 22.6855 103.017 22.7266 103.157 22.8086C103.298 22.8906 103.415 22.9961 103.509 23.125C103.603 23.2539 103.673 23.4004 103.72 23.5645C103.767 23.7285 103.79 23.8984 103.79 24.0742C103.802 24.4141 103.714 24.7305 103.526 25.0234C103.339 25.3047 103.058 25.4453 102.683 25.4453H102.349L100.872 25.4629C100.661 26.459 100.415 27.4375 100.134 28.3984C99.8643 29.3594 99.5186 30.2441 99.0967 31.0527C98.6631 31.8613 98.1357 32.5703 97.5146 33.1797C96.9053 33.7891 96.1553 34.2344 95.2646 34.5156C94.6787 34.7266 94.0283 34.8613 93.3135 34.9199C92.6104 34.9902 91.8896 35.002 91.1514 34.9551C90.4248 34.9082 89.71 34.8203 89.0068 34.6914C88.292 34.5625 87.6475 34.416 87.0732 34.252C86.9092 34.2051 86.8037 34.1348 86.7568 34.041C86.71 33.959 86.71 33.877 86.7568 33.7949C86.8037 33.7129 86.8857 33.6426 87.0029 33.584C87.1201 33.5254 87.2607 33.502 87.4248 33.5137C87.9639 33.5723 88.5615 33.5781 89.2178 33.5312C89.874 33.4961 90.5303 33.4141 91.1865 33.2852C91.8545 33.168 92.499 33.0098 93.1201 32.8105C93.7412 32.6113 94.292 32.377 94.7725 32.1074C95.4404 31.7441 96.0322 31.3105 96.5479 30.8066C97.0635 30.3027 97.5264 29.752 97.9365 29.1543C98.3467 28.5566 98.6982 27.9473 98.9912 27.3262C99.2959 26.7168 99.5537 26.0957 99.7646 25.4629Z" fill="white"/>
<path d="M86.4229 2.62891C86.5049 2.62891 86.5635 2.6582 86.5986 2.7168C86.6338 2.76367 86.6572 2.82227 86.6689 2.89258C86.6924 2.96289 86.7041 3.0332 86.7041 3.10352C86.7041 3.17383 86.7041 3.23242 86.7041 3.2793C86.6807 3.72461 86.6865 4.1582 86.7217 4.58008C86.7686 5.00195 86.8154 5.42969 86.8623 5.86328C86.9912 6.90625 87.1318 7.98438 87.2842 9.09766C87.4365 10.1992 87.5889 11.3125 87.7412 12.4375C87.8936 13.5625 88.0459 14.6816 88.1982 15.7949C88.3506 16.9082 88.4912 17.9922 88.6201 19.0469C88.667 19.457 88.6963 19.9375 88.708 20.4883C88.7197 21.0391 88.708 21.6016 88.6729 22.1758C88.6377 22.7383 88.5732 23.2832 88.4795 23.8105C88.3975 24.3379 88.2744 24.7773 88.1104 25.1289C88.04 25.3633 87.9346 25.4863 87.7939 25.498C87.7119 25.498 87.6592 25.4512 87.6357 25.3574C87.5654 24.3262 87.4775 23.2949 87.3721 22.2637C87.2666 21.2324 87.1377 20.1836 86.9854 19.1172C86.6807 16.8906 86.376 14.6934 86.0713 12.5254C85.7783 10.3574 85.4971 8.17188 85.2275 5.96875C85.2627 5.38281 85.4092 4.80859 85.667 4.24609C85.8076 3.90625 85.9365 3.60742 86.0537 3.34961C86.1709 3.08008 86.2939 2.83984 86.4229 2.62891Z" fill="white"/>
<path d="M79.4092 15.8294C79.4561 15.7356 79.5029 15.6888 79.5498 15.6888C79.5967 15.6888 79.6904 15.7473 79.8311 15.8645C80.1475 16.2044 80.4404 16.5677 80.71 16.9544C80.9912 17.3294 81.2373 17.7278 81.4482 18.1497C81.6592 18.5716 81.8232 19.0052 81.9404 19.4505C82.0693 19.8958 82.1338 20.347 82.1338 20.804C82.1338 21.0032 82.1221 21.2259 82.0986 21.472C82.0752 21.7181 82.0342 21.9641 81.9756 22.2102C81.9287 22.4563 81.8643 22.6966 81.7822 22.9309C81.7119 23.1653 81.624 23.3645 81.5186 23.5286C81.249 23.9505 80.8623 24.2903 80.3584 24.5481C79.8545 24.8059 79.3037 24.9993 78.7061 25.1282C78.1201 25.2571 77.5166 25.345 76.8955 25.3919C76.2861 25.427 75.7295 25.4446 75.2256 25.4446H74.9092C74.5342 25.4446 74.2529 25.304 74.0654 25.0227C73.8779 24.7298 73.7842 24.4075 73.7842 24.0559C73.7842 23.7044 73.8779 23.388 74.0654 23.1067C74.2529 22.8138 74.5342 22.6673 74.9092 22.6673H75.2256C75.542 22.6673 75.9521 22.6673 76.4561 22.6673C76.96 22.6556 77.4756 22.6321 78.0029 22.597C78.5303 22.5618 79.04 22.5032 79.5322 22.4212C80.0244 22.3274 80.4229 22.1985 80.7275 22.0345C80.9619 21.8938 81.0498 21.7356 80.9912 21.5598C80.792 20.9153 80.499 20.347 80.1123 19.8548C79.7256 19.3509 79.2861 18.8528 78.7939 18.3606C78.8877 17.9505 78.9873 17.5286 79.0928 17.095C79.1982 16.6614 79.3037 16.2395 79.4092 15.8294ZM78.4424 8.02469L80.6221 9.83524C80.7041 9.90555 80.71 9.99344 80.6396 10.0989L79.1807 11.927C79.0869 12.0208 78.9873 12.0266 78.8818 11.9446L76.7021 10.1516C76.6201 10.0813 76.6201 9.98758 76.7021 9.8704L78.1787 8.05985C78.249 7.9661 78.3369 7.95438 78.4424 8.02469Z" fill="white"/>
<path d="M68.8096 16.2166C67.9307 16.4745 67.1514 16.826 66.4717 17.2713C65.8037 17.7049 65.2178 18.2733 64.7139 18.9764C64.5615 19.1522 64.5439 19.2987 64.6611 19.4159C65.0127 19.5799 65.417 19.662 65.874 19.662C66.3428 19.662 66.7998 19.6151 67.2451 19.5213C67.7021 19.4159 68.1182 19.287 68.4932 19.1346C68.8799 18.9706 69.1611 18.8182 69.3369 18.6776C69.2432 18.2557 69.1494 17.8573 69.0557 17.4823C68.9619 17.0956 68.8799 16.6737 68.8096 16.2166ZM68.8799 11.1366C68.915 11.0194 68.9795 10.9725 69.0732 10.9959C69.167 11.0194 69.2197 11.0663 69.2314 11.1366C69.29 11.535 69.3545 11.951 69.4248 12.3846C69.4951 12.8065 69.5713 13.2401 69.6533 13.6854C69.7354 14.119 69.835 14.617 69.9521 15.1795C70.0811 15.742 70.2275 16.3807 70.3916 17.0956C70.7197 18.5018 70.9482 19.4159 71.0771 19.8377C71.2529 20.4237 71.4814 20.9041 71.7627 21.2791C72.0557 21.6424 72.3838 21.9295 72.7471 22.1405C73.1104 22.3514 73.5029 22.4979 73.9248 22.5799C74.3584 22.6502 74.7979 22.6854 75.2432 22.6854H75.5596C75.9346 22.6854 76.2158 22.8319 76.4033 23.1248C76.5908 23.4061 76.6846 23.7225 76.6846 24.0741C76.6846 24.4139 76.5908 24.7303 76.4033 25.0233C76.2158 25.3045 75.9346 25.4452 75.5596 25.4452H75.2432C74.5283 25.4569 73.9014 25.369 73.3623 25.1815C72.8232 24.9823 72.3545 24.7245 71.9561 24.4081C71.5576 24.0916 71.2236 23.7342 70.9541 23.3358C70.6846 22.9256 70.4561 22.5096 70.2686 22.0877C70.0811 21.5604 69.9287 21.1268 69.8115 20.787C69.7061 20.4354 69.624 20.1659 69.5654 19.9784C69.1084 20.5526 68.6748 21.0038 68.2646 21.3319C67.8662 21.6483 67.4561 21.8827 67.0342 22.035C66.624 22.1873 66.1963 22.2752 65.751 22.2987C65.3174 22.3221 64.8369 22.3163 64.3096 22.2811C64.1338 22.2694 63.958 22.2284 63.7822 22.1581C63.6064 22.0877 63.4482 21.994 63.3076 21.8768C63.167 21.7596 63.0557 21.619 62.9736 21.4549C62.9033 21.2909 62.8799 21.1034 62.9033 20.8924C63.0088 20.2127 63.1846 19.5916 63.4307 19.0291C63.6768 18.4549 63.9521 17.9452 64.2568 17.4998C64.749 16.7967 65.335 16.2049 66.0146 15.7245C66.7061 15.2323 67.5498 14.7928 68.5459 14.4061C68.5225 14.2655 68.4873 14.078 68.4404 13.8436C68.4053 13.5975 68.3643 13.369 68.3174 13.1581C68.2939 13.0643 68.2998 12.9354 68.335 12.7713C68.3818 12.5956 68.4404 12.4139 68.5107 12.2264C68.5811 12.0272 68.6514 11.8338 68.7217 11.6463C68.792 11.4471 68.8447 11.2772 68.8799 11.1366ZM71.0068 9.23813C70.9248 9.35532 70.8135 9.36118 70.6729 9.25571L68.5635 7.62094L67.21 9.48422C67.1631 9.54282 67.1104 9.57797 67.0518 9.58969C67.0049 9.58969 66.9639 9.57797 66.9287 9.55454L64.6787 7.83188C64.6318 7.79672 64.6025 7.76743 64.5908 7.74399C64.5791 7.72055 64.5967 7.67954 64.6436 7.62094L66.0498 5.59946C66.1201 5.48227 66.208 5.45883 66.3135 5.52915L68.4404 7.14633L69.8818 5.30063C69.9521 5.2186 70.0342 5.21274 70.1279 5.28305L72.3428 7.11118C72.4014 7.18149 72.4014 7.26352 72.3428 7.35727L71.0068 9.23813Z" fill="white"/>
<path d="M49.1396 15.8294C49.1865 15.7356 49.2334 15.6888 49.2803 15.6888C49.3271 15.6888 49.4209 15.7473 49.5615 15.8645C49.8779 16.2044 50.1709 16.5677 50.4404 16.9544C50.7217 17.3294 50.9678 17.7278 51.1787 18.1497C51.3896 18.5716 51.5537 19.0052 51.6709 19.4505C51.7998 19.8958 51.8643 20.347 51.8643 20.804C51.8643 21.0032 51.8525 21.2259 51.8291 21.472C51.8057 21.7181 51.7646 21.9641 51.7061 22.2102C51.6592 22.4563 51.5947 22.6966 51.5127 22.9309C51.4424 23.1653 51.3545 23.3645 51.249 23.5286C50.9795 23.9505 50.5928 24.2903 50.0889 24.5481C49.585 24.8059 49.0342 24.9993 48.4365 25.1282C47.8506 25.2571 47.2471 25.345 46.626 25.3919C46.0166 25.427 45.46 25.4446 44.9561 25.4446H44.6396C44.2646 25.4446 43.9834 25.304 43.7959 25.0227C43.6084 24.7298 43.5146 24.4075 43.5146 24.0559C43.5146 23.7044 43.6084 23.388 43.7959 23.1067C43.9834 22.8138 44.2646 22.6673 44.6396 22.6673H44.9561C45.2725 22.6673 45.6826 22.6673 46.1865 22.6673C46.6904 22.6556 47.2061 22.6321 47.7334 22.597C48.2607 22.5618 48.7705 22.5032 49.2627 22.4212C49.7549 22.3274 50.1533 22.1985 50.458 22.0345C50.6924 21.8938 50.7803 21.7356 50.7217 21.5598C50.5225 20.9153 50.2295 20.347 49.8428 19.8548C49.4561 19.3509 49.0166 18.8528 48.5244 18.3606C48.6182 17.9505 48.7178 17.5286 48.8232 17.095C48.9287 16.6614 49.0342 16.2395 49.1396 15.8294ZM51.2139 12.7181C51.1436 12.7884 51.085 12.8177 51.0381 12.8059C50.9912 12.7942 50.9385 12.7708 50.8799 12.7356L48.8408 11.1888L47.54 12.9466C47.4932 13.0052 47.4404 13.0403 47.3818 13.052C47.335 13.052 47.2939 13.0403 47.2588 13.0169L45.0967 11.3821C45.0498 11.347 45.0205 11.3177 45.0088 11.2942C44.9971 11.2708 45.0146 11.2356 45.0615 11.1888L46.415 9.29032C46.4502 9.24344 46.4912 9.21415 46.5381 9.20243C46.585 9.17899 46.6318 9.18485 46.6787 9.22001L48.7354 10.7493L50.124 8.99149C50.1709 8.9329 50.2002 8.9036 50.2119 8.9036C50.2354 8.89188 50.2764 8.9036 50.335 8.93876L52.4971 10.7141C52.5908 10.7727 52.5908 10.8489 52.4971 10.9427L51.2139 12.7181ZM47.9443 5.61649L50.0537 7.30399C50.1123 7.35087 50.1357 7.39774 50.124 7.44462C50.1123 7.49149 50.0947 7.53251 50.0713 7.56766L48.665 9.29032C48.5947 9.38407 48.4951 9.38407 48.3662 9.29032L46.2568 7.6204C46.1748 7.55008 46.1748 7.45633 46.2568 7.33915L47.6807 5.65165C47.751 5.5579 47.8389 5.54618 47.9443 5.61649Z" fill="white"/>
<path d="M41.6689 19.3979C41.6924 19.0698 41.6221 18.7241 41.458 18.3608C41.2939 17.9858 41.1123 17.6519 40.9131 17.3589C40.8076 17.2065 40.6611 17.1011 40.4736 17.0425C40.2979 16.9839 40.1221 16.9663 39.9463 16.9897C39.7471 17.0132 39.501 17.0835 39.208 17.2007C38.915 17.3062 38.6279 17.4526 38.3467 17.6401C38.0654 17.8159 37.8076 18.0327 37.5732 18.2905C37.3389 18.5366 37.1807 18.8062 37.0986 19.0991C37.1104 19.3921 37.1807 19.6558 37.3096 19.8901C37.4502 20.1245 37.6084 20.3296 37.7842 20.5054C37.9717 20.6694 38.1592 20.8101 38.3467 20.9272C38.5459 21.0327 38.71 21.1089 38.8389 21.1558C38.9678 21.1323 39.1729 21.0679 39.4541 20.9624C39.7471 20.8452 40.0459 20.7046 40.3506 20.5405C40.6553 20.3647 40.9307 20.1831 41.1768 19.9956C41.4346 19.7964 41.5986 19.5972 41.6689 19.3979ZM41.001 14.1948C41.4814 14.23 41.8682 14.4409 42.1611 14.8276C42.4658 15.2026 42.6885 15.6655 42.8291 16.2163C42.9697 16.7554 43.04 17.3296 43.04 17.939C43.04 18.5366 42.9814 19.0757 42.8643 19.5562C42.7354 20.0601 42.542 20.5347 42.2842 20.98C42.0381 21.4136 41.751 21.8237 41.4229 22.2104C41.6221 22.3394 41.8623 22.439 42.1436 22.5093C42.4365 22.5679 42.7412 22.6147 43.0576 22.6499C43.3857 22.6733 43.7139 22.6851 44.042 22.6851C44.3701 22.6851 44.6748 22.6851 44.9561 22.6851H45.2725C45.6475 22.7085 45.9287 22.8667 46.1162 23.1597C46.3037 23.4409 46.3975 23.7515 46.3975 24.0913C46.3975 24.4312 46.3037 24.7417 46.1162 25.0229C45.9287 25.3042 45.6475 25.4448 45.2725 25.4448H44.9561C43.6436 25.4448 42.4014 25.3101 41.2295 25.0405C40.0693 24.7593 39.0322 24.355 38.1182 23.8276C37.626 24.0737 37.1338 24.2964 36.6416 24.4956C36.1611 24.6948 35.6572 24.8647 35.1299 25.0054C34.6143 25.146 34.0635 25.2573 33.4775 25.3394C32.9033 25.4097 32.2646 25.4448 31.5615 25.4448H31.2451C30.8701 25.4448 30.5947 25.3042 30.4189 25.0229C30.2314 24.73 30.1377 24.4136 30.1377 24.0737C30.1377 23.7222 30.2314 23.4058 30.4189 23.1245C30.5947 22.8315 30.8701 22.6851 31.2451 22.6851H31.5615C31.9482 22.6851 32.3115 22.6792 32.6514 22.6675C33.0029 22.6558 33.3486 22.6265 33.6885 22.5796C34.04 22.5327 34.3975 22.4683 34.7607 22.3862C35.1357 22.3042 35.54 22.1929 35.9736 22.0522C35.8564 21.853 35.7686 21.6069 35.71 21.314C35.6514 21.0093 35.6338 20.6987 35.6572 20.3823C35.6924 19.5737 35.8975 18.7944 36.2725 18.0444C36.6475 17.2827 37.1045 16.6147 37.6436 16.0405C38.1826 15.4546 38.751 14.9917 39.3486 14.6519C39.958 14.312 40.5088 14.1597 41.001 14.1948ZM41.5811 10.6792C41.4521 10.7495 41.3408 10.7554 41.2471 10.6968L39.1377 9.13232L37.8545 10.9956C37.8193 11.0542 37.7725 11.0894 37.7139 11.1011C37.6553 11.1011 37.6084 11.0894 37.5732 11.0659L35.3232 9.43115C35.2764 9.396 35.2471 9.3667 35.2354 9.34326C35.2236 9.31982 35.2412 9.27881 35.2881 9.22021L36.624 7.37451C36.6709 7.31592 36.7119 7.28076 36.7471 7.26904C36.7822 7.24561 36.8291 7.25732 36.8877 7.3042L39.0146 8.85107L40.3506 7.02295C40.3975 6.96436 40.4268 6.93506 40.4385 6.93506C40.4619 6.92334 40.5029 6.93506 40.5615 6.97021L42.8115 8.56982C42.9053 8.62842 42.9053 8.71045 42.8115 8.81592L41.5811 10.6792Z" fill="white"/>
<path d="M24.126 4.82575C24.208 4.39216 24.3369 3.982 24.5127 3.59528C24.7002 3.19685 24.8818 2.79255 25.0576 2.38239C25.0811 2.3238 25.1221 2.2945 25.1807 2.2945C25.251 2.28278 25.2979 2.31208 25.3213 2.38239C25.4033 2.71052 25.4795 3.0445 25.5498 3.38435C25.6201 3.71247 25.6846 4.05818 25.7432 4.42146C25.9658 5.74568 26.1475 6.99372 26.2881 8.1656C26.4404 9.32575 26.5693 10.4508 26.6748 11.5406C26.792 12.6187 26.9033 13.6793 27.0088 14.7222C27.1143 15.7652 27.2373 16.8199 27.3779 17.8863C27.4248 18.2613 27.4834 18.6422 27.5537 19.0289C27.624 19.4039 27.7119 19.7672 27.8174 20.1187C27.9346 20.4703 28.0752 20.7984 28.2393 21.1031C28.4033 21.3961 28.6084 21.6539 28.8545 21.8765C29.1709 22.1578 29.5459 22.3629 29.9795 22.4918C30.4131 22.6207 30.9287 22.6851 31.5264 22.6851H31.7549C32.1182 22.6851 32.3936 22.8316 32.5811 23.1246C32.7686 23.4058 32.8623 23.7222 32.8623 24.0738C32.8623 24.4136 32.7686 24.7301 32.5811 25.023C32.3936 25.3043 32.1182 25.4449 31.7549 25.4449H31.5264C30.624 25.4449 29.8506 25.3043 29.2061 25.023C28.5732 24.7301 28.04 24.3316 27.6064 23.8277C27.1846 23.3238 26.8564 22.7437 26.6221 22.0875C26.3877 21.4195 26.2295 20.7047 26.1475 19.9429L25.6904 15.4781C25.4912 13.5679 25.2803 11.7691 25.0576 10.0816C24.8467 8.39411 24.5479 6.77107 24.1611 5.21247C24.1377 5.107 24.1201 5.03669 24.1084 5.00153C24.0967 4.95466 24.1025 4.89607 24.126 4.82575Z" fill="white"/>
<path d="M18.7646 17.007C18.7529 16.8663 18.6885 16.714 18.5713 16.5499C18.4541 16.3859 18.3135 16.2335 18.1494 16.0929C17.9854 15.9523 17.8096 15.8351 17.6221 15.7413C17.4463 15.6476 17.2881 15.6007 17.1475 15.6007C16.9951 15.6007 16.8369 15.6476 16.6729 15.7413C16.5088 15.8351 16.3564 15.9581 16.2158 16.1105C16.0752 16.2511 15.958 16.4093 15.8643 16.5851C15.7705 16.7491 15.7236 16.9015 15.7236 17.0421C15.8643 17.2999 16.0693 17.4991 16.3389 17.6398C16.6201 17.7687 16.9131 17.839 17.2178 17.8507C17.5342 17.8507 17.833 17.7804 18.1143 17.6398C18.3955 17.4991 18.6123 17.2882 18.7646 17.007ZM12.3311 22.6847C12.542 22.6847 12.8525 22.6847 13.2627 22.6847C13.6729 22.6847 14.1299 22.673 14.6338 22.6495C15.1377 22.6261 15.665 22.5792 16.2158 22.5089C16.7666 22.4386 17.2939 22.339 17.7979 22.2101C18.3135 22.0812 18.7764 21.9113 19.1865 21.7003C19.5967 21.4894 19.9131 21.2257 20.1357 20.9093C20.1592 20.7687 20.1592 20.5929 20.1357 20.382C20.1123 20.171 20.0771 19.9601 20.0303 19.7491C19.9834 19.5265 19.9248 19.3156 19.8545 19.1163C19.7959 18.9054 19.7373 18.7296 19.6787 18.589C19.5732 18.7999 19.4385 19.0167 19.2744 19.2394C19.1104 19.462 18.9229 19.6671 18.7119 19.8546C18.501 20.0421 18.2666 20.2003 18.0088 20.3292C17.7627 20.4581 17.499 20.5284 17.2178 20.5402C16.9014 20.5636 16.5967 20.5284 16.3037 20.4347C16.0107 20.3292 15.7412 20.1827 15.4951 19.9952C15.2607 19.8077 15.0557 19.5851 14.8799 19.3273C14.7158 19.0695 14.5986 18.7882 14.5283 18.4835C14.458 18.1554 14.4346 17.7921 14.458 17.3937C14.4814 16.9835 14.5459 16.5734 14.6514 16.1632C14.7686 15.7413 14.9209 15.3312 15.1084 14.9327C15.2959 14.5343 15.5127 14.1827 15.7588 13.8781C16.0166 13.5734 16.2979 13.3331 16.6025 13.1573C16.9189 12.9698 17.2529 12.882 17.6045 12.8937C17.9092 12.9054 18.208 13.0109 18.501 13.2101C18.7939 13.4093 19.0693 13.673 19.3271 14.0011C19.585 14.3175 19.8252 14.6749 20.0479 15.0734C20.2822 15.4718 20.4814 15.882 20.6455 16.3038C20.8096 16.714 20.9443 17.1124 21.0498 17.4991C21.1553 17.8859 21.2197 18.2257 21.2432 18.5187C21.2783 19.0812 21.2783 19.6261 21.2432 20.1534C21.208 20.6808 21.126 21.1788 20.9971 21.6476C20.8682 22.1163 20.6865 22.5499 20.4521 22.9484C20.2178 23.3468 19.9189 23.6984 19.5557 24.0031C19.1338 24.3546 18.6299 24.63 18.0439 24.8292C17.4697 25.0167 16.8545 25.1573 16.1982 25.2511C15.5537 25.3448 14.8975 25.4034 14.2295 25.4269C13.5615 25.4386 12.9287 25.4445 12.3311 25.4445H12.1729C11.7979 25.4445 11.5166 25.3038 11.3291 25.0226C11.1416 24.7296 11.0479 24.4132 11.0479 24.0734C11.0479 23.7218 11.1416 23.4054 11.3291 23.1241C11.5166 22.8312 11.7979 22.6847 12.1729 22.6847H12.3311ZM16.0576 5.65149C16.1279 5.54602 16.2158 5.5343 16.3213 5.61633L18.4131 7.35657C18.4482 7.39172 18.4717 7.43274 18.4834 7.47961C18.5068 7.51477 18.4951 7.56165 18.4482 7.62024L17.042 9.3429C16.9482 9.43665 16.8486 9.44836 16.7432 9.37805L14.6514 7.6554C14.6162 7.63196 14.5928 7.5968 14.5811 7.54993C14.5693 7.50305 14.5928 7.44446 14.6514 7.37415L16.0576 5.65149Z" fill="white"/>
<path d="M5.91504 16.2166C5.03613 16.4745 4.25684 16.826 3.57715 17.2713C2.90918 17.7049 2.32324 18.2733 1.81934 18.9764C1.66699 19.1522 1.64941 19.2987 1.7666 19.4159C2.11816 19.5799 2.52246 19.662 2.97949 19.662C3.44824 19.662 3.90527 19.6151 4.35059 19.5213C4.80762 19.4159 5.22363 19.287 5.59863 19.1346C5.98535 18.9706 6.2666 18.8182 6.44238 18.6776C6.34863 18.2557 6.25488 17.8573 6.16113 17.4823C6.06738 17.0956 5.98535 16.6737 5.91504 16.2166ZM5.98535 11.1366C6.02051 11.0194 6.08496 10.9725 6.17871 10.9959C6.27246 11.0194 6.3252 11.0663 6.33691 11.1366C6.39551 11.535 6.45996 11.951 6.53027 12.3846C6.60059 12.8065 6.67676 13.2401 6.75879 13.6854C6.84082 14.119 6.94043 14.617 7.05762 15.1795C7.18652 15.742 7.33301 16.3807 7.49707 17.0956C7.8252 18.5018 8.05371 19.4159 8.18262 19.8377C8.3584 20.4237 8.58691 20.9041 8.86816 21.2791C9.16113 21.6424 9.48926 21.9295 9.85254 22.1405C10.2158 22.3514 10.6084 22.4979 11.0303 22.5799C11.4639 22.6502 11.9033 22.6854 12.3486 22.6854H12.665C13.04 22.6854 13.3213 22.8319 13.5088 23.1248C13.6963 23.4061 13.79 23.7225 13.79 24.0741C13.79 24.4139 13.6963 24.7303 13.5088 25.0233C13.3213 25.3045 13.04 25.4452 12.665 25.4452H12.3486C11.6338 25.4569 11.0068 25.369 10.4678 25.1815C9.92871 24.9823 9.45996 24.7245 9.06152 24.4081C8.66309 24.0916 8.3291 23.7342 8.05957 23.3358C7.79004 22.9256 7.56152 22.5096 7.37402 22.0877C7.18652 21.5604 7.03418 21.1268 6.91699 20.787C6.81152 20.4354 6.72949 20.1659 6.6709 19.9784C6.21387 20.5526 5.78027 21.0038 5.37012 21.3319C4.97168 21.6483 4.56152 21.8827 4.13965 22.035C3.72949 22.1873 3.30176 22.2752 2.85645 22.2987C2.42285 22.3221 1.94238 22.3163 1.41504 22.2811C1.23926 22.2694 1.06348 22.2284 0.887695 22.1581C0.711914 22.0877 0.553711 21.994 0.413086 21.8768C0.272461 21.7596 0.161133 21.619 0.0791016 21.4549C0.00878906 21.2909 -0.0146484 21.1034 0.00878906 20.8924C0.114258 20.2127 0.290039 19.5916 0.536133 19.0291C0.782227 18.4549 1.05762 17.9452 1.3623 17.4998C1.85449 16.7967 2.44043 16.2049 3.12012 15.7245C3.81152 15.2323 4.65527 14.7928 5.65137 14.4061C5.62793 14.2655 5.59277 14.078 5.5459 13.8436C5.51074 13.5975 5.46973 13.369 5.42285 13.1581C5.39941 13.0643 5.40527 12.9354 5.44043 12.7713C5.4873 12.5956 5.5459 12.4139 5.61621 12.2264C5.68652 12.0272 5.75684 11.8338 5.82715 11.6463C5.89746 11.4471 5.9502 11.2772 5.98535 11.1366ZM8.1123 9.23813C8.03027 9.35532 7.91895 9.36118 7.77832 9.25571L5.66895 7.62094L4.31543 9.48422C4.26855 9.54282 4.21582 9.57797 4.15723 9.58969C4.11035 9.58969 4.06934 9.57797 4.03418 9.55454L1.78418 7.83188C1.7373 7.79672 1.70801 7.76743 1.69629 7.74399C1.68457 7.72055 1.70215 7.67954 1.74902 7.62094L3.15527 5.59946C3.22559 5.48227 3.31348 5.45883 3.41895 5.52915L5.5459 7.14633L6.9873 5.30063C7.05762 5.2186 7.13965 5.21274 7.2334 5.28305L9.44824 7.11118C9.50684 7.18149 9.50684 7.26352 9.44824 7.35727L8.1123 9.23813Z" fill="white"/>
</svg>
