<svg width="134" height="26" viewBox="0 0 134 26" fill="none" xmlns="http://www.w3.org/2000/svg">
<path d="M88.8955 3.97363C89.0564 3.97375 89.1709 4.06611 89.1709 4.25V11.9775C90.7119 10.6895 92.2534 10.0459 93.8174 10.0459C96.6693 10.046 98.5088 11.7478 98.5088 14.7607C98.4858 15.4967 98.3939 16.1638 98.21 16.7617H98.4717C98.4756 16.7617 98.4795 16.7607 98.4834 16.7607H99.1738C101.129 16.7607 101.635 16.094 101.635 14.0703V13.4492C101.635 13.2653 101.727 13.1729 101.888 13.1729H104.326C104.487 13.173 104.579 13.2653 104.579 13.4492L104.51 14.668C104.418 16.1169 105.062 16.7842 106.327 16.7842C107.753 16.7841 108.029 16.1167 108.029 14.0469V13.4492C108.029 13.2652 108.121 13.1729 108.282 13.1729H110.72C110.881 13.1729 110.973 13.2652 110.973 13.4492L110.904 14.668C110.812 16.14 111.341 16.7842 112.376 16.7842C113.526 16.7841 114.009 16.14 113.756 14.0244L113.572 12.5293C113.549 12.3683 113.664 12.2529 113.825 12.2529H116.286C116.447 12.253 116.562 12.3454 116.585 12.5293L116.677 14.0244C116.953 18.1409 115.32 20.3026 112.491 20.3027C110.513 20.3027 109.432 19.4746 108.903 17.7266C108.282 19.4976 107.27 20.3027 105.637 20.3027C103.935 20.3027 102.946 19.3366 102.463 17.4736C101.738 19.1876 100.593 19.9964 98.7471 20.0654C98.6931 20.0698 98.6368 20.0732 98.5781 20.0732H82.8662C82.0842 23.5922 80.0143 25.4096 76.3574 25.6396L73.6436 25.8008C73.4826 25.8238 73.3672 25.7079 73.3672 25.5469V22.8105C73.3672 22.6265 73.4826 22.5342 73.6436 22.5342H75.1846C78.2434 22.5341 80.3361 21.6142 80.957 20.0732H79.0254C75.5524 20.0732 73.9648 18.4402 73.9648 15.4502C73.9649 12.2764 75.92 9.86156 78.6338 9.86133C81.4397 9.86133 83.2109 12.2762 83.2109 16.3701V16.7617H85.3076C85.2616 16.6927 85.2845 16.6238 85.3535 16.5088C85.6065 16.1178 85.8593 15.7498 86.1123 15.3818L85.9053 4.25C85.9053 4.066 85.9972 3.97364 86.1582 3.97363H88.8955ZM16.7295 5.19238C19.5584 5.19249 21.3984 7.53877 21.3984 11.4717C21.3984 17.8653 19.9489 20.0732 15.625 20.0732H10.8408C10.8329 20.0732 10.8251 20.0716 10.8174 20.0713C8.69911 20.0525 7.48768 19.4747 6.87695 18.0723H4.59961C1.51787 18.0721 0 16.646 0 13.7021C7.40584e-05 11.2412 1.74799 9.35499 5.58887 8.45801L6.20996 8.32031L6.16406 6.54883C6.16422 6.36515 6.25659 6.27344 6.44043 6.27344H9.01562C9.17649 6.27344 9.29179 6.36515 9.29199 6.54883V14.5537C9.2921 16.0714 9.89039 16.7617 11.6152 16.7617H15.625C18.0858 16.7617 19.1899 16.1633 19.374 14.8525H16.7979C13.6933 14.8524 12.176 13.4033 12.1758 10.8047C12.1758 7.60769 14.0385 5.19238 16.7295 5.19238ZM26.1816 3.97363C26.3655 3.97371 26.457 4.06608 26.457 4.25V14.5537C26.4571 16.0567 27.0437 16.7463 28.752 16.7598C29.4276 16.7589 30.0594 16.7375 30.6689 16.6924C29.841 15.6345 29.3585 14.4154 29.3584 13.1045C29.3584 10.0455 31.3822 7.86035 33.8662 7.86035C36.3731 7.86051 38.3965 9.90734 38.3965 12.7822C38.3965 14.2081 37.799 15.542 36.7871 16.6689C37.4485 16.7374 38.1776 16.7594 38.9746 16.7598C40.9898 16.7484 41.6689 15.8978 41.4404 14.0244L41.0264 10.6895C41.0035 10.5286 41.1185 10.4132 41.2793 10.4131H43.7637C43.9476 10.4131 44.0395 10.5055 44.0625 10.6895L44.2695 14.0244C44.5225 17.8193 42.5217 20.0732 39.0488 20.0732H38.2432C38.2376 20.0732 38.2321 20.0714 38.2266 20.0713C36.4857 20.0593 34.8803 19.6486 33.498 18.9688C31.9549 19.6397 30.1289 20.0482 28.1895 20.0703C28.1645 20.0712 28.1391 20.0732 28.1133 20.0732C28.0979 20.0732 28.0826 20.0723 28.0674 20.0723C28.0529 20.0723 28.0379 20.0732 28.0234 20.0732C28.0175 20.0732 28.0117 20.0714 28.0059 20.0713C24.7056 20.043 23.4667 18.6972 23.3984 14.7607L23.1914 4.25C23.1914 4.066 23.3068 3.97363 23.4678 3.97363H26.1816ZM59.1484 6.27344C59.3093 6.27344 59.4246 6.36515 59.4248 6.54883V14.5537C59.4249 16.0542 60.0095 16.7442 61.6895 16.7598C63.7166 16.7527 64.3998 15.9023 64.1709 14.0244L63.7568 10.6885C63.7342 10.5279 63.8491 10.4132 64.0098 10.4131H66.4941C66.678 10.4131 66.7699 10.5048 66.793 10.6885L67 14.0244C67.2528 17.8191 65.252 20.0732 61.7793 20.0732H60.9736C60.9657 20.0732 60.9579 20.0716 60.9502 20.0713C58.8319 20.0525 57.6205 19.4747 57.0098 18.0723H54.7324C51.6507 18.0721 50.1328 16.646 50.1328 13.7021C50.1329 11.2412 51.8808 9.35499 55.7217 8.45801L56.3428 8.32031L56.2969 6.54883C56.297 6.36515 56.3894 6.27344 56.5732 6.27344H59.1484ZM72.0469 3.97363C72.2307 3.97371 72.3223 4.06608 72.3223 4.25V19.7979C72.3222 19.9587 72.2306 20.0731 72.0469 20.0732H69.5625C69.4016 20.0732 69.2872 19.9817 69.2871 19.7979L69.0566 4.25C69.0566 4.043 69.172 3.97363 69.333 3.97363H72.0469ZM127.865 3.97363C128.049 3.97373 128.141 4.0661 128.141 4.25V7.1709C128.141 9.24073 127.727 10.8275 126.508 12.4834C127.681 14.0014 128.049 15.1291 128.049 17.2451V19.7979C128.049 19.9587 127.956 20.0732 127.772 20.0732H118.32C118.159 20.0732 118.044 19.9587 118.044 19.7979V17.5439C118.044 17.406 118.113 17.2902 118.228 17.1982C120.573 15.5883 122.184 14.2776 123.265 13.0586L117.538 6.5957C117.377 6.43474 117.446 6.27351 117.676 6.27344H120.942C121.08 6.27354 121.195 6.32021 121.287 6.41211L124.806 10.46C125.128 9.49397 125.196 8.45868 125.104 7.2627L124.897 4.25C124.874 4.066 124.99 3.97363 125.151 3.97363H127.865ZM133.208 3.97363C133.392 3.97371 133.483 4.06608 133.483 4.25V19.7979C133.483 19.9587 133.392 20.0731 133.208 20.0732H130.724C130.563 20.0732 130.448 19.9817 130.448 19.7979L130.218 4.25C130.218 4.043 130.333 3.97363 130.494 3.97363H133.208ZM78.1514 13.0352C76.8634 13.0352 76.127 13.9098 76.127 14.9678C76.1272 16.1405 76.9097 16.7617 79.0254 16.7617H80.9346C80.6816 14.4388 79.6233 13.0353 78.1514 13.0352ZM93.7715 13.3574C91.6785 13.3574 89.3325 14.6688 87.5615 16.7617H93.334C95.5187 16.7617 96.3474 16.2328 96.3477 15.29C96.3477 14.1401 95.1744 13.3575 93.7715 13.3574ZM124.599 14.5762C123.863 15.2432 122.989 15.9797 121.954 16.7617H125.933C125.772 16.1177 125.381 15.4962 124.599 14.5762ZM33.8662 11.1494C32.5783 11.1494 31.5196 12.0921 31.5195 13.541C31.5195 14.714 32.3022 15.5882 33.8662 16.1172C35.43 15.5882 36.2354 14.7139 36.2354 13.541C36.2353 12.0922 35.154 11.1496 33.8662 11.1494ZM5.75 11.333C3.335 11.333 2.16211 11.9547 2.16211 13.2197C2.16233 14.2544 2.96709 14.7607 4.59961 14.7607H6.37109L6.2793 11.333H5.75ZM55.8828 11.333C53.4678 11.333 52.2949 11.9547 52.2949 13.2197C52.2951 14.2544 53.0999 14.7607 54.7324 14.7607H56.5039L56.4121 11.333H55.8828ZM16.292 8.36621C15.0043 8.36635 14.3146 9.24011 14.3145 10.2979C14.3145 11.5168 15.0732 12.1845 17.0049 12.1846H19.167L19.1445 12C18.8685 9.72313 17.7869 8.36621 16.292 8.36621ZM43.833 5.30762C43.9479 5.19284 44.0853 5.19286 44.2002 5.30762L45.9023 7.03223C46.0173 7.14723 46.0173 7.28539 45.9023 7.40039L44.4072 8.96484C44.2924 9.07938 44.1549 9.07939 44.04 8.96484L42.5908 7.51562L41.165 8.96484C41.0501 9.07976 40.9118 9.07959 40.7969 8.96484L39.0713 7.23926C38.9566 7.12432 38.9564 6.98598 39.0713 6.87109L40.5898 5.30762C40.7048 5.19269 40.843 5.19264 40.958 5.30762L42.4062 6.75684L43.833 5.30762ZM64.8613 5.30664C64.9763 5.19191 65.1146 5.19173 65.2295 5.30664L66.9541 7.03223C67.069 7.1472 67.0691 7.28543 66.9541 7.40039L65.4365 8.96387C65.3216 9.07884 65.1833 9.07878 65.0684 8.96387L63.3428 7.23926C63.2279 7.12434 63.228 6.98604 63.3428 6.87109L64.8613 5.30664ZM35.1768 2.75391C35.2917 2.63904 35.43 2.63909 35.5449 2.75391L37.2471 4.47949C37.3619 4.59445 37.362 4.73273 37.2471 4.84766L35.752 6.41113C35.637 6.52613 35.4988 6.52613 35.3838 6.41113L33.9346 4.96191L32.5088 6.41113C32.3938 6.52611 32.2556 6.52613 32.1406 6.41113L30.416 4.68652C30.301 4.57153 30.301 4.43336 30.416 4.31836L31.9336 2.75391C32.0485 2.63898 32.1868 2.63914 32.3018 2.75391L33.751 4.20312L35.1768 2.75391ZM41.9922 2.15625C42.1071 2.04135 42.2454 2.04155 42.3604 2.15625L43.8555 3.6748C43.9704 3.7898 43.9705 3.92798 43.8555 4.04297L42.5449 5.39941C42.4299 5.51441 42.2918 5.51441 42.1768 5.39941L40.6816 3.88184C40.5667 3.76685 40.5667 3.62866 40.6816 3.51367L41.9922 2.15625ZM9.03906 1.16699C9.15401 1.05219 9.2923 1.0521 9.40723 1.16699L11.1094 2.89258C11.2241 3.00751 11.2243 3.14585 11.1094 3.26074L9.61426 4.82422C9.49926 4.93922 9.36109 4.93922 9.24609 4.82422L7.77441 3.375L6.37109 4.82422C6.25609 4.93922 6.11793 4.93922 6.00293 4.82422L4.27832 3.09961C4.16332 2.98461 4.16332 2.84645 4.27832 2.73145L5.7959 1.16699C5.91084 1.05214 6.04912 1.05215 6.16406 1.16699L7.61328 2.61621L9.03906 1.16699ZM59.1719 1.16699C59.2868 1.05219 59.4251 1.0521 59.54 1.16699L61.2422 2.89258C61.3569 3.00751 61.3571 3.14585 61.2422 3.26074L59.7471 4.82422C59.6321 4.93922 59.4939 4.93922 59.3789 4.82422L57.9072 3.375L56.5039 4.82422C56.3889 4.93922 56.2507 4.93922 56.1357 4.82422L54.4111 3.09961C54.2961 2.98461 54.2961 2.84645 54.4111 2.73145L55.9287 1.16699C56.0436 1.05214 56.1819 1.05215 56.2969 1.16699L57.7461 2.61621L59.1719 1.16699ZM16.3379 0.0859375C16.4528 -0.0289702 16.5911 -0.0287861 16.7061 0.0859375L18.4316 1.81152C18.5463 1.92646 18.5465 2.06479 18.4316 2.17969L16.9131 3.74316C16.7981 3.8581 16.6599 3.85814 16.5449 3.74316L14.8203 2.01855C14.7053 1.90358 14.7054 1.76538 14.8203 1.65039L16.3379 0.0859375Z" fill="white"/>
</svg>
