<svg width="156" height="24" viewBox="0 0 156 24" fill="none" xmlns="http://www.w3.org/2000/svg">
<path d="M99.2051 0.200195V11.5254H110.005C110.955 11.5254 111.83 11.725 112.63 12.125C113.43 12.525 114.071 13.0833 114.555 13.7998C115.038 14.4998 115.279 15.3002 115.279 16.2002V16.625H119.748C119.735 16.436 119.724 16.2273 119.707 16C119.674 15.5335 119.64 15.0254 119.606 14.4756C119.59 13.9091 119.582 13.3507 119.582 12.8008V12.5752L122.007 12.2754L122.082 12.4756V13C122.082 13.7165 122.106 14.4668 122.156 15.25C122.189 15.7615 122.223 16.2201 122.256 16.625H125.319C125.289 16.2088 125.253 15.7005 125.207 15.1006C125.157 14.2173 125.132 13.2919 125.132 12.3252V11.375L127.557 11.0752L127.632 11.2754V12.7754C127.632 13.5754 127.657 14.3758 127.707 15.1758C127.752 15.7159 127.795 16.1989 127.832 16.625H130.889C130.854 16.2087 130.816 15.7007 130.781 15.1006C130.731 14.2173 130.707 13.2919 130.707 12.3252V10.2002L133.132 9.90039L133.207 10.1006V12.7754C133.207 13.4587 133.224 14.1419 133.257 14.8252C133.307 15.5085 133.349 16.1423 133.382 16.7256C133.432 17.2922 133.474 17.7506 133.507 18.1006C133.557 18.4338 133.582 18.6006 133.582 18.6006L133.207 18.9502H117.432L117.43 18.9492V18.9502H94.5547C94.5514 18.9502 94.5482 18.9493 94.5449 18.9492V18.9502H92.2031C92.1 19.5119 91.957 20.0369 91.7695 20.5244C91.3695 21.6077 90.7193 22.4498 89.8193 23.0498C88.9361 23.6497 87.7779 23.9502 86.3447 23.9502C85.7615 23.9502 85.2031 23.8998 84.6699 23.7998C84.1533 23.6998 83.5941 23.5583 82.9941 23.375L83.7949 21.25H84.0449C84.528 21.3833 84.9363 21.4744 85.2695 21.5244C85.6195 21.5911 85.9616 21.625 86.2949 21.625C87.5447 21.6249 88.4529 21.2498 89.0195 20.5C89.3178 20.1165 89.5388 19.5996 89.6846 18.9502H87.7695C86.6695 18.9502 85.7529 18.7331 85.0195 18.2998C84.3029 17.8498 83.7699 17.2664 83.4199 16.5498C83.0699 15.8165 82.8945 15.0248 82.8945 14.1748C82.8945 13.1749 83.103 12.3085 83.5195 11.5752C83.9361 10.8253 84.4945 10.2418 85.1943 9.8252C85.8942 9.39193 86.661 9.17487 87.4941 9.1748C88.544 9.1748 89.4279 9.49953 90.1445 10.1494C90.8779 10.7827 91.436 11.6665 91.8193 12.7998C92.194 13.9076 92.3842 15.1827 92.3926 16.625H96.7051V0.299805L99.1299 0L99.2051 0.200195ZM9.5752 7.72559V16.625H14.042C13.9222 16.475 13.8146 16.3161 13.7188 16.1494C13.3356 15.4829 13.1436 14.7499 13.1436 13.9502C13.1436 13.017 13.352 12.1999 13.7686 11.5C14.1852 10.7834 14.7435 10.2165 15.4434 9.7998C16.1433 9.38317 16.9186 9.17484 17.7686 9.1748C18.8017 9.1748 19.6769 9.4996 20.3936 10.1494C21.1269 10.7827 21.685 11.6665 22.0684 12.7998C22.4517 13.9331 22.6435 15.2414 22.6436 16.7246C22.6602 17.1579 22.6767 17.5581 22.6934 17.9248C22.71 18.2745 22.7275 18.516 22.7441 18.6494L22.4688 18.9502H7.0752V17.7822C6.79766 17.8898 6.52288 17.9804 6.25 18.0508C5.75003 18.1841 5.24124 18.25 4.72461 18.25C3.75817 18.2499 2.91673 18.0503 2.2002 17.6504C1.50032 17.2338 0.958517 16.6589 0.575195 15.9258C0.191915 15.1926 5.33932e-05 14.359 0 13.4258C0 12.6425 0.141492 11.9254 0.424805 11.2754L0.599609 11.125C1.98294 10.7083 3.26686 10.2752 4.4502 9.8252C5.40071 9.45034 6.27524 9.05264 7.0752 8.63477V7.8252L9.5 7.52539L9.5752 7.72559ZM28.4717 0.200195V16.625H32.9385C32.8187 16.475 32.7111 16.3161 32.6152 16.1494C32.2321 15.4829 32.0401 14.7499 32.04 13.9502C32.04 13.017 32.2485 12.1999 32.665 11.5C33.0816 10.7834 33.64 10.2165 34.3398 9.7998C35.0398 9.38317 35.8151 9.17484 36.665 9.1748C37.6982 9.1748 38.5734 9.4996 39.29 10.1494C40.0233 10.7827 40.5815 11.6665 40.9648 12.7998C41.3396 13.9076 41.5297 15.1827 41.5381 16.625H46.0391C46.0089 16.2088 45.9719 15.7006 45.9258 15.1006C45.8758 14.2173 45.8516 13.2919 45.8516 12.3252V10.2002L48.2764 9.90039L48.3516 10.1006V12.7754C48.3516 13.4587 48.368 14.1419 48.4014 14.8252C48.4514 15.5085 48.493 16.1423 48.5264 16.7256C48.5764 17.2922 48.618 17.7506 48.6514 18.1006C48.7013 18.4338 48.7266 18.6006 48.7266 18.6006L48.3516 18.9502H43.7012C43.6976 18.9502 43.694 18.9493 43.6904 18.9492V18.9502H25.9717V0.299805L28.3965 0L28.4717 0.200195ZM66.5332 7.72559V16.625H71.0137C70.9835 16.2088 70.9465 15.7006 70.9004 15.1006C70.8504 14.2173 70.8262 13.2919 70.8262 12.3252V10.2002L73.251 9.90039L73.3262 10.1006V12.7754C73.3262 13.4587 73.3426 14.1419 73.376 14.8252C73.426 15.5085 73.4676 16.1423 73.501 16.7256C73.551 17.2922 73.5926 17.7506 73.626 18.1006C73.676 18.4338 73.7012 18.6006 73.7012 18.6006L73.3262 18.9502H64.0332V17.7822C63.7557 17.8898 63.4809 17.9804 63.208 18.0508C62.708 18.1841 62.1993 18.25 61.6826 18.25C60.7162 18.2499 59.8747 18.0503 59.1582 17.6504C58.4583 17.2338 57.9165 16.6589 57.5332 15.9258C57.1499 15.1926 56.9581 14.359 56.958 13.4258C56.958 12.6425 57.0995 11.9254 57.3828 11.2754L57.5576 11.125C58.941 10.7083 60.2249 10.2752 61.4082 9.8252C62.3587 9.45034 63.2332 9.05264 64.0332 8.63477V7.8252L66.458 7.52539L66.5332 7.72559ZM79.4238 0.224609V12.7754C79.4238 13.4586 79.4403 14.142 79.4736 14.8252C79.5236 15.5083 79.5653 16.1414 79.5986 16.7246C79.6486 17.2911 79.6903 17.7497 79.7236 18.0996C79.7723 18.4237 79.7975 18.5906 79.7988 18.5996L79.4238 18.9502H76.9238V0.299805L79.3486 0L79.4238 0.224609ZM148.486 1.125L144.062 10L148.687 16.625V18.5996L148.312 18.9502H135.961L135.861 18.7754L137.012 16.625H138.014L141.236 10.2002L137.211 4.47461L139.086 3.15039H139.262L142.437 7.72461L146.236 0.125H146.411L148.486 1.125ZM154.741 0.224609V12.7754C154.741 13.4586 154.758 14.142 154.791 14.8252C154.841 15.5083 154.883 16.1414 154.916 16.7246C154.966 17.2911 155.008 17.7497 155.041 18.0996C155.09 18.4237 155.115 18.5906 155.116 18.5996L154.741 18.9502H152.241V0.299805L154.666 0L154.741 0.224609ZM99.2051 16.625H110.505C110.888 16.625 111.263 16.6415 111.63 16.6748C112.013 16.6915 112.347 16.7079 112.63 16.7246C112.692 16.7283 112.749 16.7336 112.8 16.7373C112.796 16.5583 112.79 16.3792 112.779 16.2002C112.763 15.767 112.63 15.3753 112.38 15.0254C112.147 14.6587 111.821 14.3748 111.404 14.1748C111.004 13.9583 110.538 13.8496 110.005 13.8496H99.2051V16.625ZM17.7188 11.5C17.3854 11.5 17.0521 11.5998 16.7188 11.7998C16.4021 11.9998 16.1434 12.3002 15.9434 12.7002C15.7435 13.1001 15.6436 13.5917 15.6436 14.1748C15.6436 14.9747 15.8684 15.5833 16.3184 16C16.785 16.4167 17.4856 16.625 18.4189 16.625H18.4434C18.7934 16.625 19.1354 16.6327 19.4688 16.6494C19.7313 16.6619 19.956 16.6822 20.1436 16.7041V16.5752C20.1102 15.0087 19.8689 13.775 19.4189 12.875C18.9856 11.9583 18.4187 11.5 17.7188 11.5ZM36.6152 11.5C36.2819 11.5 35.9486 11.5998 35.6152 11.7998C35.2986 11.9998 35.0398 12.3002 34.8398 12.7002C34.64 13.1001 34.54 13.5917 34.54 14.1748C34.54 14.9747 34.7649 15.5833 35.2148 16C35.6815 16.4167 36.3821 16.625 37.3154 16.625H37.3398C37.6898 16.625 38.0319 16.6327 38.3652 16.6494C38.6278 16.6619 38.8525 16.6822 39.04 16.7041V16.5752C39.0067 15.0087 38.7654 13.775 38.3154 12.875C37.8821 11.9583 37.3152 11.5 36.6152 11.5ZM87.4443 11.5C87.1111 11.5 86.7863 11.5999 86.4697 11.7998C86.1697 11.9998 85.911 12.3002 85.6943 12.7002C85.4945 13.1001 85.3945 13.5917 85.3945 14.1748C85.3945 14.9748 85.6193 15.5833 86.0693 16C86.536 16.4166 87.2444 16.625 88.1943 16.625H89.8926C89.883 15.0721 89.6513 13.8386 89.1943 12.9248C88.7443 11.9749 88.161 11.5 87.4443 11.5ZM140.759 16.625H145.711L142.812 12.5L140.759 16.625ZM7.0752 11.2715C6.5271 11.5141 5.94394 11.7573 5.3252 12C4.4752 12.3333 3.5498 12.6589 2.5498 12.9756C2.53316 13.0422 2.51665 13.1257 2.5 13.2256V13.5C2.5 13.9332 2.57469 14.3336 2.72461 14.7002C2.89125 15.0668 3.14136 15.3673 3.47461 15.6006C3.80794 15.8173 4.23333 15.9258 4.75 15.9258C5.21667 15.9258 5.7002 15.8502 6.2002 15.7002C6.46946 15.6133 6.76067 15.5022 7.0752 15.3701V11.2715ZM64.0332 11.2715C63.4851 11.5141 62.902 11.7573 62.2832 12C61.4332 12.3333 60.5078 12.6589 59.5078 12.9756C59.4912 13.0422 59.4747 13.1257 59.458 13.2256V13.5C59.458 13.9332 59.5327 14.3336 59.6826 14.7002C59.8493 15.0668 60.0994 15.3673 60.4326 15.6006C60.766 15.8173 61.1913 15.9258 61.708 15.9258C62.1747 15.9258 62.6582 15.8502 63.1582 15.7002C63.4275 15.6133 63.7187 15.5022 64.0332 15.3701V11.2715ZM17.7783 4.6748C18.1283 4.6748 18.4287 4.7998 18.6787 5.0498C18.9453 5.29974 19.0781 5.60808 19.0781 5.97461C19.0781 6.32461 18.9454 6.625 18.6787 6.875C18.4287 7.125 18.1283 7.25 17.7783 7.25C17.4118 7.24996 17.1035 7.12489 16.8535 6.875C16.6035 6.625 16.4785 6.32461 16.4785 5.97461C16.4786 5.60803 16.6036 5.29976 16.8535 5.0498C17.1035 4.79985 17.4117 4.67485 17.7783 4.6748ZM35.1865 4.6748C35.5365 4.6748 35.8369 4.7998 36.0869 5.0498C36.3535 5.29974 36.4863 5.60808 36.4863 5.97461C36.4863 6.32461 36.3536 6.625 36.0869 6.875C35.8369 7.125 35.5365 7.25 35.1865 7.25C34.82 7.24996 34.5117 7.12489 34.2617 6.875C34.0117 6.625 33.8867 6.32461 33.8867 5.97461C33.8868 5.60803 34.0118 5.29976 34.2617 5.0498C34.5117 4.79985 34.8199 4.67485 35.1865 4.6748ZM38.1367 4.6748C38.4867 4.6748 38.7871 4.7998 39.0371 5.0498C39.3036 5.29973 39.4365 5.60812 39.4365 5.97461C39.4365 6.32456 39.3037 6.62502 39.0371 6.875C38.7871 7.125 38.4867 7.25 38.1367 7.25C37.7701 7.25 37.4619 7.12487 37.2119 6.875C36.9619 6.625 36.8369 6.32461 36.8369 5.97461C36.837 5.60803 36.962 5.29976 37.2119 5.0498C37.4619 4.79987 37.7701 4.6748 38.1367 4.6748ZM45.6592 4.6748C46.0092 4.6748 46.3096 4.7998 46.5596 5.0498C46.8261 5.29974 46.9589 5.60808 46.959 5.97461C46.959 6.32461 46.8262 6.625 46.5596 6.875C46.3096 7.125 46.0092 7.25 45.6592 7.25C45.2926 7.24995 44.9843 7.12489 44.7344 6.875C44.4844 6.625 44.3594 6.32461 44.3594 5.97461C44.3594 5.60803 44.4844 5.29976 44.7344 5.0498C44.9843 4.79985 45.2926 4.67485 45.6592 4.6748ZM48.6094 4.6748C48.9594 4.6748 49.2598 4.7998 49.5098 5.0498C49.7762 5.29973 49.9091 5.60812 49.9092 5.97461C49.9092 6.32456 49.7764 6.62502 49.5098 6.875C49.2598 7.125 48.9594 7.25 48.6094 7.25C48.2428 7.25 47.9345 7.12487 47.6846 6.875C47.4346 6.625 47.3096 6.32461 47.3096 5.97461C47.3096 5.60803 47.4346 5.29976 47.6846 5.0498C47.9346 4.79987 48.2428 4.6748 48.6094 4.6748ZM72.1006 4.6748C72.4506 4.6748 72.751 4.7998 73.001 5.0498C73.2675 5.29974 73.4003 5.60808 73.4004 5.97461C73.4004 6.32461 73.2676 6.625 73.001 6.875C72.751 7.125 72.4506 7.25 72.1006 7.25C71.7341 7.24995 71.4257 7.12489 71.1758 6.875C70.9258 6.625 70.8008 6.32461 70.8008 5.97461C70.8008 5.60803 70.9258 5.29976 71.1758 5.0498C71.4257 4.79985 71.734 4.67485 72.1006 4.6748ZM3.42285 3.6748C3.77285 3.6748 4.07324 3.7998 4.32324 4.0498C4.58979 4.29974 4.72261 4.60808 4.72266 4.97461C4.72266 5.32461 4.5899 5.625 4.32324 5.875C4.07324 6.125 3.77285 6.25 3.42285 6.25C3.05632 6.24996 2.74799 6.12489 2.49805 5.875C2.24805 5.625 2.12305 5.32461 2.12305 4.97461C2.12309 4.60803 2.24809 4.29976 2.49805 4.0498C2.748 3.79985 3.05627 3.67485 3.42285 3.6748ZM6.37305 3.6748C6.72305 3.6748 7.02344 3.7998 7.27344 4.0498C7.53992 4.29973 7.6728 4.60812 7.67285 4.97461C7.67285 5.32456 7.54003 5.62502 7.27344 5.875C7.02344 6.125 6.72305 6.25 6.37305 6.25C6.00648 6.25 5.69821 6.12487 5.44824 5.875C5.19824 5.625 5.07324 5.32461 5.07324 4.97461C5.07329 4.60803 5.19829 4.29976 5.44824 4.0498C5.69822 3.79987 6.00643 3.6748 6.37305 3.6748ZM60.3818 3.6748C60.7318 3.6748 61.0322 3.7998 61.2822 4.0498C61.5488 4.29974 61.6816 4.60808 61.6816 4.97461C61.6816 5.32461 61.5489 5.625 61.2822 5.875C61.0322 6.125 60.7318 6.25 60.3818 6.25C60.0153 6.24995 59.707 6.12489 59.457 5.875C59.207 5.625 59.082 5.32461 59.082 4.97461C59.0821 4.60803 59.2071 4.29976 59.457 4.0498C59.707 3.79985 60.0153 3.67485 60.3818 3.6748ZM63.332 3.6748C63.682 3.6748 63.9824 3.7998 64.2324 4.0498C64.4989 4.29973 64.6318 4.60812 64.6318 4.97461C64.6318 5.32456 64.499 5.62502 64.2324 5.875C63.9824 6.125 63.682 6.25 63.332 6.25C62.9655 6.25 62.6572 6.12487 62.4072 5.875C62.1572 5.625 62.0322 5.32461 62.0322 4.97461C62.0323 4.60803 62.1573 4.29976 62.4072 4.0498C62.6572 3.79987 62.9654 3.6748 63.332 3.6748ZM47.1348 2.1748C47.4846 2.1749 47.7843 2.29996 48.0342 2.5498C48.3008 2.79976 48.4345 3.10803 48.4346 3.47461C48.4346 3.82461 48.3008 4.125 48.0342 4.375C47.7843 4.62478 47.4845 4.74991 47.1348 4.75C46.7681 4.75 46.459 4.625 46.209 4.375C45.959 4.12502 45.834 3.82456 45.834 3.47461C45.834 3.10812 45.9592 2.79973 46.209 2.5498C46.459 2.2998 46.7681 2.1748 47.1348 2.1748Z" fill="white"/>
</svg>
