<svg width="127" height="23" viewBox="0 0 127 23" fill="none" xmlns="http://www.w3.org/2000/svg">
<path d="M81.7275 0C81.7995 3.30506e-05 81.8471 0.0364317 81.8711 0.108398C81.895 0.180313 81.9072 0.252304 81.9072 0.324219C81.9072 0.372182 81.8951 0.432015 81.8711 0.503906V0.683594C81.8711 0.947594 82.0278 1.13977 82.3398 1.25977C82.6516 1.3557 82.8795 1.43975 83.0234 1.51172C83.2634 1.6317 83.4192 1.75209 83.4912 1.87207C83.5632 1.96807 83.5996 2.08842 83.5996 2.23242C83.5995 2.3763 83.551 2.53236 83.4551 2.7002C83.3831 2.84411 83.2869 3.00009 83.167 3.16797C83.0711 3.31175 82.9757 3.45583 82.8799 3.59961C82.7839 3.74361 82.7354 3.87609 82.7354 3.99609V5.50781C82.7594 6.17981 82.7836 6.92423 82.8076 7.74023C82.8316 8.55615 82.8559 9.37256 82.8799 10.1885C82.9039 11.0043 82.915 11.7005 82.915 12.2764V12.7441C82.963 12.6481 83.0358 12.5521 83.1318 12.4561C83.2278 12.3361 83.2997 12.2399 83.3477 12.168C83.7316 11.688 84.1879 11.1478 84.7158 10.5479C85.2677 9.94796 85.8313 9.39553 86.4072 8.8916C87.0072 8.36366 87.6192 7.93168 88.2432 7.5957C88.8911 7.23574 89.5153 7.05571 90.1152 7.05566C90.4512 7.07966 90.8114 7.18793 91.1953 7.37988C91.5793 7.54788 91.9758 7.83614 92.3838 8.24414C93.2956 9.15603 93.751 10.02 93.751 10.8359C93.727 11.3158 93.5356 11.8198 93.1758 12.3477C92.8158 12.8757 92.4314 13.2721 92.0234 13.5361C91.8312 13.6478 91.6369 13.7531 91.4414 13.8535C92.0377 13.7718 92.6756 13.7002 93.3555 13.6436C94.5074 13.5236 95.5635 13.4042 96.5234 13.2842C96.7526 13.246 96.927 13.3075 97.0498 13.4668C97.6545 13.3941 98.1927 13.1909 98.6641 12.8516C99.2881 12.4196 99.8161 11.8916 100.248 11.2676C100.344 11.1477 100.44 11.0159 100.536 10.8721C100.632 10.7283 100.716 10.6555 100.788 10.6553C100.908 10.6553 100.969 10.7159 100.969 10.8359C100.969 10.9559 100.908 11.1596 100.788 11.4473C100.668 11.7113 100.524 12.0238 100.356 12.3838C100.212 12.7198 100.008 13.092 99.7441 13.5H100.141C100.308 13.476 100.417 13.4639 100.465 13.4639C101.545 13.3678 102.468 13.1038 103.236 12.6719C104.004 12.2399 104.616 11.6876 105.072 11.0156C105.096 10.9916 105.145 10.8955 105.217 10.7275C105.313 10.5357 105.408 10.3433 105.504 10.1514C105.6 9.93543 105.685 9.75529 105.757 9.61133C105.853 9.44368 105.913 9.35938 105.937 9.35938C106.008 9.35949 106.056 9.43228 106.08 9.57617C106.104 9.69589 106.116 9.80359 106.116 9.89941C106.116 9.97138 106.092 10.1395 106.044 10.4033C106.02 10.6673 105.913 11.1237 105.721 11.7715C105.817 11.9395 105.997 12.0962 106.261 12.2402C106.525 12.3841 106.812 12.5158 107.124 12.6357C107.436 12.7317 107.749 12.8157 108.061 12.8877C108.372 12.9357 108.637 12.9721 108.853 12.9961C108.829 12.7801 108.78 12.5039 108.708 12.168C108.66 11.832 108.588 11.4839 108.492 11.124C108.42 10.7641 108.336 10.4039 108.24 10.0439C108.168 9.68395 108.096 9.38355 108.024 9.14355C108.025 9.07159 108.084 8.95181 108.204 8.78418C108.324 8.5922 108.457 8.39999 108.601 8.20801C108.745 7.99214 108.876 7.81193 108.996 7.66797C109.116 7.50033 109.2 7.40414 109.248 7.37988H109.284C109.308 7.35588 109.332 7.34375 109.356 7.34375C109.476 7.34386 109.585 7.5603 109.681 7.99219C109.777 8.39998 109.861 8.85571 109.933 9.35938C110.005 9.86334 110.052 10.3317 110.076 10.7637C110.124 11.1929 110.148 11.4208 110.148 11.4473C110.148 12.4073 109.968 13.2599 109.608 14.0039C109.248 14.7478 108.852 15.1919 108.42 15.3359C108.18 15.3359 107.88 15.2995 107.521 15.2275C107.161 15.1316 106.8 15.0121 106.44 14.8682C106.104 14.7242 105.781 14.5674 105.469 14.3994C105.181 14.2075 104.976 14.004 104.856 13.7881C104.832 13.7641 104.82 13.6799 104.82 13.5361C104.82 13.4164 104.833 13.3322 104.856 13.2842C104.233 14.1239 103.464 14.7595 102.553 15.1914C101.641 15.5994 100.728 15.8037 99.8164 15.8037C99.6245 15.8037 99.4686 15.7197 99.3486 15.5518C99.2286 15.3598 99.168 15.1433 99.168 14.9033C99.168 14.7354 99.2044 14.5551 99.2764 14.3633C99.0364 14.6513 98.6763 14.9638 98.1963 15.2998C97.7403 15.6358 97.188 15.8037 96.54 15.8037C96.2763 15.8037 96.0483 15.756 95.8564 15.6602C95.8045 15.6277 95.7605 15.5801 95.7227 15.5195C94.9807 15.5843 94.1318 15.6441 93.1758 15.6963C91.8798 15.7443 90.5113 15.7797 89.0713 15.8037H87.1631C86.4672 15.7797 85.7589 15.7564 85.0391 15.7324C84.5006 15.6953 83.9766 15.6563 83.4668 15.6191C83.0764 15.6471 82.6888 15.6736 82.3037 15.6963C82.2317 15.9602 82.1235 16.2001 81.9795 16.416C81.8595 16.632 81.5955 16.8242 81.1875 16.9922L81.5479 15.7324C81.212 15.7804 80.8637 15.8037 80.5039 15.8037H80.0068C79.811 15.9896 79.5031 16.084 79.0801 16.084H78C77.808 17.2599 77.4236 18.3878 76.8477 19.4678C76.2717 20.5478 75.5636 21.4004 74.7236 22.0244C74.2677 22.3603 73.7516 22.6002 73.1758 22.7441C72.6238 22.8881 72.1079 22.96 71.6279 22.96C71.052 22.96 70.44 22.9245 69.792 22.8525C69.144 22.8045 68.5199 22.7084 67.9199 22.5645C67.7521 22.4925 67.6682 22.4084 67.668 22.3125C67.668 22.1205 67.8239 22.0002 68.1357 21.9521C68.7356 21.9042 69.3357 21.808 69.9355 21.6641C70.5355 21.5441 71.1121 21.3883 71.6641 21.1963C71.928 21.0763 72.2398 20.9204 72.5996 20.7285C72.9836 20.5605 73.3922 20.2965 73.8242 19.9365C74.1121 19.7206 74.4117 19.4443 74.7236 19.1084C75.0355 18.7965 75.324 18.4605 75.5879 18.1006C75.8758 17.7407 76.1278 17.3804 76.3438 17.0205C76.5838 16.6605 76.7759 16.3237 76.9199 16.0117C76.248 15.9877 75.5641 15.9402 74.8682 15.8682C74.1722 15.7722 73.5359 15.6285 72.96 15.4365C72.408 15.2445 71.9518 14.9917 71.5918 14.6797C71.2321 14.3678 71.0518 13.9841 71.0518 13.5283C71.0518 13.1683 71.1479 12.7121 71.3398 12.1602C71.5318 11.5842 71.7837 11.0198 72.0957 10.4678C72.4316 9.91592 72.804 9.44839 73.2119 9.06445C73.6439 8.65646 74.088 8.45216 74.5439 8.45215C74.8799 8.45215 75.2158 8.62016 75.5518 8.95605C75.9117 9.26797 76.2476 9.68802 76.5596 10.2158C76.8716 10.7198 77.1598 11.2963 77.4238 11.9443C77.6878 12.5683 77.9043 13.1803 78.0723 13.7803H78.6562C78.7311 13.5938 78.926 13.5001 79.2432 13.5H81.3311C81.5707 13.476 81.7389 13.4639 81.835 13.4639C81.955 13.4159 82.0278 13.3076 82.0518 13.1396C82.0757 12.9718 82.0879 12.7915 82.0879 12.5996V12.3838C82.0639 11.8798 82.0154 11.2799 81.9434 10.584C81.8954 9.86412 81.8235 9.10825 81.7275 8.31641C81.6315 7.52449 81.5112 6.72021 81.3672 5.9043C81.2472 5.0883 81.1035 4.31961 80.9355 3.59961C80.6956 3.33569 80.4557 3.08368 80.2158 2.84375C79.9998 2.57975 79.8916 2.31576 79.8916 2.05176C79.8917 1.76401 80.0113 1.47623 80.251 1.18848C80.515 0.900495 80.8275 0.6122 81.1875 0.324219C81.4515 0.108219 81.6315 0 81.7275 0ZM67.75 0.603516C67.798 0.603607 67.8223 0.699693 67.8223 0.891602C67.8703 1.46757 67.9057 2.16356 67.9297 2.97949C67.9777 3.79542 68.0019 4.65937 68.002 5.57129C68.026 6.45929 68.0381 7.37162 68.0381 8.30762C68.0621 9.21949 68.0742 10.0714 68.0742 10.8633C68.0742 11.7033 68.0621 12.4598 68.0381 13.1318C68.0381 13.7796 68.0259 14.2715 68.002 14.6074C67.882 15.2793 67.7616 15.8672 67.6416 16.3711C67.5216 16.8511 67.4376 17.0675 67.3896 17.0195C67.3657 16.9715 67.3302 16.8275 67.2822 16.5879C67.2582 16.3239 67.2461 16.1075 67.2461 15.9395C67.2461 15.8433 67.2097 15.3635 67.1377 14.5C67.0657 13.612 66.9342 12.3395 66.7422 10.6836L65.8779 2.90723C65.878 2.78734 65.9257 2.64335 66.0215 2.47559C66.1175 2.3076 66.2379 2.12752 66.3818 1.93555C66.5498 1.71955 66.7299 1.51524 66.9219 1.32324C67.1138 1.10729 67.2939 0.915038 67.4619 0.74707C67.5818 0.651181 67.678 0.603516 67.75 0.603516ZM126.672 0.603516C126.72 0.603597 126.744 0.699683 126.744 0.891602C126.792 1.46757 126.828 2.16356 126.852 2.97949C126.9 3.79542 126.924 4.65937 126.924 5.57129C126.948 6.45929 126.96 7.37162 126.96 8.30762C126.984 9.21949 126.996 10.0714 126.996 10.8633C126.996 11.7033 126.984 12.4598 126.96 13.1318C126.96 13.7796 126.948 14.2715 126.924 14.6074C126.804 15.2793 126.683 15.8672 126.563 16.3711C126.443 16.8511 126.36 17.0675 126.312 17.0195C126.288 16.9715 126.252 16.8275 126.204 16.5879C126.18 16.3239 126.168 16.1075 126.168 15.9395C126.168 15.8433 126.132 15.3635 126.06 14.5C125.988 13.612 125.856 12.3395 125.664 10.6836L124.8 2.90723C124.8 2.78734 124.848 2.64334 124.943 2.47559C125.039 2.30761 125.16 2.12752 125.304 1.93555C125.472 1.71955 125.652 1.51524 125.844 1.32324C126.036 1.10729 126.216 0.915039 126.384 0.74707C126.504 0.651181 126.6 0.603516 126.672 0.603516ZM120.84 0.855469C121.008 0.855469 121.092 0.963687 121.092 1.17969V1.43164C121.092 1.67146 121.188 1.88722 121.38 2.0791C121.596 2.27102 121.764 2.40357 121.884 2.47559C122.34 2.61959 122.568 2.88358 122.568 3.26758C122.568 3.45943 122.484 3.67526 122.316 3.91504C122.268 4.05904 122.16 4.20366 121.992 4.34766C121.848 4.49164 121.776 4.64746 121.776 4.81543C121.824 5.24742 121.872 5.69147 121.92 6.14746C121.968 6.60346 122.004 7.07176 122.028 7.55176C122.028 8.46366 121.932 9.35191 121.74 10.2158C121.548 11.0796 121.212 11.8476 120.732 12.5195C120.9 12.7595 121.081 13.0955 121.272 13.5273C121.488 13.9353 121.596 14.3076 121.596 14.6436C121.596 14.9075 121.524 15.208 121.38 15.5439C121.236 15.8797 121.068 16.144 120.876 16.3359C120.78 16.4558 120.6 16.5633 120.336 16.6592C120.072 16.7312 119.76 16.7919 119.4 16.8398C119.04 16.8878 118.656 16.9233 118.248 16.9473C117.84 16.9953 117.432 17.0195 117.024 17.0195C116.616 17.0195 116.22 16.9953 115.836 16.9473C115.476 16.9233 115.164 16.8756 114.9 16.8037C114.9 16.6597 114.924 16.4433 114.972 16.1553C115.044 15.8435 115.128 15.5437 115.224 15.2559C115.344 14.9679 115.476 14.715 115.62 14.499C115.764 14.2834 115.908 14.1759 116.052 14.1758C116.772 14.1518 117.456 13.9596 118.104 13.5996C118.752 13.2157 119.268 12.7836 119.652 12.3037C119.364 11.7997 118.98 11.3314 118.5 10.8994C118.02 10.4435 117.516 10.0479 116.988 9.71191C116.484 9.35191 115.992 9.06366 115.512 8.84766C115.056 8.60772 114.696 8.45187 114.432 8.37988C114.312 8.33201 114.228 8.34319 114.18 8.41504C114.156 8.48692 114.132 8.53553 114.108 8.55957C113.988 8.79954 113.724 8.77521 113.316 8.4873C112.981 8.22339 112.632 7.91161 112.272 7.55176C111.912 7.16776 111.672 6.86737 111.552 6.65137C111.432 6.36358 111.372 6.06371 111.372 5.75195C111.372 5.48795 111.408 5.23512 111.48 4.99512C111.528 4.73145 111.588 4.5277 111.66 4.38379C111.78 4.11993 111.924 3.98744 112.092 3.9873C112.188 3.9873 112.32 4.03584 112.488 4.13184C113.376 4.70778 114.228 5.33199 115.044 6.00391C115.86 6.65187 116.604 7.2993 117.276 7.94727C117.972 8.59525 118.56 9.24362 119.04 9.8916C119.544 10.5155 119.916 11.0912 120.156 11.6191C120.348 11.2352 120.48 10.8152 120.552 10.3594C120.648 9.90343 120.696 9.39957 120.696 8.84766C120.648 8.10366 120.564 7.3471 120.444 6.5791C120.324 5.78723 120.192 5.09113 120.048 4.49121C119.856 4.2513 119.628 3.99924 119.364 3.73535C119.124 3.47135 119.004 3.20736 119.004 2.94336C119.004 2.60741 119.124 2.28363 119.364 1.97168C119.628 1.65972 119.94 1.37139 120.3 1.10742C120.54 0.939522 120.72 0.855568 120.84 0.855469ZM6.37207 5.24707C6.44407 5.41507 6.49162 5.76399 6.51562 6.29199C6.56361 6.81988 6.61217 7.53958 6.66016 8.45117C6.70815 9.45903 6.78 10.3473 6.87598 11.1152C6.99596 11.8591 7.16394 12.4833 7.37988 12.9873C7.61988 13.4913 7.93241 13.8756 8.31641 14.1396C8.72436 14.3795 9.25257 14.5 9.90039 14.5H9.91504C10.8028 14.5 11.6306 14.4514 12.3984 14.3555C13.1903 14.2595 13.8864 14.1401 14.4863 13.9961C15.0863 13.8521 15.5789 13.7075 15.9629 13.5635C16.3703 13.4197 16.6582 13.3 16.8262 13.2041C16.8262 13.1561 16.8029 12.9994 16.7549 12.7354C16.7069 12.4477 16.6705 12.244 16.6465 12.124C16.3585 12.316 15.9265 12.5082 15.3506 12.7002C14.7986 12.8682 14.2584 12.9521 13.7305 12.9521C13.0105 12.9521 12.4349 12.7114 12.0029 12.2314C11.571 11.7275 11.3545 11.0799 11.3545 10.2881C11.3545 9.90413 11.4385 9.44785 11.6064 8.91992C11.7744 8.39196 12.003 7.88817 12.291 7.4082C12.6029 6.9283 12.9622 6.5317 13.3701 6.21973C13.778 5.88382 14.2223 5.71592 14.7021 5.71582C15.1821 5.71582 15.615 5.94341 15.999 6.39941C16.407 6.8314 16.755 7.37157 17.043 8.01953C17.331 8.64353 17.5464 9.31613 17.6904 10.0361C17.8584 10.7559 17.9424 11.4036 17.9424 11.9795C17.9424 12.2195 17.9069 12.5078 17.835 12.8438C17.763 13.1556 17.6668 13.4675 17.5469 13.7793C17.4509 14.0913 17.3184 14.3917 17.1504 14.6797C16.9824 14.9437 16.8145 15.148 16.6465 15.292C16.4305 15.46 16.0946 15.6401 15.6387 15.832C15.1827 16 14.6426 16.1558 14.0186 16.2998C13.4186 16.4438 12.7581 16.5642 12.0381 16.6602C11.3424 16.7561 10.6347 16.8037 9.91504 16.8037C9.91292 16.8037 9.91032 16.8027 9.9082 16.8027C9.9056 16.8027 9.903 16.8037 9.90039 16.8037C8.89255 16.8037 8.07611 16.5638 7.45215 16.084C6.82822 15.58 6.31227 14.8597 5.9043 13.9238C5.8563 13.8038 5.80777 13.7674 5.75977 13.8154C5.2078 14.1034 4.60791 14.332 3.95996 14.5C3.33612 14.644 2.74817 14.7158 2.19629 14.7158C2.00429 14.7158 1.77572 14.7037 1.51172 14.6797C1.27184 14.6317 1.03187 14.572 0.791992 14.5C0.576014 14.428 0.383808 14.3319 0.21582 14.2119C0.0718203 14.0919 0 13.9352 0 13.7432C0.000101579 13.3113 0.168031 12.8194 0.503906 12.2676C0.839906 11.7156 1.25967 11.1512 1.76367 10.5752C2.2676 9.99928 2.82002 9.44785 3.41992 8.91992C4.01992 8.39192 4.59644 7.92363 5.14844 7.51562V7.22754C5.14844 6.84359 5.2436 6.48342 5.43555 6.14746C5.62755 5.78746 5.94007 5.48707 6.37207 5.24707ZM21.8125 1.46777C21.8602 1.46801 21.8838 1.50441 21.8838 1.57617C21.9077 1.62435 21.9321 1.75607 21.9561 1.97168L22.5322 11.6914C22.5802 12.5554 22.8078 13.2401 23.2158 13.7441C23.6478 14.248 24.3439 14.4999 25.3037 14.5C25.3361 14.5 25.3682 14.5009 25.3994 14.5029C25.4177 14.5021 25.4361 14.5 25.4541 14.5C25.814 14.5 26.2462 14.4757 26.75 14.4277C27.2536 14.3798 27.6374 14.32 27.9014 14.248C27.7814 14.0801 27.6498 13.8878 27.5059 13.6719C27.3619 13.4319 27.29 13.1921 27.29 12.9521C27.29 12.2083 27.4459 11.5364 27.7578 10.9365C28.0698 10.3125 28.4542 9.78454 28.9102 9.35254C29.3902 8.92055 29.8817 8.58375 30.3857 8.34375C30.9137 8.10379 31.3821 7.98438 31.79 7.98438C32.1019 7.98443 32.3782 8.08052 32.6182 8.27246C32.8579 8.46438 33.0494 8.7044 33.1934 8.99219C33.3373 9.28011 33.4456 9.60398 33.5176 9.96387C33.5896 10.2999 33.626 10.6245 33.626 10.9365C33.6259 11.5604 33.5298 12.1726 33.3379 12.7725C33.1459 13.3484 32.8697 13.8644 32.5098 14.3203C32.9178 14.3923 33.3143 14.4399 33.6982 14.4639C34.0821 14.4878 34.5143 14.5 34.9941 14.5C35 14.5 35.0058 14.5008 35.0117 14.501C35.0364 14.5004 35.0614 14.5 35.0869 14.5C35.4468 14.5 35.8669 14.4879 36.3467 14.4639C36.8507 14.4159 37.3432 14.3673 37.8232 14.3193C38.3272 14.2473 38.7834 14.1634 39.1914 14.0674C39.599 13.9715 39.8989 13.864 40.0908 13.7441L39.9473 13.4199C39.6833 12.892 39.3828 12.3041 39.0469 11.6562C38.7109 11.0083 38.3508 10.456 37.9668 10C37.9428 9.952 37.9074 9.90347 37.8594 9.85547C37.8355 9.80757 37.8233 9.75982 37.8232 9.71191C37.8232 9.56798 37.883 9.3999 38.0029 9.20801C38.1229 8.99201 38.2554 8.7877 38.3994 8.5957C38.5434 8.4038 38.6871 8.23574 38.8311 8.0918C38.9751 7.9238 39.0711 7.80345 39.1191 7.73145C39.4551 8.16345 39.7434 8.64388 39.9834 9.17188C40.2473 9.67573 40.4629 10.1797 40.6309 10.6836C40.8229 11.1876 40.9553 11.6559 41.0273 12.0879C41.1233 12.4957 41.1709 12.8196 41.1709 13.0596C41.1709 13.2755 41.1354 13.5276 41.0635 13.8154C40.9915 14.0793 40.8953 14.3435 40.7754 14.6074C40.6794 14.8474 40.5712 15.076 40.4512 15.292C40.3553 15.5078 40.2712 15.6516 40.1992 15.7236C39.9353 15.9156 39.5993 16.0836 39.1914 16.2275C38.7835 16.3475 38.3393 16.4558 37.8594 16.5518C37.4034 16.6478 36.9351 16.7196 36.4551 16.7676C35.9751 16.7916 35.5189 16.8037 35.0869 16.8037C35.0725 16.8037 35.0582 16.802 35.0439 16.8018C35.0275 16.8023 35.0109 16.8037 34.9941 16.8037C34.1542 16.8037 33.266 16.744 32.3301 16.624C31.3942 16.48 30.6021 16.2281 29.9541 15.8682C29.2581 16.1802 28.4894 16.4199 27.6494 16.5879C26.8337 16.7318 26.1019 16.8037 25.4541 16.8037C25.4275 16.8037 25.4009 16.8014 25.375 16.8008C25.3516 16.8019 25.3277 16.8037 25.3037 16.8037C24.8239 16.8037 24.332 16.7561 23.8281 16.6602C23.3481 16.5402 22.9041 16.2873 22.4961 15.9033C22.1123 15.5194 21.7883 14.9798 21.5244 14.2842C21.2604 13.5882 21.1037 12.6395 21.0557 11.4395C21.0077 10.2875 20.9358 8.99162 20.8398 7.55176C20.7679 6.08789 20.696 4.62402 20.624 3.16016C20.768 2.87228 20.9117 2.59593 21.0557 2.33203C21.1756 2.11606 21.296 1.92385 21.416 1.75586C21.56 1.56386 21.6925 1.46777 21.8125 1.46777ZM54.0791 5.24707C54.1511 5.41507 54.1987 5.76399 54.2227 6.29199C54.2706 6.81988 54.3192 7.53958 54.3672 8.45117C54.4152 9.45903 54.487 10.3473 54.583 11.1152C54.703 11.8591 54.871 12.4833 55.0869 12.9873C55.3269 13.4913 55.6394 13.8756 56.0234 14.1396C56.4314 14.3795 56.9596 14.5 57.6074 14.5H57.7627C58.1227 14.5 58.5192 14.4879 58.9512 14.4639C59.4071 14.4159 59.8391 14.3683 60.2471 14.3203C60.655 14.2723 61.0273 14.2238 61.3633 14.1758C61.6991 14.1038 61.9512 14.0441 62.1191 13.9961C62.0471 13.7561 61.9268 13.48 61.7588 13.168C61.6148 12.832 61.4347 12.4961 61.2188 12.1602C61.0268 11.8243 60.8233 11.4882 60.6074 11.1523C60.3914 10.8163 60.175 10.516 59.959 10.252C59.911 10.18 59.8746 10.0839 59.8506 9.96387C59.8506 9.84394 59.8749 9.7599 59.9229 9.71191C59.9708 9.56795 60.067 9.41209 60.2109 9.24414C60.3549 9.05214 60.4874 8.85997 60.6074 8.66797C60.7514 8.45205 60.9194 8.23545 61.1113 8.01953C61.4473 8.45149 61.7346 8.93202 61.9746 9.45996C62.2386 9.96388 62.4551 10.4678 62.623 10.9717C62.815 11.4756 62.9466 11.944 63.0186 12.376C63.1145 12.7838 63.163 13.1077 63.1631 13.3477C63.1631 13.5636 63.1266 13.8157 63.0547 14.1035C62.9827 14.3674 62.8865 14.6316 62.7666 14.8955C62.6706 15.1355 62.5633 15.3641 62.4434 15.5801C62.3475 15.7957 62.2633 15.9396 62.1914 16.0117C61.7114 16.2757 61.063 16.48 60.2471 16.624C59.4311 16.744 58.6027 16.8037 57.7627 16.8037C57.7426 16.8037 57.7228 16.8012 57.7031 16.8008C57.6719 16.8016 57.64 16.8037 57.6074 16.8037C56.5996 16.8037 55.7831 16.5638 55.1592 16.084C54.5353 15.58 54.0193 14.8597 53.6113 13.9238C53.5633 13.8038 53.5148 13.7674 53.4668 13.8154C52.9148 14.1034 52.3149 14.332 51.667 14.5C51.0432 14.644 50.4552 14.7158 49.9033 14.7158C49.7113 14.7158 49.4827 14.7037 49.2188 14.6797C48.9789 14.6317 48.7389 14.572 48.499 14.5C48.283 14.428 48.0908 14.3319 47.9229 14.2119C47.7789 14.0919 47.707 13.9352 47.707 13.7432C47.7071 13.3113 47.8751 12.8194 48.2109 12.2676C48.5469 11.7156 48.9667 11.1512 49.4707 10.5752C49.9746 9.99928 50.5271 9.44785 51.127 8.91992C51.727 8.39192 52.3035 7.92363 52.8555 7.51562V7.22754C52.8555 6.84359 52.9506 6.48342 53.1426 6.14746C53.3346 5.78746 53.6471 5.48707 54.0791 5.24707ZM120.192 13.2754C120.072 13.3953 119.892 13.5391 119.652 13.707C119.412 13.875 119.136 14.0439 118.824 14.2119C118.512 14.3799 118.176 14.5357 117.816 14.6797C117.48 14.7997 117.144 14.8836 116.808 14.9316C116.976 14.9556 117.145 14.9799 117.312 15.0039H117.816C118.44 15.0039 119.028 14.9432 119.58 14.8232C120.132 14.7032 120.504 14.5596 120.696 14.3916C120.696 14.2716 120.624 14.0794 120.48 13.8154C120.337 13.5276 120.24 13.3475 120.192 13.2754ZM30.7822 10.1084C30.0382 10.1084 29.3302 10.5524 28.6582 11.4404C28.6102 11.6323 28.5859 11.7761 28.5859 11.8721C28.5859 12.352 28.766 12.7597 29.126 13.0957C29.51 13.4077 29.9176 13.6605 30.3496 13.8525C30.6135 13.7326 30.9495 13.6 31.3574 13.4561C31.7653 13.2881 32.0537 13.1444 32.2217 13.0244C32.2457 12.9044 32.2578 12.7841 32.2578 12.6641C32.2818 12.5441 32.2939 12.4237 32.2939 12.3037C32.2939 11.608 32.1492 11.0685 31.8613 10.6846C31.5974 10.3007 31.238 10.1085 30.7822 10.1084ZM73.9316 10.7559C73.5958 10.756 73.2718 10.9482 72.96 11.332C72.672 11.716 72.4322 12.0883 72.2402 12.4482C72.4562 12.7122 72.7324 12.9277 73.0684 13.0957C73.4043 13.2397 73.7645 13.3601 74.1484 13.4561C74.5323 13.552 74.9281 13.6239 75.3359 13.6719C75.7439 13.6959 76.1161 13.708 76.4521 13.708C76.0442 12.8441 75.6122 12.136 75.1562 11.584C74.7243 11.032 74.3156 10.7559 73.9316 10.7559ZM89.3955 9.28809C88.8435 9.28809 88.2913 9.4196 87.7393 9.68359C87.1873 9.92359 86.635 10.2483 86.083 10.6562C85.5551 11.0402 85.039 11.4844 84.5352 11.9883C84.0553 12.4682 83.611 12.9357 83.2031 13.3916C85.0031 13.2236 86.7317 12.996 88.3877 12.708C90.0435 12.396 91.4113 12.0116 92.4912 11.5557C92.0593 10.9798 91.5554 10.4637 90.9795 10.0078C90.4035 9.52787 89.8755 9.28811 89.3955 9.28809ZM5.21973 8.77539C4.97977 8.96736 4.71567 9.20719 4.42773 9.49512C4.13983 9.75903 3.85235 10.0475 3.56445 10.3594C3.30045 10.6714 3.05975 10.996 2.84375 11.332C2.62791 11.6679 2.48408 12.004 2.41211 12.3398C2.50814 12.3638 2.67616 12.376 2.91602 12.376C3.2999 12.376 3.70779 12.3517 4.13965 12.3037C4.5956 12.2317 5.03973 12.0992 5.47168 11.9072C5.39971 11.4033 5.35212 10.8872 5.32812 10.3594C5.30412 9.83143 5.26772 9.30333 5.21973 8.77539ZM52.9268 8.77539C52.6868 8.96736 52.4227 9.20719 52.1348 9.49512C51.8469 9.75903 51.5594 10.0475 51.2715 10.3594C51.0075 10.6714 50.7668 10.996 50.5508 11.332C50.3349 11.6679 50.1911 12.004 50.1191 12.3398C50.2152 12.3638 50.3832 12.376 50.623 12.376C51.0069 12.376 51.4148 12.3517 51.8467 12.3037C52.3026 12.2317 52.7468 12.0992 53.1787 11.9072C53.1067 11.4033 53.0592 10.8872 53.0352 10.3594C53.0112 9.83143 52.9748 9.30333 52.9268 8.77539ZM13.9463 8.01953C13.6824 8.0196 13.4303 8.11568 13.1904 8.30762C12.9745 8.49952 12.8065 8.65541 12.6865 8.77539V9.63965C12.7105 9.87955 12.7824 10.0597 12.9023 10.1797C13.0223 10.3477 13.2509 10.4802 13.5869 10.5762C13.9228 10.6481 14.271 10.6836 14.6309 10.6836C14.8707 10.6596 15.0986 10.612 15.3145 10.54C15.5544 10.4681 15.8064 10.4074 16.0703 10.3594C15.7344 9.63958 15.3742 9.07589 14.9902 8.66797C14.6302 8.236 14.2823 8.01953 13.9463 8.01953ZM39.1553 3.77148C39.2752 3.77153 39.4433 3.84344 39.6592 3.9873C39.8986 4.13095 40.0425 4.22727 40.0908 4.27539C40.1148 4.27539 40.1755 4.31179 40.2715 4.38379C40.3673 4.45566 40.475 4.52774 40.5947 4.59961C40.7146 4.67156 40.823 4.75565 40.9189 4.85156C41.0389 4.92356 41.0996 4.97209 41.0996 4.99609C41.0995 5.14 41.0389 5.29599 40.9189 5.46387C40.823 5.63169 40.7389 5.76342 40.667 5.85938C40.595 5.97937 40.4868 6.17156 40.3428 6.43555C40.199 6.67512 40.0915 6.79548 40.0195 6.7959C39.8756 6.7959 39.6953 6.73605 39.4795 6.61621C39.2638 6.49637 39.0956 6.40009 38.9756 6.32812C38.8556 6.23214 38.6633 6.0996 38.3994 5.93164C38.3071 5.87288 38.2319 5.8185 38.1719 5.77148C38.1498 5.87108 38.0937 5.98428 38.0029 6.11133C37.8829 6.27933 37.799 6.39968 37.751 6.47168C37.679 6.61568 37.5708 6.81998 37.4268 7.08398C37.3069 7.32361 37.1873 7.44321 37.0674 7.44336C36.9474 7.44336 36.7794 7.38359 36.5635 7.26367C36.3476 7.14375 36.1796 7.04757 36.0596 6.97559C35.9396 6.87963 35.7472 6.76012 35.4834 6.61621C35.2194 6.44821 35.0869 6.31573 35.0869 6.21973C35.0869 6.07579 35.1589 5.9077 35.3027 5.71582C35.4466 5.50008 35.5428 5.34408 35.5908 5.24805C35.6628 5.1281 35.7711 4.95999 35.915 4.74414C36.059 4.52818 36.1551 4.41996 36.2031 4.41992C36.3231 4.41992 36.4911 4.49179 36.707 4.63574C36.9469 4.77967 37.1149 4.8758 37.2109 4.92383C37.2349 4.92383 37.2956 4.96023 37.3916 5.03223C37.4874 5.10408 37.5951 5.17619 37.7148 5.24805C37.8255 5.31444 37.9254 5.39171 38.0156 5.47852C38.0417 5.36959 38.1089 5.23222 38.2188 5.06738C38.3627 4.85143 38.4588 4.6956 38.5068 4.59961C38.5788 4.47961 38.6871 4.3117 38.8311 4.0957C38.9991 3.8797 39.1073 3.77148 39.1553 3.77148ZM30.1699 1.82812C30.2899 1.8282 30.4701 1.91215 30.71 2.08008C30.9499 2.24803 31.1057 2.3563 31.1777 2.4043C31.2017 2.4043 31.2617 2.43992 31.3574 2.51172C31.4774 2.58372 31.5978 2.65652 31.7178 2.72852C31.8377 2.80049 31.946 2.88452 32.042 2.98047C32.1618 3.05238 32.2217 3.1122 32.2217 3.16016C32.2217 3.2801 32.1619 3.43606 32.042 3.62793C31.946 3.79593 31.862 3.94055 31.79 4.06055C31.6941 4.18054 31.5736 4.38406 31.4297 4.67188C31.2857 4.93588 31.1653 5.06836 31.0693 5.06836C30.9254 5.06824 30.7338 5.00753 30.4941 4.8877C30.2784 4.74385 30.1102 4.62427 29.9902 4.52832C29.8702 4.43232 29.6659 4.29984 29.3779 4.13184C29.2684 4.06796 29.1812 4.00757 29.1133 3.9541C29.0908 4.06661 29.0353 4.18649 28.9453 4.3125C28.8255 4.48022 28.7301 4.62429 28.6582 4.74414C28.5862 4.88814 28.478 5.09245 28.334 5.35645C28.19 5.62034 28.0575 5.75195 27.9375 5.75195C27.8175 5.75187 27.6373 5.69218 27.3975 5.57227C27.1575 5.42831 26.9774 5.30789 26.8574 5.21191C26.7374 5.13993 26.5336 5.02025 26.2461 4.85254C25.9821 4.66054 25.8496 4.51592 25.8496 4.41992C25.8497 4.29995 25.9215 4.13186 26.0654 3.91602C26.2094 3.67602 26.3176 3.49598 26.3896 3.37598C26.4616 3.27997 26.5699 3.11204 26.7139 2.87207C26.8818 2.63213 26.9901 2.51172 27.0381 2.51172C27.1581 2.51187 27.3383 2.59582 27.5781 2.76367C27.8181 2.93166 27.986 3.03989 28.082 3.08789C28.1062 3.08816 28.1661 3.12456 28.2617 3.19629C28.3817 3.26828 28.5021 3.34012 28.6221 3.41211C28.7419 3.48402 28.8494 3.56823 28.9453 3.66406C28.9479 3.66559 28.9506 3.66743 28.9531 3.66895C28.9715 3.53742 29.0398 3.37975 29.1621 3.19629C29.3299 2.98054 29.4373 2.81235 29.4854 2.69238C29.5573 2.59642 29.6778 2.42834 29.8457 2.18848C30.0137 1.94848 30.1219 1.82812 30.1699 1.82812ZM4.53613 1.14355C4.65613 1.14362 4.83626 1.22757 5.07617 1.39551C5.31612 1.56347 5.47195 1.67173 5.54395 1.71973C5.56791 1.71973 5.62788 1.75536 5.72363 1.82715C5.84363 1.89915 5.96398 1.97195 6.08398 2.04395C6.20392 2.11592 6.31225 2.19994 6.4082 2.2959C6.528 2.36782 6.58789 2.42763 6.58789 2.47559C6.58788 2.59553 6.5281 2.75148 6.4082 2.94336C6.3122 3.11136 6.22825 3.25598 6.15625 3.37598C6.06029 3.49597 5.93981 3.6995 5.7959 3.9873C5.6519 4.2513 5.53155 4.38379 5.43555 4.38379C5.29162 4.38366 5.10005 4.32296 4.86035 4.20312C4.64457 4.05927 4.47642 3.9397 4.35645 3.84375C4.23645 3.74775 4.03214 3.61527 3.74414 3.44727C3.63464 3.38339 3.54736 3.323 3.47949 3.26953C3.45699 3.38204 3.40153 3.50192 3.31152 3.62793C3.19174 3.79565 3.09634 3.93972 3.02441 4.05957C2.95241 4.20357 2.8442 4.40787 2.7002 4.67188C2.55623 4.93577 2.42369 5.06738 2.30371 5.06738C2.18371 5.06729 2.00348 5.0076 1.76367 4.8877C1.52376 4.74374 1.3436 4.62332 1.22363 4.52734C1.10364 4.45535 0.8998 4.33568 0.612305 4.16797C0.348305 3.97597 0.21582 3.83135 0.21582 3.73535C0.215902 3.61538 0.287762 3.44728 0.431641 3.23145C0.575641 2.99144 0.683859 2.81141 0.755859 2.69141C0.827859 2.5954 0.936093 2.42748 1.08008 2.1875C1.24805 1.94755 1.3563 1.82715 1.4043 1.82715C1.5243 1.82729 1.70453 1.91124 1.94434 2.0791C2.18433 2.2471 2.35224 2.35532 2.44824 2.40332C2.4724 2.40356 2.53225 2.43996 2.62793 2.51172C2.74792 2.58371 2.86829 2.65554 2.98828 2.72754C3.10809 2.79945 3.21564 2.88366 3.31152 2.97949C3.31405 2.98101 3.31686 2.98287 3.31934 2.98438C3.33776 2.85285 3.40601 2.69518 3.52832 2.51172C3.69612 2.29597 3.80349 2.12778 3.85156 2.00781C3.92354 1.91185 4.04401 1.74376 4.21191 1.50391C4.37991 1.26391 4.48813 1.14355 4.53613 1.14355ZM52.2432 1.14355C52.3632 1.14362 52.5433 1.22757 52.7832 1.39551C53.0232 1.56347 53.179 1.67173 53.251 1.71973C53.2749 1.71973 53.3349 1.75536 53.4307 1.82715C53.5507 1.89915 53.671 1.97195 53.791 2.04395C53.911 2.11592 54.0193 2.19994 54.1152 2.2959C54.235 2.36782 54.2949 2.42763 54.2949 2.47559C54.2949 2.59553 54.2351 2.75148 54.1152 2.94336C54.0192 3.11136 53.9353 3.25598 53.8633 3.37598C53.7673 3.49597 53.6468 3.6995 53.5029 3.9873C53.3589 4.2513 53.2386 4.38379 53.1426 4.38379C52.9987 4.38366 52.8071 4.32296 52.5674 4.20312C52.3516 4.05927 52.1835 3.9397 52.0635 3.84375C51.9435 3.74775 51.7392 3.61527 51.4512 3.44727C51.3417 3.38339 51.2544 3.323 51.1865 3.26953C51.164 3.38204 51.1086 3.50192 51.0186 3.62793C50.8988 3.79565 50.8034 3.93972 50.7314 4.05957C50.6594 4.20357 50.5512 4.40787 50.4072 4.67188C50.2633 4.93576 50.1307 5.06738 50.0107 5.06738C49.8907 5.06729 49.7105 5.0076 49.4707 4.8877C49.2308 4.74374 49.0506 4.62332 48.9307 4.52734C48.8107 4.45535 48.6068 4.33568 48.3193 4.16797C48.0553 3.97597 47.9229 3.83135 47.9229 3.73535C47.9229 3.61538 47.9948 3.44728 48.1387 3.23145C48.2827 2.99144 48.3909 2.81141 48.4629 2.69141C48.5349 2.5954 48.6431 2.42748 48.7871 2.1875C48.9551 1.94755 49.0633 1.82715 49.1113 1.82715C49.2313 1.82729 49.4116 1.91124 49.6514 2.0791C49.8914 2.2471 50.0593 2.35532 50.1553 2.40332C50.1794 2.40355 50.2393 2.43995 50.335 2.51172C50.455 2.58372 50.5753 2.65554 50.6953 2.72754C50.8151 2.79944 50.9227 2.88366 51.0186 2.97949C51.0211 2.98101 51.0239 2.98287 51.0264 2.98438C51.0448 2.85285 51.113 2.69518 51.2354 2.51172C51.4032 2.29597 51.5105 2.12778 51.5586 2.00781C51.6306 1.91185 51.751 1.74376 51.9189 1.50391C52.0869 1.26391 52.1952 1.14355 52.2432 1.14355ZM59.0225 1.79199C59.1424 1.79199 59.3227 1.87609 59.5625 2.04395C59.8025 2.18795 59.9714 2.28403 60.0674 2.33203C60.0917 2.33248 60.1517 2.36888 60.2471 2.44043C60.367 2.51239 60.4875 2.59646 60.6074 2.69238C60.7272 2.76431 60.8348 2.84848 60.9307 2.94434C61.0505 3.01624 61.1112 3.06386 61.1113 3.08789C61.1113 3.23189 61.0507 3.39981 60.9307 3.5918C60.8107 3.7598 60.7267 3.89228 60.6787 3.98828C60.5828 4.13218 60.4631 4.33602 60.3193 4.59961C60.1753 4.86361 60.0429 4.99609 59.9229 4.99609C59.8029 4.99607 59.6227 4.93636 59.3828 4.81641C59.1669 4.69643 58.9989 4.58817 58.8789 4.49219C58.7589 4.39619 58.5546 4.2637 58.2666 4.0957C57.9791 3.90401 57.8352 3.77221 57.835 3.7002C57.835 3.55624 57.9069 3.37607 58.0508 3.16016C58.1947 2.94425 58.303 2.77624 58.375 2.65625C58.447 2.53625 58.5674 2.36834 58.7354 2.15234C58.9023 1.91389 58.9977 1.79353 59.0225 1.79199ZM10.7783 1.46777C10.8983 1.46777 11.0784 1.5518 11.3184 1.71973C11.5582 1.86362 11.7262 1.95978 11.8223 2.00781C11.8463 2.00781 11.9069 2.04421 12.0029 2.11621C12.1228 2.18815 12.2425 2.27229 12.3623 2.36816C12.4823 2.44016 12.5905 2.52412 12.6865 2.62012C12.8063 2.69197 12.866 2.73965 12.8662 2.76367C12.8662 2.90764 12.8065 3.07563 12.6865 3.26758C12.5665 3.43558 12.4826 3.56806 12.4346 3.66406C12.3386 3.80802 12.2181 4.01158 12.0742 4.27539C11.9303 4.53928 11.7987 4.67177 11.6787 4.67188C11.5588 4.67188 11.3785 4.6121 11.1387 4.49219C10.9228 4.37226 10.7548 4.26393 10.6348 4.16797C10.5148 4.07197 10.3105 3.93948 10.0225 3.77148C9.73487 3.57974 9.59109 3.44801 9.59082 3.37598C9.59082 3.23199 9.66267 3.0519 9.80664 2.83594C9.95062 2.61997 10.0589 2.45203 10.1309 2.33203C10.2028 2.2121 10.3224 2.04394 10.4902 1.82812C10.6577 1.58892 10.7539 1.46856 10.7783 1.46777ZM36.9951 1.46777C37.1151 1.46777 37.2831 1.53967 37.499 1.68359C37.7387 1.8274 37.8947 1.92362 37.9668 1.97168C37.9908 1.97168 38.0515 2.00808 38.1475 2.08008C38.2433 2.12805 38.3509 2.20011 38.4707 2.2959C38.5906 2.36786 38.699 2.43976 38.7949 2.51172C38.9146 2.58354 38.9753 2.64347 38.9756 2.69141C38.9756 2.83541 38.9149 2.99216 38.7949 3.16016C38.6751 3.30402 38.5788 3.43576 38.5068 3.55566C38.4588 3.67567 38.3627 3.86785 38.2188 4.13184C38.0748 4.37163 37.9432 4.49213 37.8232 4.49219C37.7032 4.49219 37.5111 4.43152 37.2471 4.31152C36.9832 4.19156 36.803 4.09542 36.707 4.02344C36.5871 3.92746 36.419 3.7958 36.2031 3.62793C35.9871 3.45993 35.8789 3.32744 35.8789 3.23145C35.879 3.11149 35.9397 2.9555 36.0596 2.76367C36.2034 2.54799 36.3108 2.39188 36.3828 2.2959C36.4548 2.17594 36.5631 2.00789 36.707 1.79199C36.851 1.57604 36.9471 1.46782 36.9951 1.46777Z" fill="white"/>
</svg>
