<svg width="164" height="35" viewBox="0 0 164 35" fill="none" xmlns="http://www.w3.org/2000/svg">
<path d="M105.97 1.62695C106.028 1.60357 106.069 1.66225 106.093 1.80273C106.198 2.08394 106.304 2.37114 106.409 2.66406C106.526 2.94527 106.655 3.22074 106.796 3.49023C106.948 3.74802 107.124 3.99416 107.323 4.22852C107.522 4.45115 107.757 4.64454 108.026 4.80859C107.862 5.0898 107.716 5.33596 107.587 5.54688C107.458 5.74605 107.353 5.92776 107.271 6.0918C107.188 6.25581 107.13 6.41997 107.095 6.58398C107.06 6.73629 107.054 6.9063 107.077 7.09375C107.288 8.03121 107.464 9.00981 107.604 10.0293C107.757 11.0488 107.862 12.0801 107.921 13.123C107.991 14.166 108.003 15.209 107.956 16.252C107.909 17.2949 107.798 18.3028 107.622 19.2754C107.962 18.9824 108.319 18.6777 108.694 18.3613C109.069 18.0332 109.456 17.7168 109.854 17.4121C110.253 17.0957 110.657 16.8027 111.067 16.5332C111.489 16.252 111.911 16.0117 112.333 15.8125C112.954 15.5195 113.634 15.373 114.372 15.373C115.122 15.373 115.831 15.4902 116.499 15.7246C117.167 15.9473 117.747 16.2696 118.239 16.6914C118.731 17.1132 119.042 17.5997 119.171 18.1504C119.101 19.1464 118.849 20.0254 118.415 20.7871C117.981 21.5371 117.395 22.1172 116.657 22.5273C117.36 22.5977 118.11 22.6445 118.907 22.668C119.716 22.6797 120.454 22.6855 121.122 22.6855H121.14C121.878 22.6855 122.552 22.6562 123.161 22.5977C123.782 22.5391 124.374 22.3926 124.937 22.1582C125.476 21.9356 125.968 21.6015 126.413 21.1562C126.87 20.711 127.28 20.1835 127.644 19.5742C127.702 19.4688 127.767 19.3867 127.837 19.3281C127.907 19.2578 127.972 19.2227 128.03 19.2227C128.089 19.2227 128.13 19.252 128.153 19.3105C128.188 19.3692 128.194 19.4688 128.171 19.6094C128.136 19.8086 128.077 20.043 127.995 20.3125C127.913 20.5703 127.819 20.834 127.714 21.1035C127.608 21.3613 127.491 21.6133 127.362 21.8594C127.233 22.1054 127.104 22.3106 126.976 22.4746C127.304 22.5566 127.655 22.6094 128.03 22.6328C128.405 22.6562 128.78 22.6504 129.155 22.6152C129.542 22.5801 129.917 22.5156 130.28 22.4219C130.644 22.3164 130.983 22.1816 131.3 22.0176C131.804 21.7481 132.226 21.3789 132.565 20.9102C132.917 20.4297 133.228 19.8378 133.497 19.1348C133.544 19.0059 133.608 18.9062 133.69 18.8359C133.772 18.7539 133.849 18.7129 133.919 18.7129C133.989 18.7129 134.042 18.748 134.077 18.8184C134.124 18.8887 134.13 19.0059 134.095 19.1699C134.036 19.3925 133.96 19.6387 133.866 19.9082C133.784 20.1777 133.679 20.4649 133.55 20.7695C133.632 20.9804 133.831 21.1914 134.147 21.4023C134.476 21.6133 134.845 21.7891 135.255 21.9297C135.665 22.0703 136.075 22.1699 136.485 22.2285C136.907 22.2754 137.253 22.2461 137.522 22.1406C137.522 21.7071 137.487 21.3086 137.417 20.9453C137.358 20.5703 137.235 20.1601 137.048 19.7148L137.329 19.1523C137.423 18.9883 137.511 18.8359 137.593 18.6953C137.675 18.5547 137.757 18.4199 137.839 18.291C137.933 18.1504 138.032 17.998 138.138 17.834C138.22 17.752 138.284 17.7461 138.331 17.8164C138.612 18.6601 138.753 19.4219 138.753 20.1016C138.753 20.7812 138.659 21.4903 138.472 22.2285C138.413 22.4394 138.325 22.6915 138.208 22.9844C138.091 23.2773 137.95 23.5586 137.786 23.8281C137.622 24.0976 137.435 24.3321 137.224 24.5312C137.013 24.7304 136.778 24.8477 136.521 24.8828C136.251 24.918 135.935 24.9062 135.571 24.8477C135.208 24.7773 134.833 24.666 134.446 24.5137C134.06 24.3496 133.685 24.1445 133.321 23.8984C132.958 23.6524 132.653 23.3711 132.407 23.0547C132.079 23.582 131.628 24.0098 131.054 24.3379C130.491 24.6543 129.87 24.877 129.19 25.0059C128.511 25.123 127.813 25.1348 127.099 25.041C126.384 24.9473 125.716 24.7422 125.095 24.4258C124.661 24.6719 124.251 24.8652 123.864 25.0059C123.489 25.1348 123.138 25.2344 122.81 25.3047C122.481 25.375 122.177 25.416 121.896 25.4277C121.786 25.4323 121.68 25.4347 121.579 25.4375C121.534 25.4422 121.487 25.4453 121.438 25.4453H119.382C118.714 25.4336 117.987 25.4219 117.202 25.4102C116.417 25.3867 115.597 25.3633 114.741 25.3398C113.897 25.3164 113.065 25.293 112.245 25.2695C111.437 25.2344 110.663 25.2051 109.925 25.1816C109.187 25.1465 108.536 25.1113 107.974 25.0762C107.013 25.2051 106.058 25.2988 105.108 25.3574C104.292 25.4078 103.501 25.4353 102.736 25.4424C102.719 25.443 102.701 25.4453 102.683 25.4453H102.349L100.872 25.4629C100.661 26.459 100.415 27.4375 100.134 28.3984C99.8643 29.3594 99.5186 30.2441 99.0967 31.0527C98.6631 31.8613 98.1357 32.5703 97.5146 33.1797C96.9053 33.7891 96.1553 34.2344 95.2646 34.5156C94.6787 34.7266 94.0283 34.8613 93.3135 34.9199C92.6104 34.9902 91.8896 35.002 91.1514 34.9551C90.4248 34.9082 89.71 34.8203 89.0068 34.6914C88.292 34.5625 87.6475 34.416 87.0732 34.252C86.9092 34.2051 86.8037 34.1348 86.7568 34.041C86.71 33.959 86.71 33.877 86.7568 33.7949C86.8037 33.7129 86.8857 33.6426 87.0029 33.584C87.1201 33.5254 87.2607 33.502 87.4248 33.5137C87.9639 33.5723 88.5615 33.5781 89.2178 33.5312C89.874 33.4961 90.5303 33.4141 91.1865 33.2852C91.8545 33.168 92.499 33.0098 93.1201 32.8105C93.7412 32.6113 94.292 32.377 94.7725 32.1074C95.4404 31.7441 96.0322 31.3105 96.5479 30.8066C97.0635 30.3027 97.5264 29.752 97.9365 29.1543C98.3467 28.5566 98.6982 27.9473 98.9912 27.3262C99.2959 26.7168 99.5537 26.0957 99.7646 25.4629L98.0068 25.498C97.5146 25.5215 97.0459 25.4746 96.6006 25.3574C96.167 25.2285 95.7861 25.041 95.458 24.7949C95.1416 24.5371 94.8955 24.2207 94.7197 23.8457C94.5557 23.459 94.5029 23.0195 94.5615 22.5273C94.5967 22.1992 94.7139 21.7949 94.9131 21.3145C95.1123 20.834 95.3643 20.3711 95.6689 19.9258C95.9736 19.4688 96.3135 19.082 96.6885 18.7656C97.0635 18.4375 97.4443 18.2734 97.8311 18.2734C98.2412 18.2734 98.6221 18.4434 98.9736 18.7832C99.3369 19.1113 99.6592 19.5039 99.9404 19.9609C100.21 20.4297 100.433 20.9219 100.608 21.4375C100.784 21.9414 100.896 22.375 100.942 22.7383L101.846 22.7041C101.91 22.6927 101.978 22.6855 102.05 22.6855H103.052C103.333 22.6738 103.573 22.6621 103.772 22.6504L106.479 20.1719C106.667 19.832 106.79 19.3574 106.849 18.748C106.907 18.127 106.919 17.4355 106.884 16.6738C106.86 15.9004 106.796 15.08 106.69 14.2129C106.585 13.334 106.468 12.4668 106.339 11.6113C106.222 10.7442 106.093 9.91207 105.952 9.11523C105.823 8.3067 105.712 7.5859 105.618 6.95312C105.56 6.50786 105.472 6.06245 105.354 5.61719C105.237 5.16021 105.062 4.7441 104.827 4.36914C104.792 4.28718 104.757 4.23436 104.722 4.21094C104.698 4.17582 104.681 4.14646 104.669 4.12305C104.669 4.09963 104.675 4.07024 104.687 4.03516C104.698 3.99997 104.722 3.93544 104.757 3.8418C104.956 3.50199 105.138 3.15621 105.302 2.80469C105.478 2.44145 105.647 2.10739 105.812 1.80273C105.858 1.70905 105.911 1.65038 105.97 1.62695ZM155.47 0.00976562C155.563 -0.0253906 155.622 0.0390625 155.646 0.203125C155.728 1.15218 155.786 2.07241 155.821 2.96289C155.868 3.84164 155.88 4.70913 155.856 5.56445C155.845 6.41977 155.804 7.27554 155.733 8.13086C155.663 8.97446 155.558 9.83023 155.417 10.6973C155.265 11.7283 155.077 12.6661 154.854 13.5098C154.644 14.3533 154.415 15.1095 154.169 15.7773C153.935 16.4451 153.7 17.0255 153.466 17.5176C153.243 18.0096 153.044 18.42 152.868 18.748C153.009 19.0058 153.161 19.299 153.325 19.627C153.501 19.9433 153.665 20.2775 153.817 20.6289C153.981 20.9803 154.128 21.338 154.257 21.7012C154.386 22.0526 154.474 22.3868 154.521 22.7031C154.52 23.1952 154.456 23.6759 154.327 24.1445C154.198 24.6014 154.017 25.0529 153.782 25.498C153.372 25.5801 152.833 25.6621 152.165 25.7441C151.497 25.8379 150.794 25.9199 150.056 25.9902C149.317 26.0723 148.591 26.1367 147.876 26.1836C147.161 26.2305 146.558 26.2539 146.065 26.2539C146.007 26.2305 145.978 26.1189 145.978 25.9199C145.989 25.7208 146.013 25.492 146.048 25.2344C146.095 24.9767 146.148 24.7245 146.206 24.4785C146.265 24.2209 146.323 24.0215 146.382 23.8809C146.44 23.7168 146.552 23.6348 146.716 23.6348C147.524 23.5762 148.034 23.4413 148.245 23.2305C148.397 23.0782 148.609 22.8495 148.878 22.5449C149.159 22.2403 149.452 21.8944 149.757 21.5078C150.073 21.1212 150.378 20.7225 150.671 20.3125C150.964 19.8908 151.198 19.4921 151.374 19.1172C150.8 18.1446 150.184 17.1718 149.528 16.1992C148.884 15.2267 148.21 14.2831 147.507 13.3691C146.804 12.4435 146.071 11.5585 145.31 10.7148C144.56 9.85946 143.792 9.07416 143.007 8.35938C142.714 8.51165 142.35 8.58789 141.917 8.58789C141.648 8.51759 141.331 8.40621 140.968 8.25391C140.616 8.08988 140.27 7.89643 139.931 7.67383C139.603 7.45124 139.315 7.20498 139.069 6.93555C138.835 6.65443 138.706 6.3553 138.683 6.03906V5.58203C138.694 5.3595 138.706 5.10724 138.718 4.82617C138.741 4.53335 138.771 4.23422 138.806 3.92969C138.853 3.61346 138.911 3.32606 138.981 3.06836C139.052 2.81072 139.134 2.65831 139.228 2.61133C139.333 2.56445 139.521 2.63477 139.79 2.82227C140.587 3.37301 141.39 4.01764 142.198 4.75586C143.007 5.49408 143.798 6.28524 144.571 7.12891C145.356 7.97258 146.112 8.85165 146.839 9.76562C147.577 10.6796 148.263 11.588 148.896 12.4902C149.54 13.3925 150.126 14.2716 150.653 15.127C151.192 15.9823 151.655 16.7794 152.042 17.5176C152.44 16.9083 152.792 16.0642 153.097 14.9863C153.401 13.9083 153.647 12.6893 153.835 11.3301C154.022 9.95912 154.14 8.49397 154.187 6.93555C154.233 5.3771 154.198 3.81235 154.081 2.24219C154.28 1.86733 154.468 1.52139 154.644 1.20508C154.819 0.877057 155.019 0.542858 155.241 0.203125C155.3 0.109425 155.376 0.0449345 155.47 0.00976562ZM86.4229 2.62891C86.5049 2.62891 86.5635 2.6582 86.5986 2.7168C86.6338 2.76367 86.6572 2.82227 86.6689 2.89258C86.6924 2.96289 86.7041 3.0332 86.7041 3.10352V3.2793C86.6807 3.72461 86.6865 4.1582 86.7217 4.58008C86.7686 5.00195 86.8154 5.42969 86.8623 5.86328C86.9912 6.90625 87.1318 7.98438 87.2842 9.09766C87.4365 10.1992 87.5889 11.3125 87.7412 12.4375C87.8936 13.5625 88.0459 14.6816 88.1982 15.7949C88.3506 16.9082 88.4912 17.9922 88.6201 19.0469C88.667 19.457 88.6963 19.9375 88.708 20.4883C88.7197 21.0391 88.708 21.6016 88.6729 22.1758C88.6377 22.7383 88.5732 23.2832 88.4795 23.8105C88.3975 24.3379 88.2744 24.7773 88.1104 25.1289C88.04 25.3633 87.9346 25.4863 87.7939 25.498C87.7119 25.498 87.6592 25.4512 87.6357 25.3574C87.5654 24.3262 87.4775 23.2949 87.3721 22.2637C87.2666 21.2324 87.1377 20.1836 86.9854 19.1172C86.6807 16.8906 86.376 14.6934 86.0713 12.5254C85.7783 10.3574 85.4971 8.17188 85.2275 5.96875C85.2627 5.38281 85.4092 4.80859 85.667 4.24609C85.8076 3.90625 85.9365 3.60742 86.0537 3.34961C86.1709 3.08008 86.2939 2.83984 86.4229 2.62891ZM160.743 2.62891C160.825 2.62891 160.884 2.6582 160.919 2.7168C160.954 2.76367 160.978 2.82227 160.989 2.89258C161.013 2.96289 161.024 3.0332 161.024 3.10352V3.2793C161.001 3.72461 161.007 4.1582 161.042 4.58008C161.089 5.00195 161.136 5.42969 161.183 5.86328C161.312 6.90625 161.452 7.98438 161.604 9.09766C161.757 10.1992 161.909 11.3125 162.062 12.4375C162.214 13.5625 162.366 14.6816 162.519 15.7949C162.671 16.9082 162.812 17.9922 162.94 19.0469C162.987 19.457 163.017 19.9375 163.028 20.4883C163.04 21.0391 163.028 21.6016 162.993 22.1758C162.958 22.7383 162.894 23.2832 162.8 23.8105C162.718 24.3379 162.595 24.7773 162.431 25.1289C162.36 25.3633 162.255 25.4863 162.114 25.498C162.032 25.498 161.979 25.4512 161.956 25.3574C161.886 24.3262 161.798 23.2949 161.692 22.2637C161.587 21.2324 161.458 20.1836 161.306 19.1172C161.001 16.8906 160.696 14.6934 160.392 12.5254C160.099 10.3574 159.817 8.17188 159.548 5.96875C159.583 5.38281 159.729 4.80859 159.987 4.24609C160.128 3.90625 160.257 3.60742 160.374 3.34961C160.491 3.08008 160.614 2.83984 160.743 2.62891ZM25.1807 2.29492C25.251 2.2832 25.2979 2.3125 25.3213 2.38281C25.4033 2.71081 25.4795 3.04506 25.5498 3.38477C25.6201 3.71277 25.6846 4.05874 25.7432 4.42188C25.9658 5.74594 26.1475 6.99426 26.2881 8.16602C26.4404 9.32603 26.5693 10.4513 26.6748 11.541C26.792 12.619 26.9033 13.6798 27.0088 14.7227C27.1142 15.7655 27.2373 16.8205 27.3779 17.8867C27.4248 18.2616 27.4834 18.6427 27.5537 19.0293C27.624 19.4042 27.712 19.7677 27.8174 20.1191C27.9345 20.4706 28.0753 20.7989 28.2393 21.1035C28.4033 21.3964 28.6085 21.6544 28.8545 21.877C29.1709 22.1581 29.546 22.3633 29.9795 22.4922C30.4131 22.6211 30.9288 22.6855 31.5264 22.6855H31.6738C32.0188 22.6845 32.3446 22.6795 32.6514 22.6689C33.0029 22.6572 33.3487 22.6279 33.6885 22.5811C34.04 22.5342 34.3975 22.4697 34.7607 22.3877C35.1357 22.3057 35.5401 22.1943 35.9736 22.0537C35.8565 21.8546 35.7686 21.6082 35.71 21.3154C35.6514 21.0109 35.6338 20.7 35.6572 20.3838C35.6924 19.5753 35.8976 18.7958 36.2725 18.0459C36.6474 17.2843 37.1046 16.6162 37.6436 16.042C38.1826 15.4561 38.7511 14.9932 39.3486 14.6533C39.958 14.3135 40.5088 14.1611 41.001 14.1963C41.4814 14.2315 41.8682 14.4424 42.1611 14.8291C42.4657 15.204 42.6885 15.6671 42.8291 16.2178C42.9696 16.7567 43.04 17.3312 43.04 17.9404C43.04 18.5379 42.9814 19.0773 42.8643 19.5576C42.7354 20.0614 42.5419 20.5363 42.2842 20.9814C42.0381 21.4149 41.7509 21.8253 41.4229 22.2119C41.622 22.3408 41.8624 22.4405 42.1436 22.5107C42.4365 22.5693 42.7412 22.6162 43.0576 22.6514C43.3857 22.6748 43.7139 22.6865 44.042 22.6865H44.4307C44.4968 22.6753 44.5663 22.668 44.6396 22.668H46.1865C46.6904 22.6562 47.2061 22.6328 47.7334 22.5977C48.2607 22.5625 48.7705 22.5039 49.2627 22.4219C49.7549 22.3281 50.1533 22.1992 50.458 22.0352C50.6923 21.8945 50.7803 21.7363 50.7217 21.5605C50.5225 20.9161 50.2294 20.3476 49.8428 19.8555C49.4561 19.3516 49.0165 18.8535 48.5244 18.3613C48.6181 17.9513 48.7178 17.5292 48.8232 17.0957C48.9287 16.6622 49.0342 16.2402 49.1396 15.8301C49.1865 15.7365 49.2334 15.6895 49.2803 15.6895C49.3271 15.6895 49.421 15.7481 49.5615 15.8652C49.8779 16.205 50.1709 16.5684 50.4404 16.9551C50.7216 17.33 50.9678 17.7286 51.1787 18.1504C51.3896 18.5722 51.5537 19.006 51.6709 19.4512C51.7998 19.8964 51.8642 20.3478 51.8643 20.8047C51.8643 21.0038 51.8525 21.2267 51.8291 21.4727C51.8057 21.7187 51.7646 21.9649 51.7061 22.2109C51.6592 22.4569 51.5947 22.6973 51.5127 22.9316C51.4424 23.1659 51.3544 23.3653 51.249 23.5293C50.9795 23.9511 50.5927 24.291 50.0889 24.5488C49.585 24.8066 49.0342 25 48.4365 25.1289C47.8506 25.2578 47.2471 25.3457 46.626 25.3926C46.1976 25.4173 45.7952 25.4302 45.4189 25.4375C45.3718 25.4426 45.323 25.4463 45.2725 25.4463H44.9561L44.6396 25.4453C44.5991 25.4453 44.5598 25.4427 44.5215 25.4395C43.3686 25.4128 42.2712 25.2816 41.2295 25.042C40.0694 24.7608 39.0322 24.3564 38.1182 23.8291C37.626 24.0752 37.1337 24.2979 36.6416 24.4971C36.1612 24.6963 35.6572 24.8662 35.1299 25.0068C34.6143 25.1474 34.0634 25.2588 33.4775 25.3408C32.9678 25.4032 32.4072 25.4354 31.7959 25.4424C31.7823 25.4428 31.7687 25.4453 31.7549 25.4453H31.6348C31.6104 25.4454 31.586 25.4463 31.5615 25.4463H31.2451C31.1741 25.4463 31.1069 25.4388 31.043 25.4287C30.3448 25.3866 29.7323 25.2531 29.2061 25.0234C28.5733 24.7305 28.04 24.3319 27.6064 23.8281C27.1846 23.3243 26.8564 22.744 26.6221 22.0879C26.3877 21.42 26.2295 20.7049 26.1475 19.9434L25.6904 15.4785C25.4912 13.5685 25.2803 11.7694 25.0576 10.082C24.8467 8.39467 24.5478 6.77136 24.1611 5.21289C24.1378 5.1078 24.1201 5.03723 24.1084 5.00195C24.0967 4.95516 24.1026 4.89632 24.126 4.82617C24.208 4.39271 24.337 3.98232 24.5127 3.5957C24.7001 3.19738 24.8819 2.79285 25.0576 2.38281C25.0811 2.32422 25.1221 2.29492 25.1807 2.29492ZM6.17871 10.9961C6.27244 11.0195 6.3252 11.0664 6.33691 11.1367C6.3955 11.5351 6.45997 11.9512 6.53027 12.3848C6.60058 12.8066 6.67677 13.2403 6.75879 13.6855C6.84082 14.1191 6.94044 14.6173 7.05762 15.1797C7.18652 15.7422 7.33302 16.3809 7.49707 17.0957C7.82518 18.5019 8.05372 19.416 8.18262 19.8379C8.35839 20.4238 8.58694 20.9043 8.86816 21.2793C9.16111 21.6425 9.48929 21.9297 9.85254 22.1406C10.2158 22.3515 10.6084 22.4981 11.0303 22.5801C11.4639 22.6504 11.9033 22.6855 12.3486 22.6855H13.2627C13.6729 22.6855 14.1299 22.6738 14.6338 22.6504C15.1377 22.627 15.665 22.5801 16.2158 22.5098C16.7666 22.4395 17.2939 22.3398 17.7979 22.2109C18.3135 22.082 18.7764 21.9121 19.1865 21.7012C19.5967 21.4902 19.9131 21.2265 20.1357 20.9102C20.1592 20.7696 20.1592 20.5937 20.1357 20.3828C20.1123 20.1719 20.0771 19.9609 20.0303 19.75C19.9834 19.5274 19.9248 19.3164 19.8545 19.1172C19.7959 18.9063 19.7373 18.7304 19.6787 18.5898C19.5733 18.8008 19.4385 19.0176 19.2744 19.2402C19.1104 19.4629 18.9228 19.668 18.7119 19.8555C18.501 20.043 18.2666 20.2012 18.0088 20.3301C17.7627 20.459 17.499 20.5293 17.2178 20.541C16.9014 20.5645 16.5967 20.5293 16.3037 20.4355C16.0108 20.3301 15.7412 20.1836 15.4951 19.9961C15.2608 19.8086 15.0556 19.5859 14.8799 19.3281C14.7158 19.0703 14.5986 18.789 14.5283 18.4844C14.458 18.1563 14.4346 17.7929 14.458 17.3945C14.4815 16.9844 14.5459 16.5742 14.6514 16.1641C14.7686 15.7422 14.9209 15.332 15.1084 14.9336C15.2959 14.5352 15.5127 14.1836 15.7588 13.8789C16.0166 13.5743 16.2979 13.334 16.6025 13.1582C16.9189 12.9707 17.253 12.8828 17.6045 12.8945C17.9092 12.9062 18.208 13.0117 18.501 13.2109C18.7939 13.4101 19.0694 13.6739 19.3271 14.002C19.5849 14.3183 19.8252 14.6758 20.0479 15.0742C20.2822 15.4726 20.4815 15.8828 20.6455 16.3047C20.8096 16.7148 20.9443 17.1133 21.0498 17.5C21.1553 17.8867 21.2197 18.2266 21.2432 18.5195C21.2783 19.082 21.2783 19.627 21.2432 20.1543C21.208 20.6816 21.126 21.1797 20.9971 21.6484C20.8682 22.1172 20.6865 22.5508 20.4521 22.9492C20.2178 23.3476 19.9189 23.6992 19.5557 24.0039C19.1338 24.3555 18.6299 24.6309 18.0439 24.8301C17.4697 25.0176 16.8545 25.1582 16.1982 25.252C15.5537 25.3457 14.8975 25.4043 14.2295 25.4277C13.6956 25.4371 13.1842 25.4415 12.6953 25.4434C12.6853 25.4436 12.6752 25.4453 12.665 25.4453H12.085C11.4786 25.4338 10.9395 25.3457 10.4678 25.1816C9.92874 24.9824 9.45995 24.7246 9.06152 24.4082C8.66312 24.0918 8.32909 23.7343 8.05957 23.3359C7.79007 22.9258 7.56151 22.5097 7.37402 22.0879C7.18655 21.5606 7.03417 21.1269 6.91699 20.7871C6.81155 20.4356 6.72949 20.166 6.6709 19.9785C6.21389 20.5527 5.78025 21.0039 5.37012 21.332C4.9717 21.6484 4.5615 21.8828 4.13965 22.0352C3.72951 22.1875 3.30174 22.2754 2.85645 22.2988C2.42286 22.3223 1.94238 22.3164 1.41504 22.2812C1.23928 22.2695 1.06346 22.2285 0.887695 22.1582C0.711945 22.0879 0.553692 21.9941 0.413086 21.877C0.272495 21.7598 0.161127 21.6191 0.0791016 21.4551C0.0088056 21.2911 -0.0146209 21.1035 0.00878906 20.8926C0.11425 20.2129 0.290068 19.5918 0.536133 19.0293C0.782208 18.4551 1.05765 17.9453 1.3623 17.5C1.85448 16.7969 2.44046 16.2051 3.12012 15.7246C3.81151 15.2324 4.6553 14.793 5.65137 14.4062C5.62793 14.2657 5.59276 14.0781 5.5459 13.8438C5.51075 13.5977 5.46971 13.3691 5.42285 13.1582C5.39942 13.0645 5.4053 12.9355 5.44043 12.7715C5.48729 12.5957 5.54592 12.414 5.61621 12.2266C5.68651 12.0274 5.75685 11.8339 5.82715 11.6465C5.89744 11.4473 5.9502 11.2773 5.98535 11.1367C6.02051 11.0195 6.08496 10.9727 6.17871 10.9961ZM69.0732 10.9961C69.167 11.0195 69.2197 11.0664 69.2314 11.1367C69.29 11.5351 69.3545 11.9512 69.4248 12.3848C69.4951 12.8066 69.5713 13.2403 69.6533 13.6855C69.7353 14.1191 69.835 14.6173 69.9521 15.1797C70.081 15.7422 70.2276 16.3809 70.3916 17.0957C70.7197 18.5019 70.9482 19.416 71.0771 19.8379C71.2529 20.4238 71.4815 20.9043 71.7627 21.2793C72.0556 21.6425 72.3838 21.9297 72.7471 22.1406C73.1103 22.3515 73.503 22.4981 73.9248 22.5801C74.2177 22.6276 74.5133 22.6574 74.8115 22.6729C74.8434 22.6705 74.8759 22.668 74.9092 22.668H76.4561C76.96 22.6562 77.4756 22.6328 78.0029 22.5977C78.5303 22.5625 79.04 22.5039 79.5322 22.4219C80.0244 22.3281 80.4229 22.1992 80.7275 22.0352C80.9618 21.8945 81.0498 21.7363 80.9912 21.5605C80.792 20.9161 80.499 20.3476 80.1123 19.8555C79.7256 19.3516 79.2861 18.8535 78.7939 18.3613C78.8877 17.9513 78.9873 17.5292 79.0928 17.0957C79.1982 16.6622 79.3037 16.2402 79.4092 15.8301C79.456 15.7365 79.503 15.6895 79.5498 15.6895C79.5967 15.6895 79.6905 15.7481 79.8311 15.8652C80.1474 16.205 80.4405 16.5684 80.71 16.9551C80.9912 17.33 81.2373 17.7286 81.4482 18.1504C81.6591 18.5722 81.8232 19.006 81.9404 19.4512C82.0693 19.8964 82.1338 20.3478 82.1338 20.8047C82.1338 21.0038 82.1221 21.2267 82.0986 21.4727C82.0752 21.7187 82.0341 21.9649 81.9756 22.2109C81.9287 22.4569 81.8642 22.6973 81.7822 22.9316C81.7119 23.1659 81.624 23.3653 81.5186 23.5293C81.249 23.9511 80.8622 24.291 80.3584 24.5488C79.8545 24.8066 79.3037 25 78.7061 25.1289C78.1201 25.2578 77.5166 25.3457 76.8955 25.3926C76.4716 25.417 76.0731 25.4301 75.7002 25.4375C75.6549 25.4422 75.608 25.4453 75.5596 25.4453H74.9092C74.8565 25.4453 74.8058 25.4421 74.7568 25.4365C74.2404 25.4099 73.7755 25.3254 73.3623 25.1816C72.8233 24.9824 72.3545 24.7246 71.9561 24.4082C71.5577 24.0918 71.2236 23.7343 70.9541 23.3359C70.6846 22.9258 70.456 22.5097 70.2686 22.0879C70.0811 21.5606 69.9287 21.1269 69.8115 20.7871C69.7061 20.4356 69.624 20.166 69.5654 19.9785C69.1084 20.5527 68.6748 21.0039 68.2646 21.332C67.8662 21.6484 67.456 21.8828 67.0342 22.0352C66.624 22.1875 66.1963 22.2754 65.751 22.2988C65.3174 22.3223 64.8369 22.3164 64.3096 22.2812C64.1338 22.2695 63.958 22.2285 63.7822 22.1582C63.6065 22.0879 63.4482 21.9941 63.3076 21.877C63.167 21.7598 63.0557 21.6191 62.9736 21.4551C62.9033 21.2911 62.8799 21.1035 62.9033 20.8926C63.0088 20.2129 63.1846 19.5918 63.4307 19.0293C63.6767 18.4551 63.9522 17.9453 64.2568 17.5C64.749 16.7969 65.335 16.2051 66.0146 15.7246C66.706 15.2324 67.5498 14.793 68.5459 14.4062C68.5225 14.2657 68.4873 14.0781 68.4404 13.8438C68.4053 13.5977 68.3642 13.3691 68.3174 13.1582C68.294 13.0645 68.2998 12.9355 68.335 12.7715C68.3818 12.5957 68.4405 12.414 68.5107 12.2266C68.581 12.0274 68.6514 11.8339 68.7217 11.6465C68.792 11.4473 68.8447 11.2773 68.8799 11.1367C68.915 11.0195 68.9795 10.9727 69.0732 10.9961ZM152.147 20.3301C151.737 20.9745 151.333 21.5489 150.935 22.0527C150.536 22.5565 150.149 23.0137 149.774 23.4238C150.067 23.4004 150.378 23.377 150.706 23.3535L151.69 23.2832C152.019 23.248 152.329 23.207 152.622 23.1602C152.927 23.1133 153.202 23.0547 153.448 22.9844C153.413 22.8672 153.343 22.6853 153.237 22.4395C153.132 22.1935 153.015 21.9354 152.886 21.666C152.757 21.3966 152.622 21.1386 152.481 20.8926C152.353 20.6467 152.241 20.459 152.147 20.3301ZM97.1807 20.9805C97.0518 20.9805 96.9111 21.0273 96.7588 21.1211C96.6182 21.2031 96.4834 21.3145 96.3545 21.4551C96.2256 21.584 96.1143 21.7246 96.0205 21.877C95.9385 22.0293 95.8975 22.1641 95.8975 22.2812C95.9678 22.4336 96.1436 22.5508 96.4248 22.6328C96.7178 22.7148 97.04 22.7734 97.3916 22.8086C97.7432 22.832 98.0889 22.8379 98.4287 22.8262C98.7803 22.8145 99.0439 22.7969 99.2197 22.7734C99.2197 22.7266 99.1553 22.6094 99.0264 22.4219C98.9092 22.2344 98.751 22.041 98.5518 21.8418C98.3525 21.6309 98.1299 21.4434 97.8838 21.2793C97.6494 21.1035 97.415 21.0039 97.1807 20.9805ZM113.528 17.8516C113.013 17.8281 112.526 17.875 112.069 17.9922C111.483 18.1562 110.915 18.3906 110.364 18.6953C109.825 18.9883 109.28 19.3399 108.729 19.75C108.19 20.1601 107.64 20.6172 107.077 21.1211C106.526 21.6133 105.946 22.1348 105.337 22.6855C106.286 22.6387 107.323 22.5566 108.448 22.4395C109.573 22.3105 110.687 22.1348 111.788 21.9121C112.901 21.6777 113.956 21.3906 114.952 21.0508C115.96 20.6992 116.815 20.2773 117.519 19.7852C117.226 19.3868 116.862 19.0469 116.429 18.7656C115.995 18.4844 115.532 18.2676 115.04 18.1152C114.548 17.9629 114.044 17.875 113.528 17.8516ZM39.9463 16.9912C39.7471 17.0147 39.5009 17.085 39.208 17.2021C38.9151 17.3076 38.6279 17.4541 38.3467 17.6416C38.0655 17.8174 37.8076 18.0342 37.5732 18.292C37.339 18.538 37.1806 18.8077 37.0986 19.1006C37.1104 19.3934 37.1807 19.6574 37.3096 19.8916C37.4501 20.1258 37.6085 20.3311 37.7842 20.5068C37.9716 20.6708 38.1593 20.8116 38.3467 20.9287C38.5458 21.0341 38.71 21.1104 38.8389 21.1572C38.9677 21.1338 39.1729 21.0693 39.4541 20.9639C39.747 20.8467 40.046 20.706 40.3506 20.542C40.6552 20.3663 40.9307 20.1845 41.1768 19.9971C41.4344 19.798 41.5985 19.5985 41.6689 19.3994C41.6924 19.0714 41.6219 18.7254 41.458 18.3623C41.294 17.9874 41.1122 17.6532 40.9131 17.3604C40.8076 17.208 40.6611 17.1025 40.4736 17.0439C40.2979 16.9854 40.1221 16.9678 39.9463 16.9912ZM5.91504 16.2168C5.03615 16.4746 4.25683 16.8262 3.57715 17.2715C2.90921 17.7051 2.32322 18.2735 1.81934 18.9766C1.66706 19.1523 1.64943 19.2988 1.7666 19.416C2.11815 19.5801 2.52249 19.6621 2.97949 19.6621C3.44823 19.6621 3.90528 19.6152 4.35059 19.5215C4.8076 19.416 5.22365 19.2871 5.59863 19.1348C5.9853 18.9707 6.2666 18.8183 6.44238 18.6777C6.34864 18.2559 6.25487 17.8574 6.16113 17.4824C6.06739 17.0957 5.98535 16.6738 5.91504 16.2168ZM68.8096 16.2168C67.9307 16.4746 67.1514 16.8262 66.4717 17.2715C65.8037 17.7051 65.2178 18.2735 64.7139 18.9766C64.5616 19.1523 64.544 19.2988 64.6611 19.416C65.0127 19.5801 65.417 19.6621 65.874 19.6621C66.3428 19.6621 66.7998 19.6152 67.2451 19.5215C67.7021 19.416 68.1182 19.2871 68.4932 19.1348C68.8798 18.9707 69.1611 18.8183 69.3369 18.6777C69.2432 18.2559 69.1494 17.8574 69.0557 17.4824C68.9619 17.0957 68.8799 16.6738 68.8096 16.2168ZM17.1475 15.6016C16.9951 15.6016 16.8369 15.6485 16.6729 15.7422C16.5088 15.8359 16.3564 15.959 16.2158 16.1113C16.0752 16.2519 15.958 16.4102 15.8643 16.5859C15.7705 16.75 15.7237 16.9024 15.7236 17.043C15.8642 17.3008 16.0694 17.5 16.3389 17.6406C16.6201 17.7695 16.9131 17.8398 17.2178 17.8516C17.5342 17.8516 17.833 17.7812 18.1143 17.6406C18.3955 17.5 18.6123 17.289 18.7646 17.0078C18.7529 16.8672 18.6884 16.7148 18.5713 16.5508C18.4541 16.3867 18.3134 16.2344 18.1494 16.0938C17.9854 15.9531 17.8095 15.8359 17.6221 15.7422C17.4463 15.6485 17.2881 15.6016 17.1475 15.6016ZM50.2119 8.9043C50.2354 8.89268 50.2765 8.90441 50.335 8.93945L52.4971 10.7148C52.5908 10.7734 52.5907 10.8497 52.4971 10.9434L51.2139 12.7188C51.1436 12.7891 51.085 12.8184 51.0381 12.8066C50.9912 12.7949 50.9384 12.7715 50.8799 12.7363L48.8408 11.1895L47.54 12.9473C47.4932 13.0058 47.4404 13.041 47.3818 13.0527C47.335 13.0527 47.2939 13.041 47.2588 13.0176L45.0967 11.3828C45.0499 11.3477 45.0205 11.3183 45.0088 11.2949C44.9973 11.2715 45.0148 11.2362 45.0615 11.1895L46.415 9.29102C46.4502 9.24424 46.4913 9.21483 46.5381 9.20312C46.5849 9.17977 46.6319 9.18566 46.6787 9.2207L48.7354 10.75L50.124 8.99219C50.1708 8.93371 50.2002 8.9043 50.2119 8.9043ZM78.1787 8.06055C78.249 7.967 78.337 7.95522 78.4424 8.02539L80.6221 9.83594C80.7041 9.90621 80.7098 9.99423 80.6396 10.0996L79.1807 11.9277C79.0869 12.0215 78.9873 12.0273 78.8818 11.9453L76.7021 10.1523C76.6203 10.082 76.6202 9.98822 76.7021 9.87109L78.1787 8.06055ZM40.4385 6.93652C40.4619 6.9248 40.5029 6.93652 40.5615 6.97168L42.8115 8.57129C42.9051 8.62987 42.9052 8.712 42.8115 8.81738L41.5811 10.6807C41.4523 10.7508 41.3407 10.7567 41.2471 10.6982L39.1377 9.13379L37.8545 10.9971C37.8194 11.0554 37.7723 11.0908 37.7139 11.1025C37.6554 11.1025 37.6084 11.0907 37.5732 11.0674L35.3232 9.43262C35.2766 9.39766 35.2472 9.3681 35.2354 9.34473C35.2237 9.32133 35.2414 9.28011 35.2881 9.22168L36.624 7.37598C36.6708 7.31746 36.7119 7.28228 36.7471 7.27051C36.7822 7.24707 36.8291 7.25879 36.8877 7.30566L39.0146 8.85254L40.3506 7.02441C40.3975 6.96582 40.4268 6.93652 40.4385 6.93652ZM6.9873 5.30078C7.05762 5.21875 7.13965 5.21289 7.2334 5.2832L9.44824 7.11133C9.50676 7.18162 9.50681 7.26371 9.44824 7.35742L8.1123 9.23828C8.03029 9.35535 7.91887 9.36124 7.77832 9.25586L5.66895 7.62109L4.31543 9.48438C4.26857 9.54291 4.21579 9.57813 4.15723 9.58984C4.11038 9.58984 4.06932 9.57809 4.03418 9.55469L1.78418 7.83203C1.73738 7.79693 1.70805 7.76756 1.69629 7.74414C1.68458 7.72072 1.7022 7.67964 1.74902 7.62109L3.15527 5.59961C3.22559 5.48242 3.31348 5.45898 3.41895 5.5293L5.5459 7.14648L6.9873 5.30078ZM69.8818 5.30078C69.9521 5.21875 70.0342 5.21289 70.1279 5.2832L72.3428 7.11133C72.4013 7.18162 72.4013 7.26371 72.3428 7.35742L71.0068 9.23828C70.9248 9.35535 70.8134 9.36124 70.6729 9.25586L68.5635 7.62109L67.21 9.48438C67.1631 9.54291 67.1103 9.57813 67.0518 9.58984C67.0049 9.58984 66.9639 9.57809 66.9287 9.55469L64.6787 7.83203C64.6319 7.79693 64.6026 7.76756 64.5908 7.74414C64.5791 7.72072 64.5967 7.67964 64.6436 7.62109L66.0498 5.59961C66.1201 5.48242 66.208 5.45898 66.3135 5.5293L68.4404 7.14648L69.8818 5.30078ZM16.0576 5.65234C16.1279 5.54697 16.2159 5.53523 16.3213 5.61719L18.4131 7.35742C18.4482 7.39255 18.4717 7.43364 18.4834 7.48047C18.5068 7.51561 18.4951 7.56253 18.4482 7.62109L17.042 9.34375C16.9482 9.4375 16.8486 9.44922 16.7432 9.37891L14.6514 7.65625C14.6162 7.63281 14.5928 7.59763 14.5811 7.55078C14.5694 7.50393 14.5928 7.44526 14.6514 7.375L16.0576 5.65234ZM47.6807 5.65234C47.7509 5.5588 47.839 5.54701 47.9443 5.61719L50.0537 7.30469C50.1122 7.35147 50.1356 7.39853 50.124 7.44531C50.1123 7.4921 50.0947 7.53325 50.0713 7.56836L48.665 9.29102C48.5947 9.38477 48.4951 9.38477 48.3662 9.29102L46.2568 7.62109C46.1749 7.55079 46.1749 7.45697 46.2568 7.33984L47.6807 5.65234Z" fill="white"/>
</svg>
