<svg width="104" height="20" viewBox="0 0 104 20" fill="none" xmlns="http://www.w3.org/2000/svg">
<path d="M69.3018 0.151367C69.7004 0.917898 70.1604 1.57697 70.6816 2.12891C70.4516 2.32824 70.2831 2.54344 70.1758 2.77344C70.0838 3.00334 70.0381 3.30214 70.0381 3.66992L70.0605 4.10742C70.1985 5.11933 70.2828 6.03925 70.3135 6.86719C70.3288 7.26581 70.3288 7.62627 70.3135 7.94824C70.2981 8.27024 70.2758 8.5159 70.2451 8.68457C70.2145 8.85317 70.1911 8.96085 70.1758 9.00684L70.6123 8.52344C71.3942 7.66485 72.0847 7.0516 72.6826 6.68359C73.296 6.31559 73.9172 6.13184 74.5459 6.13184C74.7758 6.13187 75.0288 6.1928 75.3047 6.31543C75.5807 6.42276 75.8416 6.57606 76.0869 6.77539C76.6542 7.22003 76.9375 7.70332 76.9375 8.22461C76.9375 8.82252 76.777 9.4054 76.4551 9.97266C76.1484 10.54 75.6875 11.0608 75.0742 11.5361C75.3962 11.4135 75.8258 11.2906 76.3623 11.168C76.8989 11.03 77.3975 10.961 77.8574 10.9609H80.2725V10.9619H80.8428C81.5021 10.9619 82.0006 10.7081 82.3379 10.2021C82.4605 10.0028 82.5448 9.79569 82.5908 9.58105C82.6368 9.36655 82.6683 9.21305 82.6836 9.12109L83.1895 8.8457C83.1435 9.2136 83.1282 9.5051 83.1436 9.71973C83.1896 10.1183 83.3277 10.4403 83.5576 10.6855C83.8029 10.9307 84.2166 11.0537 84.7988 11.0537C85.6422 11.0537 86.1873 10.6314 86.4326 9.78809C86.4786 9.65005 86.5162 9.42742 86.5469 9.12109L87.0527 8.8457C87.0221 9.06001 87.0069 9.23615 87.0068 9.37402C87.0068 9.89536 87.1297 10.2872 87.375 10.5479C87.6663 10.8851 88.1192 11.0537 88.7324 11.0537C89.1616 11.0537 89.4836 10.9693 89.6982 10.8008C89.9282 10.6321 90.1272 10.3093 90.2959 9.83398L89.2842 8.43164C89.5448 7.95633 89.8515 7.54211 90.2041 7.18945C90.4188 7.43477 90.6178 7.79523 90.8018 8.27051C90.9858 8.74584 91.0781 9.32855 91.0781 10.0186C91.0781 10.2026 91.0243 10.5173 90.917 10.9619C90.8096 11.3911 90.6339 11.7822 90.3887 12.1348C89.9594 12.7327 89.3917 13.0312 88.6865 13.0312C88.0272 13.0312 87.5359 12.878 87.2139 12.5713C86.892 12.2494 86.7162 11.8888 86.6855 11.4902C86.5782 11.9502 86.3477 12.3564 85.9951 12.709C85.6425 13.0463 85.1673 13.2158 84.5693 13.2158C84.0173 13.2158 83.5879 13.0463 83.2812 12.709C82.9901 12.3718 82.8133 11.9582 82.752 11.4678C82.7518 11.5293 82.7142 11.6749 82.6377 11.9043C82.5764 12.119 82.4607 12.3261 82.292 12.5254C81.8934 12.9853 81.3571 13.2157 80.6826 13.2158H77.7197L75.9023 13.1924H70.1299L67.9678 13.2158H64.9492C64.9492 13.8138 64.864 14.5427 64.6953 15.4014C64.542 16.2599 64.2739 17.0418 63.8906 17.7471C63.538 18.3757 63.1319 18.8437 62.6719 19.1504C62.166 19.4723 61.6063 19.6327 60.9932 19.6328C60.8552 19.6328 60.6174 19.6176 60.2803 19.5869C59.8816 19.5562 59.5974 19.541 59.4287 19.541C59.0454 19.541 58.5855 19.6029 58.0488 19.7256L57.8418 19.4258L58.9229 18.8516C59.2295 18.6829 59.5514 18.5062 59.8887 18.3223C60.2413 18.1383 60.556 17.9697 60.832 17.8164C61.4607 17.4484 61.9896 17.0647 62.4189 16.666C63.1702 15.9607 63.6687 15.1018 63.9141 14.0898C63.9907 13.7833 64.0283 13.4917 64.0283 13.2158H62.833C61.8517 13.2158 61.1766 12.9478 60.8086 12.4111C60.502 11.9818 60.3487 11.3532 60.3486 10.5254C60.3486 10.1574 60.3791 9.8427 60.4404 9.58203C60.5017 9.32147 60.6095 9.02271 60.7627 8.68555C60.962 8.27155 61.2077 7.93352 61.499 7.67285C61.8056 7.41238 62.1429 7.28224 62.5107 7.28223C62.9094 7.28223 63.2698 7.42029 63.5918 7.69629C63.9137 7.97219 64.1819 8.34004 64.3965 8.7998C64.5498 9.1217 64.6727 9.48234 64.7646 9.88086C64.8566 10.2641 64.9023 10.6247 64.9023 10.9619H67.0977C67.104 10.9618 67.1108 10.9609 67.1172 10.9609H68.4736L69.4629 9.74219C69.4015 7.84091 69.1488 5.85509 68.7041 3.78516C68.5355 2.98792 68.3588 2.35938 68.1748 1.89941L69.3018 0.151367ZM99.1738 0.151367C99.3424 0.611201 99.5568 1.03279 99.8174 1.41602C100.078 1.79935 100.362 2.10594 100.669 2.33594L100.163 3.53223L99.5645 3.30273C99.5798 3.44076 99.5879 3.68586 99.5879 4.03809C99.5879 5.74006 99.1808 7.29638 98.3682 8.70703C98.5675 9.09036 98.7441 9.54312 98.8975 10.0645C99.0661 10.5858 99.1433 11.0538 99.1279 11.4678L98.9668 12.8242C98.2155 12.9929 97.4409 13.1238 96.6436 13.2158C95.8616 13.2925 94.8798 13.3301 93.6992 13.3301C93.6992 12.3951 93.7378 11.621 93.8145 11.0078L94.1133 10.9844C95.2019 10.693 96.1603 9.97221 96.9883 8.82227C96.2677 7.61103 95.5468 6.60686 94.8262 5.80957C94.1056 4.99696 93.5461 4.42941 93.1475 4.10742L92.8945 4.49805C92.4039 4.1914 91.8749 3.80046 91.3076 3.3252C91.3383 2.95732 91.3921 2.60481 91.4688 2.26758C91.5607 1.93058 91.6369 1.70804 91.6982 1.60059C91.7596 1.46259 91.86 1.39355 91.998 1.39355C92.0291 1.39377 92.1136 1.41613 92.251 1.46191C92.4043 1.53863 92.7183 1.78445 93.1934 2.19824C94.2667 3.14891 95.2179 4.13058 96.0459 5.14258C96.7511 6.01647 97.2873 6.80646 97.6553 7.51172C98.0539 6.76039 98.3077 5.90867 98.415 4.95801C98.4457 4.55954 98.4609 4.26792 98.4609 4.08398C98.4609 3.22544 98.33 2.25966 98.0693 1.18652C98.4987 0.84919 98.8672 0.504034 99.1738 0.151367ZM11.6055 3.46387C12.2647 3.46387 12.8018 3.81629 13.2158 4.52148C13.6298 5.22682 13.8826 6.0633 13.9746 7.0293C14.0053 7.36642 14.0205 7.61949 14.0205 7.78809C14.0205 8.56991 13.9128 9.32861 13.6982 10.0645C13.4069 11.0611 12.947 11.8205 12.3184 12.3418C11.8892 12.6943 11.4065 12.932 10.8701 13.0547C10.3489 13.162 9.76591 13.2158 9.12207 13.2158H7.75098C6.81574 13.2158 6.10296 12.8482 5.6123 12.1123C5.41297 11.821 5.23634 11.4758 5.08301 11.0771C4.92968 10.6632 4.77637 10.1647 4.62305 9.58203C4.33174 10.41 3.91033 11.1004 3.3584 11.6523C2.95973 11.7137 2.6217 11.7441 2.3457 11.7441C1.90131 11.7441 1.51815 11.6984 1.19629 11.6064C0.583007 11.4378 0.314022 11.0925 0.390625 10.5713L0.621094 9.19141C0.69776 8.76207 1.07338 8.34789 1.74805 7.94922C2.11604 7.73456 2.46121 7.58936 2.7832 7.5127C3.12052 7.4207 3.49618 7.35166 3.91016 7.30566L3.61133 6.47754C3.87199 6.14021 4.23238 5.81028 4.69238 5.48828C4.9377 6.27021 5.17529 6.99111 5.40527 7.65039L5.6582 8.38574C5.93416 9.16761 6.13319 9.70473 6.25586 9.99609C6.4245 10.364 6.61643 10.6169 6.83105 10.7549C7.06096 10.8928 7.35975 10.9619 7.72754 10.9619H10.0186C11.2911 10.9619 12.1805 10.6552 12.6865 10.042C12.8552 9.85799 12.9861 9.62756 13.0781 9.35156C13.17 9.07572 13.2006 8.8074 13.1699 8.54688C12.7559 8.94554 12.1651 9.14453 11.3984 9.14453C10.7545 9.14449 10.2559 8.98407 9.90332 8.66211C9.48945 8.29418 9.28231 7.74971 9.28223 7.0293C9.28223 6.64603 9.33606 6.24694 9.44336 5.83301C9.56603 5.40367 9.71932 5.01995 9.90332 4.68262C10.0719 4.36075 10.2945 4.07729 10.5703 3.83203C10.8616 3.58674 11.2069 3.46391 11.6055 3.46387ZM17.4688 9.12109C17.4994 9.68839 17.6375 10.1178 17.8828 10.4092C18.2048 10.7772 18.688 10.9609 19.332 10.9609H20.5967V10.9619H22.5908C22.5602 10.9313 22.5063 10.8621 22.4297 10.7549C22.3684 10.6476 22.2993 10.4942 22.2227 10.2949C22.1613 10.0803 22.1309 9.84262 22.1309 9.58203C22.1309 9.1987 22.207 8.79974 22.3604 8.38574C22.529 7.97175 22.7442 7.59611 23.0049 7.25879C23.5568 6.5076 24.1397 6.13184 24.7529 6.13184C25.2433 6.13199 25.6722 6.38501 26.04 6.89062C26.4234 7.38129 26.6152 8.0716 26.6152 8.96094C26.6152 9.32883 26.5847 9.66606 26.5234 9.97266C26.4621 10.264 26.3931 10.4944 26.3164 10.6631C26.2551 10.8163 26.2165 10.9159 26.2012 10.9619H30.625C31.1463 10.9619 31.5686 10.8624 31.8906 10.6631C32.2125 10.4485 32.4421 10.226 32.5801 9.99609C32.7332 9.76636 32.8104 9.62819 32.8105 9.58203L31.4072 7.92578C31.7139 7.25112 32.0438 6.7222 32.3965 6.33887C32.7798 6.75282 33.0712 7.22806 33.2705 7.76465C33.4852 8.30132 33.5928 8.85357 33.5928 9.4209C33.5928 10.3408 33.3551 11.1765 32.8799 11.9277C32.3279 12.7864 31.5147 13.2158 30.4414 13.2158H27.9727C27.2827 13.2158 26.7761 13.1082 26.4541 12.8936C26.1323 12.6636 25.9178 12.4259 25.8105 12.1807C25.4119 12.8706 24.4229 13.2158 22.8438 13.2158H18.918C18.044 13.2158 17.3841 12.9244 16.9395 12.3418C16.4795 11.7131 16.2348 10.8847 16.2041 9.85742C16.1734 8.17078 16.1196 6.69873 16.043 5.44141C15.9816 4.16874 15.874 3.01854 15.7207 1.99121C15.9506 1.60804 16.2036 1.22496 16.4795 0.841797C16.7706 0.443495 16.9392 0.212952 16.9854 0.151367H17.2383L17.4688 9.12109ZM46.7617 5.48828C47.007 6.27021 47.2446 6.99111 47.4746 7.65039L47.7275 8.38574C48.0035 9.16761 48.2025 9.70473 48.3252 9.99609C48.4938 10.364 48.6858 10.6169 48.9004 10.7549C49.1303 10.8928 49.4291 10.9619 49.7969 10.9619H51.5586C52.0799 10.9619 52.5022 10.8624 52.8242 10.6631C53.146 10.4485 53.3757 10.226 53.5137 9.99609C53.6668 9.76636 53.744 9.62819 53.7441 9.58203L52.3408 7.92578C52.6475 7.25112 52.9774 6.7222 53.3301 6.33887C53.7134 6.75282 54.0048 7.22806 54.2041 7.76465C54.4188 8.30132 54.5264 8.85357 54.5264 9.4209C54.5264 10.3408 54.2887 11.1765 53.8135 11.9277C53.2615 12.7864 52.4483 13.2158 51.375 13.2158H49.8203C48.8851 13.2158 48.1723 12.8482 47.6816 12.1123C47.4823 11.821 47.3057 11.4758 47.1523 11.0771C46.999 10.6632 46.8457 10.1647 46.6924 9.58203C46.4011 10.41 45.9797 11.1004 45.4277 11.6523C45.0291 11.7137 44.691 11.7441 44.415 11.7441C43.9706 11.7441 43.5875 11.6984 43.2656 11.6064C42.6523 11.4378 42.3834 11.0925 42.46 10.5713L42.6904 9.19141C42.7671 8.76207 43.1427 8.34789 43.8174 7.94922C44.1854 7.73456 44.5305 7.58936 44.8525 7.5127C45.1899 7.4207 45.5655 7.35166 45.9795 7.30566L45.6807 6.47754C45.9413 6.14021 46.3017 5.81028 46.7617 5.48828ZM56.8691 0.151367C56.8538 0.703288 56.8762 1.24759 56.9375 1.78418C56.9988 2.32085 57.0303 2.65077 57.0303 2.77344L57.0762 3.46289L57.1221 3.94629C57.2754 5.78625 57.3516 7.25831 57.3516 8.3623C57.3516 9.0983 57.3211 9.71959 57.2598 10.2256C57.2138 10.7162 57.1376 11.2991 57.0303 11.9736C56.9689 12.3722 56.8532 12.7866 56.6846 13.2158H56.3398C56.3552 13.0625 56.3633 12.7862 56.3633 12.3877C56.3633 11.7437 56.3399 11.1376 56.2939 10.5703C56.2479 10.141 56.1708 9.57347 56.0635 8.86816C55.9102 7.76426 55.7802 6.69815 55.6729 5.6709C55.5042 3.92315 55.4199 2.72695 55.4199 2.08301C55.8032 1.31647 56.2023 0.672635 56.6162 0.151367H56.8691ZM103.251 0.151367C103.236 0.703288 103.258 1.24759 103.319 1.78418C103.381 2.32085 103.412 2.65077 103.412 2.77344L103.458 3.46289L103.504 3.94629C103.657 5.78625 103.733 7.25831 103.733 8.3623C103.733 9.0983 103.703 9.71959 103.642 10.2256C103.596 10.7162 103.519 11.2991 103.412 11.9736C103.351 12.3722 103.235 12.7866 103.066 13.2158H102.722C102.737 13.0625 102.745 12.7862 102.745 12.3877C102.745 11.7437 102.722 11.1376 102.676 10.5703C102.63 10.141 102.553 9.57347 102.445 8.86816C102.292 7.76426 102.162 6.69815 102.055 5.6709C101.886 3.92315 101.802 2.72695 101.802 2.08301C102.185 1.31647 102.584 0.672635 102.998 0.151367H103.251ZM97.6553 9.53516C97.3333 10.0258 96.9962 10.3943 96.6436 10.6396C96.291 10.8696 96.099 10.9996 96.0684 11.0303C96.375 11.0303 96.7587 11.0231 97.2188 11.0078C97.6785 10.9772 98.0463 10.9385 98.3223 10.8926C98.2763 10.7699 98.0539 10.3172 97.6553 9.53516ZM62.3271 8.93848C61.9745 8.93848 61.675 9.03797 61.4297 9.2373C61.1998 9.43661 61.085 9.67425 61.085 9.9502C61.085 10.3487 61.2151 10.6168 61.4756 10.7549C61.7363 10.8929 62.1047 10.9619 62.5801 10.9619H63.9141C63.914 10.6248 63.8144 10.2415 63.6152 9.8125C63.4926 9.5519 63.3158 9.34473 63.0859 9.19141C62.8714 9.02281 62.6183 8.93854 62.3271 8.93848ZM73.5342 7.94824C73.0742 7.94824 72.5676 8.13205 72.0156 8.5C71.479 8.85264 70.9652 9.28213 70.4746 9.78809C70.5047 9.75808 70.2671 10.0189 69.7617 10.5703L69.417 10.9609H71.9697C72.7209 10.9609 73.4339 10.839 74.1084 10.5938C74.4609 10.4558 74.7525 10.3023 74.9824 10.1338C75.2124 9.94979 75.4733 9.71126 75.7646 9.41992C75.5194 8.89879 75.2279 8.52291 74.8906 8.29297C74.5687 8.06314 74.1165 7.94831 73.5342 7.94824ZM24.3389 7.97168C24.1089 7.97168 23.8784 8.07125 23.6484 8.27051C23.4338 8.46984 23.2571 8.67694 23.1191 8.8916C22.9812 9.10624 22.8969 9.24432 22.8662 9.30566C22.8662 9.35165 22.9201 9.48982 23.0273 9.71973C23.15 9.94965 23.3186 10.1721 23.5332 10.3867C23.7632 10.586 24.0394 10.6855 24.3613 10.6855C24.6527 10.6855 24.9136 10.6013 25.1436 10.4326C25.3735 10.264 25.5502 10.0649 25.6729 9.83496C25.7954 9.60519 25.8563 9.42115 25.8564 9.2832C25.8564 9.03792 25.6725 8.76167 25.3047 8.45508C24.9522 8.13322 24.6301 7.97182 24.3389 7.97168ZM3.72559 8.38574C3.23548 8.38576 2.89075 8.40916 2.69141 8.45508C2.33876 8.53174 2.04738 8.69317 1.81738 8.93848C1.58738 9.18381 1.45645 9.45993 1.42578 9.7666L1.40332 9.97363H3.03613C3.34268 9.9736 3.59563 9.86592 3.79492 9.65137C4.00956 9.43673 4.20147 9.13004 4.37012 8.73145L4.04785 7.71875L3.72559 8.38574ZM45.7949 8.38574C45.3048 8.38576 44.9601 8.40915 44.7607 8.45508C44.4081 8.53174 44.1167 8.69317 43.8867 8.93848C43.6567 9.18381 43.5258 9.45993 43.4951 9.7666L43.4727 9.97363H45.1055C45.412 9.9736 45.665 9.86592 45.8643 9.65137C46.0789 9.43673 46.2708 9.13003 46.4395 8.73145L46.1172 7.71875L45.7949 8.38574ZM11.2607 5.00488C10.8315 5.00488 10.5167 5.1502 10.3174 5.44141C10.118 5.73274 10.0186 6.01697 10.0186 6.29297C10.0186 6.53827 10.1109 6.79113 10.2949 7.05176C10.4942 7.31235 10.8619 7.44235 11.3984 7.44238C11.7664 7.44238 12.0659 7.38146 12.2959 7.25879C12.541 7.1362 12.725 7.00606 12.8477 6.86816C12.587 5.62621 12.058 5.00493 11.2607 5.00488ZM50.5078 4C50.7531 4.18398 50.9907 4.39113 51.2207 4.62109C51.4659 4.85099 51.6579 5.06539 51.7959 5.26465C51.4892 5.60198 51.0903 6.00094 50.5996 6.46094C50.1857 5.97036 49.7642 5.55604 49.335 5.21875C49.7336 4.8508 50.1245 4.44459 50.5078 4ZM30.6064 3.6543C30.8517 3.80759 31.0894 4.00674 31.3193 4.25195C31.5646 4.48191 31.7565 4.70432 31.8945 4.91895C31.6032 5.25626 31.2042 5.65527 30.6982 6.11523C30.4069 5.74725 30.077 5.41017 29.709 5.10352C29.4637 5.39478 29.1265 5.73202 28.6973 6.11523C28.2986 5.65525 27.8692 5.24104 27.4092 4.87305C27.9918 4.29046 28.3908 3.88428 28.6055 3.6543C28.9428 3.88429 29.2951 4.21429 29.6631 4.64355C30.1231 4.18356 30.4378 3.85363 30.6064 3.6543ZM3.19727 2.86621C3.4425 3.01951 3.68025 3.21865 3.91016 3.46387C4.15546 3.69384 4.34736 3.91622 4.48535 4.13086C4.19403 4.46818 3.79503 4.86717 3.28906 5.32715C2.99773 4.95915 2.6678 4.62209 2.2998 4.31543C2.0545 4.60669 1.71727 4.94394 1.28809 5.32715C0.889419 4.86715 0.46 4.45296 0 4.08496C0.582599 3.50236 0.981638 3.09619 1.19629 2.86621C1.48758 3.05024 1.84 3.38025 2.25391 3.85547C2.71391 3.39547 3.0286 3.06554 3.19727 2.86621ZM45.2666 2.86621C45.5118 3.01951 45.7496 3.21864 45.9795 3.46387C46.2248 3.69384 46.4167 3.91622 46.5547 4.13086C46.2634 4.46818 45.8644 4.86717 45.3584 5.32715C45.0671 4.95915 44.7371 4.62209 44.3691 4.31543C44.1238 4.60669 43.7866 4.94394 43.3574 5.32715C42.9588 4.86715 42.5293 4.45296 42.0693 4.08496C42.6519 3.50236 43.051 3.09619 43.2656 2.86621C43.5569 3.05024 43.9093 3.38024 44.3232 3.85547C44.7832 3.39547 45.0979 3.06554 45.2666 2.86621ZM25.71 2.81543C25.9552 2.96872 26.1929 3.16787 26.4229 3.41309C26.6682 3.64305 26.8601 3.86544 26.998 4.08008C26.7067 4.4174 26.3077 4.81639 25.8018 5.27637C25.5104 4.90837 25.1805 4.57131 24.8125 4.26465C24.5672 4.55591 24.23 4.89316 23.8008 5.27637C23.4021 4.81637 22.9727 4.40218 22.5127 4.03418C23.0953 3.45158 23.4943 3.04541 23.709 2.81543C24.0003 2.99945 24.3527 3.32947 24.7666 3.80469C25.2266 3.34469 25.5413 3.01476 25.71 2.81543ZM29.6172 1.19336C29.8472 1.34669 30.0776 1.54568 30.3076 1.79102C30.5528 2.02085 30.7439 2.24348 30.8818 2.45801C30.5139 2.88726 30.1158 3.28635 29.6865 3.6543C29.2725 3.16363 28.8502 2.74944 28.4209 2.41211C28.8962 1.96744 29.2952 1.56136 29.6172 1.19336ZM11.5381 0C11.7834 0.183978 12.021 0.391127 12.251 0.621094C12.4962 0.850991 12.6882 1.06539 12.8262 1.26465C12.5195 1.60198 12.1205 2.00094 11.6299 2.46094C11.2159 1.97036 10.7945 1.55604 10.3652 1.21875C10.7638 0.850801 11.1548 0.444592 11.5381 0Z" fill="white"/>
</svg>
