<svg width="187" height="28" viewBox="0 0 187 28" fill="none" xmlns="http://www.w3.org/2000/svg">
<path d="M118.384 13.1221C119.36 11.7305 120.121 10.7412 120.666 10.1553C121.065 9.74023 121.549 9.34961 122.119 8.9834C122.965 8.45457 123.873 8.19043 124.841 8.19043C126.281 8.19043 127.498 8.73568 128.491 9.82617C129.354 10.7702 130.114 12.2354 130.773 14.2207C130.983 14.8607 131.201 15.6464 131.431 16.5771H137.463C136.56 14.5264 135.624 12.9023 134.655 11.7061H139.355C140.161 12.6745 141.109 14.2941 142.199 16.5645L145.251 16.5771C144.38 14.5023 143.441 12.8743 142.432 11.6943H147.119C147.754 12.4921 148.726 14.12 150.036 16.5771H152.966C150.24 12.443 148.246 9.71224 146.984 8.38574H151.978C152.824 9.2972 153.858 10.6528 155.078 12.4512C156.266 14.2169 157.084 15.588 157.531 16.5645L158.581 20.6055H131.799C131.792 20.6055 131.786 20.6046 131.779 20.6045H113.387C113.454 21.0096 113.488 21.392 113.488 21.752C113.488 25.3489 110.587 27.1637 104.785 27.1963C103.5 27.2044 102.686 26.7447 102.344 25.8174C102.295 25.679 102.026 24.6533 101.538 22.7412C102.628 23.0016 103.719 23.1318 104.81 23.1318C107.527 23.1318 108.898 22.4192 108.923 20.9951C108.923 20.9951 108.923 20.9056 108.923 20.7266C108.907 20.6696 108.89 20.6045 108.874 20.5312C108.394 20.6045 107.845 20.6416 107.227 20.6416C105.103 20.6497 103.226 19.8521 101.599 18.249C100.053 16.7192 99.2713 15.0506 99.2549 13.2441C99.2467 11.9176 99.7721 10.7493 100.83 9.74023C101.896 8.73127 103.186 8.22658 104.699 8.22656C106.978 8.22656 108.757 9.08919 110.034 10.8145C110.974 12.0931 111.791 14.0139 112.487 16.5762H115.015L111.291 2.31836H115.441L118.384 13.1221ZM18.7256 7.98242C22.2331 7.98242 24.793 10.6598 26.4043 16.0146C26.5671 16.56 26.9206 18.09 27.4658 20.6045H12.5615V20.6055H2.0752C1.61968 20.6055 1.29039 20.5194 1.08691 20.3486C0.891602 20.1777 0.732422 19.8522 0.610352 19.3721L0.0371094 17.1875C0.012724 17.0981 2.86946e-05 16.9838 0 16.8457C0 16.1377 0.211589 15.5146 0.634766 14.9775L4.28516 10.3877L2.49023 8.4834H7.45898C8.55747 9.48427 9.32263 10.3435 9.75391 11.0596C10.1119 11.6456 10.4946 12.6062 10.9014 13.9404C11.0946 14.5697 11.3308 15.4484 11.6113 16.5762H14.2822C13.9974 16.2507 13.7533 15.7461 13.5498 15.0625C13.3382 14.3464 13.2288 13.6383 13.2207 12.9385C13.2126 11.5876 13.737 10.4238 14.7949 9.44727C15.861 8.4707 17.1712 7.98242 18.7256 7.98242ZM33.6377 16.5762H36.3525C36.0677 16.2507 35.8236 15.7461 35.6201 15.0625C35.4085 14.3464 35.2992 13.6383 35.291 12.9385C35.2829 11.5876 35.8073 10.4238 36.8652 9.44727C37.9313 8.4707 39.2415 7.98242 40.7959 7.98242C44.3034 7.98242 46.8633 10.6598 48.4746 16.0146C48.5137 16.1454 48.563 16.3331 48.624 16.5771H55.1631C54.5934 15.7064 53.5318 14.2984 51.9775 12.3535C50.4642 10.474 49.349 9.15177 48.6328 8.38672H53.7471C54.6585 9.33886 55.7654 10.7388 57.0674 12.5859C58.3205 14.368 59.1553 15.6947 59.5703 16.5654L60.6445 20.6055H48.9258C48.9181 20.6055 48.91 20.6046 48.9023 20.6045H31.4707C30.9093 20.6045 30.5303 20.2263 30.335 19.4697L25.7695 2.31836H29.9443L33.6377 16.5762ZM85.2656 8.38574C86.1771 9.33789 87.2839 10.7376 88.5859 12.585C89.8392 14.3672 90.6738 15.6937 91.0889 16.5645L92.1631 20.6055H70.5566C70.1011 20.6055 69.7718 20.5194 69.5684 20.3486C69.373 20.1777 69.2139 19.8522 69.0918 19.3721L68.5186 17.1875C68.4942 17.0981 68.4815 16.9838 68.4814 16.8457C68.4814 16.1377 68.693 15.5146 69.1162 14.9775L72.7666 10.3877L70.9717 8.4834H75.9404C77.0389 9.48427 77.8041 10.3435 78.2354 11.0596C78.5933 11.6456 78.976 12.6062 79.3828 13.9404C79.5761 14.5698 79.8122 15.4489 80.0928 16.5771H86.6816C86.112 15.7065 85.0502 14.2982 83.4961 12.3535C81.9826 10.4738 80.8675 9.15075 80.1514 8.38574H85.2656ZM162.562 2.33105C164.653 3.65752 166.981 5.36665 169.544 7.45801C170.016 6.50582 170.252 4.79671 170.252 2.33105H174.378C174.378 5.77332 173.841 8.47528 172.767 10.4365C174.646 12.3733 176.356 14.4242 177.894 16.5889L178.857 20.6055H161.938C161.621 20.6055 161.373 20.4868 161.194 20.251C160.991 19.9824 160.779 19.4534 160.56 18.6641C160.348 17.8665 160.173 17.1667 160.034 16.5645C161.58 15.9704 163.037 15.1936 164.404 14.2334C165.78 13.265 166.801 12.2884 167.469 11.3037C166.517 10.1969 162.687 7.20573 155.981 2.33105H162.562ZM99.1328 19.5674C99.2549 20.031 99.4584 20.3767 99.7432 20.6045H96.1914C95.63 20.6045 95.251 20.2263 95.0557 19.4697L90.4902 2.31836H94.665L99.1328 19.5674ZM185.779 19.5674C185.901 20.031 186.105 20.3767 186.39 20.6045H182.838C182.276 20.6045 181.897 20.2263 181.702 19.4697L177.137 2.31836H181.312L185.779 19.5674ZM104.59 12.0967C104.256 12.0967 103.963 12.235 103.711 12.5117C103.467 12.7803 103.34 13.0931 103.332 13.4512C103.324 14.2324 103.711 14.9368 104.492 15.5635C105.379 16.2712 106.56 16.6331 108.032 16.6494C107.813 15.2091 107.292 14.0452 106.47 13.1582C105.819 12.4504 105.192 12.0968 104.59 12.0967ZM4.21191 16.5889L7.51953 16.5771L6.5918 13.5986L4.21191 16.5889ZM72.6934 16.5889L76.001 16.5771L75.0732 13.5986L72.6934 16.5889ZM124.731 12.5479C124.17 12.5479 123.531 12.8245 122.814 13.3779C122.367 13.7197 122.103 13.9359 122.021 14.0254C121.68 14.3916 121.016 15.2461 120.031 16.5889H127.271C127.075 15.6778 126.904 15.0101 126.758 14.5869C126.286 13.2281 125.61 12.5481 124.731 12.5479ZM170.618 14.0254C169.796 15.0588 168.909 15.9134 167.957 16.5889H172.803L170.618 14.0254ZM18.5918 11.9502C18.193 11.9421 17.8711 12.0804 17.627 12.3652C17.3911 12.6419 17.2734 12.9793 17.2734 13.3779C17.2734 14.1022 17.6559 14.7415 18.4209 15.2949C19.5356 16.1003 20.7277 16.5075 21.9971 16.5156C21.818 15.4414 21.4681 14.4766 20.9473 13.6221C20.2801 12.5155 19.4949 11.9585 18.5918 11.9502ZM40.6621 11.9502C40.2633 11.9421 39.9414 12.0804 39.6973 12.3652C39.4614 12.6419 39.3438 12.9793 39.3438 13.3779C39.3438 14.1022 39.7262 14.7415 40.4912 15.2949C41.606 16.1003 42.7981 16.5075 44.0674 16.5156C43.8883 15.4414 43.5384 14.4766 43.0176 13.6221C42.3504 12.5155 41.5652 11.9585 40.6621 11.9502ZM6.61621 4.06445L5.55469 4.93164L7.33691 6.49414L7.60547 7.48242H4.11426L3.8457 6.4082H5.38379L3.97949 4.99219L6.28711 3.06348L6.61621 4.06445ZM75.0977 4.06445L74.0361 4.93164L75.8184 6.49414L76.0869 7.48242H72.5957L72.3271 6.4082H73.8652L72.4609 4.99219L74.7686 3.06348L75.0977 4.06445ZM49.9873 6.78711H46.9111L46.2031 3.88184H49.2061L49.9873 6.78711ZM54.2109 6.78711H51.1475L50.415 3.88184H53.4297L54.2109 6.78711ZM83.8867 6.64062H80.8223L80.1025 3.74707H83.1172L83.8867 6.64062ZM39.3682 6.49316H36.292L35.584 3.58789H38.5869L39.3682 6.49316ZM43.5918 6.49316H40.5273L39.7949 3.58789H42.8105L43.5918 6.49316ZM19.2383 6.43262H16.1621L15.4541 3.53906H18.4697L19.2383 6.43262ZM51.1719 2.90527H48.083L47.3877 0H50.3906L51.1719 2.90527Z" fill="white"/>
</svg>
