<svg width="160" height="25" viewBox="0 0 160 25" fill="none" xmlns="http://www.w3.org/2000/svg">
<path d="M106.021 10.0059C107.754 8.47263 109.395 7.70518 110.943 7.70508C111.633 7.70508 112.263 7.86648 112.83 8.18848C113.412 8.51037 113.895 8.94734 114.278 9.49902C114.677 10.051 114.953 10.6804 115.106 11.3857C115.275 12.091 115.283 12.8272 115.13 13.5938C115.007 14.207 114.831 14.7746 114.601 15.2959C115.107 15.3419 115.758 15.3643 116.556 15.3643H117.033C118.045 15.3643 118.805 15.1957 119.311 14.8584C119.816 14.5211 120.145 13.9614 120.299 13.1797L120.966 9.77539H123.635L122.921 13.3867C122.645 14.7051 123.205 15.3643 124.601 15.3643C125.26 15.3642 125.766 15.2109 126.118 14.9043C126.486 14.5823 126.732 14.0686 126.854 13.3633L127.567 9.77539H130.235L129.522 13.3867C129.262 14.7052 129.76 15.3643 131.018 15.3643C131.554 15.3642 131.976 15.2189 132.282 14.9277C132.589 14.6211 132.811 14.1145 132.949 13.4092L133.616 9.77539H136.284L135.502 13.9385C134.904 17.0816 133.325 18.6532 130.765 18.6533C130.029 18.6533 129.399 18.5234 128.878 18.2627C128.357 17.9867 127.966 17.6109 127.705 17.1357C126.938 18.1475 125.835 18.6533 124.394 18.6533C123.642 18.6533 122.982 18.5153 122.415 18.2393C121.863 17.9633 121.442 17.5876 121.15 17.1123C120.721 17.6643 120.138 18.0633 119.402 18.3086C118.682 18.5386 117.769 18.6533 116.665 18.6533H115.884L115.883 18.6523C114.93 18.6516 114.15 18.614 113.543 18.5381C112.93 18.4614 112.401 18.3161 111.956 18.1016C111.174 18.4695 110.285 18.6533 109.288 18.6533H96.6455C95.8635 20.5699 94.7213 22.0187 93.2188 23C91.7161 23.9967 89.9141 24.4951 87.8135 24.4951C87.5224 24.4951 87.2773 24.4798 87.0781 24.4492C86.8942 24.4339 86.7327 24.4115 86.5947 24.3809L86.7559 21.3906C87.2157 21.4826 87.7216 21.5283 88.2734 21.5283C89.5461 21.5283 90.6425 21.2674 91.5625 20.7461C92.4978 20.2401 93.2186 19.5427 93.7246 18.6533H92.1377C91.187 18.6533 90.3586 18.3924 89.6533 17.8711C88.9636 17.3345 88.4577 16.6295 88.1357 15.7559C87.8137 14.8819 87.7528 13.9154 87.9521 12.8574C88.1361 11.9222 88.4733 11.1098 88.9639 10.4199C89.4545 9.71466 90.0597 9.16946 90.7803 8.78613C91.5162 8.38753 92.3215 8.18854 93.1953 8.18848C94.2685 8.18848 95.1661 8.47184 95.8867 9.03906C96.6226 9.60633 97.1364 10.4116 97.4277 11.4541C97.7344 12.4814 97.7729 13.7007 97.543 15.1113L97.4971 15.3643H101.146L102.479 13.8467L105.147 0.0234375H107.977L106.021 10.0059ZM9.86621 13.3174C9.71291 14.0685 9.76683 14.5976 10.0273 14.9043C10.288 15.211 10.8098 15.3643 11.5918 15.3643H15.1836C14.9537 14.9044 14.8003 14.3904 14.7236 13.8232C14.6471 13.2562 14.6633 12.6891 14.7705 12.1221C15.0465 10.7728 15.6364 9.7068 16.541 8.9248C17.461 8.12747 18.5655 7.72852 19.8535 7.72852C20.8807 7.7286 21.7703 8.01283 22.5215 8.58008C23.2879 9.13204 23.8395 9.86827 24.1768 10.7881C24.5293 11.7079 24.5912 12.7195 24.3613 13.8232C24.0393 15.4025 23.3337 16.6066 22.2451 17.4346C21.1718 18.2472 19.7455 18.6533 17.9668 18.6533H11.665L11.6621 18.6514L11.6602 18.6533H11.2002C10.1883 18.6533 9.33743 18.4848 8.64746 18.1475C7.9728 17.8101 7.47434 17.335 7.15234 16.7217H4.55371C3.54171 16.7217 2.65954 16.476 1.9082 15.9854C1.17232 15.4947 0.63515 14.8276 0.297852 13.9844C-0.0240123 13.1258 -0.0850434 12.1672 0.114258 11.1094C0.390278 9.6989 1.05739 8.59513 2.11523 7.79785C3.17316 7.00057 4.53781 6.60162 6.20898 6.60156H8.2793L8.55566 5.17578H11.4307L9.86621 13.3174ZM30.2256 12.9951C30.057 13.8689 30.1342 14.4823 30.4561 14.835C30.7781 15.1876 31.4298 15.3643 32.4111 15.3643H34.4502C34.1589 14.4749 34.097 13.547 34.2656 12.5811C34.419 11.7072 34.7418 10.9405 35.2324 10.2812C35.7383 9.6221 36.3589 9.10818 37.0947 8.74023C37.846 8.37227 38.6512 8.18851 39.5098 8.18848C40.5218 8.18848 41.4039 8.44937 42.1553 8.9707C42.9064 9.47668 43.4579 10.159 43.8105 11.0176C44.1632 11.8762 44.2322 12.8194 44.0176 13.8467C43.9102 14.3832 43.7264 14.889 43.4658 15.3643H45.6748C46.5795 15.3643 47.2546 15.2029 47.6992 14.8809C48.159 14.5435 48.4658 13.984 48.6191 13.2021L49.4932 8.85547H52.2988L51.333 13.7314C51.103 14.9273 50.7426 15.8858 50.252 16.6064C49.7766 17.327 49.14 17.848 48.3428 18.1699C47.5454 18.4919 46.5333 18.6533 45.3066 18.6533H41.3271C40.2691 18.6533 39.3027 18.5538 38.4287 18.3545C37.9535 18.4465 37.4476 18.5227 36.9111 18.584C36.3745 18.63 35.8607 18.6533 35.3701 18.6533H32.1035L32.0967 18.6494L32.0889 18.6533H31.7441C29.9348 18.6533 28.6547 18.1549 27.9033 17.1582C27.1674 16.1462 26.9827 14.6822 27.3506 12.7656L29.835 0.0234375H32.7559L30.2256 12.9951ZM69.2979 13.3174C69.1446 14.0685 69.1985 14.5976 69.459 14.9043C69.7197 15.211 70.2414 15.3643 71.0234 15.3643H72.2236C73.1283 15.3643 73.8034 15.2038 74.248 14.8818C74.7079 14.5446 75.0146 13.9848 75.168 13.2031L76.042 8.85547H78.8477L77.8818 13.7314C77.6519 14.9274 77.2914 15.8858 76.8008 16.6064C76.3254 17.3271 75.6889 17.8489 74.8916 18.1709C74.0943 18.4928 73.082 18.6533 71.8555 18.6533H70.6318C69.6199 18.6533 68.7691 18.4848 68.0791 18.1475C67.4044 17.8101 66.906 17.335 66.584 16.7217H63.9854C62.9734 16.7217 62.0912 16.476 61.3398 15.9854C60.604 15.4947 60.0668 14.8276 59.7295 13.9844C59.4076 13.1258 59.3466 12.1672 59.5459 11.1094C59.8219 9.6989 60.489 8.59513 61.5469 7.79785C62.6048 7.00057 63.9694 6.60162 65.6406 6.60156H67.7109L67.9873 5.17578H70.8623L69.2979 13.3174ZM83.5674 18.6533H80.6465L84.2803 0.0234375H87.2012L83.5674 18.6533ZM145.805 6.64746C146.464 5.89614 146.971 5.27484 147.323 4.78418C147.691 4.29351 147.959 3.85599 148.128 3.47266C148.312 3.07421 148.442 2.67579 148.519 2.27734L148.956 0.0234375H151.854L151.394 2.3457C151.286 2.88225 151.149 3.3809 150.98 3.84082C150.827 4.30067 150.605 4.77611 150.313 5.2666C150.022 5.74194 149.623 6.28706 149.117 6.90039C148.627 7.51368 147.99 8.25696 147.208 9.13086L148.657 11.707C149.5 13.1329 149.792 14.4823 149.531 15.7549C149.347 16.6901 148.903 17.411 148.197 17.917C147.507 18.4076 146.587 18.6533 145.438 18.6533H137.847L137.249 15.7783L142.516 10.2119C142.776 9.93591 143.022 9.67502 143.252 9.42969C143.482 9.1844 143.704 8.94676 143.919 8.7168L139.688 1.54102L142.079 0L145.805 6.64746ZM155.6 18.6533H152.679L156.312 0.0234375H159.233L155.6 18.6533ZM39.3721 11.1553C38.7742 11.1553 38.2603 11.3391 37.8311 11.707C37.4017 12.0597 37.1256 12.543 37.0029 13.1562C36.8649 13.8616 36.9725 14.4595 37.3252 14.9502C37.6779 15.4255 38.2068 15.6631 38.9121 15.6631C39.5101 15.6631 40.0238 15.4793 40.4531 15.1113C40.8977 14.7434 41.1739 14.2528 41.2812 13.6396C41.4192 12.9497 41.3116 12.3669 40.959 11.8916C40.6063 11.401 40.0774 11.1553 39.3721 11.1553ZM93.0117 11.1553C92.4292 11.1553 91.9234 11.3473 91.4941 11.7305C91.0649 12.1137 90.7887 12.6196 90.666 13.248C90.5433 13.9074 90.6662 14.4596 91.0342 14.9043C91.4175 15.3489 91.9384 15.5713 92.5977 15.5713H94.6221L94.9209 13.8232C95.0588 13.026 94.9512 12.3822 94.5986 11.8916C94.246 11.4009 93.7171 11.1553 93.0117 11.1553ZM144.747 11.7764L141.182 15.5713H145.322C146.288 15.5712 146.832 15.295 146.955 14.7432C147.016 14.3292 146.848 13.7536 146.449 13.0176L145.345 11.1318C145.161 11.3312 144.962 11.5464 144.747 11.7764ZM110.483 10.6729C109.824 10.6729 109.15 10.9025 108.46 11.3623C107.77 11.8223 106.95 12.5817 105.999 13.6396L104.458 15.3643H109.587C110.353 15.3642 110.997 15.1724 111.519 14.7891C112.055 14.3904 112.385 13.8542 112.508 13.1797C112.63 12.5051 112.492 11.9223 112.094 11.4316C111.695 10.9256 111.158 10.6729 110.483 10.6729ZM19.7607 10.5576C19.1476 10.5577 18.6184 10.7567 18.1738 11.1553C17.7445 11.5386 17.4684 12.0452 17.3457 12.6738C17.2231 13.4097 17.354 14.0383 17.7373 14.5596C18.1206 15.0655 18.6416 15.3183 19.3008 15.3184C19.8988 15.3184 20.4206 15.1194 20.8652 14.7207C21.3099 14.3067 21.586 13.7849 21.6934 13.1562C21.8312 12.4358 21.7084 11.8223 21.3252 11.3164C20.9572 10.8105 20.4354 10.5576 19.7607 10.5576ZM5.47363 9.61426C3.90964 9.61426 3.01223 10.2203 2.78223 11.4316C2.67492 12.0908 2.80506 12.6199 3.17285 13.0186C3.54085 13.4019 4.08597 13.5938 4.80664 13.5938H6.94531L7.7041 9.61426H5.47363ZM64.9053 9.61426C63.3413 9.61426 62.4439 10.2203 62.2139 11.4316C62.1066 12.0908 62.2367 12.6199 62.6045 13.0186C62.9725 13.4019 63.5176 13.5938 64.2383 13.5938H66.377L67.1357 9.61426H64.9053ZM80.1357 4.80762L77.8125 6.7627L76.2031 4.78418L78.5254 2.80664L80.1357 4.80762ZM54.0469 2.09277L51.9766 3.81836H54.875L54.415 6.1416H48.2734L48.7109 3.81836H51.6553L50.2285 2.04688L52.5059 0.161133L54.0469 2.09277ZM22.291 3.68066L19.9678 5.63574L18.3584 3.65723L20.6807 1.67969L22.291 3.68066ZM43.0293 5.6123H37.0947L37.5781 3.15137H43.5117L43.0293 5.6123ZM11.2002 2.59961H5.2666L5.74902 0.138672H11.6836L11.2002 2.59961ZM70.6318 2.59961H64.6982L65.1807 0.138672H71.1152L70.6318 2.59961Z" fill="white"/>
</svg>
