<svg width="195" height="37" viewBox="0 0 195 37" fill="none" xmlns="http://www.w3.org/2000/svg">
<path d="M126.088 1.38867C126.088 1.7168 125.994 2.2793 125.807 3.07617C126.006 3.50977 126.803 4.23633 128.197 5.25586L129.111 5.95898C128.701 7.69336 128.396 8.56055 128.197 8.56055C127.518 8.00977 127.049 7.6582 126.791 7.50586C128.104 14.127 128.76 18.416 128.76 20.373C128.76 21.252 128.613 22.3711 128.32 23.7305C133.23 19.4766 136.939 17.3496 139.447 17.3496C140.045 17.3496 140.66 17.502 141.293 17.8066L141.328 17.8418C141.832 18.0762 142.553 18.7441 143.49 19.8457C143.584 20.1387 143.631 20.3496 143.631 20.4785V21.041C143.771 22.1426 143.115 23.3672 141.662 24.7148H146.479C149.666 24.5625 151.828 23.291 152.965 20.9004L153.316 20.6191H153.387C153.387 21.1934 153.105 22.1543 152.543 23.502C153.41 23.6426 154.113 23.7363 154.652 23.7832C156.68 23.7832 157.992 22.7285 158.59 20.6191C158.871 20.0098 159.035 19.7051 159.082 19.7051L159.152 19.8457C159.152 19.9629 159.035 20.5254 158.801 21.5332C159.363 22.4238 160.418 23.0801 161.965 23.502H162.035V23.4316C162.035 23.1152 161.941 22.5059 161.754 21.6035C162.012 20.3027 162.34 19.3652 162.738 18.791C162.914 18.791 163.055 19.8691 163.16 22.0254V22.8691C162.785 25.3535 162.199 26.5957 161.402 26.5957C160.266 26.5957 159.047 25.8926 157.746 24.4863L157.676 24.2051H157.605C157.266 25.1309 156.68 25.834 155.848 26.3145C155.191 26.6426 154.465 26.8066 153.668 26.8066C151.746 26.6074 150.785 26.3965 150.785 26.1738L150.855 25.8223C149.847 26.7544 148.523 27.2988 146.884 27.459L146.883 27.4922C144.621 27.5977 139.594 27.5918 131.801 27.4746L124.347 27.4912L124.348 27.4922C123.48 27.6328 122.561 27.709 121.588 27.7207C121.553 27.8965 121.523 28.0898 121.5 28.3008C121.359 29.6484 120.387 31.3359 118.582 33.3633C116.449 35.7656 114.439 36.9668 112.553 36.9668C110.326 36.9668 107.52 36.4277 104.133 35.3496C104.098 35.2676 104.08 35.1855 104.08 35.1035C105.029 35.209 105.938 35.2617 106.805 35.2617C110.062 35.2617 112.904 34.5293 115.33 33.0645C117.768 31.6113 119.449 29.8359 120.375 27.7383L119.777 27.7207C116.777 27.7207 114.949 27.0879 114.293 25.8223C114.246 25.7402 114.223 25.5527 114.223 25.2598C114.41 23.5605 114.949 22.1309 115.84 20.9707C116.648 20.2207 117.445 19.8457 118.23 19.8457C119.426 19.8457 120.527 21.2051 121.535 23.9238L121.676 24.6973L124.285 24.7139L127.512 24.6445L127.811 24.2402C127.834 23.7715 127.846 23.291 127.846 22.7988C127.846 20.1387 126.861 14.3379 124.893 5.39648C124.893 4.77539 125.244 3.46289 125.947 1.45898L126.088 1.38867ZM183.375 0C183.375 0.785156 184.312 1.58203 186.188 2.39062C186.422 2.57812 186.539 2.69531 186.539 2.74219C186.539 3.32812 186.258 4.28906 185.695 5.625H185.484C185.215 5.39062 184.84 5.10938 184.359 4.78125C184.359 9.90234 183.451 14.4551 181.635 18.4395C181.226 19.3402 180.824 20.157 180.433 20.8916C181.308 22.6489 181.956 24.0044 182.373 24.9609L182.443 27.5625C177.287 28.4062 174.047 28.8281 172.723 28.8281H172.6L173.162 26.0156C173.385 26.0156 173.666 25.9336 174.006 25.7695L174.028 25.7666C174.696 25.4376 175.585 24.7768 176.695 23.7832C177.426 23.1171 178.178 22.1311 178.951 20.8262C176.133 15.7215 173.262 11.6145 170.332 8.50781L169.4 9.22852C168.17 8.23242 167.379 7.33594 167.027 6.53906L167.01 5.83594C167.01 4.35938 167.789 3.00586 169.348 1.77539C173.191 7.58789 176.145 12.498 178.207 16.5059C178.757 17.5712 179.258 18.5533 179.712 19.4512C180.095 18.7147 180.485 17.9035 180.879 17.0156C182.168 14.1094 182.812 10.7695 182.812 6.99609C182.812 4.6875 182.695 3.45703 182.461 3.30469V2.88281C182.461 2.32031 182.742 1.35938 183.305 0H183.375ZM19.793 13.5C21.2812 13.5 22.6875 15.2344 24.0117 18.7031C24.2461 19.3359 24.3633 19.9922 24.3633 20.6719C24.3633 22.0898 23.8711 23.707 22.8867 25.5234C22.1602 26.2383 20.918 26.7773 19.1602 27.1406C18.2227 27.375 17.2617 27.4922 16.2773 27.4922H15.6797L14.8184 27.5098C12.334 27.5098 10.582 26.959 9.5625 25.8574C8.55469 24.7559 7.88086 23.3438 7.54102 21.6211C7.54102 22.3477 7.03711 23.1328 6.0293 23.9766C5.49023 24.2461 4.96875 24.3809 4.46484 24.3809C3.55078 24.3809 2.19141 24.0762 0.386719 23.4668C0.386719 22.4707 0.837891 21.4219 1.74023 20.3203C2.6543 19.2188 3.70898 18.3984 4.9043 17.8594C6.11133 17.3203 6.75 16.957 6.82031 16.7695V16.4355C6.82031 15.8965 7.08398 15 7.61133 13.7461H7.73438C7.73438 15.7852 8.26172 18.3867 9.31641 21.5508C9.87891 22.793 10.6875 23.625 11.7422 24.0469C12.9882 24.4443 14.195 24.6621 15.3623 24.7051C18.8044 24.5296 21.4532 23.936 23.3086 22.9219C23.2734 22.1836 22.875 21.0352 22.1133 19.4766C21.75 20.0859 21.1875 20.5488 20.4258 20.8652C19.6641 21.1816 18.8262 21.2344 17.9121 21.0234C17.0098 20.8008 16.5586 20.1914 16.5586 19.1953V18.7734C16.5586 17.6484 17.0273 16.2188 17.9648 14.4844C18.5273 13.8281 19.0664 13.5 19.582 13.5H19.793ZM78.5039 13.7461C78.5039 15.7852 79.0312 18.3867 80.0859 21.5508C80.6484 22.793 81.457 23.625 82.5117 24.0469C83.8128 24.4619 85.071 24.6804 86.2861 24.709C92.2369 24.5434 95.5726 24.2066 96.293 23.6953C96.293 23.4844 95.9883 22.7344 95.3789 21.4453C95.8125 19.5703 96.1406 18.6328 96.3633 18.6328C97.1602 20.0625 97.5586 21.1875 97.5586 22.0078C97.4531 23.8008 96.9727 25.1543 96.1172 26.0684C95.2905 26.9639 92.0679 27.4364 86.4492 27.4883V27.4922L85.5879 27.5098C83.1035 27.5098 81.3516 26.959 80.332 25.8574C79.3242 24.7559 78.6504 23.3438 78.3105 21.6211C78.3105 22.3477 77.8066 23.1328 76.7988 23.9766C76.2598 24.2461 75.7383 24.3809 75.2344 24.3809C74.3203 24.3809 72.9609 24.0762 71.1562 23.4668C71.1562 22.4707 71.6074 21.4219 72.5098 20.3203C73.4238 19.2188 74.4785 18.3984 75.6738 17.8594C76.8809 17.3203 77.5195 16.957 77.5898 16.7695V16.4355C77.5898 15.8965 77.8535 15 78.3809 13.7461H78.5039ZM27.6152 3.70898C27.9199 4.7168 28.1953 7.57617 28.4414 12.2871C28.6875 16.998 29.1973 20.127 29.9707 21.6738C30.8353 23.4147 32.4164 24.4272 34.7139 24.7119C35.9071 24.6184 36.9335 24.4907 37.793 24.3281C38.6719 24.1641 39.1992 24.0117 39.375 23.8711C39.375 23.2969 39.3633 22.8398 39.3398 22.5C39.3398 20.9062 40.0898 19.2715 41.5898 17.5957C43.1016 15.9199 44.2207 15.082 44.9473 15.082C45.5215 15.082 45.8848 16.2305 46.0371 18.5273C46.0371 19.8047 45.6445 21.4805 44.8594 23.5547H44.9473C46.6925 24.2163 48.4768 24.5977 50.2998 24.7041C55.9201 24.5368 59.0871 24.2018 59.8008 23.6953C59.8008 23.4844 59.4961 22.7344 58.8867 21.4453C59.3203 19.5703 59.6484 18.6328 59.8711 18.6328C60.668 20.0625 61.0664 21.1875 61.0664 22.0078C60.9609 23.8008 60.4805 25.1543 59.625 26.0684C58.7964 26.966 55.6733 27.4383 50.2559 27.4883V27.4922H47.4785C46.6699 27.4922 45.7383 27.3809 44.6836 27.1582C43.6289 26.9355 42.7207 26.6777 41.959 26.3848C41.209 26.6777 40.1777 26.9355 38.8652 27.1582C37.6122 27.3708 36.2469 27.4806 34.7695 27.4902V27.4922L34.7373 27.4902C34.6779 27.4906 34.6183 27.4922 34.5586 27.4922V27.4814L33.3105 27.4219C30.6035 27.2695 28.9453 25.793 28.3359 22.9922C27.9961 21.6562 27.6445 18.6152 27.2812 13.8691C26.9297 9.12305 26.6602 6.75 26.4727 6.75L26.1035 6.92578L26.0508 6.78516C26.543 4.74609 27.0527 3.7207 27.5801 3.70898H27.6152ZM101.971 2.17969C102.193 2.17969 102.305 2.41992 102.305 2.90039V3.00586C102.281 3.24023 102.27 3.46289 102.27 3.67383C102.27 4.00195 102.709 6.42773 103.588 10.9512L104.15 15.1699C104.467 17.7012 104.66 19.6816 104.73 21.1113C104.73 22.0488 104.713 22.8223 104.678 23.4316C104.584 25.0605 104.344 26.25 103.957 27C103.84 27.2461 103.711 27.4102 103.57 27.4922H103.535C103.441 27.4922 103.395 27.4336 103.395 27.3164C103.207 24.3398 102.955 21.6973 102.639 19.3887C102.463 17.9824 102.281 16.5879 102.094 15.2051C101.918 13.8223 101.391 10.8984 100.512 6.43359L100.529 6.36328C100.635 5.58984 100.811 4.88672 101.057 4.25391C101.537 2.87109 101.842 2.17969 101.971 2.17969ZM191.654 2.17969C191.877 2.17969 191.988 2.41992 191.988 2.90039V3.00586C191.965 3.24023 191.953 3.46289 191.953 3.67383C191.953 4.00195 192.393 6.42773 193.271 10.9512L193.834 15.1699C194.15 17.7012 194.344 19.6816 194.414 21.1113C194.414 22.0488 194.396 22.8223 194.361 23.4316C194.268 25.0605 194.027 26.25 193.641 27C193.523 27.2461 193.395 27.4102 193.254 27.4922H193.219C193.125 27.4922 193.078 27.4336 193.078 27.3164C192.891 24.3398 192.639 21.6973 192.322 19.3887C192.146 17.9824 191.965 16.5879 191.777 15.2051C191.602 13.8223 191.074 10.8984 190.195 6.43359L190.213 6.36328C190.318 5.58984 190.494 4.88672 190.74 4.25391C191.221 2.87109 191.525 2.17969 191.654 2.17969ZM179.694 22.1963C178.705 23.8327 177.777 24.9073 176.906 25.418L176.885 25.4199L176.748 25.5234C177.064 25.5234 178.518 25.3301 181.107 24.9434C180.638 23.9992 180.166 23.084 179.694 22.1963ZM138.463 20.0215C136.436 20.0918 133.365 21.6855 129.252 24.8027L129.199 24.8555C134.062 24.3984 138.451 23.502 142.365 22.166C141.756 21.4746 141.141 20.9238 140.52 20.5137C139.84 20.1855 139.154 20.0215 138.463 20.0215ZM117.105 22.8691C116.789 22.8691 116.32 23.0332 115.699 23.3613C116.672 24.2051 117.938 24.627 119.496 24.627V24.5566C118.746 23.4316 117.949 22.8691 117.105 22.8691ZM43.8398 18.457C43.2891 18.457 42.1934 19.2422 40.5527 20.8125C40.5527 21.6445 41.3906 22.3477 43.0664 22.9219C44.2617 22.3594 44.8594 21.8379 44.8594 21.3574C44.8594 19.6348 44.5195 18.668 43.8398 18.457ZM6.94336 17.9824C6.63867 19.0254 5.30859 20.0742 2.95312 21.1289C3.66797 21.293 4.37695 21.375 5.08008 21.375C5.34961 21.375 5.79492 21.3516 6.41602 21.3047C7.03711 21.2461 7.34766 21.0117 7.34766 20.6016C7.07812 19.1719 6.94336 18.2988 6.94336 17.9824ZM77.7129 17.9824C77.4082 19.0254 76.0781 20.0742 73.7227 21.1289C74.4375 21.293 75.1465 21.375 75.8496 21.375C76.1191 21.375 76.5645 21.3516 77.1855 21.3047C77.8066 21.2461 78.1172 21.0117 78.1172 20.6016C77.8477 19.1719 77.7129 18.2988 77.7129 17.9824ZM18.7383 16.5234C18.375 16.5234 18.0469 16.6641 17.7539 16.9453C18.2578 17.6484 19.084 18.0703 20.2324 18.2109C20.2559 17.543 20.3496 17.2734 20.5137 17.4023C20.0801 16.8164 19.582 16.5234 19.0195 16.5234H18.7383ZM55.0547 11.4082C55.1133 11.4082 55.1543 11.4258 55.1777 11.4609L57.2168 13.1133C57.2637 13.1602 57.2871 13.2012 57.2871 13.2363C57.2871 13.2715 57.041 13.5996 56.5488 14.2207C56.0566 14.8301 55.7812 15.1348 55.7227 15.1348C55.6992 15.1348 54.9785 14.5605 53.5605 13.4121C53.5137 13.3652 53.4902 13.3301 53.4902 13.3066C53.4902 13.248 53.5137 13.1953 53.5605 13.1484L54.9141 11.4961C54.9727 11.4375 55.0195 11.4082 55.0547 11.4082ZM93.1992 11.1621C93.2578 11.1621 93.2988 11.1797 93.3223 11.2148L95.3965 12.9375C95.4434 12.9844 95.4668 13.0254 95.4668 13.0605C95.4668 13.1074 95.2148 13.4531 94.7109 14.0977C94.2188 14.7305 93.9434 15.0469 93.8848 15.0469C93.8613 15.0469 93.123 14.4492 91.6699 13.2539C91.623 13.207 91.5996 13.166 91.5996 13.1309C91.5996 13.0723 91.623 13.0195 91.6699 12.9727L93.0586 11.25C93.1172 11.1914 93.1641 11.1621 93.1992 11.1621ZM58.8691 11.1094C58.916 11.1094 58.9512 11.127 58.9746 11.1621L61.0137 12.8145C61.0605 12.8613 61.084 12.8965 61.084 12.9199C61.084 12.9668 60.8379 13.3008 60.3457 13.9219C59.8535 14.5312 59.584 14.8359 59.5371 14.8359C59.5137 14.8359 58.7871 14.2617 57.3574 13.1133C57.3105 13.0664 57.2871 13.0254 57.2871 12.9902C57.2871 12.9434 57.3105 12.8965 57.3574 12.8496L58.7285 11.1973C58.7871 11.1387 58.834 11.1094 58.8691 11.1094ZM41.8535 10.248C41.9121 10.248 41.9531 10.2656 41.9766 10.3008L44.0508 12.0234C44.0977 12.0703 44.1211 12.1113 44.1211 12.1465C44.1211 12.1934 43.8691 12.5391 43.3652 13.1836C42.873 13.8164 42.5977 14.1328 42.5391 14.1328C42.5156 14.1328 41.7773 13.5352 40.3242 12.3398C40.2773 12.293 40.2539 12.252 40.2539 12.2168C40.2539 12.1582 40.2773 12.1055 40.3242 12.0586L41.7129 10.3359C41.7715 10.2773 41.8184 10.248 41.8535 10.248ZM1.59961 10.1602C1.6582 10.1602 1.69922 10.1777 1.72266 10.2129L3.79688 11.9355C3.84375 11.9824 3.86719 12.0234 3.86719 12.0586C3.86719 12.1055 3.61523 12.4512 3.11133 13.0957C2.61914 13.7285 2.34375 14.0449 2.28516 14.0449C2.26172 14.0449 1.52344 13.4473 0.0703125 12.252C0.0234375 12.2051 0 12.1641 0 12.1289C0 12.0703 0.0234375 12.0176 0.0703125 11.9707L1.45898 10.248C1.51758 10.1895 1.56445 10.1602 1.59961 10.1602ZM72.3691 10.1602C72.4277 10.1602 72.4688 10.1777 72.4922 10.2129L74.5664 11.9355C74.6133 11.9824 74.6367 12.0234 74.6367 12.0586C74.6367 12.1055 74.3848 12.4512 73.8809 13.0957C73.3887 13.7285 73.1133 14.0449 73.0547 14.0449C73.0312 14.0449 72.293 13.4473 70.8398 12.252C70.793 12.2051 70.7695 12.1641 70.7695 12.1289C70.7695 12.0703 70.793 12.0176 70.8398 11.9707L72.2285 10.248C72.2871 10.1895 72.334 10.1602 72.3691 10.1602ZM45.7383 9.93164C45.7969 9.93164 45.8379 9.94922 45.8613 9.98438L47.9355 11.707C47.9824 11.7539 48.0059 11.7949 48.0059 11.8301C48.0059 11.877 47.7539 12.2227 47.25 12.8672C46.7578 13.5 46.4824 13.8164 46.4238 13.8164C46.4004 13.8164 45.6621 13.2188 44.209 12.0234C44.1621 11.9766 44.1387 11.9355 44.1387 11.9004C44.1387 11.8418 44.1621 11.7891 44.209 11.7422L45.5977 10.0195C45.6562 9.96094 45.7031 9.93164 45.7383 9.93164ZM5.48438 9.84375C5.54297 9.84375 5.58398 9.86133 5.60742 9.89648L7.68164 11.6191C7.72852 11.666 7.75195 11.707 7.75195 11.7422C7.75195 11.7891 7.5 12.1348 6.99609 12.7793C6.50391 13.4121 6.22852 13.7285 6.16992 13.7285C6.14648 13.7285 5.4082 13.1309 3.95508 11.9355C3.9082 11.8887 3.88477 11.8477 3.88477 11.8125C3.88477 11.7539 3.9082 11.7012 3.95508 11.6543L5.34375 9.93164C5.40234 9.87305 5.44922 9.84375 5.48438 9.84375ZM76.2539 9.84375C76.3125 9.84375 76.3535 9.86133 76.377 9.89648L78.4512 11.6191C78.498 11.666 78.5215 11.707 78.5215 11.7422C78.5215 11.7891 78.2695 12.1348 77.7656 12.7793C77.2734 13.4121 76.998 13.7285 76.9395 13.7285C76.916 13.7285 76.1777 13.1309 74.7246 11.9355C74.6777 11.8887 74.6543 11.8477 74.6543 11.8125C74.6543 11.7539 74.6777 11.7012 74.7246 11.6543L76.1133 9.93164C76.1719 9.87305 76.2188 9.84375 76.2539 9.84375ZM56.4434 7.875C56.4902 7.875 56.8711 8.16797 57.5859 8.75391C58.3008 9.33984 58.6582 9.65625 58.6582 9.70312C58.6582 9.75 58.6406 9.79102 58.6055 9.82617L57.252 11.4961C57.2051 11.5664 57.1582 11.6016 57.1113 11.6016C57.0879 11.6016 56.707 11.3027 55.9688 10.7051C55.2305 10.1074 54.8613 9.79102 54.8613 9.75586C54.8613 9.70898 54.8848 9.66211 54.9316 9.61523L56.3027 7.96289C56.3379 7.9043 56.3848 7.875 56.4434 7.875ZM17.4023 7.20703C17.4609 7.20703 17.502 7.22461 17.5254 7.25977L19.5996 8.98242C19.6465 9.0293 19.6699 9.07031 19.6699 9.10547C19.6699 9.15234 19.418 9.49805 18.9141 10.1426C18.4219 10.7754 18.1465 11.0918 18.0879 11.0918C18.0645 11.0918 17.3262 10.4941 15.873 9.29883C15.8262 9.25195 15.8027 9.21094 15.8027 9.17578C15.8027 9.11719 15.8262 9.06445 15.873 9.01758L17.2617 7.29492C17.3203 7.23633 17.3672 7.20703 17.4023 7.20703Z" fill="white"/>
</svg>
