<svg width="104" height="16" viewBox="0 0 104 16" fill="none" xmlns="http://www.w3.org/2000/svg">
<path d="M76.5145 1.86787C76.544 1.92812 76.5491 2.09971 76.5286 2.38002C76.5184 2.55031 76.5145 2.67605 76.5145 2.75727C76.5145 3.18952 76.5978 3.57069 76.7645 3.90209C76.9517 4.27409 77.2119 4.52034 77.5465 4.64085L77.5914 5.06263L76.7658 5.66517L76.5594 8.12509C77.9862 7.20819 79.2938 6.57945 80.4809 6.23758C81.8578 6.76938 82.6244 7.85526 82.7808 9.49128H83.6666H84.7563L85.7293 7.99935L85.8921 8.07532L85.4345 9.49128C86.5062 9.4808 87.2626 9.39042 87.7048 9.22014C88.2651 9.00925 88.6676 8.59795 88.9137 7.98494L89.0471 8.01506L88.7522 9.43103L92.2469 10.5012L90.5508 7.47278L91.7495 6.27687C92.002 6.71699 92.1776 7.20033 92.2764 7.72951C92.3648 8.22202 92.4097 8.88481 92.4097 9.71789V10.0794L91.4213 13.3488L88.2805 12.2643L88.6779 10.8784L87.5574 12.8668C86.9152 12.855 86.3793 12.7397 85.9498 12.521C85.5563 12.3206 85.1883 11.984 84.8448 11.5111L84.4307 12.8668H83.6436C79.2631 13.2886 76.5901 12.8603 75.6248 11.5844C74.7082 12.077 74.0762 12.3992 73.7275 12.5485C73.3544 12.7188 72.9468 12.8655 72.5045 12.986C72.0712 13.1065 71.6097 13.2126 71.1187 13.303C70.6264 13.3829 70.1059 13.4445 69.5547 13.4838C69.0047 13.5244 68.424 13.544 67.815 13.544C65.446 13.5086 63.2628 12.893 61.2655 11.701L61.268 12.3992C60.9244 13.9357 60.4129 15.1368 59.7348 16L56.4016 15.8638L56.1658 14.9298C57.0696 14.7897 57.8618 14.5526 58.54 14.2212C59.3656 13.8191 60.2155 13.2021 61.0911 12.3677L58.8797 12.3979C58.1323 12.3979 57.567 12.2826 57.1837 12.0508C56.7016 11.7691 56.4606 11.3028 56.4606 10.6492C56.4606 9.83578 56.608 9.06165 56.9029 8.32943C57.1388 7.71641 57.4631 7.16889 57.8759 6.68686C58.2105 6.27556 58.5451 5.97429 58.8784 5.78305C60.0476 6.29521 60.8386 7.37454 61.2513 9.02235V9.51224C63.1397 10.23 65.4742 10.5903 68.256 10.5903C68.8355 10.5903 69.397 10.5693 69.9367 10.53C70.4867 10.4894 71.0136 10.4305 71.5148 10.3492C72.0263 10.2589 72.5122 10.1528 72.9737 10.0323L75.3159 9.32231C75.3159 9.19525 75.312 9.07212 75.3095 8.95293L75.2441 5.34687C75.1056 5.15563 75.0082 4.98928 74.9492 4.84912C74.9005 4.69849 74.8749 4.51772 74.8749 4.30684C74.8749 4.1156 74.8954 3.9309 74.9351 3.75014L76.0261 1.88228L76.5132 1.86656L76.5145 1.86787ZM14.685 3.72133L14.2722 7.8343L14.2427 8.46697C17.1528 9.68252 20.0424 10.289 22.9127 10.289C23.4921 10.289 24.0536 10.2693 24.5934 10.2287C25.1433 10.1881 25.6702 10.1292 26.1715 10.048C26.683 9.95759 27.1701 9.85149 27.6316 9.73099L28.8072 9.3747C28.8944 8.48269 29.1418 7.70725 29.5495 7.04969C29.9225 6.44716 30.3648 5.97953 30.8763 5.64814C31.3968 5.75817 31.875 5.99525 32.307 6.35677C32.6608 6.66852 32.9454 7.03005 33.1621 7.44134C33.3582 7.80287 33.4569 8.09889 33.4569 8.33074L32.8813 9.48997H36.8375L35.5401 7.14007L36.749 5.91928C36.9849 6.25068 37.1862 6.76283 37.3541 7.45706C37.4913 8.0596 37.5605 8.58748 37.5605 9.03938V10.0493L36.7208 12.8668H34.2287L34.221 12.855C33.2838 12.7908 32.4044 12.4542 31.5852 11.8425L30.7032 11.0946C29.5302 11.7036 28.7572 12.0887 28.3854 12.2499C28.0124 12.4201 27.6034 12.5668 27.1611 12.6874C26.7291 12.8079 26.2663 12.914 25.7753 13.0043C25.2843 13.0842 24.7626 13.1445 24.2126 13.1851C23.6626 13.2257 23.0819 13.2454 22.473 13.2454C19.1116 13.1956 16.0926 12.4869 13.4197 11.1208L12.8146 3.40696L14.7311 2.06566L14.6863 3.72264L14.685 3.72133ZM54.6505 4.49022L54.2813 11.0893L54.1774 13.1694L53.2339 13.1995L52.7762 4.17454L54.6928 2.83324L54.6479 4.49022H54.6505ZM103.956 4.49022L103.587 11.0893L103.483 13.1694L102.54 13.1995L102.082 4.17454L104 2.83324L103.955 4.49022H103.956ZM9.48147 3.14892C10.2289 3.14892 10.8532 3.54056 11.3544 4.32386C11.8557 5.11764 12.1069 6.10266 12.1069 7.27761C12.1069 8.63332 11.4724 10.492 10.2045 12.8524V12.8668L6.78933 12.8524L6.78163 12.8668H5.10097L4.4228 9.97462L3.47927 12.8524C2.64343 12.762 1.91655 12.6205 1.29736 12.4306C0.74739 12.2499 0.314083 12.039 0 11.798C0 10.7933 0.0692265 10.0558 0.206398 9.58297C0.393565 8.89005 0.771747 8.38838 1.34094 8.07663L3.68567 6.78117L3.53824 6.19435L4.45357 4.86877L4.79201 4.80851C4.92021 5.68219 5.12661 6.9174 5.41121 8.51543C5.48941 8.94769 5.54838 9.27384 5.58812 9.49521H6.49447L6.50345 9.47949L9.40839 9.49521C10.5288 9.50569 11.2314 9.35375 11.5172 9.04331C11.498 8.73156 11.4583 8.44077 11.3993 8.16963C10.416 8.68178 9.58018 8.93852 8.89304 8.93852C8.26359 8.93852 7.7726 8.75252 7.41877 8.38183C7.05469 8.00982 6.87394 7.49243 6.87394 6.82964C6.87394 5.88522 7.1393 5.03643 7.67004 4.28326C8.20078 3.53009 8.80459 3.15284 9.48275 3.15284L9.48147 3.14892ZM45.8305 4.80589C45.9587 5.67957 46.1651 6.91478 46.4497 8.51281C46.5279 8.94507 46.5869 9.27122 46.6266 9.49259H50.343L49.0457 7.14138L50.2546 5.9219C50.4905 6.2533 50.6917 6.76545 50.8584 7.45837C50.9956 8.06091 51.0648 8.58878 51.0648 9.04069V10.0506L50.2251 12.8681H46.1395L45.4613 9.97593L44.5178 12.8537C43.6819 12.7633 42.955 12.6219 42.3358 12.4319C41.7859 12.2512 41.3526 12.0403 41.0385 11.7993C41.0385 10.7946 41.1077 10.0571 41.2449 9.58428C41.4321 8.89136 41.8102 8.38968 42.3794 8.07794L44.7242 6.78248L44.5767 6.19566L45.4921 4.87008L45.8305 4.80982V4.80589ZM99.9003 3.11879C99.9003 3.38993 99.9502 3.72657 100.049 4.12869C100.127 4.49022 100.202 4.73647 100.269 4.86746L100.299 5.39533L99.7246 5.5761V6.17863C99.7246 6.63054 99.7349 6.92657 99.7541 7.06803L99.7682 7.71641C99.8374 8.24822 100.035 8.72501 100.359 9.14679C100.389 9.18739 100.409 9.21228 100.418 9.22276V10.0506L99.5926 12.8681H94.5493V9.37339L97.9696 7.73082L95.6851 6.28473L95.3159 6.87286C95.2954 6.82309 95.1287 6.73664 94.8147 6.61613C94.5096 6.49562 94.2929 6.4 94.166 6.33058C93.9391 6.19959 93.8263 6.07384 93.8263 5.95334C93.8263 5.93369 93.8455 5.8826 93.8852 5.8027L94.8095 4.20074C95.3172 4.74695 96.6069 5.83283 98.6785 7.45968L98.7221 5.30495C98.3786 4.98404 98.2068 4.7273 98.2068 4.53606C98.2068 4.41555 98.2119 4.36054 98.2209 4.37102L99.7541 3.02972L99.9015 3.1201L99.9003 3.11879ZM3.77284 7.17151C3.55619 7.55268 3.22288 7.87491 2.77034 8.13557C2.49472 8.29668 2.01398 8.50757 1.32556 8.76824C1.09993 8.84814 0.926866 8.91363 0.808924 8.96341C1.34992 9.18477 1.8563 9.33017 2.32806 9.4009C2.62292 9.44151 3.07032 9.46639 3.67029 9.47687C3.94591 9.47687 4.16256 9.48211 4.31896 9.49259L3.77284 7.17282V7.17151ZM44.8126 7.17151C44.596 7.55268 44.2627 7.87491 43.8101 8.13557C43.5345 8.29668 43.0538 8.50757 42.3653 8.76824C42.1397 8.84814 41.9666 8.91363 41.8487 8.96341C42.3897 9.18477 42.8961 9.33017 43.3678 9.4009C43.6627 9.44151 44.1101 9.46639 44.7101 9.47687C44.9857 9.47687 45.2023 9.48211 45.3587 9.49259L44.8126 7.17282V7.17151ZM96.0813 9.49259L100.019 9.46246L98.485 8.33205L96.0813 9.49259ZM76.0274 9.41662L82.6629 9.49128C81.9744 8.82849 81.4193 8.34122 80.9976 8.03078C80.5848 7.72951 80.2053 7.5291 79.8617 7.42824L76.0286 9.41662H76.0274ZM29.2841 8.09104C29.62 8.43422 29.9302 8.70798 30.2148 8.91232L30.2533 8.93852C30.5122 9.12059 30.7481 9.24634 30.9648 9.31183C31.1814 9.29218 31.3776 9.22538 31.5545 9.11535C31.6916 9.03545 31.9032 8.87434 32.1878 8.63332C31.6083 7.63913 30.9199 7.06672 30.1238 6.91609L29.2841 8.09104ZM59.1874 8.11985C58.9515 7.91944 58.672 7.87884 58.3477 7.99935C57.9939 8.1395 57.5464 8.48138 57.0055 9.02366H59.822C59.5758 8.57176 59.3643 8.27049 59.1874 8.11985ZM30.2533 8.93852C30.2404 8.92935 30.2276 8.92149 30.2148 8.91232L30.2533 8.93852ZM9.12764 5.46869C8.7251 5.45821 8.1354 5.79091 7.35852 6.46287L10.234 6.47728C9.90964 5.81449 9.54044 5.47786 9.12764 5.46738V5.46869ZM91.7495 6.27687C91.7495 6.27687 91.7456 6.27032 91.7443 6.2677H91.7597L91.7495 6.27687ZM38.695 4.59501L37.3682 5.95072L36.299 4.85829L35.2158 5.96643L33.8889 4.61072L35.2158 3.25501L36.2849 4.34744L37.3682 3.24061L38.695 4.59632V4.59501ZM50.8161 4.17323L49.4893 5.52894L48.1624 4.17323L49.4893 2.81752L50.8161 4.17323ZM30.8686 3.87982L31.9378 2.78739L33.2646 4.1431L31.9378 5.49881L30.7802 4.31601L29.711 5.40843L28.3841 4.05272L29.711 2.69701L30.8686 3.87982ZM5.57273 3.43578L4.24589 4.79149L3.18442 3.70692L2.005 4.9133L0.678163 3.55759L2.005 2.20188L3.06648 3.28645L4.24589 2.08138L5.57273 3.43709V3.43578ZM46.6125 3.43578L45.2857 4.79149L44.2242 3.70692L43.0448 4.9133L41.7179 3.55759L43.0448 2.20188L44.1063 3.28645L45.2857 2.08138L46.6125 3.43709V3.43578ZM94.807 4.19812C94.807 4.19812 94.8006 4.19157 94.7967 4.18895H94.8121L94.8057 4.19812H94.807ZM37.5003 2.41146L36.1734 3.76717L34.8466 2.41146L36.1734 1.05575L37.5003 2.41146ZM11.0891 1.35571L9.76222 2.71142L8.43538 1.35571L9.76222 0L11.0891 1.35571Z" fill="white"/>
</svg>
