<svg width="102" height="47" viewBox="0 0 102 47" fill="none" xmlns="http://www.w3.org/2000/svg">
<path d="M15.2607 41.1455C5.57452 37.0805 0.168225 31.3055 0.00373881 24.8106C-0.166749 18.0923 5.30427 11.8419 15.4091 7.212C24.7277 2.94243 37.1334 0.396547 50.3405 0.0421687C63.5471 -0.310556 76.065 1.56823 85.5875 5.333C95.918 9.41589 101.694 15.3645 101.863 22.0825C102.034 28.8008 96.5629 35.0512 86.4581 39.6811C77.1395 43.9507 64.7338 46.4965 51.5267 46.8509C38.3199 47.2045 25.802 45.3257 16.2795 41.5609C15.9348 41.4245 15.5952 41.2861 15.2607 41.1455ZM84.3506 11.1684C84.0487 11.0422 83.7427 10.9174 83.4311 10.7936C74.6248 7.31135 62.9262 5.57752 50.4892 5.91082C38.0522 6.24412 26.4575 8.60192 17.8396 12.5504C10.1212 16.0869 5.75433 20.4984 5.85992 24.6536C5.96551 28.8088 10.5489 32.9813 18.4361 36.0995C27.2425 39.5817 38.9411 41.3156 51.3781 40.9823C63.8151 40.649 75.4097 38.2912 84.0277 34.3426C91.7461 30.8062 96.1121 26.3944 96.0073 22.2395C95.9056 18.2485 91.6727 14.2411 84.3498 11.1682L84.3506 11.1684Z" fill="#EDE760"/>
</svg>
